<?xml version="1.0" encoding="utf-8" standalone="no"?>
<!DOCTYPE svg PUBLIC "-//W3C//DTD SVG 1.1//EN"
  "http://www.w3.org/Graphics/SVG/1.1/DTD/svg11.dtd">
<svg xmlns:xlink="http://www.w3.org/1999/xlink" width="720pt" height="432pt" viewBox="0 0 720 432" xmlns="http://www.w3.org/2000/svg" version="1.1">
 <metadata>
  <rdf:RDF xmlns:dc="http://purl.org/dc/elements/1.1/" xmlns:cc="http://creativecommons.org/ns#" xmlns:rdf="http://www.w3.org/1999/02/22-rdf-syntax-ns#">
   <cc:Work>
    <dc:type rdf:resource="http://purl.org/dc/dcmitype/StillImage"/>
    <dc:date>2025-11-03T09:18:07.353694</dc:date>
    <dc:format>image/svg+xml</dc:format>
    <dc:creator>
     <cc:Agent>
      <dc:title>Matplotlib v3.10.7, https://matplotlib.org/</dc:title>
     </cc:Agent>
    </dc:creator>
   </cc:Work>
  </rdf:RDF>
 </metadata>
 <defs>
  <style type="text/css">*{stroke-linejoin: round; stroke-linecap: butt}</style>
 </defs>
 <g id="figure_1">
  <g id="patch_1">
   <path d="M 0 432 
L 720 432 
L 720 0 
L 0 0 
z
" style="fill: #ffffff"/>
  </g>
  <g id="axes_1">
   <g id="patch_2">
    <path d="M 90 384.48 
L 648 384.48 
L 648 51.84 
L 90 51.84 
z
" style="fill: #ffffff"/>
   </g>
   <g id="PathCollection_1">
    <defs>
     <path id="C0_0_f87ee9f8ad" d="M 0 5.477226 
C 1.452577 5.477226 2.845856 4.900111 3.872983 3.872983 
C 4.900111 2.845856 5.477226 1.452577 5.477226 -0 
C 5.477226 -1.452577 4.900111 -2.845856 3.872983 -3.872983 
C 2.845856 -4.900111 1.452577 -5.477226 0 -5.477226 
C -1.452577 -5.477226 -2.845856 -4.900111 -3.872983 -3.872983 
C -4.900111 -2.845856 -5.477226 -1.452577 -5.477226 0 
C -5.477226 1.452577 -4.900111 2.845856 -3.872983 3.872983 
C -2.845856 4.900111 -1.452577 5.477226 0 5.477226 
z
"/>
    </defs>
    <g clip-path="url(#pebd391bdff)">
     <use xlink:href="#C0_0_f87ee9f8ad" x="283.737581" y="167.1622" style="fill: #66c2a5; stroke: #ffffff; stroke-width: 0.876356"/>
    </g>
    <g clip-path="url(#pebd391bdff)">
     <use xlink:href="#C0_0_f87ee9f8ad" x="555.054048" y="162.283841" style="fill: #e78ac3; stroke: #ffffff; stroke-width: 0.876356"/>
    </g>
    <g clip-path="url(#pebd391bdff)">
     <use xlink:href="#C0_0_f87ee9f8ad" x="273.943507" y="196.604135" style="fill: #66c2a5; stroke: #ffffff; stroke-width: 0.876356"/>
    </g>
    <g clip-path="url(#pebd391bdff)">
     <use xlink:href="#C0_0_f87ee9f8ad" x="456.09022" y="170.354513" style="fill: #e78ac3; stroke: #ffffff; stroke-width: 0.876356"/>
    </g>
    <g clip-path="url(#pebd391bdff)">
     <use xlink:href="#C0_0_f87ee9f8ad" x="440.767201" y="169.504832" style="fill: #e78ac3; stroke: #ffffff; stroke-width: 0.876356"/>
    </g>
    <g clip-path="url(#pebd391bdff)">
     <use xlink:href="#C0_0_f87ee9f8ad" x="302.374326" y="166.354894" style="fill: #66c2a5; stroke: #ffffff; stroke-width: 0.876356"/>
    </g>
    <g clip-path="url(#pebd391bdff)">
     <use xlink:href="#C0_0_f87ee9f8ad" x="360.324248" y="159.548925" style="fill: #66c2a5; stroke: #ffffff; stroke-width: 0.876356"/>
    </g>
    <g clip-path="url(#pebd391bdff)">
     <use xlink:href="#C0_0_f87ee9f8ad" x="408.497029" y="146.442606" style="fill: #e78ac3; stroke: #ffffff; stroke-width: 0.876356"/>
    </g>
    <g clip-path="url(#pebd391bdff)">
     <use xlink:href="#C0_0_f87ee9f8ad" x="486.848505" y="288.772295" style="fill: #fc8d62; stroke: #ffffff; stroke-width: 0.876356"/>
    </g>
    <g clip-path="url(#pebd391bdff)">
     <use xlink:href="#C0_0_f87ee9f8ad" x="360.411008" y="115.683961" style="fill: #e78ac3; stroke: #ffffff; stroke-width: 0.876356"/>
    </g>
    <g clip-path="url(#pebd391bdff)">
     <use xlink:href="#C0_0_f87ee9f8ad" x="115.363636" y="234.13344" style="fill: #66c2a5; stroke: #ffffff; stroke-width: 0.876356"/>
    </g>
    <g clip-path="url(#pebd391bdff)">
     <use xlink:href="#C0_0_f87ee9f8ad" x="621.084885" y="66.96" style="fill: #8da0cb; stroke: #ffffff; stroke-width: 0.876356"/>
    </g>
    <g clip-path="url(#pebd391bdff)">
     <use xlink:href="#C0_0_f87ee9f8ad" x="444.864862" y="71.680027" style="fill: #e78ac3; stroke: #ffffff; stroke-width: 0.876356"/>
    </g>
    <g clip-path="url(#pebd391bdff)">
     <use xlink:href="#C0_0_f87ee9f8ad" x="322.639808" y="82.211702" style="fill: #e78ac3; stroke: #ffffff; stroke-width: 0.876356"/>
    </g>
    <g clip-path="url(#pebd391bdff)">
     <use xlink:href="#C0_0_f87ee9f8ad" x="434.434459" y="87.707186" style="fill: #e78ac3; stroke: #ffffff; stroke-width: 0.876356"/>
    </g>
    <g clip-path="url(#pebd391bdff)">
     <use xlink:href="#C0_0_f87ee9f8ad" x="325.128412" y="174.317843" style="fill: #66c2a5; stroke: #ffffff; stroke-width: 0.876356"/>
    </g>
    <g clip-path="url(#pebd391bdff)">
     <use xlink:href="#C0_0_f87ee9f8ad" x="317.627053" y="163.181905" style="fill: #e78ac3; stroke: #ffffff; stroke-width: 0.876356"/>
    </g>
    <g clip-path="url(#pebd391bdff)">
     <use xlink:href="#C0_0_f87ee9f8ad" x="367.415719" y="137.101968" style="fill: #e78ac3; stroke: #ffffff; stroke-width: 0.876356"/>
    </g>
    <g clip-path="url(#pebd391bdff)">
     <use xlink:href="#C0_0_f87ee9f8ad" x="593.574767" y="129.976376" style="fill: #8da0cb; stroke: #ffffff; stroke-width: 0.876356"/>
    </g>
    <g clip-path="url(#pebd391bdff)">
     <use xlink:href="#C0_0_f87ee9f8ad" x="319.615828" y="156.52319" style="fill: #66c2a5; stroke: #ffffff; stroke-width: 0.876356"/>
    </g>
    <g clip-path="url(#pebd391bdff)">
     <use xlink:href="#C0_0_f87ee9f8ad" x="622.636364" y="369.36" style="fill: #fc8d62; stroke: #ffffff; stroke-width: 0.876356"/>
    </g>
    <g clip-path="url(#pebd391bdff)">
     <use xlink:href="#C0_0_f87ee9f8ad" x="277.929877" y="176.383173" style="fill: #66c2a5; stroke: #ffffff; stroke-width: 0.876356"/>
    </g>
    <g clip-path="url(#pebd391bdff)">
     <use xlink:href="#C0_0_f87ee9f8ad" x="442.748987" y="144.406357" style="fill: #e78ac3; stroke: #ffffff; stroke-width: 0.876356"/>
    </g>
    <g clip-path="url(#pebd391bdff)">
     <use xlink:href="#C0_0_f87ee9f8ad" x="379.522045" y="226.271758" style="fill: #e78ac3; stroke: #ffffff; stroke-width: 0.876356"/>
    </g>
    <g clip-path="url(#pebd391bdff)">
     <use xlink:href="#C0_0_f87ee9f8ad" x="182.727269" y="182.881895" style="fill: #66c2a5; stroke: #ffffff; stroke-width: 0.876356"/>
    </g>
    <g clip-path="url(#pebd391bdff)">
     <use xlink:href="#C0_0_f87ee9f8ad" x="340.321236" y="205.065942" style="fill: #66c2a5; stroke: #ffffff; stroke-width: 0.876356"/>
    </g>
    <g clip-path="url(#pebd391bdff)">
     <use xlink:href="#C0_0_f87ee9f8ad" x="232.245616" y="164.976187" style="fill: #66c2a5; stroke: #ffffff; stroke-width: 0.876356"/>
    </g>
    <g clip-path="url(#pebd391bdff)">
     <use xlink:href="#C0_0_f87ee9f8ad" x="297.214086" y="168.22171" style="fill: #66c2a5; stroke: #ffffff; stroke-width: 0.876356"/>
    </g>
    <g clip-path="url(#pebd391bdff)">
     <use xlink:href="#C0_0_f87ee9f8ad" x="461.743353" y="194.963615" style="fill: #e78ac3; stroke: #ffffff; stroke-width: 0.876356"/>
    </g>
   </g>
   <g id="PathCollection_2">
    <defs>
     <path id="C1_0_97b6604ce2" d="M 0 5.477226 
C 1.452577 5.477226 2.845856 4.900111 3.872983 3.872983 
C 4.900111 2.845856 5.477226 1.452577 5.477226 -0 
C 5.477226 -1.452577 4.900111 -2.845856 3.872983 -3.872983 
C 2.845856 -4.900111 1.452577 -5.477226 0 -5.477226 
C -1.452577 -5.477226 -2.845856 -4.900111 -3.872983 -3.872983 
C -4.900111 -2.845856 -5.477226 -1.452577 -5.477226 0 
C -5.477226 1.452577 -4.900111 2.845856 -3.872983 3.872983 
C -2.845856 4.900111 -1.452577 5.477226 0 5.477226 
z
"/>
    </defs>
    <g clip-path="url(#pebd391bdff)">
     <use xlink:href="#C1_0_97b6604ce2" x="283.737581" y="167.1622" style="fill: #66c2a5; stroke: #000000; stroke-width: 1.5"/>
    </g>
    <g clip-path="url(#pebd391bdff)">
     <use xlink:href="#C1_0_97b6604ce2" x="555.054048" y="162.283841" style="fill: #8da0cb; stroke: #000000; stroke-width: 1.5"/>
    </g>
    <g clip-path="url(#pebd391bdff)">
     <use xlink:href="#C1_0_97b6604ce2" x="273.943507" y="196.604135" style="fill: #66c2a5; stroke: #000000; stroke-width: 1.5"/>
    </g>
    <g clip-path="url(#pebd391bdff)">
     <use xlink:href="#C1_0_97b6604ce2" x="456.09022" y="170.354513" style="fill: #8da0cb; stroke: #000000; stroke-width: 1.5"/>
    </g>
    <g clip-path="url(#pebd391bdff)">
     <use xlink:href="#C1_0_97b6604ce2" x="440.767201" y="169.504832" style="fill: #8da0cb; stroke: #000000; stroke-width: 1.5"/>
    </g>
    <g clip-path="url(#pebd391bdff)">
     <use xlink:href="#C1_0_97b6604ce2" x="302.374326" y="166.354894" style="fill: #66c2a5; stroke: #000000; stroke-width: 1.5"/>
    </g>
    <g clip-path="url(#pebd391bdff)">
     <use xlink:href="#C1_0_97b6604ce2" x="360.324248" y="159.548925" style="fill: #66c2a5; stroke: #000000; stroke-width: 1.5"/>
    </g>
    <g clip-path="url(#pebd391bdff)">
     <use xlink:href="#C1_0_97b6604ce2" x="408.497029" y="146.442606" style="fill: #8da0cb; stroke: #000000; stroke-width: 1.5"/>
    </g>
    <g clip-path="url(#pebd391bdff)">
     <use xlink:href="#C1_0_97b6604ce2" x="486.848505" y="288.772295" style="fill: #fc8d62; stroke: #000000; stroke-width: 1.5"/>
    </g>
    <g clip-path="url(#pebd391bdff)">
     <use xlink:href="#C1_0_97b6604ce2" x="360.411008" y="115.683961" style="fill: #8da0cb; stroke: #000000; stroke-width: 1.5"/>
    </g>
    <g clip-path="url(#pebd391bdff)">
     <use xlink:href="#C1_0_97b6604ce2" x="115.363636" y="234.13344" style="fill: #66c2a5; stroke: #000000; stroke-width: 1.5"/>
    </g>
   </g>
   <g id="matplotlib.axis_1">
    <g id="xtick_1">
     <g id="line2d_1">
      <path d="M 171.634857 384.48 
L 171.634857 51.84 
" clip-path="url(#pebd391bdff)" style="fill: none; stroke: #b0b0b0; stroke-width: 0.8; stroke-linecap: square"/>
     </g>
     <g id="line2d_2">
      <defs>
       <path id="ma4a77f6d2e" d="M 0 0 
L 0 3.5 
" style="stroke: #000000; stroke-width: 0.8"/>
      </defs>
      <g>
       <use xlink:href="#ma4a77f6d2e" x="171.634857" y="384.48" style="stroke: #000000; stroke-width: 0.8"/>
      </g>
     </g>
     <g id="text_1">
      <!-- −4 -->
      <g transform="translate(164.263764 399.078438) scale(0.1 -0.1)">
       <defs>
        <path id="DejaVuSans-2212" d="M 678 2272 
L 4684 2272 
L 4684 1741 
L 678 1741 
L 678 2272 
z
" transform="scale(0.015625)"/>
        <path id="DejaVuSans-34" d="M 2419 4116 
L 825 1625 
L 2419 1625 
L 2419 4116 
z
M 2253 4666 
L 3047 4666 
L 3047 1625 
L 3713 1625 
L 3713 1100 
L 3047 1100 
L 3047 0 
L 2419 0 
L 2419 1100 
L 313 1100 
L 313 1709 
L 2253 4666 
z
" transform="scale(0.015625)"/>
       </defs>
       <use xlink:href="#DejaVuSans-2212"/>
       <use xlink:href="#DejaVuSans-34" transform="translate(83.789062 0)"/>
      </g>
     </g>
    </g>
    <g id="xtick_2">
     <g id="line2d_3">
      <path d="M 275.936152 384.48 
L 275.936152 51.84 
" clip-path="url(#pebd391bdff)" style="fill: none; stroke: #b0b0b0; stroke-width: 0.8; stroke-linecap: square"/>
     </g>
     <g id="line2d_4">
      <g>
       <use xlink:href="#ma4a77f6d2e" x="275.936152" y="384.48" style="stroke: #000000; stroke-width: 0.8"/>
      </g>
     </g>
     <g id="text_2">
      <!-- −2 -->
      <g transform="translate(268.565058 399.078438) scale(0.1 -0.1)">
       <defs>
        <path id="DejaVuSans-32" d="M 1228 531 
L 3431 531 
L 3431 0 
L 469 0 
L 469 531 
Q 828 903 1448 1529 
Q 2069 2156 2228 2338 
Q 2531 2678 2651 2914 
Q 2772 3150 2772 3378 
Q 2772 3750 2511 3984 
Q 2250 4219 1831 4219 
Q 1534 4219 1204 4116 
Q 875 4013 500 3803 
L 500 4441 
Q 881 4594 1212 4672 
Q 1544 4750 1819 4750 
Q 2544 4750 2975 4387 
Q 3406 4025 3406 3419 
Q 3406 3131 3298 2873 
Q 3191 2616 2906 2266 
Q 2828 2175 2409 1742 
Q 1991 1309 1228 531 
z
" transform="scale(0.015625)"/>
       </defs>
       <use xlink:href="#DejaVuSans-2212"/>
       <use xlink:href="#DejaVuSans-32" transform="translate(83.789062 0)"/>
      </g>
     </g>
    </g>
    <g id="xtick_3">
     <g id="line2d_5">
      <path d="M 380.237446 384.48 
L 380.237446 51.84 
" clip-path="url(#pebd391bdff)" style="fill: none; stroke: #b0b0b0; stroke-width: 0.8; stroke-linecap: square"/>
     </g>
     <g id="line2d_6">
      <g>
       <use xlink:href="#ma4a77f6d2e" x="380.237446" y="384.48" style="stroke: #000000; stroke-width: 0.8"/>
      </g>
     </g>
     <g id="text_3">
      <!-- 0 -->
      <g transform="translate(377.056196 399.078438) scale(0.1 -0.1)">
       <defs>
        <path id="DejaVuSans-30" d="M 2034 4250 
Q 1547 4250 1301 3770 
Q 1056 3291 1056 2328 
Q 1056 1369 1301 889 
Q 1547 409 2034 409 
Q 2525 409 2770 889 
Q 3016 1369 3016 2328 
Q 3016 3291 2770 3770 
Q 2525 4250 2034 4250 
z
M 2034 4750 
Q 2819 4750 3233 4129 
Q 3647 3509 3647 2328 
Q 3647 1150 3233 529 
Q 2819 -91 2034 -91 
Q 1250 -91 836 529 
Q 422 1150 422 2328 
Q 422 3509 836 4129 
Q 1250 4750 2034 4750 
z
" transform="scale(0.015625)"/>
       </defs>
       <use xlink:href="#DejaVuSans-30"/>
      </g>
     </g>
    </g>
    <g id="xtick_4">
     <g id="line2d_7">
      <path d="M 484.53874 384.48 
L 484.53874 51.84 
" clip-path="url(#pebd391bdff)" style="fill: none; stroke: #b0b0b0; stroke-width: 0.8; stroke-linecap: square"/>
     </g>
     <g id="line2d_8">
      <g>
       <use xlink:href="#ma4a77f6d2e" x="484.53874" y="384.48" style="stroke: #000000; stroke-width: 0.8"/>
      </g>
     </g>
     <g id="text_4">
      <!-- 2 -->
      <g transform="translate(481.35749 399.078438) scale(0.1 -0.1)">
       <use xlink:href="#DejaVuSans-32"/>
      </g>
     </g>
    </g>
    <g id="xtick_5">
     <g id="line2d_9">
      <path d="M 588.840035 384.48 
L 588.840035 51.84 
" clip-path="url(#pebd391bdff)" style="fill: none; stroke: #b0b0b0; stroke-width: 0.8; stroke-linecap: square"/>
     </g>
     <g id="line2d_10">
      <g>
       <use xlink:href="#ma4a77f6d2e" x="588.840035" y="384.48" style="stroke: #000000; stroke-width: 0.8"/>
      </g>
     </g>
     <g id="text_5">
      <!-- 4 -->
      <g transform="translate(585.658785 399.078438) scale(0.1 -0.1)">
       <use xlink:href="#DejaVuSans-34"/>
      </g>
     </g>
    </g>
    <g id="text_6">
     <!-- Socioeconomic axis 1 -->
     <g transform="translate(315.070312 412.756563) scale(0.1 -0.1)">
      <defs>
       <path id="DejaVuSans-53" d="M 3425 4513 
L 3425 3897 
Q 3066 4069 2747 4153 
Q 2428 4238 2131 4238 
Q 1616 4238 1336 4038 
Q 1056 3838 1056 3469 
Q 1056 3159 1242 3001 
Q 1428 2844 1947 2747 
L 2328 2669 
Q 3034 2534 3370 2195 
Q 3706 1856 3706 1288 
Q 3706 609 3251 259 
Q 2797 -91 1919 -91 
Q 1588 -91 1214 -16 
Q 841 59 441 206 
L 441 856 
Q 825 641 1194 531 
Q 1563 422 1919 422 
Q 2459 422 2753 634 
Q 3047 847 3047 1241 
Q 3047 1584 2836 1778 
Q 2625 1972 2144 2069 
L 1759 2144 
Q 1053 2284 737 2584 
Q 422 2884 422 3419 
Q 422 4038 858 4394 
Q 1294 4750 2059 4750 
Q 2388 4750 2728 4690 
Q 3069 4631 3425 4513 
z
" transform="scale(0.015625)"/>
       <path id="DejaVuSans-6f" d="M 1959 3097 
Q 1497 3097 1228 2736 
Q 959 2375 959 1747 
Q 959 1119 1226 758 
Q 1494 397 1959 397 
Q 2419 397 2687 759 
Q 2956 1122 2956 1747 
Q 2956 2369 2687 2733 
Q 2419 3097 1959 3097 
z
M 1959 3584 
Q 2709 3584 3137 3096 
Q 3566 2609 3566 1747 
Q 3566 888 3137 398 
Q 2709 -91 1959 -91 
Q 1206 -91 779 398 
Q 353 888 353 1747 
Q 353 2609 779 3096 
Q 1206 3584 1959 3584 
z
" transform="scale(0.015625)"/>
       <path id="DejaVuSans-63" d="M 3122 3366 
L 3122 2828 
Q 2878 2963 2633 3030 
Q 2388 3097 2138 3097 
Q 1578 3097 1268 2742 
Q 959 2388 959 1747 
Q 959 1106 1268 751 
Q 1578 397 2138 397 
Q 2388 397 2633 464 
Q 2878 531 3122 666 
L 3122 134 
Q 2881 22 2623 -34 
Q 2366 -91 2075 -91 
Q 1284 -91 818 406 
Q 353 903 353 1747 
Q 353 2603 823 3093 
Q 1294 3584 2113 3584 
Q 2378 3584 2631 3529 
Q 2884 3475 3122 3366 
z
" transform="scale(0.015625)"/>
       <path id="DejaVuSans-69" d="M 603 3500 
L 1178 3500 
L 1178 0 
L 603 0 
L 603 3500 
z
M 603 4863 
L 1178 4863 
L 1178 4134 
L 603 4134 
L 603 4863 
z
" transform="scale(0.015625)"/>
       <path id="DejaVuSans-65" d="M 3597 1894 
L 3597 1613 
L 953 1613 
Q 991 1019 1311 708 
Q 1631 397 2203 397 
Q 2534 397 2845 478 
Q 3156 559 3463 722 
L 3463 178 
Q 3153 47 2828 -22 
Q 2503 -91 2169 -91 
Q 1331 -91 842 396 
Q 353 884 353 1716 
Q 353 2575 817 3079 
Q 1281 3584 2069 3584 
Q 2775 3584 3186 3129 
Q 3597 2675 3597 1894 
z
M 3022 2063 
Q 3016 2534 2758 2815 
Q 2500 3097 2075 3097 
Q 1594 3097 1305 2825 
Q 1016 2553 972 2059 
L 3022 2063 
z
" transform="scale(0.015625)"/>
       <path id="DejaVuSans-6e" d="M 3513 2113 
L 3513 0 
L 2938 0 
L 2938 2094 
Q 2938 2591 2744 2837 
Q 2550 3084 2163 3084 
Q 1697 3084 1428 2787 
Q 1159 2491 1159 1978 
L 1159 0 
L 581 0 
L 581 3500 
L 1159 3500 
L 1159 2956 
Q 1366 3272 1645 3428 
Q 1925 3584 2291 3584 
Q 2894 3584 3203 3211 
Q 3513 2838 3513 2113 
z
" transform="scale(0.015625)"/>
       <path id="DejaVuSans-6d" d="M 3328 2828 
Q 3544 3216 3844 3400 
Q 4144 3584 4550 3584 
Q 5097 3584 5394 3201 
Q 5691 2819 5691 2113 
L 5691 0 
L 5113 0 
L 5113 2094 
Q 5113 2597 4934 2840 
Q 4756 3084 4391 3084 
Q 3944 3084 3684 2787 
Q 3425 2491 3425 1978 
L 3425 0 
L 2847 0 
L 2847 2094 
Q 2847 2600 2669 2842 
Q 2491 3084 2119 3084 
Q 1678 3084 1418 2786 
Q 1159 2488 1159 1978 
L 1159 0 
L 581 0 
L 581 3500 
L 1159 3500 
L 1159 2956 
Q 1356 3278 1631 3431 
Q 1906 3584 2284 3584 
Q 2666 3584 2933 3390 
Q 3200 3197 3328 2828 
z
" transform="scale(0.015625)"/>
       <path id="DejaVuSans-20" transform="scale(0.015625)"/>
       <path id="DejaVuSans-61" d="M 2194 1759 
Q 1497 1759 1228 1600 
Q 959 1441 959 1056 
Q 959 750 1161 570 
Q 1363 391 1709 391 
Q 2188 391 2477 730 
Q 2766 1069 2766 1631 
L 2766 1759 
L 2194 1759 
z
M 3341 1997 
L 3341 0 
L 2766 0 
L 2766 531 
Q 2569 213 2275 61 
Q 1981 -91 1556 -91 
Q 1019 -91 701 211 
Q 384 513 384 1019 
Q 384 1609 779 1909 
Q 1175 2209 1959 2209 
L 2766 2209 
L 2766 2266 
Q 2766 2663 2505 2880 
Q 2244 3097 1772 3097 
Q 1472 3097 1187 3025 
Q 903 2953 641 2809 
L 641 3341 
Q 956 3463 1253 3523 
Q 1550 3584 1831 3584 
Q 2591 3584 2966 3190 
Q 3341 2797 3341 1997 
z
" transform="scale(0.015625)"/>
       <path id="DejaVuSans-78" d="M 3513 3500 
L 2247 1797 
L 3578 0 
L 2900 0 
L 1881 1375 
L 863 0 
L 184 0 
L 1544 1831 
L 300 3500 
L 978 3500 
L 1906 2253 
L 2834 3500 
L 3513 3500 
z
" transform="scale(0.015625)"/>
       <path id="DejaVuSans-73" d="M 2834 3397 
L 2834 2853 
Q 2591 2978 2328 3040 
Q 2066 3103 1784 3103 
Q 1356 3103 1142 2972 
Q 928 2841 928 2578 
Q 928 2378 1081 2264 
Q 1234 2150 1697 2047 
L 1894 2003 
Q 2506 1872 2764 1633 
Q 3022 1394 3022 966 
Q 3022 478 2636 193 
Q 2250 -91 1575 -91 
Q 1294 -91 989 -36 
Q 684 19 347 128 
L 347 722 
Q 666 556 975 473 
Q 1284 391 1588 391 
Q 1994 391 2212 530 
Q 2431 669 2431 922 
Q 2431 1156 2273 1281 
Q 2116 1406 1581 1522 
L 1381 1569 
Q 847 1681 609 1914 
Q 372 2147 372 2553 
Q 372 3047 722 3315 
Q 1072 3584 1716 3584 
Q 2034 3584 2315 3537 
Q 2597 3491 2834 3397 
z
" transform="scale(0.015625)"/>
       <path id="DejaVuSans-31" d="M 794 531 
L 1825 531 
L 1825 4091 
L 703 3866 
L 703 4441 
L 1819 4666 
L 2450 4666 
L 2450 531 
L 3481 531 
L 3481 0 
L 794 0 
L 794 531 
z
" transform="scale(0.015625)"/>
      </defs>
      <use xlink:href="#DejaVuSans-53"/>
      <use xlink:href="#DejaVuSans-6f" transform="translate(63.476562 0)"/>
      <use xlink:href="#DejaVuSans-63" transform="translate(124.658203 0)"/>
      <use xlink:href="#DejaVuSans-69" transform="translate(179.638672 0)"/>
      <use xlink:href="#DejaVuSans-6f" transform="translate(207.421875 0)"/>
      <use xlink:href="#DejaVuSans-65" transform="translate(268.603516 0)"/>
      <use xlink:href="#DejaVuSans-63" transform="translate(330.126953 0)"/>
      <use xlink:href="#DejaVuSans-6f" transform="translate(385.107422 0)"/>
      <use xlink:href="#DejaVuSans-6e" transform="translate(446.289062 0)"/>
      <use xlink:href="#DejaVuSans-6f" transform="translate(509.667969 0)"/>
      <use xlink:href="#DejaVuSans-6d" transform="translate(570.849609 0)"/>
      <use xlink:href="#DejaVuSans-69" transform="translate(668.261719 0)"/>
      <use xlink:href="#DejaVuSans-63" transform="translate(696.044922 0)"/>
      <use xlink:href="#DejaVuSans-20" transform="translate(751.025391 0)"/>
      <use xlink:href="#DejaVuSans-61" transform="translate(782.8125 0)"/>
      <use xlink:href="#DejaVuSans-78" transform="translate(844.091797 0)"/>
      <use xlink:href="#DejaVuSans-69" transform="translate(903.271484 0)"/>
      <use xlink:href="#DejaVuSans-73" transform="translate(931.054688 0)"/>
      <use xlink:href="#DejaVuSans-20" transform="translate(983.154297 0)"/>
      <use xlink:href="#DejaVuSans-31" transform="translate(1014.941406 0)"/>
     </g>
    </g>
   </g>
   <g id="matplotlib.axis_2">
    <g id="ytick_1">
     <g id="line2d_11">
      <path d="M 90 382.309546 
L 648 382.309546 
" clip-path="url(#pebd391bdff)" style="fill: none; stroke: #b0b0b0; stroke-width: 0.8; stroke-linecap: square"/>
     </g>
     <g id="line2d_12">
      <defs>
       <path id="me7d8529001" d="M 0 0 
L -3.5 0 
" style="stroke: #000000; stroke-width: 0.8"/>
      </defs>
      <g>
       <use xlink:href="#me7d8529001" x="90" y="382.309546" style="stroke: #000000; stroke-width: 0.8"/>
      </g>
     </g>
     <g id="text_7">
      <!-- −6 -->
      <g transform="translate(68.257812 386.108765) scale(0.1 -0.1)">
       <defs>
        <path id="DejaVuSans-36" d="M 2113 2584 
Q 1688 2584 1439 2293 
Q 1191 2003 1191 1497 
Q 1191 994 1439 701 
Q 1688 409 2113 409 
Q 2538 409 2786 701 
Q 3034 994 3034 1497 
Q 3034 2003 2786 2293 
Q 2538 2584 2113 2584 
z
M 3366 4563 
L 3366 3988 
Q 3128 4100 2886 4159 
Q 2644 4219 2406 4219 
Q 1781 4219 1451 3797 
Q 1122 3375 1075 2522 
Q 1259 2794 1537 2939 
Q 1816 3084 2150 3084 
Q 2853 3084 3261 2657 
Q 3669 2231 3669 1497 
Q 3669 778 3244 343 
Q 2819 -91 2113 -91 
Q 1303 -91 875 529 
Q 447 1150 447 2328 
Q 447 3434 972 4092 
Q 1497 4750 2381 4750 
Q 2619 4750 2861 4703 
Q 3103 4656 3366 4563 
z
" transform="scale(0.015625)"/>
       </defs>
       <use xlink:href="#DejaVuSans-2212"/>
       <use xlink:href="#DejaVuSans-36" transform="translate(83.789062 0)"/>
      </g>
     </g>
    </g>
    <g id="ytick_2">
     <g id="line2d_13">
      <path d="M 90 310.95391 
L 648 310.95391 
" clip-path="url(#pebd391bdff)" style="fill: none; stroke: #b0b0b0; stroke-width: 0.8; stroke-linecap: square"/>
     </g>
     <g id="line2d_14">
      <g>
       <use xlink:href="#me7d8529001" x="90" y="310.95391" style="stroke: #000000; stroke-width: 0.8"/>
      </g>
     </g>
     <g id="text_8">
      <!-- −4 -->
      <g transform="translate(68.257812 314.753129) scale(0.1 -0.1)">
       <use xlink:href="#DejaVuSans-2212"/>
       <use xlink:href="#DejaVuSans-34" transform="translate(83.789062 0)"/>
      </g>
     </g>
    </g>
    <g id="ytick_3">
     <g id="line2d_15">
      <path d="M 90 239.598274 
L 648 239.598274 
" clip-path="url(#pebd391bdff)" style="fill: none; stroke: #b0b0b0; stroke-width: 0.8; stroke-linecap: square"/>
     </g>
     <g id="line2d_16">
      <g>
       <use xlink:href="#me7d8529001" x="90" y="239.598274" style="stroke: #000000; stroke-width: 0.8"/>
      </g>
     </g>
     <g id="text_9">
      <!-- −2 -->
      <g transform="translate(68.257812 243.397492) scale(0.1 -0.1)">
       <use xlink:href="#DejaVuSans-2212"/>
       <use xlink:href="#DejaVuSans-32" transform="translate(83.789062 0)"/>
      </g>
     </g>
    </g>
    <g id="ytick_4">
     <g id="line2d_17">
      <path d="M 90 168.242637 
L 648 168.242637 
" clip-path="url(#pebd391bdff)" style="fill: none; stroke: #b0b0b0; stroke-width: 0.8; stroke-linecap: square"/>
     </g>
     <g id="line2d_18">
      <g>
       <use xlink:href="#me7d8529001" x="90" y="168.242637" style="stroke: #000000; stroke-width: 0.8"/>
      </g>
     </g>
     <g id="text_10">
      <!-- 0 -->
      <g transform="translate(76.6375 172.041856) scale(0.1 -0.1)">
       <use xlink:href="#DejaVuSans-30"/>
      </g>
     </g>
    </g>
    <g id="ytick_5">
     <g id="line2d_19">
      <path d="M 90 96.887001 
L 648 96.887001 
" clip-path="url(#pebd391bdff)" style="fill: none; stroke: #b0b0b0; stroke-width: 0.8; stroke-linecap: square"/>
     </g>
     <g id="line2d_20">
      <g>
       <use xlink:href="#me7d8529001" x="90" y="96.887001" style="stroke: #000000; stroke-width: 0.8"/>
      </g>
     </g>
     <g id="text_11">
      <!-- 2 -->
      <g transform="translate(76.6375 100.686219) scale(0.1 -0.1)">
       <use xlink:href="#DejaVuSans-32"/>
      </g>
     </g>
    </g>
    <g id="text_12">
     <!-- Socioeconomic axis 2 -->
     <g transform="translate(62.178125 272.089687) rotate(-90) scale(0.1 -0.1)">
      <use xlink:href="#DejaVuSans-53"/>
      <use xlink:href="#DejaVuSans-6f" transform="translate(63.476562 0)"/>
      <use xlink:href="#DejaVuSans-63" transform="translate(124.658203 0)"/>
      <use xlink:href="#DejaVuSans-69" transform="translate(179.638672 0)"/>
      <use xlink:href="#DejaVuSans-6f" transform="translate(207.421875 0)"/>
      <use xlink:href="#DejaVuSans-65" transform="translate(268.603516 0)"/>
      <use xlink:href="#DejaVuSans-63" transform="translate(330.126953 0)"/>
      <use xlink:href="#DejaVuSans-6f" transform="translate(385.107422 0)"/>
      <use xlink:href="#DejaVuSans-6e" transform="translate(446.289062 0)"/>
      <use xlink:href="#DejaVuSans-6f" transform="translate(509.667969 0)"/>
      <use xlink:href="#DejaVuSans-6d" transform="translate(570.849609 0)"/>
      <use xlink:href="#DejaVuSans-69" transform="translate(668.261719 0)"/>
      <use xlink:href="#DejaVuSans-63" transform="translate(696.044922 0)"/>
      <use xlink:href="#DejaVuSans-20" transform="translate(751.025391 0)"/>
      <use xlink:href="#DejaVuSans-61" transform="translate(782.8125 0)"/>
      <use xlink:href="#DejaVuSans-78" transform="translate(844.091797 0)"/>
      <use xlink:href="#DejaVuSans-69" transform="translate(903.271484 0)"/>
      <use xlink:href="#DejaVuSans-73" transform="translate(931.054688 0)"/>
      <use xlink:href="#DejaVuSans-20" transform="translate(983.154297 0)"/>
      <use xlink:href="#DejaVuSans-32" transform="translate(1014.941406 0)"/>
     </g>
    </g>
   </g>
   <g id="patch_3">
    <path d="M 90 384.48 
L 90 51.84 
" style="fill: none; stroke: #000000; stroke-width: 0.8; stroke-linejoin: miter; stroke-linecap: square"/>
   </g>
   <g id="patch_4">
    <path d="M 648 384.48 
L 648 51.84 
" style="fill: none; stroke: #000000; stroke-width: 0.8; stroke-linejoin: miter; stroke-linecap: square"/>
   </g>
   <g id="patch_5">
    <path d="M 90 384.48 
L 648 384.48 
" style="fill: none; stroke: #000000; stroke-width: 0.8; stroke-linejoin: miter; stroke-linecap: square"/>
   </g>
   <g id="patch_6">
    <path d="M 90 51.84 
L 648 51.84 
" style="fill: none; stroke: #000000; stroke-width: 0.8; stroke-linejoin: miter; stroke-linecap: square"/>
   </g>
   <g id="legend_1">
    <g id="patch_7">
     <path d="M 97 133.230625 
L 323.55 133.230625 
Q 325.55 133.230625 325.55 131.230625 
L 325.55 58.84 
Q 325.55 56.84 323.55 56.84 
L 97 56.84 
Q 95 56.84 95 58.84 
L 95 131.230625 
Q 95 133.230625 97 133.230625 
z
" style="fill: #ffffff; opacity: 0.8; stroke: #cccccc; stroke-linejoin: miter"/>
    </g>
    <g id="text_13">
     <!-- Socioeconomic profile -->
     <g transform="translate(155.341406 68.438437) scale(0.1 -0.1)">
      <defs>
       <path id="DejaVuSans-70" d="M 1159 525 
L 1159 -1331 
L 581 -1331 
L 581 3500 
L 1159 3500 
L 1159 2969 
Q 1341 3281 1617 3432 
Q 1894 3584 2278 3584 
Q 2916 3584 3314 3078 
Q 3713 2572 3713 1747 
Q 3713 922 3314 415 
Q 2916 -91 2278 -91 
Q 1894 -91 1617 61 
Q 1341 213 1159 525 
z
M 3116 1747 
Q 3116 2381 2855 2742 
Q 2594 3103 2138 3103 
Q 1681 3103 1420 2742 
Q 1159 2381 1159 1747 
Q 1159 1113 1420 752 
Q 1681 391 2138 391 
Q 2594 391 2855 752 
Q 3116 1113 3116 1747 
z
" transform="scale(0.015625)"/>
       <path id="DejaVuSans-72" d="M 2631 2963 
Q 2534 3019 2420 3045 
Q 2306 3072 2169 3072 
Q 1681 3072 1420 2755 
Q 1159 2438 1159 1844 
L 1159 0 
L 581 0 
L 581 3500 
L 1159 3500 
L 1159 2956 
Q 1341 3275 1631 3429 
Q 1922 3584 2338 3584 
Q 2397 3584 2469 3576 
Q 2541 3569 2628 3553 
L 2631 2963 
z
" transform="scale(0.015625)"/>
       <path id="DejaVuSans-66" d="M 2375 4863 
L 2375 4384 
L 1825 4384 
Q 1516 4384 1395 4259 
Q 1275 4134 1275 3809 
L 1275 3500 
L 2222 3500 
L 2222 3053 
L 1275 3053 
L 1275 0 
L 697 0 
L 697 3053 
L 147 3053 
L 147 3500 
L 697 3500 
L 697 3744 
Q 697 4328 969 4595 
Q 1241 4863 1831 4863 
L 2375 4863 
z
" transform="scale(0.015625)"/>
       <path id="DejaVuSans-6c" d="M 603 4863 
L 1178 4863 
L 1178 0 
L 603 0 
L 603 4863 
z
" transform="scale(0.015625)"/>
      </defs>
      <use xlink:href="#DejaVuSans-53"/>
      <use xlink:href="#DejaVuSans-6f" transform="translate(63.476562 0)"/>
      <use xlink:href="#DejaVuSans-63" transform="translate(124.658203 0)"/>
      <use xlink:href="#DejaVuSans-69" transform="translate(179.638672 0)"/>
      <use xlink:href="#DejaVuSans-6f" transform="translate(207.421875 0)"/>
      <use xlink:href="#DejaVuSans-65" transform="translate(268.603516 0)"/>
      <use xlink:href="#DejaVuSans-63" transform="translate(330.126953 0)"/>
      <use xlink:href="#DejaVuSans-6f" transform="translate(385.107422 0)"/>
      <use xlink:href="#DejaVuSans-6e" transform="translate(446.289062 0)"/>
      <use xlink:href="#DejaVuSans-6f" transform="translate(509.667969 0)"/>
      <use xlink:href="#DejaVuSans-6d" transform="translate(570.849609 0)"/>
      <use xlink:href="#DejaVuSans-69" transform="translate(668.261719 0)"/>
      <use xlink:href="#DejaVuSans-63" transform="translate(696.044922 0)"/>
      <use xlink:href="#DejaVuSans-20" transform="translate(751.025391 0)"/>
      <use xlink:href="#DejaVuSans-70" transform="translate(782.8125 0)"/>
      <use xlink:href="#DejaVuSans-72" transform="translate(846.289062 0)"/>
      <use xlink:href="#DejaVuSans-6f" transform="translate(885.152344 0)"/>
      <use xlink:href="#DejaVuSans-66" transform="translate(946.333984 0)"/>
      <use xlink:href="#DejaVuSans-69" transform="translate(981.539062 0)"/>
      <use xlink:href="#DejaVuSans-6c" transform="translate(1009.322266 0)"/>
      <use xlink:href="#DejaVuSans-65" transform="translate(1037.105469 0)"/>
     </g>
    </g>
    <g id="line2d_21">
     <path d="M 99 79.616562 
L 109 79.616562 
L 119 79.616562 
" style="fill: none; stroke: #ffffff; stroke-width: 1.5; stroke-linecap: square"/>
     <defs>
      <path id="m2f6634127c" d="M 0 5 
C 1.326016 5 2.597899 4.473168 3.535534 3.535534 
C 4.473168 2.597899 5 1.326016 5 0 
C 5 -1.326016 4.473168 -2.597899 3.535534 -3.535534 
C 2.597899 -4.473168 1.326016 -5 0 -5 
C -1.326016 -5 -2.597899 -4.473168 -3.535534 -3.535534 
C -4.473168 -2.597899 -5 -1.326016 -5 0 
C -5 1.326016 -4.473168 2.597899 -3.535534 3.535534 
C -2.597899 4.473168 -1.326016 5 0 5 
z
" style="stroke: #ffffff"/>
     </defs>
     <g>
      <use xlink:href="#m2f6634127c" x="109" y="79.616562" style="fill: #8dd3c7; stroke: #ffffff"/>
     </g>
    </g>
    <g id="text_14">
     <!-- Median household income -->
     <g transform="translate(127 83.116562) scale(0.1 -0.1)">
      <defs>
       <path id="DejaVuSans-4d" d="M 628 4666 
L 1569 4666 
L 2759 1491 
L 3956 4666 
L 4897 4666 
L 4897 0 
L 4281 0 
L 4281 4097 
L 3078 897 
L 2444 897 
L 1241 4097 
L 1241 0 
L 628 0 
L 628 4666 
z
" transform="scale(0.015625)"/>
       <path id="DejaVuSans-64" d="M 2906 2969 
L 2906 4863 
L 3481 4863 
L 3481 0 
L 2906 0 
L 2906 525 
Q 2725 213 2448 61 
Q 2172 -91 1784 -91 
Q 1150 -91 751 415 
Q 353 922 353 1747 
Q 353 2572 751 3078 
Q 1150 3584 1784 3584 
Q 2172 3584 2448 3432 
Q 2725 3281 2906 2969 
z
M 947 1747 
Q 947 1113 1208 752 
Q 1469 391 1925 391 
Q 2381 391 2643 752 
Q 2906 1113 2906 1747 
Q 2906 2381 2643 2742 
Q 2381 3103 1925 3103 
Q 1469 3103 1208 2742 
Q 947 2381 947 1747 
z
" transform="scale(0.015625)"/>
       <path id="DejaVuSans-68" d="M 3513 2113 
L 3513 0 
L 2938 0 
L 2938 2094 
Q 2938 2591 2744 2837 
Q 2550 3084 2163 3084 
Q 1697 3084 1428 2787 
Q 1159 2491 1159 1978 
L 1159 0 
L 581 0 
L 581 4863 
L 1159 4863 
L 1159 2956 
Q 1366 3272 1645 3428 
Q 1925 3584 2291 3584 
Q 2894 3584 3203 3211 
Q 3513 2838 3513 2113 
z
" transform="scale(0.015625)"/>
       <path id="DejaVuSans-75" d="M 544 1381 
L 544 3500 
L 1119 3500 
L 1119 1403 
Q 1119 906 1312 657 
Q 1506 409 1894 409 
Q 2359 409 2629 706 
Q 2900 1003 2900 1516 
L 2900 3500 
L 3475 3500 
L 3475 0 
L 2900 0 
L 2900 538 
Q 2691 219 2414 64 
Q 2138 -91 1772 -91 
Q 1169 -91 856 284 
Q 544 659 544 1381 
z
M 1991 3584 
L 1991 3584 
z
" transform="scale(0.015625)"/>
      </defs>
      <use xlink:href="#DejaVuSans-4d"/>
      <use xlink:href="#DejaVuSans-65" transform="translate(86.279297 0)"/>
      <use xlink:href="#DejaVuSans-64" transform="translate(147.802734 0)"/>
      <use xlink:href="#DejaVuSans-69" transform="translate(211.279297 0)"/>
      <use xlink:href="#DejaVuSans-61" transform="translate(239.0625 0)"/>
      <use xlink:href="#DejaVuSans-6e" transform="translate(300.341797 0)"/>
      <use xlink:href="#DejaVuSans-20" transform="translate(363.720703 0)"/>
      <use xlink:href="#DejaVuSans-68" transform="translate(395.507812 0)"/>
      <use xlink:href="#DejaVuSans-6f" transform="translate(458.886719 0)"/>
      <use xlink:href="#DejaVuSans-75" transform="translate(520.068359 0)"/>
      <use xlink:href="#DejaVuSans-73" transform="translate(583.447266 0)"/>
      <use xlink:href="#DejaVuSans-65" transform="translate(635.546875 0)"/>
      <use xlink:href="#DejaVuSans-68" transform="translate(697.070312 0)"/>
      <use xlink:href="#DejaVuSans-6f" transform="translate(760.449219 0)"/>
      <use xlink:href="#DejaVuSans-6c" transform="translate(821.630859 0)"/>
      <use xlink:href="#DejaVuSans-64" transform="translate(849.414062 0)"/>
      <use xlink:href="#DejaVuSans-20" transform="translate(912.890625 0)"/>
      <use xlink:href="#DejaVuSans-69" transform="translate(944.677734 0)"/>
      <use xlink:href="#DejaVuSans-6e" transform="translate(972.460938 0)"/>
      <use xlink:href="#DejaVuSans-63" transform="translate(1035.839844 0)"/>
      <use xlink:href="#DejaVuSans-6f" transform="translate(1090.820312 0)"/>
      <use xlink:href="#DejaVuSans-6d" transform="translate(1152.001953 0)"/>
      <use xlink:href="#DejaVuSans-65" transform="translate(1249.414062 0)"/>
     </g>
    </g>
    <g id="line2d_22">
     <path d="M 99 94.294688 
L 109 94.294688 
L 119 94.294688 
" style="fill: none; stroke: #ffffff; stroke-width: 1.5; stroke-linecap: square"/>
     <defs>
      <path id="m2c5104ae9c" d="M 0 5 
C 1.326016 5 2.597899 4.473168 3.535534 3.535534 
C 4.473168 2.597899 5 1.326016 5 0 
C 5 -1.326016 4.473168 -2.597899 3.535534 -3.535534 
C 2.597899 -4.473168 1.326016 -5 0 -5 
C -1.326016 -5 -2.597899 -4.473168 -3.535534 -3.535534 
C -4.473168 -2.597899 -5 -1.326016 -5 0 
C -5 1.326016 -4.473168 2.597899 -3.535534 3.535534 
C -2.597899 4.473168 -1.326016 5 0 5 
z
" style="stroke: #ffffff"/>
     </defs>
     <g>
      <use xlink:href="#m2c5104ae9c" x="109" y="94.294688" style="fill: #ffffb3; stroke: #ffffff"/>
     </g>
    </g>
    <g id="text_15">
     <!-- Population 25+ with Bachelor's degree -->
     <g transform="translate(127 97.794688) scale(0.1 -0.1)">
      <defs>
       <path id="DejaVuSans-50" d="M 1259 4147 
L 1259 2394 
L 2053 2394 
Q 2494 2394 2734 2622 
Q 2975 2850 2975 3272 
Q 2975 3691 2734 3919 
Q 2494 4147 2053 4147 
L 1259 4147 
z
M 628 4666 
L 2053 4666 
Q 2838 4666 3239 4311 
Q 3641 3956 3641 3272 
Q 3641 2581 3239 2228 
Q 2838 1875 2053 1875 
L 1259 1875 
L 1259 0 
L 628 0 
L 628 4666 
z
" transform="scale(0.015625)"/>
       <path id="DejaVuSans-74" d="M 1172 4494 
L 1172 3500 
L 2356 3500 
L 2356 3053 
L 1172 3053 
L 1172 1153 
Q 1172 725 1289 603 
Q 1406 481 1766 481 
L 2356 481 
L 2356 0 
L 1766 0 
Q 1100 0 847 248 
Q 594 497 594 1153 
L 594 3053 
L 172 3053 
L 172 3500 
L 594 3500 
L 594 4494 
L 1172 4494 
z
" transform="scale(0.015625)"/>
       <path id="DejaVuSans-35" d="M 691 4666 
L 3169 4666 
L 3169 4134 
L 1269 4134 
L 1269 2991 
Q 1406 3038 1543 3061 
Q 1681 3084 1819 3084 
Q 2600 3084 3056 2656 
Q 3513 2228 3513 1497 
Q 3513 744 3044 326 
Q 2575 -91 1722 -91 
Q 1428 -91 1123 -41 
Q 819 9 494 109 
L 494 744 
Q 775 591 1075 516 
Q 1375 441 1709 441 
Q 2250 441 2565 725 
Q 2881 1009 2881 1497 
Q 2881 1984 2565 2268 
Q 2250 2553 1709 2553 
Q 1456 2553 1204 2497 
Q 953 2441 691 2322 
L 691 4666 
z
" transform="scale(0.015625)"/>
       <path id="DejaVuSans-2b" d="M 2944 4013 
L 2944 2272 
L 4684 2272 
L 4684 1741 
L 2944 1741 
L 2944 0 
L 2419 0 
L 2419 1741 
L 678 1741 
L 678 2272 
L 2419 2272 
L 2419 4013 
L 2944 4013 
z
" transform="scale(0.015625)"/>
       <path id="DejaVuSans-77" d="M 269 3500 
L 844 3500 
L 1563 769 
L 2278 3500 
L 2956 3500 
L 3675 769 
L 4391 3500 
L 4966 3500 
L 4050 0 
L 3372 0 
L 2619 2869 
L 1863 0 
L 1184 0 
L 269 3500 
z
" transform="scale(0.015625)"/>
       <path id="DejaVuSans-42" d="M 1259 2228 
L 1259 519 
L 2272 519 
Q 2781 519 3026 730 
Q 3272 941 3272 1375 
Q 3272 1813 3026 2020 
Q 2781 2228 2272 2228 
L 1259 2228 
z
M 1259 4147 
L 1259 2741 
L 2194 2741 
Q 2656 2741 2882 2914 
Q 3109 3088 3109 3444 
Q 3109 3797 2882 3972 
Q 2656 4147 2194 4147 
L 1259 4147 
z
M 628 4666 
L 2241 4666 
Q 2963 4666 3353 4366 
Q 3744 4066 3744 3513 
Q 3744 3084 3544 2831 
Q 3344 2578 2956 2516 
Q 3422 2416 3680 2098 
Q 3938 1781 3938 1306 
Q 3938 681 3513 340 
Q 3088 0 2303 0 
L 628 0 
L 628 4666 
z
" transform="scale(0.015625)"/>
       <path id="DejaVuSans-27" d="M 1147 4666 
L 1147 2931 
L 616 2931 
L 616 4666 
L 1147 4666 
z
" transform="scale(0.015625)"/>
       <path id="DejaVuSans-67" d="M 2906 1791 
Q 2906 2416 2648 2759 
Q 2391 3103 1925 3103 
Q 1463 3103 1205 2759 
Q 947 2416 947 1791 
Q 947 1169 1205 825 
Q 1463 481 1925 481 
Q 2391 481 2648 825 
Q 2906 1169 2906 1791 
z
M 3481 434 
Q 3481 -459 3084 -895 
Q 2688 -1331 1869 -1331 
Q 1566 -1331 1297 -1286 
Q 1028 -1241 775 -1147 
L 775 -588 
Q 1028 -725 1275 -790 
Q 1522 -856 1778 -856 
Q 2344 -856 2625 -561 
Q 2906 -266 2906 331 
L 2906 616 
Q 2728 306 2450 153 
Q 2172 0 1784 0 
Q 1141 0 747 490 
Q 353 981 353 1791 
Q 353 2603 747 3093 
Q 1141 3584 1784 3584 
Q 2172 3584 2450 3431 
Q 2728 3278 2906 2969 
L 2906 3500 
L 3481 3500 
L 3481 434 
z
" transform="scale(0.015625)"/>
      </defs>
      <use xlink:href="#DejaVuSans-50"/>
      <use xlink:href="#DejaVuSans-6f" transform="translate(56.677734 0)"/>
      <use xlink:href="#DejaVuSans-70" transform="translate(117.859375 0)"/>
      <use xlink:href="#DejaVuSans-75" transform="translate(181.335938 0)"/>
      <use xlink:href="#DejaVuSans-6c" transform="translate(244.714844 0)"/>
      <use xlink:href="#DejaVuSans-61" transform="translate(272.498047 0)"/>
      <use xlink:href="#DejaVuSans-74" transform="translate(333.777344 0)"/>
      <use xlink:href="#DejaVuSans-69" transform="translate(372.986328 0)"/>
      <use xlink:href="#DejaVuSans-6f" transform="translate(400.769531 0)"/>
      <use xlink:href="#DejaVuSans-6e" transform="translate(461.951172 0)"/>
      <use xlink:href="#DejaVuSans-20" transform="translate(525.330078 0)"/>
      <use xlink:href="#DejaVuSans-32" transform="translate(557.117188 0)"/>
      <use xlink:href="#DejaVuSans-35" transform="translate(620.740234 0)"/>
      <use xlink:href="#DejaVuSans-2b" transform="translate(684.363281 0)"/>
      <use xlink:href="#DejaVuSans-20" transform="translate(768.152344 0)"/>
      <use xlink:href="#DejaVuSans-77" transform="translate(799.939453 0)"/>
      <use xlink:href="#DejaVuSans-69" transform="translate(881.726562 0)"/>
      <use xlink:href="#DejaVuSans-74" transform="translate(909.509766 0)"/>
      <use xlink:href="#DejaVuSans-68" transform="translate(948.71875 0)"/>
      <use xlink:href="#DejaVuSans-20" transform="translate(1012.097656 0)"/>
      <use xlink:href="#DejaVuSans-42" transform="translate(1043.884766 0)"/>
      <use xlink:href="#DejaVuSans-61" transform="translate(1112.488281 0)"/>
      <use xlink:href="#DejaVuSans-63" transform="translate(1173.767578 0)"/>
      <use xlink:href="#DejaVuSans-68" transform="translate(1228.748047 0)"/>
      <use xlink:href="#DejaVuSans-65" transform="translate(1292.126953 0)"/>
      <use xlink:href="#DejaVuSans-6c" transform="translate(1353.650391 0)"/>
      <use xlink:href="#DejaVuSans-6f" transform="translate(1381.433594 0)"/>
      <use xlink:href="#DejaVuSans-72" transform="translate(1442.615234 0)"/>
      <use xlink:href="#DejaVuSans-27" transform="translate(1483.728516 0)"/>
      <use xlink:href="#DejaVuSans-73" transform="translate(1511.21875 0)"/>
      <use xlink:href="#DejaVuSans-20" transform="translate(1563.318359 0)"/>
      <use xlink:href="#DejaVuSans-64" transform="translate(1595.105469 0)"/>
      <use xlink:href="#DejaVuSans-65" transform="translate(1658.582031 0)"/>
      <use xlink:href="#DejaVuSans-67" transform="translate(1720.105469 0)"/>
      <use xlink:href="#DejaVuSans-72" transform="translate(1783.582031 0)"/>
      <use xlink:href="#DejaVuSans-65" transform="translate(1822.445312 0)"/>
      <use xlink:href="#DejaVuSans-65" transform="translate(1883.96875 0)"/>
     </g>
    </g>
    <g id="line2d_23">
     <path d="M 99 108.972812 
L 109 108.972812 
L 119 108.972812 
" style="fill: none; stroke: #ffffff; stroke-width: 1.5; stroke-linecap: square"/>
     <defs>
      <path id="m662142fb75" d="M 0 5 
C 1.326016 5 2.597899 4.473168 3.535534 3.535534 
C 4.473168 2.597899 5 1.326016 5 0 
C 5 -1.326016 4.473168 -2.597899 3.535534 -3.535534 
C 2.597899 -4.473168 1.326016 -5 0 -5 
C -1.326016 -5 -2.597899 -4.473168 -3.535534 -3.535534 
C -4.473168 -2.597899 -5 -1.326016 -5 0 
C -5 1.326016 -4.473168 2.597899 -3.535534 3.535534 
C -2.597899 4.473168 -1.326016 5 0 5 
z
" style="stroke: #ffffff"/>
     </defs>
     <g>
      <use xlink:href="#m662142fb75" x="109" y="108.972812" style="fill: #bebada; stroke: #ffffff"/>
     </g>
    </g>
    <g id="text_16">
     <!-- Hispanic or Latino population -->
     <g transform="translate(127 112.472812) scale(0.1 -0.1)">
      <defs>
       <path id="DejaVuSans-48" d="M 628 4666 
L 1259 4666 
L 1259 2753 
L 3553 2753 
L 3553 4666 
L 4184 4666 
L 4184 0 
L 3553 0 
L 3553 2222 
L 1259 2222 
L 1259 0 
L 628 0 
L 628 4666 
z
" transform="scale(0.015625)"/>
       <path id="DejaVuSans-4c" d="M 628 4666 
L 1259 4666 
L 1259 531 
L 3531 531 
L 3531 0 
L 628 0 
L 628 4666 
z
" transform="scale(0.015625)"/>
      </defs>
      <use xlink:href="#DejaVuSans-48"/>
      <use xlink:href="#DejaVuSans-69" transform="translate(75.195312 0)"/>
      <use xlink:href="#DejaVuSans-73" transform="translate(102.978516 0)"/>
      <use xlink:href="#DejaVuSans-70" transform="translate(155.078125 0)"/>
      <use xlink:href="#DejaVuSans-61" transform="translate(218.554688 0)"/>
      <use xlink:href="#DejaVuSans-6e" transform="translate(279.833984 0)"/>
      <use xlink:href="#DejaVuSans-69" transform="translate(343.212891 0)"/>
      <use xlink:href="#DejaVuSans-63" transform="translate(370.996094 0)"/>
      <use xlink:href="#DejaVuSans-20" transform="translate(425.976562 0)"/>
      <use xlink:href="#DejaVuSans-6f" transform="translate(457.763672 0)"/>
      <use xlink:href="#DejaVuSans-72" transform="translate(518.945312 0)"/>
      <use xlink:href="#DejaVuSans-20" transform="translate(560.058594 0)"/>
      <use xlink:href="#DejaVuSans-4c" transform="translate(591.845703 0)"/>
      <use xlink:href="#DejaVuSans-61" transform="translate(647.558594 0)"/>
      <use xlink:href="#DejaVuSans-74" transform="translate(708.837891 0)"/>
      <use xlink:href="#DejaVuSans-69" transform="translate(748.046875 0)"/>
      <use xlink:href="#DejaVuSans-6e" transform="translate(775.830078 0)"/>
      <use xlink:href="#DejaVuSans-6f" transform="translate(839.208984 0)"/>
      <use xlink:href="#DejaVuSans-20" transform="translate(900.390625 0)"/>
      <use xlink:href="#DejaVuSans-70" transform="translate(932.177734 0)"/>
      <use xlink:href="#DejaVuSans-6f" transform="translate(995.654297 0)"/>
      <use xlink:href="#DejaVuSans-70" transform="translate(1056.835938 0)"/>
      <use xlink:href="#DejaVuSans-75" transform="translate(1120.3125 0)"/>
      <use xlink:href="#DejaVuSans-6c" transform="translate(1183.691406 0)"/>
      <use xlink:href="#DejaVuSans-61" transform="translate(1211.474609 0)"/>
      <use xlink:href="#DejaVuSans-74" transform="translate(1272.753906 0)"/>
      <use xlink:href="#DejaVuSans-69" transform="translate(1311.962891 0)"/>
      <use xlink:href="#DejaVuSans-6f" transform="translate(1339.746094 0)"/>
      <use xlink:href="#DejaVuSans-6e" transform="translate(1400.927734 0)"/>
     </g>
    </g>
    <g id="line2d_24">
     <path d="M 99 123.650937 
L 109 123.650937 
L 119 123.650937 
" style="fill: none; stroke: #ffffff; stroke-width: 1.5; stroke-linecap: square"/>
     <defs>
      <path id="m681d4b5e8e" d="M 0 5 
C 1.326016 5 2.597899 4.473168 3.535534 3.535534 
C 4.473168 2.597899 5 1.326016 5 0 
C 5 -1.326016 4.473168 -2.597899 3.535534 -3.535534 
C 2.597899 -4.473168 1.326016 -5 0 -5 
C -1.326016 -5 -2.597899 -4.473168 -3.535534 -3.535534 
C -4.473168 -2.597899 -5 -1.326016 -5 0 
C -5 1.326016 -4.473168 2.597899 -3.535534 3.535534 
C -2.597899 4.473168 -1.326016 5 0 5 
z
" style="stroke: #ffffff"/>
     </defs>
     <g>
      <use xlink:href="#m681d4b5e8e" x="109" y="123.650937" style="fill: #fb8072; stroke: #ffffff"/>
     </g>
    </g>
    <g id="text_17">
     <!-- Vacant housing units -->
     <g transform="translate(127 127.150937) scale(0.1 -0.1)">
      <defs>
       <path id="DejaVuSans-56" d="M 1831 0 
L 50 4666 
L 709 4666 
L 2188 738 
L 3669 4666 
L 4325 4666 
L 2547 0 
L 1831 0 
z
" transform="scale(0.015625)"/>
      </defs>
      <use xlink:href="#DejaVuSans-56"/>
      <use xlink:href="#DejaVuSans-61" transform="translate(60.658203 0)"/>
      <use xlink:href="#DejaVuSans-63" transform="translate(121.9375 0)"/>
      <use xlink:href="#DejaVuSans-61" transform="translate(176.917969 0)"/>
      <use xlink:href="#DejaVuSans-6e" transform="translate(238.197266 0)"/>
      <use xlink:href="#DejaVuSans-74" transform="translate(301.576172 0)"/>
      <use xlink:href="#DejaVuSans-20" transform="translate(340.785156 0)"/>
      <use xlink:href="#DejaVuSans-68" transform="translate(372.572266 0)"/>
      <use xlink:href="#DejaVuSans-6f" transform="translate(435.951172 0)"/>
      <use xlink:href="#DejaVuSans-75" transform="translate(497.132812 0)"/>
      <use xlink:href="#DejaVuSans-73" transform="translate(560.511719 0)"/>
      <use xlink:href="#DejaVuSans-69" transform="translate(612.611328 0)"/>
      <use xlink:href="#DejaVuSans-6e" transform="translate(640.394531 0)"/>
      <use xlink:href="#DejaVuSans-67" transform="translate(703.773438 0)"/>
      <use xlink:href="#DejaVuSans-20" transform="translate(767.25 0)"/>
      <use xlink:href="#DejaVuSans-75" transform="translate(799.037109 0)"/>
      <use xlink:href="#DejaVuSans-6e" transform="translate(862.416016 0)"/>
      <use xlink:href="#DejaVuSans-69" transform="translate(925.794922 0)"/>
      <use xlink:href="#DejaVuSans-74" transform="translate(953.578125 0)"/>
      <use xlink:href="#DejaVuSans-73" transform="translate(992.787109 0)"/>
     </g>
    </g>
   </g>
  </g>
  <g id="text_18">
   <!-- Block groups: Proposed alternative communities -->
   <g transform="translate(195.027187 17.758125) scale(0.12 -0.12)">
    <defs>
     <path id="DejaVuSans-Bold-42" d="M 2456 2859 
Q 2741 2859 2887 2984 
Q 3034 3109 3034 3353 
Q 3034 3594 2887 3720 
Q 2741 3847 2456 3847 
L 1791 3847 
L 1791 2859 
L 2456 2859 
z
M 2497 819 
Q 2859 819 3042 972 
Q 3225 1125 3225 1434 
Q 3225 1738 3044 1889 
Q 2863 2041 2497 2041 
L 1791 2041 
L 1791 819 
L 2497 819 
z
M 3616 2497 
Q 4003 2384 4215 2081 
Q 4428 1778 4428 1338 
Q 4428 663 3972 331 
Q 3516 0 2584 0 
L 588 0 
L 588 4666 
L 2394 4666 
Q 3366 4666 3802 4372 
Q 4238 4078 4238 3431 
Q 4238 3091 4078 2852 
Q 3919 2613 3616 2497 
z
" transform="scale(0.015625)"/>
     <path id="DejaVuSans-Bold-6c" d="M 538 4863 
L 1656 4863 
L 1656 0 
L 538 0 
L 538 4863 
z
" transform="scale(0.015625)"/>
     <path id="DejaVuSans-Bold-6f" d="M 2203 2784 
Q 1831 2784 1636 2517 
Q 1441 2250 1441 1747 
Q 1441 1244 1636 976 
Q 1831 709 2203 709 
Q 2569 709 2762 976 
Q 2956 1244 2956 1747 
Q 2956 2250 2762 2517 
Q 2569 2784 2203 2784 
z
M 2203 3584 
Q 3106 3584 3614 3096 
Q 4122 2609 4122 1747 
Q 4122 884 3614 396 
Q 3106 -91 2203 -91 
Q 1297 -91 786 396 
Q 275 884 275 1747 
Q 275 2609 786 3096 
Q 1297 3584 2203 3584 
z
" transform="scale(0.015625)"/>
     <path id="DejaVuSans-Bold-63" d="M 3366 3391 
L 3366 2478 
Q 3138 2634 2908 2709 
Q 2678 2784 2431 2784 
Q 1963 2784 1702 2511 
Q 1441 2238 1441 1747 
Q 1441 1256 1702 982 
Q 1963 709 2431 709 
Q 2694 709 2930 787 
Q 3166 866 3366 1019 
L 3366 103 
Q 3103 6 2833 -42 
Q 2563 -91 2291 -91 
Q 1344 -91 809 395 
Q 275 881 275 1747 
Q 275 2613 809 3098 
Q 1344 3584 2291 3584 
Q 2566 3584 2833 3536 
Q 3100 3488 3366 3391 
z
" transform="scale(0.015625)"/>
     <path id="DejaVuSans-Bold-6b" d="M 538 4863 
L 1656 4863 
L 1656 2216 
L 2944 3500 
L 4244 3500 
L 2534 1894 
L 4378 0 
L 3022 0 
L 1656 1459 
L 1656 0 
L 538 0 
L 538 4863 
z
" transform="scale(0.015625)"/>
     <path id="DejaVuSans-Bold-20" transform="scale(0.015625)"/>
     <path id="DejaVuSans-Bold-67" d="M 2919 594 
Q 2688 288 2409 144 
Q 2131 0 1766 0 
Q 1125 0 706 504 
Q 288 1009 288 1791 
Q 288 2575 706 3076 
Q 1125 3578 1766 3578 
Q 2131 3578 2409 3434 
Q 2688 3291 2919 2981 
L 2919 3500 
L 4044 3500 
L 4044 353 
Q 4044 -491 3511 -936 
Q 2978 -1381 1966 -1381 
Q 1638 -1381 1331 -1331 
Q 1025 -1281 716 -1178 
L 716 -306 
Q 1009 -475 1290 -558 
Q 1572 -641 1856 -641 
Q 2406 -641 2662 -400 
Q 2919 -159 2919 353 
L 2919 594 
z
M 2181 2772 
Q 1834 2772 1640 2515 
Q 1447 2259 1447 1791 
Q 1447 1309 1634 1061 
Q 1822 813 2181 813 
Q 2531 813 2725 1069 
Q 2919 1325 2919 1791 
Q 2919 2259 2725 2515 
Q 2531 2772 2181 2772 
z
" transform="scale(0.015625)"/>
     <path id="DejaVuSans-Bold-72" d="M 3138 2547 
Q 2991 2616 2845 2648 
Q 2700 2681 2553 2681 
Q 2122 2681 1889 2404 
Q 1656 2128 1656 1613 
L 1656 0 
L 538 0 
L 538 3500 
L 1656 3500 
L 1656 2925 
Q 1872 3269 2151 3426 
Q 2431 3584 2822 3584 
Q 2878 3584 2943 3579 
Q 3009 3575 3134 3559 
L 3138 2547 
z
" transform="scale(0.015625)"/>
     <path id="DejaVuSans-Bold-75" d="M 500 1363 
L 500 3500 
L 1625 3500 
L 1625 3150 
Q 1625 2866 1622 2436 
Q 1619 2006 1619 1863 
Q 1619 1441 1641 1255 
Q 1663 1069 1716 984 
Q 1784 875 1895 815 
Q 2006 756 2150 756 
Q 2500 756 2700 1025 
Q 2900 1294 2900 1772 
L 2900 3500 
L 4019 3500 
L 4019 0 
L 2900 0 
L 2900 506 
Q 2647 200 2364 54 
Q 2081 -91 1741 -91 
Q 1134 -91 817 281 
Q 500 653 500 1363 
z
" transform="scale(0.015625)"/>
     <path id="DejaVuSans-Bold-70" d="M 1656 506 
L 1656 -1331 
L 538 -1331 
L 538 3500 
L 1656 3500 
L 1656 2988 
Q 1888 3294 2169 3439 
Q 2450 3584 2816 3584 
Q 3463 3584 3878 3070 
Q 4294 2556 4294 1747 
Q 4294 938 3878 423 
Q 3463 -91 2816 -91 
Q 2450 -91 2169 54 
Q 1888 200 1656 506 
z
M 2400 2772 
Q 2041 2772 1848 2508 
Q 1656 2244 1656 1747 
Q 1656 1250 1848 986 
Q 2041 722 2400 722 
Q 2759 722 2948 984 
Q 3138 1247 3138 1747 
Q 3138 2247 2948 2509 
Q 2759 2772 2400 2772 
z
" transform="scale(0.015625)"/>
     <path id="DejaVuSans-Bold-73" d="M 3272 3391 
L 3272 2541 
Q 2913 2691 2578 2766 
Q 2244 2841 1947 2841 
Q 1628 2841 1473 2761 
Q 1319 2681 1319 2516 
Q 1319 2381 1436 2309 
Q 1553 2238 1856 2203 
L 2053 2175 
Q 2913 2066 3209 1816 
Q 3506 1566 3506 1031 
Q 3506 472 3093 190 
Q 2681 -91 1863 -91 
Q 1516 -91 1145 -36 
Q 775 19 384 128 
L 384 978 
Q 719 816 1070 734 
Q 1422 653 1784 653 
Q 2113 653 2278 743 
Q 2444 834 2444 1013 
Q 2444 1163 2330 1236 
Q 2216 1309 1875 1350 
L 1678 1375 
Q 931 1469 631 1722 
Q 331 1975 331 2491 
Q 331 3047 712 3315 
Q 1094 3584 1881 3584 
Q 2191 3584 2531 3537 
Q 2872 3491 3272 3391 
z
" transform="scale(0.015625)"/>
     <path id="DejaVuSans-Bold-3a" d="M 716 3500 
L 1844 3500 
L 1844 2291 
L 716 2291 
L 716 3500 
z
M 716 1209 
L 1844 1209 
L 1844 0 
L 716 0 
L 716 1209 
z
" transform="scale(0.015625)"/>
     <path id="DejaVuSans-Bold-50" d="M 588 4666 
L 2584 4666 
Q 3475 4666 3951 4270 
Q 4428 3875 4428 3144 
Q 4428 2409 3951 2014 
Q 3475 1619 2584 1619 
L 1791 1619 
L 1791 0 
L 588 0 
L 588 4666 
z
M 1791 3794 
L 1791 2491 
L 2456 2491 
Q 2806 2491 2997 2661 
Q 3188 2831 3188 3144 
Q 3188 3456 2997 3625 
Q 2806 3794 2456 3794 
L 1791 3794 
z
" transform="scale(0.015625)"/>
     <path id="DejaVuSans-Bold-65" d="M 4031 1759 
L 4031 1441 
L 1416 1441 
Q 1456 1047 1700 850 
Q 1944 653 2381 653 
Q 2734 653 3104 758 
Q 3475 863 3866 1075 
L 3866 213 
Q 3469 63 3072 -14 
Q 2675 -91 2278 -91 
Q 1328 -91 801 392 
Q 275 875 275 1747 
Q 275 2603 792 3093 
Q 1309 3584 2216 3584 
Q 3041 3584 3536 3087 
Q 4031 2591 4031 1759 
z
M 2881 2131 
Q 2881 2450 2695 2645 
Q 2509 2841 2209 2841 
Q 1884 2841 1681 2658 
Q 1478 2475 1428 2131 
L 2881 2131 
z
" transform="scale(0.015625)"/>
     <path id="DejaVuSans-Bold-64" d="M 2919 2988 
L 2919 4863 
L 4044 4863 
L 4044 0 
L 2919 0 
L 2919 506 
Q 2688 197 2409 53 
Q 2131 -91 1766 -91 
Q 1119 -91 703 423 
Q 288 938 288 1747 
Q 288 2556 703 3070 
Q 1119 3584 1766 3584 
Q 2128 3584 2408 3439 
Q 2688 3294 2919 2988 
z
M 2181 722 
Q 2541 722 2730 984 
Q 2919 1247 2919 1747 
Q 2919 2247 2730 2509 
Q 2541 2772 2181 2772 
Q 1825 2772 1636 2509 
Q 1447 2247 1447 1747 
Q 1447 1247 1636 984 
Q 1825 722 2181 722 
z
" transform="scale(0.015625)"/>
     <path id="DejaVuSans-Bold-61" d="M 2106 1575 
Q 1756 1575 1579 1456 
Q 1403 1338 1403 1106 
Q 1403 894 1545 773 
Q 1688 653 1941 653 
Q 2256 653 2472 879 
Q 2688 1106 2688 1447 
L 2688 1575 
L 2106 1575 
z
M 3816 1997 
L 3816 0 
L 2688 0 
L 2688 519 
Q 2463 200 2181 54 
Q 1900 -91 1497 -91 
Q 953 -91 614 226 
Q 275 544 275 1050 
Q 275 1666 698 1953 
Q 1122 2241 2028 2241 
L 2688 2241 
L 2688 2328 
Q 2688 2594 2478 2717 
Q 2269 2841 1825 2841 
Q 1466 2841 1156 2769 
Q 847 2697 581 2553 
L 581 3406 
Q 941 3494 1303 3539 
Q 1666 3584 2028 3584 
Q 2975 3584 3395 3211 
Q 3816 2838 3816 1997 
z
" transform="scale(0.015625)"/>
     <path id="DejaVuSans-Bold-74" d="M 1759 4494 
L 1759 3500 
L 2913 3500 
L 2913 2700 
L 1759 2700 
L 1759 1216 
Q 1759 972 1856 886 
Q 1953 800 2241 800 
L 2816 800 
L 2816 0 
L 1856 0 
Q 1194 0 917 276 
Q 641 553 641 1216 
L 641 2700 
L 84 2700 
L 84 3500 
L 641 3500 
L 641 4494 
L 1759 4494 
z
" transform="scale(0.015625)"/>
     <path id="DejaVuSans-Bold-6e" d="M 4056 2131 
L 4056 0 
L 2931 0 
L 2931 347 
L 2931 1631 
Q 2931 2084 2911 2256 
Q 2891 2428 2841 2509 
Q 2775 2619 2662 2680 
Q 2550 2741 2406 2741 
Q 2056 2741 1856 2470 
Q 1656 2200 1656 1722 
L 1656 0 
L 538 0 
L 538 3500 
L 1656 3500 
L 1656 2988 
Q 1909 3294 2193 3439 
Q 2478 3584 2822 3584 
Q 3428 3584 3742 3212 
Q 4056 2841 4056 2131 
z
" transform="scale(0.015625)"/>
     <path id="DejaVuSans-Bold-69" d="M 538 3500 
L 1656 3500 
L 1656 0 
L 538 0 
L 538 3500 
z
M 538 4863 
L 1656 4863 
L 1656 3950 
L 538 3950 
L 538 4863 
z
" transform="scale(0.015625)"/>
     <path id="DejaVuSans-Bold-76" d="M 97 3500 
L 1216 3500 
L 2088 1081 
L 2956 3500 
L 4078 3500 
L 2700 0 
L 1472 0 
L 97 3500 
z
" transform="scale(0.015625)"/>
     <path id="DejaVuSans-Bold-6d" d="M 3781 2919 
Q 3994 3244 4286 3414 
Q 4578 3584 4928 3584 
Q 5531 3584 5847 3212 
Q 6163 2841 6163 2131 
L 6163 0 
L 5038 0 
L 5038 1825 
Q 5041 1866 5042 1909 
Q 5044 1953 5044 2034 
Q 5044 2406 4934 2573 
Q 4825 2741 4581 2741 
Q 4263 2741 4089 2478 
Q 3916 2216 3909 1719 
L 3909 0 
L 2784 0 
L 2784 1825 
Q 2784 2406 2684 2573 
Q 2584 2741 2328 2741 
Q 2006 2741 1831 2477 
Q 1656 2213 1656 1722 
L 1656 0 
L 531 0 
L 531 3500 
L 1656 3500 
L 1656 2988 
Q 1863 3284 2130 3434 
Q 2397 3584 2719 3584 
Q 3081 3584 3359 3409 
Q 3638 3234 3781 2919 
z
" transform="scale(0.015625)"/>
    </defs>
    <use xlink:href="#DejaVuSans-Bold-42"/>
    <use xlink:href="#DejaVuSans-Bold-6c" transform="translate(76.220703 0)"/>
    <use xlink:href="#DejaVuSans-Bold-6f" transform="translate(110.498047 0)"/>
    <use xlink:href="#DejaVuSans-Bold-63" transform="translate(179.199219 0)"/>
    <use xlink:href="#DejaVuSans-Bold-6b" transform="translate(238.476562 0)"/>
    <use xlink:href="#DejaVuSans-Bold-20" transform="translate(304.980469 0)"/>
    <use xlink:href="#DejaVuSans-Bold-67" transform="translate(339.794922 0)"/>
    <use xlink:href="#DejaVuSans-Bold-72" transform="translate(411.376953 0)"/>
    <use xlink:href="#DejaVuSans-Bold-6f" transform="translate(460.693359 0)"/>
    <use xlink:href="#DejaVuSans-Bold-75" transform="translate(529.394531 0)"/>
    <use xlink:href="#DejaVuSans-Bold-70" transform="translate(600.585938 0)"/>
    <use xlink:href="#DejaVuSans-Bold-73" transform="translate(672.167969 0)"/>
    <use xlink:href="#DejaVuSans-Bold-3a" transform="translate(731.689453 0)"/>
    <use xlink:href="#DejaVuSans-Bold-20" transform="translate(771.679688 0)"/>
    <use xlink:href="#DejaVuSans-Bold-50" transform="translate(806.494141 0)"/>
    <use xlink:href="#DejaVuSans-Bold-72" transform="translate(879.785156 0)"/>
    <use xlink:href="#DejaVuSans-Bold-6f" transform="translate(929.101562 0)"/>
    <use xlink:href="#DejaVuSans-Bold-70" transform="translate(997.802734 0)"/>
    <use xlink:href="#DejaVuSans-Bold-6f" transform="translate(1069.384766 0)"/>
    <use xlink:href="#DejaVuSans-Bold-73" transform="translate(1138.085938 0)"/>
    <use xlink:href="#DejaVuSans-Bold-65" transform="translate(1197.607422 0)"/>
    <use xlink:href="#DejaVuSans-Bold-64" transform="translate(1265.429688 0)"/>
    <use xlink:href="#DejaVuSans-Bold-20" transform="translate(1337.011719 0)"/>
    <use xlink:href="#DejaVuSans-Bold-61" transform="translate(1371.826172 0)"/>
    <use xlink:href="#DejaVuSans-Bold-6c" transform="translate(1439.306641 0)"/>
    <use xlink:href="#DejaVuSans-Bold-74" transform="translate(1473.583984 0)"/>
    <use xlink:href="#DejaVuSans-Bold-65" transform="translate(1521.386719 0)"/>
    <use xlink:href="#DejaVuSans-Bold-72" transform="translate(1589.208984 0)"/>
    <use xlink:href="#DejaVuSans-Bold-6e" transform="translate(1638.525391 0)"/>
    <use xlink:href="#DejaVuSans-Bold-61" transform="translate(1709.716797 0)"/>
    <use xlink:href="#DejaVuSans-Bold-74" transform="translate(1777.197266 0)"/>
    <use xlink:href="#DejaVuSans-Bold-69" transform="translate(1825 0)"/>
    <use xlink:href="#DejaVuSans-Bold-76" transform="translate(1859.277344 0)"/>
    <use xlink:href="#DejaVuSans-Bold-65" transform="translate(1924.462891 0)"/>
    <use xlink:href="#DejaVuSans-Bold-20" transform="translate(1992.285156 0)"/>
    <use xlink:href="#DejaVuSans-Bold-63" transform="translate(2027.099609 0)"/>
    <use xlink:href="#DejaVuSans-Bold-6f" transform="translate(2086.376953 0)"/>
    <use xlink:href="#DejaVuSans-Bold-6d" transform="translate(2155.078125 0)"/>
    <use xlink:href="#DejaVuSans-Bold-6d" transform="translate(2259.277344 0)"/>
    <use xlink:href="#DejaVuSans-Bold-75" transform="translate(2363.476562 0)"/>
    <use xlink:href="#DejaVuSans-Bold-6e" transform="translate(2434.667969 0)"/>
    <use xlink:href="#DejaVuSans-Bold-69" transform="translate(2505.859375 0)"/>
    <use xlink:href="#DejaVuSans-Bold-74" transform="translate(2540.136719 0)"/>
    <use xlink:href="#DejaVuSans-Bold-69" transform="translate(2587.939453 0)"/>
    <use xlink:href="#DejaVuSans-Bold-65" transform="translate(2622.216797 0)"/>
    <use xlink:href="#DejaVuSans-Bold-73" transform="translate(2690.039062 0)"/>
   </g>
  </g>
 </g>
 <defs>
  <clipPath id="pebd391bdff">
   <rect x="90" y="51.84" width="558" height="332.64"/>
  </clipPath>
 </defs>
</svg>
