<?xml version="1.0" encoding="utf-8" standalone="no"?>
<!DOCTYPE svg PUBLIC "-//W3C//DTD SVG 1.1//EN"
  "http://www.w3.org/Graphics/SVG/1.1/DTD/svg11.dtd">
<svg xmlns:xlink="http://www.w3.org/1999/xlink" width="720pt" height="432pt" viewBox="0 0 720 432" xmlns="http://www.w3.org/2000/svg" version="1.1">
 <metadata>
  <rdf:RDF xmlns:dc="http://purl.org/dc/elements/1.1/" xmlns:cc="http://creativecommons.org/ns#" xmlns:rdf="http://www.w3.org/1999/02/22-rdf-syntax-ns#">
   <cc:Work>
    <dc:type rdf:resource="http://purl.org/dc/dcmitype/StillImage"/>
    <dc:date>2025-11-03T08:21:26.085820</dc:date>
    <dc:format>image/svg+xml</dc:format>
    <dc:creator>
     <cc:Agent>
      <dc:title>Matplotlib v3.10.7, https://matplotlib.org/</dc:title>
     </cc:Agent>
    </dc:creator>
   </cc:Work>
  </rdf:RDF>
 </metadata>
 <defs>
  <style type="text/css">*{stroke-linejoin: round; stroke-linecap: butt}</style>
 </defs>
 <g id="figure_1">
  <g id="patch_1">
   <path d="M 0 432 
L 720 432 
L 720 0 
L 0 0 
z
" style="fill: #ffffff"/>
  </g>
  <g id="axes_1">
   <g id="patch_2">
    <path d="M 90 384.48 
L 648 384.48 
L 648 51.84 
L 90 51.84 
z
" style="fill: #ffffff"/>
   </g>
   <g id="PathCollection_1">
    <path d="M 281.237581 172.1622 
L 283.737581 169.6622 
L 286.237581 172.1622 
L 288.737581 169.6622 
L 286.237581 167.1622 
L 288.737581 164.6622 
L 286.237581 162.1622 
L 283.737581 164.6622 
L 281.237581 162.1622 
L 278.737581 164.6622 
L 281.237581 167.1622 
L 278.737581 169.6622 
z
" clip-path="url(#p44803c9e20)" style="fill: #377eb8; stroke: #ffffff; stroke-width: 0.8"/>
    <path d="M 552.554048 167.283841 
L 555.054048 164.783841 
L 557.554048 167.283841 
L 560.054048 164.783841 
L 557.554048 162.283841 
L 560.054048 159.783841 
L 557.554048 157.283841 
L 555.054048 159.783841 
L 552.554048 157.283841 
L 550.054048 159.783841 
L 552.554048 162.283841 
L 550.054048 164.783841 
z
" clip-path="url(#p44803c9e20)" style="fill: #377eb8; stroke: #ffffff; stroke-width: 0.8"/>
    <path d="M 271.443507 201.604135 
L 273.943507 199.104135 
L 276.443507 201.604135 
L 278.943507 199.104135 
L 276.443507 196.604135 
L 278.943507 194.104135 
L 276.443507 191.604135 
L 273.943507 194.104135 
L 271.443507 191.604135 
L 268.943507 194.104135 
L 271.443507 196.604135 
L 268.943507 199.104135 
z
" clip-path="url(#p44803c9e20)" style="fill: #377eb8; stroke: #ffffff; stroke-width: 0.8"/>
    <path d="M 453.59022 175.354513 
L 456.09022 172.854513 
L 458.59022 175.354513 
L 461.09022 172.854513 
L 458.59022 170.354513 
L 461.09022 167.854513 
L 458.59022 165.354513 
L 456.09022 167.854513 
L 453.59022 165.354513 
L 451.09022 167.854513 
L 453.59022 170.354513 
L 451.09022 172.854513 
z
" clip-path="url(#p44803c9e20)" style="fill: #377eb8; stroke: #ffffff; stroke-width: 0.8"/>
    <path d="M 438.267201 174.504832 
L 440.767201 172.004832 
L 443.267201 174.504832 
L 445.767201 172.004832 
L 443.267201 169.504832 
L 445.767201 167.004832 
L 443.267201 164.504832 
L 440.767201 167.004832 
L 438.267201 164.504832 
L 435.767201 167.004832 
L 438.267201 169.504832 
L 435.767201 172.004832 
z
" clip-path="url(#p44803c9e20)" style="fill: #377eb8; stroke: #ffffff; stroke-width: 0.8"/>
    <path d="M 299.874326 171.354894 
L 302.374326 168.854894 
L 304.874326 171.354894 
L 307.374326 168.854894 
L 304.874326 166.354894 
L 307.374326 163.854894 
L 304.874326 161.354894 
L 302.374326 163.854894 
L 299.874326 161.354894 
L 297.374326 163.854894 
L 299.874326 166.354894 
L 297.374326 168.854894 
z
" clip-path="url(#p44803c9e20)" style="fill: #377eb8; stroke: #ffffff; stroke-width: 0.8"/>
    <path d="M 357.824248 164.548925 
L 360.324248 162.048925 
L 362.824248 164.548925 
L 365.324248 162.048925 
L 362.824248 159.548925 
L 365.324248 157.048925 
L 362.824248 154.548925 
L 360.324248 157.048925 
L 357.824248 154.548925 
L 355.324248 157.048925 
L 357.824248 159.548925 
L 355.324248 162.048925 
z
" clip-path="url(#p44803c9e20)" style="fill: #377eb8; stroke: #ffffff; stroke-width: 0.8"/>
    <path d="M 405.997029 151.442606 
L 408.497029 148.942606 
L 410.997029 151.442606 
L 413.497029 148.942606 
L 410.997029 146.442606 
L 413.497029 143.942606 
L 410.997029 141.442606 
L 408.497029 143.942606 
L 405.997029 141.442606 
L 403.497029 143.942606 
L 405.997029 146.442606 
L 403.497029 148.942606 
z
" clip-path="url(#p44803c9e20)" style="fill: #377eb8; stroke: #ffffff; stroke-width: 0.8"/>
    <path d="M 484.348505 293.772295 
L 486.848505 291.272295 
L 489.348505 293.772295 
L 491.848505 291.272295 
L 489.348505 288.772295 
L 491.848505 286.272295 
L 489.348505 283.772295 
L 486.848505 286.272295 
L 484.348505 283.772295 
L 481.848505 286.272295 
L 484.348505 288.772295 
L 481.848505 291.272295 
z
" clip-path="url(#p44803c9e20)" style="fill: #377eb8; stroke: #ffffff; stroke-width: 0.8"/>
    <path d="M 357.911008 120.683961 
L 360.411008 118.183961 
L 362.911008 120.683961 
L 365.411008 118.183961 
L 362.911008 115.683961 
L 365.411008 113.183961 
L 362.911008 110.683961 
L 360.411008 113.183961 
L 357.911008 110.683961 
L 355.411008 113.183961 
L 357.911008 115.683961 
L 355.411008 118.183961 
z
" clip-path="url(#p44803c9e20)" style="fill: #377eb8; stroke: #ffffff; stroke-width: 0.8"/>
    <path d="M 112.863636 239.13344 
L 115.363636 236.63344 
L 117.863636 239.13344 
L 120.363636 236.63344 
L 117.863636 234.13344 
L 120.363636 231.63344 
L 117.863636 229.13344 
L 115.363636 231.63344 
L 112.863636 229.13344 
L 110.363636 231.63344 
L 112.863636 234.13344 
L 110.363636 236.63344 
z
" clip-path="url(#p44803c9e20)" style="fill: #377eb8; stroke: #ffffff; stroke-width: 0.8"/>
    <path d="M 621.084885 71.96 
C 622.4109 71.96 623.682784 71.433168 624.620418 70.495534 
C 625.558053 69.557899 626.084885 68.286015 626.084885 66.96 
C 626.084885 65.633984 625.558053 64.362101 624.620418 63.424466 
C 623.682784 62.486832 622.4109 61.96 621.084885 61.96 
C 619.758869 61.96 618.486985 62.486832 617.549351 63.424466 
C 616.611716 64.362101 616.084885 65.633984 616.084885 66.96 
C 616.084885 68.286015 616.611716 69.557899 617.549351 70.495534 
C 618.486985 71.433168 619.758869 71.96 621.084885 71.96 
z
" clip-path="url(#p44803c9e20)" style="fill: #e41a1c; stroke: #ffffff; stroke-width: 0.8"/>
    <path d="M 444.864862 76.680027 
C 446.190877 76.680027 447.462761 76.153196 448.400396 75.215561 
C 449.33803 74.277926 449.864862 73.006043 449.864862 71.680027 
C 449.864862 70.354012 449.33803 69.082128 448.400396 68.144493 
C 447.462761 67.206859 446.190877 66.680027 444.864862 66.680027 
C 443.538846 66.680027 442.266962 67.206859 441.329328 68.144493 
C 440.391693 69.082128 439.864862 70.354012 439.864862 71.680027 
C 439.864862 73.006043 440.391693 74.277926 441.329328 75.215561 
C 442.266962 76.153196 443.538846 76.680027 444.864862 76.680027 
z
" clip-path="url(#p44803c9e20)" style="fill: #e41a1c; stroke: #ffffff; stroke-width: 0.8"/>
    <path d="M 322.639808 87.211702 
C 323.965824 87.211702 325.237708 86.68487 326.175342 85.747236 
C 327.112977 84.809601 327.639808 83.537717 327.639808 82.211702 
C 327.639808 80.885686 327.112977 79.613803 326.175342 78.676168 
C 325.237708 77.738534 323.965824 77.211702 322.639808 77.211702 
C 321.313793 77.211702 320.041909 77.738534 319.104275 78.676168 
C 318.16664 79.613803 317.639808 80.885686 317.639808 82.211702 
C 317.639808 83.537717 318.16664 84.809601 319.104275 85.747236 
C 320.041909 86.68487 321.313793 87.211702 322.639808 87.211702 
z
" clip-path="url(#p44803c9e20)" style="fill: #e41a1c; stroke: #ffffff; stroke-width: 0.8"/>
    <path d="M 434.434459 92.707186 
C 435.760475 92.707186 437.032358 92.180354 437.969993 91.24272 
C 438.907628 90.305085 439.434459 89.033201 439.434459 87.707186 
C 439.434459 86.38117 438.907628 85.109287 437.969993 84.171652 
C 437.032358 83.234018 435.760475 82.707186 434.434459 82.707186 
C 433.108444 82.707186 431.83656 83.234018 430.898925 84.171652 
C 429.961291 85.109287 429.434459 86.38117 429.434459 87.707186 
C 429.434459 89.033201 429.961291 90.305085 430.898925 91.24272 
C 431.83656 92.180354 433.108444 92.707186 434.434459 92.707186 
z
" clip-path="url(#p44803c9e20)" style="fill: #e41a1c; stroke: #ffffff; stroke-width: 0.8"/>
    <path d="M 325.128412 179.317843 
C 326.454428 179.317843 327.726311 178.791012 328.663946 177.853377 
C 329.60158 176.915743 330.128412 175.643859 330.128412 174.317843 
C 330.128412 172.991828 329.60158 171.719944 328.663946 170.782309 
C 327.726311 169.844675 326.454428 169.317843 325.128412 169.317843 
C 323.802397 169.317843 322.530513 169.844675 321.592878 170.782309 
C 320.655244 171.719944 320.128412 172.991828 320.128412 174.317843 
C 320.128412 175.643859 320.655244 176.915743 321.592878 177.853377 
C 322.530513 178.791012 323.802397 179.317843 325.128412 179.317843 
z
" clip-path="url(#p44803c9e20)" style="fill: #e41a1c; stroke: #ffffff; stroke-width: 0.8"/>
    <path d="M 317.627053 168.181905 
C 318.953068 168.181905 320.224952 167.655074 321.162587 166.717439 
C 322.100221 165.779804 322.627053 164.507921 322.627053 163.181905 
C 322.627053 161.85589 322.100221 160.584006 321.162587 159.646371 
C 320.224952 158.708737 318.953068 158.181905 317.627053 158.181905 
C 316.301037 158.181905 315.029154 158.708737 314.091519 159.646371 
C 313.153884 160.584006 312.627053 161.85589 312.627053 163.181905 
C 312.627053 164.507921 313.153884 165.779804 314.091519 166.717439 
C 315.029154 167.655074 316.301037 168.181905 317.627053 168.181905 
z
" clip-path="url(#p44803c9e20)" style="fill: #e41a1c; stroke: #ffffff; stroke-width: 0.8"/>
    <path d="M 367.415719 142.101968 
C 368.741735 142.101968 370.013619 141.575136 370.951253 140.637502 
C 371.888888 139.699867 372.415719 138.427983 372.415719 137.101968 
C 372.415719 135.775952 371.888888 134.504068 370.951253 133.566434 
C 370.013619 132.628799 368.741735 132.101968 367.415719 132.101968 
C 366.089704 132.101968 364.81782 132.628799 363.880186 133.566434 
C 362.942551 134.504068 362.415719 135.775952 362.415719 137.101968 
C 362.415719 138.427983 362.942551 139.699867 363.880186 140.637502 
C 364.81782 141.575136 366.089704 142.101968 367.415719 142.101968 
z
" clip-path="url(#p44803c9e20)" style="fill: #e41a1c; stroke: #ffffff; stroke-width: 0.8"/>
    <path d="M 593.574767 134.976376 
C 594.900783 134.976376 596.172666 134.449544 597.110301 133.51191 
C 598.047936 132.574275 598.574767 131.302391 598.574767 129.976376 
C 598.574767 128.65036 598.047936 127.378476 597.110301 126.440842 
C 596.172666 125.503207 594.900783 124.976376 593.574767 124.976376 
C 592.248752 124.976376 590.976868 125.503207 590.039233 126.440842 
C 589.101599 127.378476 588.574767 128.65036 588.574767 129.976376 
C 588.574767 131.302391 589.101599 132.574275 590.039233 133.51191 
C 590.976868 134.449544 592.248752 134.976376 593.574767 134.976376 
z
" clip-path="url(#p44803c9e20)" style="fill: #e41a1c; stroke: #ffffff; stroke-width: 0.8"/>
    <path d="M 319.615828 161.52319 
C 320.941843 161.52319 322.213727 160.996359 323.151362 160.058724 
C 324.088996 159.12109 324.615828 157.849206 324.615828 156.52319 
C 324.615828 155.197175 324.088996 153.925291 323.151362 152.987656 
C 322.213727 152.050022 320.941843 151.52319 319.615828 151.52319 
C 318.289812 151.52319 317.017928 152.050022 316.080294 152.987656 
C 315.142659 153.925291 314.615828 155.197175 314.615828 156.52319 
C 314.615828 157.849206 315.142659 159.12109 316.080294 160.058724 
C 317.017928 160.996359 318.289812 161.52319 319.615828 161.52319 
z
" clip-path="url(#p44803c9e20)" style="fill: #e41a1c; stroke: #ffffff; stroke-width: 0.8"/>
    <path d="M 622.636364 374.36 
C 623.962379 374.36 625.234263 373.833168 626.171898 372.895534 
C 627.109532 371.957899 627.636364 370.686015 627.636364 369.36 
C 627.636364 368.033985 627.109532 366.762101 626.171898 365.824466 
C 625.234263 364.886832 623.962379 364.36 622.636364 364.36 
C 621.310348 364.36 620.038464 364.886832 619.10083 365.824466 
C 618.163195 366.762101 617.636364 368.033985 617.636364 369.36 
C 617.636364 370.686015 618.163195 371.957899 619.10083 372.895534 
C 620.038464 373.833168 621.310348 374.36 622.636364 374.36 
z
" clip-path="url(#p44803c9e20)" style="fill: #e41a1c; stroke: #ffffff; stroke-width: 0.8"/>
    <path d="M 277.929877 181.383173 
C 279.255893 181.383173 280.527777 180.856342 281.465411 179.918707 
C 282.403046 178.981073 282.929877 177.709189 282.929877 176.383173 
C 282.929877 175.057158 282.403046 173.785274 281.465411 172.847639 
C 280.527777 171.910005 279.255893 171.383173 277.929877 171.383173 
C 276.603862 171.383173 275.331978 171.910005 274.394344 172.847639 
C 273.456709 173.785274 272.929877 175.057158 272.929877 176.383173 
C 272.929877 177.709189 273.456709 178.981073 274.394344 179.918707 
C 275.331978 180.856342 276.603862 181.383173 277.929877 181.383173 
z
" clip-path="url(#p44803c9e20)" style="fill: #e41a1c; stroke: #ffffff; stroke-width: 0.8"/>
    <path d="M 442.748987 149.406357 
C 444.075003 149.406357 445.346886 148.879525 446.284521 147.941891 
C 447.222155 147.004256 447.748987 145.732372 447.748987 144.406357 
C 447.748987 143.080341 447.222155 141.808458 446.284521 140.870823 
C 445.346886 139.933188 444.075003 139.406357 442.748987 139.406357 
C 441.422972 139.406357 440.151088 139.933188 439.213453 140.870823 
C 438.275819 141.808458 437.748987 143.080341 437.748987 144.406357 
C 437.748987 145.732372 438.275819 147.004256 439.213453 147.941891 
C 440.151088 148.879525 441.422972 149.406357 442.748987 149.406357 
z
" clip-path="url(#p44803c9e20)" style="fill: #e41a1c; stroke: #ffffff; stroke-width: 0.8"/>
    <path d="M 379.522045 231.271758 
C 380.848061 231.271758 382.119945 230.744927 383.057579 229.807292 
C 383.995214 228.869658 384.522045 227.597774 384.522045 226.271758 
C 384.522045 224.945743 383.995214 223.673859 383.057579 222.736224 
C 382.119945 221.79859 380.848061 221.271758 379.522045 221.271758 
C 378.19603 221.271758 376.924146 221.79859 375.986511 222.736224 
C 375.048877 223.673859 374.522045 224.945743 374.522045 226.271758 
C 374.522045 227.597774 375.048877 228.869658 375.986511 229.807292 
C 376.924146 230.744927 378.19603 231.271758 379.522045 231.271758 
z
" clip-path="url(#p44803c9e20)" style="fill: #e41a1c; stroke: #ffffff; stroke-width: 0.8"/>
    <path d="M 182.727269 187.881895 
C 184.053285 187.881895 185.325168 187.355063 186.262803 186.417429 
C 187.200437 185.479794 187.727269 184.20791 187.727269 182.881895 
C 187.727269 181.555879 187.200437 180.283996 186.262803 179.346361 
C 185.325168 178.408726 184.053285 177.881895 182.727269 177.881895 
C 181.401254 177.881895 180.12937 178.408726 179.191735 179.346361 
C 178.254101 180.283996 177.727269 181.555879 177.727269 182.881895 
C 177.727269 184.20791 178.254101 185.479794 179.191735 186.417429 
C 180.12937 187.355063 181.401254 187.881895 182.727269 187.881895 
z
" clip-path="url(#p44803c9e20)" style="fill: #e41a1c; stroke: #ffffff; stroke-width: 0.8"/>
    <path d="M 340.321236 210.065942 
C 341.647252 210.065942 342.919136 209.539111 343.85677 208.601476 
C 344.794405 207.663842 345.321236 206.391958 345.321236 205.065942 
C 345.321236 203.739927 344.794405 202.468043 343.85677 201.530408 
C 342.919136 200.592774 341.647252 200.065942 340.321236 200.065942 
C 338.995221 200.065942 337.723337 200.592774 336.785702 201.530408 
C 335.848068 202.468043 335.321236 203.739927 335.321236 205.065942 
C 335.321236 206.391958 335.848068 207.663842 336.785702 208.601476 
C 337.723337 209.539111 338.995221 210.065942 340.321236 210.065942 
z
" clip-path="url(#p44803c9e20)" style="fill: #e41a1c; stroke: #ffffff; stroke-width: 0.8"/>
    <path d="M 232.245616 169.976187 
C 233.571632 169.976187 234.843515 169.449355 235.78115 168.511721 
C 236.718785 167.574086 237.245616 166.302202 237.245616 164.976187 
C 237.245616 163.650171 236.718785 162.378287 235.78115 161.440653 
C 234.843515 160.503018 233.571632 159.976187 232.245616 159.976187 
C 230.919601 159.976187 229.647717 160.503018 228.710082 161.440653 
C 227.772448 162.378287 227.245616 163.650171 227.245616 164.976187 
C 227.245616 166.302202 227.772448 167.574086 228.710082 168.511721 
C 229.647717 169.449355 230.919601 169.976187 232.245616 169.976187 
z
" clip-path="url(#p44803c9e20)" style="fill: #e41a1c; stroke: #ffffff; stroke-width: 0.8"/>
    <path d="M 297.214086 173.22171 
C 298.540102 173.22171 299.811986 172.694879 300.74962 171.757244 
C 301.687255 170.819609 302.214086 169.547726 302.214086 168.22171 
C 302.214086 166.895695 301.687255 165.623811 300.74962 164.686176 
C 299.811986 163.748542 298.540102 163.22171 297.214086 163.22171 
C 295.888071 163.22171 294.616187 163.748542 293.678553 164.686176 
C 292.740918 165.623811 292.214086 166.895695 292.214086 168.22171 
C 292.214086 169.547726 292.740918 170.819609 293.678553 171.757244 
C 294.616187 172.694879 295.888071 173.22171 297.214086 173.22171 
z
" clip-path="url(#p44803c9e20)" style="fill: #e41a1c; stroke: #ffffff; stroke-width: 0.8"/>
    <path d="M 461.743353 199.963615 
C 463.069368 199.963615 464.341252 199.436783 465.278887 198.499149 
C 466.216521 197.561514 466.743353 196.28963 466.743353 194.963615 
C 466.743353 193.637599 466.216521 192.365715 465.278887 191.428081 
C 464.341252 190.490446 463.069368 189.963615 461.743353 189.963615 
C 460.417337 189.963615 459.145453 190.490446 458.207819 191.428081 
C 457.270184 192.365715 456.743353 193.637599 456.743353 194.963615 
C 456.743353 196.28963 457.270184 197.561514 458.207819 198.499149 
C 459.145453 199.436783 460.417337 199.963615 461.743353 199.963615 
z
" clip-path="url(#p44803c9e20)" style="fill: #e41a1c; stroke: #ffffff; stroke-width: 0.8"/>
   </g>
   <g id="matplotlib.axis_1">
    <g id="xtick_1">
     <g id="line2d_1">
      <path d="M 171.634857 384.48 
L 171.634857 51.84 
" clip-path="url(#p44803c9e20)" style="fill: none; stroke: #b0b0b0; stroke-width: 0.8; stroke-linecap: square"/>
     </g>
     <g id="line2d_2">
      <defs>
       <path id="mad63163fc3" d="M 0 0 
L 0 3.5 
" style="stroke: #000000; stroke-width: 0.8"/>
      </defs>
      <g>
       <use xlink:href="#mad63163fc3" x="171.634857" y="384.48" style="stroke: #000000; stroke-width: 0.8"/>
      </g>
     </g>
     <g id="text_1">
      <!-- −4 -->
      <g transform="translate(164.263764 399.078438) scale(0.1 -0.1)">
       <defs>
        <path id="DejaVuSans-2212" d="M 678 2272 
L 4684 2272 
L 4684 1741 
L 678 1741 
L 678 2272 
z
" transform="scale(0.015625)"/>
        <path id="DejaVuSans-34" d="M 2419 4116 
L 825 1625 
L 2419 1625 
L 2419 4116 
z
M 2253 4666 
L 3047 4666 
L 3047 1625 
L 3713 1625 
L 3713 1100 
L 3047 1100 
L 3047 0 
L 2419 0 
L 2419 1100 
L 313 1100 
L 313 1709 
L 2253 4666 
z
" transform="scale(0.015625)"/>
       </defs>
       <use xlink:href="#DejaVuSans-2212"/>
       <use xlink:href="#DejaVuSans-34" transform="translate(83.789062 0)"/>
      </g>
     </g>
    </g>
    <g id="xtick_2">
     <g id="line2d_3">
      <path d="M 275.936152 384.48 
L 275.936152 51.84 
" clip-path="url(#p44803c9e20)" style="fill: none; stroke: #b0b0b0; stroke-width: 0.8; stroke-linecap: square"/>
     </g>
     <g id="line2d_4">
      <g>
       <use xlink:href="#mad63163fc3" x="275.936152" y="384.48" style="stroke: #000000; stroke-width: 0.8"/>
      </g>
     </g>
     <g id="text_2">
      <!-- −2 -->
      <g transform="translate(268.565058 399.078438) scale(0.1 -0.1)">
       <defs>
        <path id="DejaVuSans-32" d="M 1228 531 
L 3431 531 
L 3431 0 
L 469 0 
L 469 531 
Q 828 903 1448 1529 
Q 2069 2156 2228 2338 
Q 2531 2678 2651 2914 
Q 2772 3150 2772 3378 
Q 2772 3750 2511 3984 
Q 2250 4219 1831 4219 
Q 1534 4219 1204 4116 
Q 875 4013 500 3803 
L 500 4441 
Q 881 4594 1212 4672 
Q 1544 4750 1819 4750 
Q 2544 4750 2975 4387 
Q 3406 4025 3406 3419 
Q 3406 3131 3298 2873 
Q 3191 2616 2906 2266 
Q 2828 2175 2409 1742 
Q 1991 1309 1228 531 
z
" transform="scale(0.015625)"/>
       </defs>
       <use xlink:href="#DejaVuSans-2212"/>
       <use xlink:href="#DejaVuSans-32" transform="translate(83.789062 0)"/>
      </g>
     </g>
    </g>
    <g id="xtick_3">
     <g id="line2d_5">
      <path d="M 380.237446 384.48 
L 380.237446 51.84 
" clip-path="url(#p44803c9e20)" style="fill: none; stroke: #b0b0b0; stroke-width: 0.8; stroke-linecap: square"/>
     </g>
     <g id="line2d_6">
      <g>
       <use xlink:href="#mad63163fc3" x="380.237446" y="384.48" style="stroke: #000000; stroke-width: 0.8"/>
      </g>
     </g>
     <g id="text_3">
      <!-- 0 -->
      <g transform="translate(377.056196 399.078438) scale(0.1 -0.1)">
       <defs>
        <path id="DejaVuSans-30" d="M 2034 4250 
Q 1547 4250 1301 3770 
Q 1056 3291 1056 2328 
Q 1056 1369 1301 889 
Q 1547 409 2034 409 
Q 2525 409 2770 889 
Q 3016 1369 3016 2328 
Q 3016 3291 2770 3770 
Q 2525 4250 2034 4250 
z
M 2034 4750 
Q 2819 4750 3233 4129 
Q 3647 3509 3647 2328 
Q 3647 1150 3233 529 
Q 2819 -91 2034 -91 
Q 1250 -91 836 529 
Q 422 1150 422 2328 
Q 422 3509 836 4129 
Q 1250 4750 2034 4750 
z
" transform="scale(0.015625)"/>
       </defs>
       <use xlink:href="#DejaVuSans-30"/>
      </g>
     </g>
    </g>
    <g id="xtick_4">
     <g id="line2d_7">
      <path d="M 484.53874 384.48 
L 484.53874 51.84 
" clip-path="url(#p44803c9e20)" style="fill: none; stroke: #b0b0b0; stroke-width: 0.8; stroke-linecap: square"/>
     </g>
     <g id="line2d_8">
      <g>
       <use xlink:href="#mad63163fc3" x="484.53874" y="384.48" style="stroke: #000000; stroke-width: 0.8"/>
      </g>
     </g>
     <g id="text_4">
      <!-- 2 -->
      <g transform="translate(481.35749 399.078438) scale(0.1 -0.1)">
       <use xlink:href="#DejaVuSans-32"/>
      </g>
     </g>
    </g>
    <g id="xtick_5">
     <g id="line2d_9">
      <path d="M 588.840035 384.48 
L 588.840035 51.84 
" clip-path="url(#p44803c9e20)" style="fill: none; stroke: #b0b0b0; stroke-width: 0.8; stroke-linecap: square"/>
     </g>
     <g id="line2d_10">
      <g>
       <use xlink:href="#mad63163fc3" x="588.840035" y="384.48" style="stroke: #000000; stroke-width: 0.8"/>
      </g>
     </g>
     <g id="text_5">
      <!-- 4 -->
      <g transform="translate(585.658785 399.078438) scale(0.1 -0.1)">
       <use xlink:href="#DejaVuSans-34"/>
      </g>
     </g>
    </g>
    <g id="text_6">
     <!-- Socioeconomic axis 1 -->
     <g transform="translate(315.070312 412.756563) scale(0.1 -0.1)">
      <defs>
       <path id="DejaVuSans-53" d="M 3425 4513 
L 3425 3897 
Q 3066 4069 2747 4153 
Q 2428 4238 2131 4238 
Q 1616 4238 1336 4038 
Q 1056 3838 1056 3469 
Q 1056 3159 1242 3001 
Q 1428 2844 1947 2747 
L 2328 2669 
Q 3034 2534 3370 2195 
Q 3706 1856 3706 1288 
Q 3706 609 3251 259 
Q 2797 -91 1919 -91 
Q 1588 -91 1214 -16 
Q 841 59 441 206 
L 441 856 
Q 825 641 1194 531 
Q 1563 422 1919 422 
Q 2459 422 2753 634 
Q 3047 847 3047 1241 
Q 3047 1584 2836 1778 
Q 2625 1972 2144 2069 
L 1759 2144 
Q 1053 2284 737 2584 
Q 422 2884 422 3419 
Q 422 4038 858 4394 
Q 1294 4750 2059 4750 
Q 2388 4750 2728 4690 
Q 3069 4631 3425 4513 
z
" transform="scale(0.015625)"/>
       <path id="DejaVuSans-6f" d="M 1959 3097 
Q 1497 3097 1228 2736 
Q 959 2375 959 1747 
Q 959 1119 1226 758 
Q 1494 397 1959 397 
Q 2419 397 2687 759 
Q 2956 1122 2956 1747 
Q 2956 2369 2687 2733 
Q 2419 3097 1959 3097 
z
M 1959 3584 
Q 2709 3584 3137 3096 
Q 3566 2609 3566 1747 
Q 3566 888 3137 398 
Q 2709 -91 1959 -91 
Q 1206 -91 779 398 
Q 353 888 353 1747 
Q 353 2609 779 3096 
Q 1206 3584 1959 3584 
z
" transform="scale(0.015625)"/>
       <path id="DejaVuSans-63" d="M 3122 3366 
L 3122 2828 
Q 2878 2963 2633 3030 
Q 2388 3097 2138 3097 
Q 1578 3097 1268 2742 
Q 959 2388 959 1747 
Q 959 1106 1268 751 
Q 1578 397 2138 397 
Q 2388 397 2633 464 
Q 2878 531 3122 666 
L 3122 134 
Q 2881 22 2623 -34 
Q 2366 -91 2075 -91 
Q 1284 -91 818 406 
Q 353 903 353 1747 
Q 353 2603 823 3093 
Q 1294 3584 2113 3584 
Q 2378 3584 2631 3529 
Q 2884 3475 3122 3366 
z
" transform="scale(0.015625)"/>
       <path id="DejaVuSans-69" d="M 603 3500 
L 1178 3500 
L 1178 0 
L 603 0 
L 603 3500 
z
M 603 4863 
L 1178 4863 
L 1178 4134 
L 603 4134 
L 603 4863 
z
" transform="scale(0.015625)"/>
       <path id="DejaVuSans-65" d="M 3597 1894 
L 3597 1613 
L 953 1613 
Q 991 1019 1311 708 
Q 1631 397 2203 397 
Q 2534 397 2845 478 
Q 3156 559 3463 722 
L 3463 178 
Q 3153 47 2828 -22 
Q 2503 -91 2169 -91 
Q 1331 -91 842 396 
Q 353 884 353 1716 
Q 353 2575 817 3079 
Q 1281 3584 2069 3584 
Q 2775 3584 3186 3129 
Q 3597 2675 3597 1894 
z
M 3022 2063 
Q 3016 2534 2758 2815 
Q 2500 3097 2075 3097 
Q 1594 3097 1305 2825 
Q 1016 2553 972 2059 
L 3022 2063 
z
" transform="scale(0.015625)"/>
       <path id="DejaVuSans-6e" d="M 3513 2113 
L 3513 0 
L 2938 0 
L 2938 2094 
Q 2938 2591 2744 2837 
Q 2550 3084 2163 3084 
Q 1697 3084 1428 2787 
Q 1159 2491 1159 1978 
L 1159 0 
L 581 0 
L 581 3500 
L 1159 3500 
L 1159 2956 
Q 1366 3272 1645 3428 
Q 1925 3584 2291 3584 
Q 2894 3584 3203 3211 
Q 3513 2838 3513 2113 
z
" transform="scale(0.015625)"/>
       <path id="DejaVuSans-6d" d="M 3328 2828 
Q 3544 3216 3844 3400 
Q 4144 3584 4550 3584 
Q 5097 3584 5394 3201 
Q 5691 2819 5691 2113 
L 5691 0 
L 5113 0 
L 5113 2094 
Q 5113 2597 4934 2840 
Q 4756 3084 4391 3084 
Q 3944 3084 3684 2787 
Q 3425 2491 3425 1978 
L 3425 0 
L 2847 0 
L 2847 2094 
Q 2847 2600 2669 2842 
Q 2491 3084 2119 3084 
Q 1678 3084 1418 2786 
Q 1159 2488 1159 1978 
L 1159 0 
L 581 0 
L 581 3500 
L 1159 3500 
L 1159 2956 
Q 1356 3278 1631 3431 
Q 1906 3584 2284 3584 
Q 2666 3584 2933 3390 
Q 3200 3197 3328 2828 
z
" transform="scale(0.015625)"/>
       <path id="DejaVuSans-20" transform="scale(0.015625)"/>
       <path id="DejaVuSans-61" d="M 2194 1759 
Q 1497 1759 1228 1600 
Q 959 1441 959 1056 
Q 959 750 1161 570 
Q 1363 391 1709 391 
Q 2188 391 2477 730 
Q 2766 1069 2766 1631 
L 2766 1759 
L 2194 1759 
z
M 3341 1997 
L 3341 0 
L 2766 0 
L 2766 531 
Q 2569 213 2275 61 
Q 1981 -91 1556 -91 
Q 1019 -91 701 211 
Q 384 513 384 1019 
Q 384 1609 779 1909 
Q 1175 2209 1959 2209 
L 2766 2209 
L 2766 2266 
Q 2766 2663 2505 2880 
Q 2244 3097 1772 3097 
Q 1472 3097 1187 3025 
Q 903 2953 641 2809 
L 641 3341 
Q 956 3463 1253 3523 
Q 1550 3584 1831 3584 
Q 2591 3584 2966 3190 
Q 3341 2797 3341 1997 
z
" transform="scale(0.015625)"/>
       <path id="DejaVuSans-78" d="M 3513 3500 
L 2247 1797 
L 3578 0 
L 2900 0 
L 1881 1375 
L 863 0 
L 184 0 
L 1544 1831 
L 300 3500 
L 978 3500 
L 1906 2253 
L 2834 3500 
L 3513 3500 
z
" transform="scale(0.015625)"/>
       <path id="DejaVuSans-73" d="M 2834 3397 
L 2834 2853 
Q 2591 2978 2328 3040 
Q 2066 3103 1784 3103 
Q 1356 3103 1142 2972 
Q 928 2841 928 2578 
Q 928 2378 1081 2264 
Q 1234 2150 1697 2047 
L 1894 2003 
Q 2506 1872 2764 1633 
Q 3022 1394 3022 966 
Q 3022 478 2636 193 
Q 2250 -91 1575 -91 
Q 1294 -91 989 -36 
Q 684 19 347 128 
L 347 722 
Q 666 556 975 473 
Q 1284 391 1588 391 
Q 1994 391 2212 530 
Q 2431 669 2431 922 
Q 2431 1156 2273 1281 
Q 2116 1406 1581 1522 
L 1381 1569 
Q 847 1681 609 1914 
Q 372 2147 372 2553 
Q 372 3047 722 3315 
Q 1072 3584 1716 3584 
Q 2034 3584 2315 3537 
Q 2597 3491 2834 3397 
z
" transform="scale(0.015625)"/>
       <path id="DejaVuSans-31" d="M 794 531 
L 1825 531 
L 1825 4091 
L 703 3866 
L 703 4441 
L 1819 4666 
L 2450 4666 
L 2450 531 
L 3481 531 
L 3481 0 
L 794 0 
L 794 531 
z
" transform="scale(0.015625)"/>
      </defs>
      <use xlink:href="#DejaVuSans-53"/>
      <use xlink:href="#DejaVuSans-6f" transform="translate(63.476562 0)"/>
      <use xlink:href="#DejaVuSans-63" transform="translate(124.658203 0)"/>
      <use xlink:href="#DejaVuSans-69" transform="translate(179.638672 0)"/>
      <use xlink:href="#DejaVuSans-6f" transform="translate(207.421875 0)"/>
      <use xlink:href="#DejaVuSans-65" transform="translate(268.603516 0)"/>
      <use xlink:href="#DejaVuSans-63" transform="translate(330.126953 0)"/>
      <use xlink:href="#DejaVuSans-6f" transform="translate(385.107422 0)"/>
      <use xlink:href="#DejaVuSans-6e" transform="translate(446.289062 0)"/>
      <use xlink:href="#DejaVuSans-6f" transform="translate(509.667969 0)"/>
      <use xlink:href="#DejaVuSans-6d" transform="translate(570.849609 0)"/>
      <use xlink:href="#DejaVuSans-69" transform="translate(668.261719 0)"/>
      <use xlink:href="#DejaVuSans-63" transform="translate(696.044922 0)"/>
      <use xlink:href="#DejaVuSans-20" transform="translate(751.025391 0)"/>
      <use xlink:href="#DejaVuSans-61" transform="translate(782.8125 0)"/>
      <use xlink:href="#DejaVuSans-78" transform="translate(844.091797 0)"/>
      <use xlink:href="#DejaVuSans-69" transform="translate(903.271484 0)"/>
      <use xlink:href="#DejaVuSans-73" transform="translate(931.054688 0)"/>
      <use xlink:href="#DejaVuSans-20" transform="translate(983.154297 0)"/>
      <use xlink:href="#DejaVuSans-31" transform="translate(1014.941406 0)"/>
     </g>
    </g>
   </g>
   <g id="matplotlib.axis_2">
    <g id="ytick_1">
     <g id="line2d_11">
      <path d="M 90 382.309546 
L 648 382.309546 
" clip-path="url(#p44803c9e20)" style="fill: none; stroke: #b0b0b0; stroke-width: 0.8; stroke-linecap: square"/>
     </g>
     <g id="line2d_12">
      <defs>
       <path id="m83fcfdcd43" d="M 0 0 
L -3.5 0 
" style="stroke: #000000; stroke-width: 0.8"/>
      </defs>
      <g>
       <use xlink:href="#m83fcfdcd43" x="90" y="382.309546" style="stroke: #000000; stroke-width: 0.8"/>
      </g>
     </g>
     <g id="text_7">
      <!-- −6 -->
      <g transform="translate(68.257812 386.108765) scale(0.1 -0.1)">
       <defs>
        <path id="DejaVuSans-36" d="M 2113 2584 
Q 1688 2584 1439 2293 
Q 1191 2003 1191 1497 
Q 1191 994 1439 701 
Q 1688 409 2113 409 
Q 2538 409 2786 701 
Q 3034 994 3034 1497 
Q 3034 2003 2786 2293 
Q 2538 2584 2113 2584 
z
M 3366 4563 
L 3366 3988 
Q 3128 4100 2886 4159 
Q 2644 4219 2406 4219 
Q 1781 4219 1451 3797 
Q 1122 3375 1075 2522 
Q 1259 2794 1537 2939 
Q 1816 3084 2150 3084 
Q 2853 3084 3261 2657 
Q 3669 2231 3669 1497 
Q 3669 778 3244 343 
Q 2819 -91 2113 -91 
Q 1303 -91 875 529 
Q 447 1150 447 2328 
Q 447 3434 972 4092 
Q 1497 4750 2381 4750 
Q 2619 4750 2861 4703 
Q 3103 4656 3366 4563 
z
" transform="scale(0.015625)"/>
       </defs>
       <use xlink:href="#DejaVuSans-2212"/>
       <use xlink:href="#DejaVuSans-36" transform="translate(83.789062 0)"/>
      </g>
     </g>
    </g>
    <g id="ytick_2">
     <g id="line2d_13">
      <path d="M 90 310.95391 
L 648 310.95391 
" clip-path="url(#p44803c9e20)" style="fill: none; stroke: #b0b0b0; stroke-width: 0.8; stroke-linecap: square"/>
     </g>
     <g id="line2d_14">
      <g>
       <use xlink:href="#m83fcfdcd43" x="90" y="310.95391" style="stroke: #000000; stroke-width: 0.8"/>
      </g>
     </g>
     <g id="text_8">
      <!-- −4 -->
      <g transform="translate(68.257812 314.753129) scale(0.1 -0.1)">
       <use xlink:href="#DejaVuSans-2212"/>
       <use xlink:href="#DejaVuSans-34" transform="translate(83.789062 0)"/>
      </g>
     </g>
    </g>
    <g id="ytick_3">
     <g id="line2d_15">
      <path d="M 90 239.598274 
L 648 239.598274 
" clip-path="url(#p44803c9e20)" style="fill: none; stroke: #b0b0b0; stroke-width: 0.8; stroke-linecap: square"/>
     </g>
     <g id="line2d_16">
      <g>
       <use xlink:href="#m83fcfdcd43" x="90" y="239.598274" style="stroke: #000000; stroke-width: 0.8"/>
      </g>
     </g>
     <g id="text_9">
      <!-- −2 -->
      <g transform="translate(68.257812 243.397492) scale(0.1 -0.1)">
       <use xlink:href="#DejaVuSans-2212"/>
       <use xlink:href="#DejaVuSans-32" transform="translate(83.789062 0)"/>
      </g>
     </g>
    </g>
    <g id="ytick_4">
     <g id="line2d_17">
      <path d="M 90 168.242637 
L 648 168.242637 
" clip-path="url(#p44803c9e20)" style="fill: none; stroke: #b0b0b0; stroke-width: 0.8; stroke-linecap: square"/>
     </g>
     <g id="line2d_18">
      <g>
       <use xlink:href="#m83fcfdcd43" x="90" y="168.242637" style="stroke: #000000; stroke-width: 0.8"/>
      </g>
     </g>
     <g id="text_10">
      <!-- 0 -->
      <g transform="translate(76.6375 172.041856) scale(0.1 -0.1)">
       <use xlink:href="#DejaVuSans-30"/>
      </g>
     </g>
    </g>
    <g id="ytick_5">
     <g id="line2d_19">
      <path d="M 90 96.887001 
L 648 96.887001 
" clip-path="url(#p44803c9e20)" style="fill: none; stroke: #b0b0b0; stroke-width: 0.8; stroke-linecap: square"/>
     </g>
     <g id="line2d_20">
      <g>
       <use xlink:href="#m83fcfdcd43" x="90" y="96.887001" style="stroke: #000000; stroke-width: 0.8"/>
      </g>
     </g>
     <g id="text_11">
      <!-- 2 -->
      <g transform="translate(76.6375 100.686219) scale(0.1 -0.1)">
       <use xlink:href="#DejaVuSans-32"/>
      </g>
     </g>
    </g>
    <g id="text_12">
     <!-- Socioeconomic axis 2 -->
     <g transform="translate(62.178125 272.089687) rotate(-90) scale(0.1 -0.1)">
      <use xlink:href="#DejaVuSans-53"/>
      <use xlink:href="#DejaVuSans-6f" transform="translate(63.476562 0)"/>
      <use xlink:href="#DejaVuSans-63" transform="translate(124.658203 0)"/>
      <use xlink:href="#DejaVuSans-69" transform="translate(179.638672 0)"/>
      <use xlink:href="#DejaVuSans-6f" transform="translate(207.421875 0)"/>
      <use xlink:href="#DejaVuSans-65" transform="translate(268.603516 0)"/>
      <use xlink:href="#DejaVuSans-63" transform="translate(330.126953 0)"/>
      <use xlink:href="#DejaVuSans-6f" transform="translate(385.107422 0)"/>
      <use xlink:href="#DejaVuSans-6e" transform="translate(446.289062 0)"/>
      <use xlink:href="#DejaVuSans-6f" transform="translate(509.667969 0)"/>
      <use xlink:href="#DejaVuSans-6d" transform="translate(570.849609 0)"/>
      <use xlink:href="#DejaVuSans-69" transform="translate(668.261719 0)"/>
      <use xlink:href="#DejaVuSans-63" transform="translate(696.044922 0)"/>
      <use xlink:href="#DejaVuSans-20" transform="translate(751.025391 0)"/>
      <use xlink:href="#DejaVuSans-61" transform="translate(782.8125 0)"/>
      <use xlink:href="#DejaVuSans-78" transform="translate(844.091797 0)"/>
      <use xlink:href="#DejaVuSans-69" transform="translate(903.271484 0)"/>
      <use xlink:href="#DejaVuSans-73" transform="translate(931.054688 0)"/>
      <use xlink:href="#DejaVuSans-20" transform="translate(983.154297 0)"/>
      <use xlink:href="#DejaVuSans-32" transform="translate(1014.941406 0)"/>
     </g>
    </g>
   </g>
   <g id="line2d_21"/>
   <g id="line2d_22"/>
   <g id="patch_3">
    <path d="M 90 384.48 
L 90 51.84 
" style="fill: none; stroke: #000000; stroke-width: 0.8; stroke-linejoin: miter; stroke-linecap: square"/>
   </g>
   <g id="patch_4">
    <path d="M 648 384.48 
L 648 51.84 
" style="fill: none; stroke: #000000; stroke-width: 0.8; stroke-linejoin: miter; stroke-linecap: square"/>
   </g>
   <g id="patch_5">
    <path d="M 90 384.48 
L 648 384.48 
" style="fill: none; stroke: #000000; stroke-width: 0.8; stroke-linejoin: miter; stroke-linecap: square"/>
   </g>
   <g id="patch_6">
    <path d="M 90 51.84 
L 648 51.84 
" style="fill: none; stroke: #000000; stroke-width: 0.8; stroke-linejoin: miter; stroke-linecap: square"/>
   </g>
   <g id="legend_1">
    <g id="patch_7">
     <path d="M 97 103.874375 
L 161.785937 103.874375 
Q 163.785937 103.874375 163.785937 101.874375 
L 163.785937 58.84 
Q 163.785937 56.84 161.785937 56.84 
L 97 56.84 
Q 95 56.84 95 58.84 
L 95 101.874375 
Q 95 103.874375 97 103.874375 
z
" style="fill: #ffffff; opacity: 0.8; stroke: #cccccc; stroke-linejoin: miter"/>
    </g>
    <g id="text_13">
     <!-- Is Montclare -->
     <g transform="translate(99 68.438437) scale(0.1 -0.1)">
      <defs>
       <path id="DejaVuSans-49" d="M 628 4666 
L 1259 4666 
L 1259 0 
L 628 0 
L 628 4666 
z
" transform="scale(0.015625)"/>
       <path id="DejaVuSans-4d" d="M 628 4666 
L 1569 4666 
L 2759 1491 
L 3956 4666 
L 4897 4666 
L 4897 0 
L 4281 0 
L 4281 4097 
L 3078 897 
L 2444 897 
L 1241 4097 
L 1241 0 
L 628 0 
L 628 4666 
z
" transform="scale(0.015625)"/>
       <path id="DejaVuSans-74" d="M 1172 4494 
L 1172 3500 
L 2356 3500 
L 2356 3053 
L 1172 3053 
L 1172 1153 
Q 1172 725 1289 603 
Q 1406 481 1766 481 
L 2356 481 
L 2356 0 
L 1766 0 
Q 1100 0 847 248 
Q 594 497 594 1153 
L 594 3053 
L 172 3053 
L 172 3500 
L 594 3500 
L 594 4494 
L 1172 4494 
z
" transform="scale(0.015625)"/>
       <path id="DejaVuSans-6c" d="M 603 4863 
L 1178 4863 
L 1178 0 
L 603 0 
L 603 4863 
z
" transform="scale(0.015625)"/>
       <path id="DejaVuSans-72" d="M 2631 2963 
Q 2534 3019 2420 3045 
Q 2306 3072 2169 3072 
Q 1681 3072 1420 2755 
Q 1159 2438 1159 1844 
L 1159 0 
L 581 0 
L 581 3500 
L 1159 3500 
L 1159 2956 
Q 1341 3275 1631 3429 
Q 1922 3584 2338 3584 
Q 2397 3584 2469 3576 
Q 2541 3569 2628 3553 
L 2631 2963 
z
" transform="scale(0.015625)"/>
      </defs>
      <use xlink:href="#DejaVuSans-49"/>
      <use xlink:href="#DejaVuSans-73" transform="translate(29.492188 0)"/>
      <use xlink:href="#DejaVuSans-20" transform="translate(81.591797 0)"/>
      <use xlink:href="#DejaVuSans-4d" transform="translate(113.378906 0)"/>
      <use xlink:href="#DejaVuSans-6f" transform="translate(199.658203 0)"/>
      <use xlink:href="#DejaVuSans-6e" transform="translate(260.839844 0)"/>
      <use xlink:href="#DejaVuSans-74" transform="translate(324.21875 0)"/>
      <use xlink:href="#DejaVuSans-63" transform="translate(363.427734 0)"/>
      <use xlink:href="#DejaVuSans-6c" transform="translate(418.408203 0)"/>
      <use xlink:href="#DejaVuSans-61" transform="translate(446.191406 0)"/>
      <use xlink:href="#DejaVuSans-72" transform="translate(507.470703 0)"/>
      <use xlink:href="#DejaVuSans-65" transform="translate(546.333984 0)"/>
     </g>
    </g>
    <g id="line2d_23">
     <defs>
      <path id="m735cdf7d08" d="M 0 5 
C 1.326016 5 2.597899 4.473168 3.535534 3.535534 
C 4.473168 2.597899 5 1.326016 5 0 
C 5 -1.326016 4.473168 -2.597899 3.535534 -3.535534 
C 2.597899 -4.473168 1.326016 -5 0 -5 
C -1.326016 -5 -2.597899 -4.473168 -3.535534 -3.535534 
C -4.473168 -2.597899 -5 -1.326016 -5 0 
C -5 1.326016 -4.473168 2.597899 -3.535534 3.535534 
C -2.597899 4.473168 -1.326016 5 0 5 
z
" style="stroke: #ffffff; stroke-width: 0.8"/>
     </defs>
     <g>
      <use xlink:href="#m735cdf7d08" x="112.839063" y="79.616562" style="fill: #e41a1c; stroke: #ffffff; stroke-width: 0.8"/>
     </g>
    </g>
    <g id="text_14">
     <!-- False -->
     <g transform="translate(130.839063 83.116562) scale(0.1 -0.1)">
      <defs>
       <path id="DejaVuSans-46" d="M 628 4666 
L 3309 4666 
L 3309 4134 
L 1259 4134 
L 1259 2759 
L 3109 2759 
L 3109 2228 
L 1259 2228 
L 1259 0 
L 628 0 
L 628 4666 
z
" transform="scale(0.015625)"/>
      </defs>
      <use xlink:href="#DejaVuSans-46"/>
      <use xlink:href="#DejaVuSans-61" transform="translate(48.394531 0)"/>
      <use xlink:href="#DejaVuSans-6c" transform="translate(109.673828 0)"/>
      <use xlink:href="#DejaVuSans-73" transform="translate(137.457031 0)"/>
      <use xlink:href="#DejaVuSans-65" transform="translate(189.556641 0)"/>
     </g>
    </g>
    <g id="line2d_24">
     <defs>
      <path id="m0e9b51570e" d="M -2.5 5 
L 0 2.5 
L 2.5 5 
L 5 2.5 
L 2.5 0 
L 5 -2.5 
L 2.5 -5 
L 0 -2.5 
L -2.5 -5 
L -5 -2.5 
L -2.5 0 
L -5 2.5 
z
" style="stroke: #ffffff; stroke-width: 0.8; stroke-linejoin: miter"/>
     </defs>
     <g>
      <use xlink:href="#m0e9b51570e" x="112.839063" y="94.294688" style="fill: #377eb8; stroke: #ffffff; stroke-width: 0.8; stroke-linejoin: miter"/>
     </g>
    </g>
    <g id="text_15">
     <!-- True -->
     <g transform="translate(130.839063 97.794688) scale(0.1 -0.1)">
      <defs>
       <path id="DejaVuSans-54" d="M -19 4666 
L 3928 4666 
L 3928 4134 
L 2272 4134 
L 2272 0 
L 1638 0 
L 1638 4134 
L -19 4134 
L -19 4666 
z
" transform="scale(0.015625)"/>
       <path id="DejaVuSans-75" d="M 544 1381 
L 544 3500 
L 1119 3500 
L 1119 1403 
Q 1119 906 1312 657 
Q 1506 409 1894 409 
Q 2359 409 2629 706 
Q 2900 1003 2900 1516 
L 2900 3500 
L 3475 3500 
L 3475 0 
L 2900 0 
L 2900 538 
Q 2691 219 2414 64 
Q 2138 -91 1772 -91 
Q 1169 -91 856 284 
Q 544 659 544 1381 
z
M 1991 3584 
L 1991 3584 
z
" transform="scale(0.015625)"/>
      </defs>
      <use xlink:href="#DejaVuSans-54"/>
      <use xlink:href="#DejaVuSans-72" transform="translate(46.333984 0)"/>
      <use xlink:href="#DejaVuSans-75" transform="translate(87.447266 0)"/>
      <use xlink:href="#DejaVuSans-65" transform="translate(150.826172 0)"/>
     </g>
    </g>
   </g>
  </g>
  <g id="text_16">
   <!-- Block groups: Hierarchical (unclustered) -->
   <g transform="translate(223.1175 17.758125) scale(0.12 -0.12)">
    <defs>
     <path id="DejaVuSans-Bold-42" d="M 2456 2859 
Q 2741 2859 2887 2984 
Q 3034 3109 3034 3353 
Q 3034 3594 2887 3720 
Q 2741 3847 2456 3847 
L 1791 3847 
L 1791 2859 
L 2456 2859 
z
M 2497 819 
Q 2859 819 3042 972 
Q 3225 1125 3225 1434 
Q 3225 1738 3044 1889 
Q 2863 2041 2497 2041 
L 1791 2041 
L 1791 819 
L 2497 819 
z
M 3616 2497 
Q 4003 2384 4215 2081 
Q 4428 1778 4428 1338 
Q 4428 663 3972 331 
Q 3516 0 2584 0 
L 588 0 
L 588 4666 
L 2394 4666 
Q 3366 4666 3802 4372 
Q 4238 4078 4238 3431 
Q 4238 3091 4078 2852 
Q 3919 2613 3616 2497 
z
" transform="scale(0.015625)"/>
     <path id="DejaVuSans-Bold-6c" d="M 538 4863 
L 1656 4863 
L 1656 0 
L 538 0 
L 538 4863 
z
" transform="scale(0.015625)"/>
     <path id="DejaVuSans-Bold-6f" d="M 2203 2784 
Q 1831 2784 1636 2517 
Q 1441 2250 1441 1747 
Q 1441 1244 1636 976 
Q 1831 709 2203 709 
Q 2569 709 2762 976 
Q 2956 1244 2956 1747 
Q 2956 2250 2762 2517 
Q 2569 2784 2203 2784 
z
M 2203 3584 
Q 3106 3584 3614 3096 
Q 4122 2609 4122 1747 
Q 4122 884 3614 396 
Q 3106 -91 2203 -91 
Q 1297 -91 786 396 
Q 275 884 275 1747 
Q 275 2609 786 3096 
Q 1297 3584 2203 3584 
z
" transform="scale(0.015625)"/>
     <path id="DejaVuSans-Bold-63" d="M 3366 3391 
L 3366 2478 
Q 3138 2634 2908 2709 
Q 2678 2784 2431 2784 
Q 1963 2784 1702 2511 
Q 1441 2238 1441 1747 
Q 1441 1256 1702 982 
Q 1963 709 2431 709 
Q 2694 709 2930 787 
Q 3166 866 3366 1019 
L 3366 103 
Q 3103 6 2833 -42 
Q 2563 -91 2291 -91 
Q 1344 -91 809 395 
Q 275 881 275 1747 
Q 275 2613 809 3098 
Q 1344 3584 2291 3584 
Q 2566 3584 2833 3536 
Q 3100 3488 3366 3391 
z
" transform="scale(0.015625)"/>
     <path id="DejaVuSans-Bold-6b" d="M 538 4863 
L 1656 4863 
L 1656 2216 
L 2944 3500 
L 4244 3500 
L 2534 1894 
L 4378 0 
L 3022 0 
L 1656 1459 
L 1656 0 
L 538 0 
L 538 4863 
z
" transform="scale(0.015625)"/>
     <path id="DejaVuSans-Bold-20" transform="scale(0.015625)"/>
     <path id="DejaVuSans-Bold-67" d="M 2919 594 
Q 2688 288 2409 144 
Q 2131 0 1766 0 
Q 1125 0 706 504 
Q 288 1009 288 1791 
Q 288 2575 706 3076 
Q 1125 3578 1766 3578 
Q 2131 3578 2409 3434 
Q 2688 3291 2919 2981 
L 2919 3500 
L 4044 3500 
L 4044 353 
Q 4044 -491 3511 -936 
Q 2978 -1381 1966 -1381 
Q 1638 -1381 1331 -1331 
Q 1025 -1281 716 -1178 
L 716 -306 
Q 1009 -475 1290 -558 
Q 1572 -641 1856 -641 
Q 2406 -641 2662 -400 
Q 2919 -159 2919 353 
L 2919 594 
z
M 2181 2772 
Q 1834 2772 1640 2515 
Q 1447 2259 1447 1791 
Q 1447 1309 1634 1061 
Q 1822 813 2181 813 
Q 2531 813 2725 1069 
Q 2919 1325 2919 1791 
Q 2919 2259 2725 2515 
Q 2531 2772 2181 2772 
z
" transform="scale(0.015625)"/>
     <path id="DejaVuSans-Bold-72" d="M 3138 2547 
Q 2991 2616 2845 2648 
Q 2700 2681 2553 2681 
Q 2122 2681 1889 2404 
Q 1656 2128 1656 1613 
L 1656 0 
L 538 0 
L 538 3500 
L 1656 3500 
L 1656 2925 
Q 1872 3269 2151 3426 
Q 2431 3584 2822 3584 
Q 2878 3584 2943 3579 
Q 3009 3575 3134 3559 
L 3138 2547 
z
" transform="scale(0.015625)"/>
     <path id="DejaVuSans-Bold-75" d="M 500 1363 
L 500 3500 
L 1625 3500 
L 1625 3150 
Q 1625 2866 1622 2436 
Q 1619 2006 1619 1863 
Q 1619 1441 1641 1255 
Q 1663 1069 1716 984 
Q 1784 875 1895 815 
Q 2006 756 2150 756 
Q 2500 756 2700 1025 
Q 2900 1294 2900 1772 
L 2900 3500 
L 4019 3500 
L 4019 0 
L 2900 0 
L 2900 506 
Q 2647 200 2364 54 
Q 2081 -91 1741 -91 
Q 1134 -91 817 281 
Q 500 653 500 1363 
z
" transform="scale(0.015625)"/>
     <path id="DejaVuSans-Bold-70" d="M 1656 506 
L 1656 -1331 
L 538 -1331 
L 538 3500 
L 1656 3500 
L 1656 2988 
Q 1888 3294 2169 3439 
Q 2450 3584 2816 3584 
Q 3463 3584 3878 3070 
Q 4294 2556 4294 1747 
Q 4294 938 3878 423 
Q 3463 -91 2816 -91 
Q 2450 -91 2169 54 
Q 1888 200 1656 506 
z
M 2400 2772 
Q 2041 2772 1848 2508 
Q 1656 2244 1656 1747 
Q 1656 1250 1848 986 
Q 2041 722 2400 722 
Q 2759 722 2948 984 
Q 3138 1247 3138 1747 
Q 3138 2247 2948 2509 
Q 2759 2772 2400 2772 
z
" transform="scale(0.015625)"/>
     <path id="DejaVuSans-Bold-73" d="M 3272 3391 
L 3272 2541 
Q 2913 2691 2578 2766 
Q 2244 2841 1947 2841 
Q 1628 2841 1473 2761 
Q 1319 2681 1319 2516 
Q 1319 2381 1436 2309 
Q 1553 2238 1856 2203 
L 2053 2175 
Q 2913 2066 3209 1816 
Q 3506 1566 3506 1031 
Q 3506 472 3093 190 
Q 2681 -91 1863 -91 
Q 1516 -91 1145 -36 
Q 775 19 384 128 
L 384 978 
Q 719 816 1070 734 
Q 1422 653 1784 653 
Q 2113 653 2278 743 
Q 2444 834 2444 1013 
Q 2444 1163 2330 1236 
Q 2216 1309 1875 1350 
L 1678 1375 
Q 931 1469 631 1722 
Q 331 1975 331 2491 
Q 331 3047 712 3315 
Q 1094 3584 1881 3584 
Q 2191 3584 2531 3537 
Q 2872 3491 3272 3391 
z
" transform="scale(0.015625)"/>
     <path id="DejaVuSans-Bold-3a" d="M 716 3500 
L 1844 3500 
L 1844 2291 
L 716 2291 
L 716 3500 
z
M 716 1209 
L 1844 1209 
L 1844 0 
L 716 0 
L 716 1209 
z
" transform="scale(0.015625)"/>
     <path id="DejaVuSans-Bold-48" d="M 588 4666 
L 1791 4666 
L 1791 2888 
L 3566 2888 
L 3566 4666 
L 4769 4666 
L 4769 0 
L 3566 0 
L 3566 1978 
L 1791 1978 
L 1791 0 
L 588 0 
L 588 4666 
z
" transform="scale(0.015625)"/>
     <path id="DejaVuSans-Bold-69" d="M 538 3500 
L 1656 3500 
L 1656 0 
L 538 0 
L 538 3500 
z
M 538 4863 
L 1656 4863 
L 1656 3950 
L 538 3950 
L 538 4863 
z
" transform="scale(0.015625)"/>
     <path id="DejaVuSans-Bold-65" d="M 4031 1759 
L 4031 1441 
L 1416 1441 
Q 1456 1047 1700 850 
Q 1944 653 2381 653 
Q 2734 653 3104 758 
Q 3475 863 3866 1075 
L 3866 213 
Q 3469 63 3072 -14 
Q 2675 -91 2278 -91 
Q 1328 -91 801 392 
Q 275 875 275 1747 
Q 275 2603 792 3093 
Q 1309 3584 2216 3584 
Q 3041 3584 3536 3087 
Q 4031 2591 4031 1759 
z
M 2881 2131 
Q 2881 2450 2695 2645 
Q 2509 2841 2209 2841 
Q 1884 2841 1681 2658 
Q 1478 2475 1428 2131 
L 2881 2131 
z
" transform="scale(0.015625)"/>
     <path id="DejaVuSans-Bold-61" d="M 2106 1575 
Q 1756 1575 1579 1456 
Q 1403 1338 1403 1106 
Q 1403 894 1545 773 
Q 1688 653 1941 653 
Q 2256 653 2472 879 
Q 2688 1106 2688 1447 
L 2688 1575 
L 2106 1575 
z
M 3816 1997 
L 3816 0 
L 2688 0 
L 2688 519 
Q 2463 200 2181 54 
Q 1900 -91 1497 -91 
Q 953 -91 614 226 
Q 275 544 275 1050 
Q 275 1666 698 1953 
Q 1122 2241 2028 2241 
L 2688 2241 
L 2688 2328 
Q 2688 2594 2478 2717 
Q 2269 2841 1825 2841 
Q 1466 2841 1156 2769 
Q 847 2697 581 2553 
L 581 3406 
Q 941 3494 1303 3539 
Q 1666 3584 2028 3584 
Q 2975 3584 3395 3211 
Q 3816 2838 3816 1997 
z
" transform="scale(0.015625)"/>
     <path id="DejaVuSans-Bold-68" d="M 4056 2131 
L 4056 0 
L 2931 0 
L 2931 347 
L 2931 1625 
Q 2931 2084 2911 2256 
Q 2891 2428 2841 2509 
Q 2775 2619 2662 2680 
Q 2550 2741 2406 2741 
Q 2056 2741 1856 2470 
Q 1656 2200 1656 1722 
L 1656 0 
L 538 0 
L 538 4863 
L 1656 4863 
L 1656 2988 
Q 1909 3294 2193 3439 
Q 2478 3584 2822 3584 
Q 3428 3584 3742 3212 
Q 4056 2841 4056 2131 
z
" transform="scale(0.015625)"/>
     <path id="DejaVuSans-Bold-28" d="M 2413 -844 
L 1484 -844 
Q 1006 -72 778 623 
Q 550 1319 550 2003 
Q 550 2688 779 3389 
Q 1009 4091 1484 4856 
L 2413 4856 
Q 2013 4116 1813 3408 
Q 1613 2700 1613 2009 
Q 1613 1319 1811 609 
Q 2009 -100 2413 -844 
z
" transform="scale(0.015625)"/>
     <path id="DejaVuSans-Bold-6e" d="M 4056 2131 
L 4056 0 
L 2931 0 
L 2931 347 
L 2931 1631 
Q 2931 2084 2911 2256 
Q 2891 2428 2841 2509 
Q 2775 2619 2662 2680 
Q 2550 2741 2406 2741 
Q 2056 2741 1856 2470 
Q 1656 2200 1656 1722 
L 1656 0 
L 538 0 
L 538 3500 
L 1656 3500 
L 1656 2988 
Q 1909 3294 2193 3439 
Q 2478 3584 2822 3584 
Q 3428 3584 3742 3212 
Q 4056 2841 4056 2131 
z
" transform="scale(0.015625)"/>
     <path id="DejaVuSans-Bold-74" d="M 1759 4494 
L 1759 3500 
L 2913 3500 
L 2913 2700 
L 1759 2700 
L 1759 1216 
Q 1759 972 1856 886 
Q 1953 800 2241 800 
L 2816 800 
L 2816 0 
L 1856 0 
Q 1194 0 917 276 
Q 641 553 641 1216 
L 641 2700 
L 84 2700 
L 84 3500 
L 641 3500 
L 641 4494 
L 1759 4494 
z
" transform="scale(0.015625)"/>
     <path id="DejaVuSans-Bold-64" d="M 2919 2988 
L 2919 4863 
L 4044 4863 
L 4044 0 
L 2919 0 
L 2919 506 
Q 2688 197 2409 53 
Q 2131 -91 1766 -91 
Q 1119 -91 703 423 
Q 288 938 288 1747 
Q 288 2556 703 3070 
Q 1119 3584 1766 3584 
Q 2128 3584 2408 3439 
Q 2688 3294 2919 2988 
z
M 2181 722 
Q 2541 722 2730 984 
Q 2919 1247 2919 1747 
Q 2919 2247 2730 2509 
Q 2541 2772 2181 2772 
Q 1825 2772 1636 2509 
Q 1447 2247 1447 1747 
Q 1447 1247 1636 984 
Q 1825 722 2181 722 
z
" transform="scale(0.015625)"/>
     <path id="DejaVuSans-Bold-29" d="M 513 -844 
Q 913 -100 1113 609 
Q 1313 1319 1313 2009 
Q 1313 2700 1113 3408 
Q 913 4116 513 4856 
L 1441 4856 
Q 1916 4091 2145 3389 
Q 2375 2688 2375 2003 
Q 2375 1319 2147 623 
Q 1919 -72 1441 -844 
L 513 -844 
z
" transform="scale(0.015625)"/>
    </defs>
    <use xlink:href="#DejaVuSans-Bold-42"/>
    <use xlink:href="#DejaVuSans-Bold-6c" transform="translate(76.220703 0)"/>
    <use xlink:href="#DejaVuSans-Bold-6f" transform="translate(110.498047 0)"/>
    <use xlink:href="#DejaVuSans-Bold-63" transform="translate(179.199219 0)"/>
    <use xlink:href="#DejaVuSans-Bold-6b" transform="translate(238.476562 0)"/>
    <use xlink:href="#DejaVuSans-Bold-20" transform="translate(304.980469 0)"/>
    <use xlink:href="#DejaVuSans-Bold-67" transform="translate(339.794922 0)"/>
    <use xlink:href="#DejaVuSans-Bold-72" transform="translate(411.376953 0)"/>
    <use xlink:href="#DejaVuSans-Bold-6f" transform="translate(460.693359 0)"/>
    <use xlink:href="#DejaVuSans-Bold-75" transform="translate(529.394531 0)"/>
    <use xlink:href="#DejaVuSans-Bold-70" transform="translate(600.585938 0)"/>
    <use xlink:href="#DejaVuSans-Bold-73" transform="translate(672.167969 0)"/>
    <use xlink:href="#DejaVuSans-Bold-3a" transform="translate(731.689453 0)"/>
    <use xlink:href="#DejaVuSans-Bold-20" transform="translate(771.679688 0)"/>
    <use xlink:href="#DejaVuSans-Bold-48" transform="translate(806.494141 0)"/>
    <use xlink:href="#DejaVuSans-Bold-69" transform="translate(890.185547 0)"/>
    <use xlink:href="#DejaVuSans-Bold-65" transform="translate(924.462891 0)"/>
    <use xlink:href="#DejaVuSans-Bold-72" transform="translate(992.285156 0)"/>
    <use xlink:href="#DejaVuSans-Bold-61" transform="translate(1041.601562 0)"/>
    <use xlink:href="#DejaVuSans-Bold-72" transform="translate(1109.082031 0)"/>
    <use xlink:href="#DejaVuSans-Bold-63" transform="translate(1158.398438 0)"/>
    <use xlink:href="#DejaVuSans-Bold-68" transform="translate(1217.675781 0)"/>
    <use xlink:href="#DejaVuSans-Bold-69" transform="translate(1288.867188 0)"/>
    <use xlink:href="#DejaVuSans-Bold-63" transform="translate(1323.144531 0)"/>
    <use xlink:href="#DejaVuSans-Bold-61" transform="translate(1382.421875 0)"/>
    <use xlink:href="#DejaVuSans-Bold-6c" transform="translate(1449.902344 0)"/>
    <use xlink:href="#DejaVuSans-Bold-20" transform="translate(1484.179688 0)"/>
    <use xlink:href="#DejaVuSans-Bold-28" transform="translate(1518.994141 0)"/>
    <use xlink:href="#DejaVuSans-Bold-75" transform="translate(1564.697266 0)"/>
    <use xlink:href="#DejaVuSans-Bold-6e" transform="translate(1635.888672 0)"/>
    <use xlink:href="#DejaVuSans-Bold-63" transform="translate(1707.080078 0)"/>
    <use xlink:href="#DejaVuSans-Bold-6c" transform="translate(1766.357422 0)"/>
    <use xlink:href="#DejaVuSans-Bold-75" transform="translate(1800.634766 0)"/>
    <use xlink:href="#DejaVuSans-Bold-73" transform="translate(1871.826172 0)"/>
    <use xlink:href="#DejaVuSans-Bold-74" transform="translate(1931.347656 0)"/>
    <use xlink:href="#DejaVuSans-Bold-65" transform="translate(1979.150391 0)"/>
    <use xlink:href="#DejaVuSans-Bold-72" transform="translate(2046.972656 0)"/>
    <use xlink:href="#DejaVuSans-Bold-65" transform="translate(2096.289062 0)"/>
    <use xlink:href="#DejaVuSans-Bold-64" transform="translate(2164.111328 0)"/>
    <use xlink:href="#DejaVuSans-Bold-29" transform="translate(2235.693359 0)"/>
   </g>
  </g>
 </g>
 <defs>
  <clipPath id="p44803c9e20">
   <rect x="90" y="51.84" width="558" height="332.64"/>
  </clipPath>
 </defs>
</svg>
