<?xml version="1.0" encoding="utf-8" standalone="no"?>
<!DOCTYPE svg PUBLIC "-//W3C//DTD SVG 1.1//EN"
  "http://www.w3.org/Graphics/SVG/1.1/DTD/svg11.dtd">
<svg xmlns:xlink="http://www.w3.org/1999/xlink" width="720pt" height="432pt" viewBox="0 0 720 432" xmlns="http://www.w3.org/2000/svg" version="1.1">
 <metadata>
  <rdf:RDF xmlns:dc="http://purl.org/dc/elements/1.1/" xmlns:cc="http://creativecommons.org/ns#" xmlns:rdf="http://www.w3.org/1999/02/22-rdf-syntax-ns#">
   <cc:Work>
    <dc:type rdf:resource="http://purl.org/dc/dcmitype/StillImage"/>
    <dc:date>2025-11-03T06:19:14.095192</dc:date>
    <dc:format>image/svg+xml</dc:format>
    <dc:creator>
     <cc:Agent>
      <dc:title>Matplotlib v3.10.7, https://matplotlib.org/</dc:title>
     </cc:Agent>
    </dc:creator>
   </cc:Work>
  </rdf:RDF>
 </metadata>
 <defs>
  <style type="text/css">*{stroke-linejoin: round; stroke-linecap: butt}</style>
 </defs>
 <g id="figure_1">
  <g id="patch_1">
   <path d="M 0 432 
L 720 432 
L 720 0 
L 0 0 
z
" style="fill: #ffffff"/>
  </g>
  <g id="axes_1">
   <g id="LineCollection_1">
    <path d="M 225.175361 138.894655 
L 211.890624 140.095845 
" clip-path="url(#p291cc365c7)" style="fill: none; stroke: #000000"/>
    <path d="M 225.175361 138.894655 
L 187.584759 120.909755 
" clip-path="url(#p291cc365c7)" style="fill: none; stroke: #000000"/>
    <path d="M 225.175361 138.894655 
L 178.828307 137.438522 
" clip-path="url(#p291cc365c7)" style="fill: none; stroke: #000000"/>
    <path d="M 225.175361 138.894655 
L 175.809661 122.177999 
" clip-path="url(#p291cc365c7)" style="fill: none; stroke: #000000"/>
    <path d="M 225.175361 138.894655 
L 210.888679 126.958389 
" clip-path="url(#p291cc365c7)" style="fill: none; stroke: #000000"/>
    <path d="M 225.175361 138.894655 
L 244.033876 165.010167 
" clip-path="url(#p291cc365c7)" style="fill: none; stroke: #000000"/>
    <path d="M 225.175361 138.894655 
L 214.46328 152.425744 
" clip-path="url(#p291cc365c7)" style="fill: none; stroke: #000000"/>
    <path d="M 225.175361 138.894655 
L 238.491859 120.154002 
" clip-path="url(#p291cc365c7)" style="fill: none; stroke: #000000"/>
    <path d="M 225.175361 138.894655 
L 228.176125 127.761572 
" clip-path="url(#p291cc365c7)" style="fill: none; stroke: #000000"/>
    <path d="M 91.818895 58.91512 
L 126.280151 92.748091 
" clip-path="url(#p291cc365c7)" style="fill: none; stroke: #000000"/>
    <path d="M 211.890624 140.095845 
L 187.584759 120.909755 
" clip-path="url(#p291cc365c7)" style="fill: none; stroke: #000000"/>
    <path d="M 211.890624 140.095845 
L 178.828307 137.438522 
" clip-path="url(#p291cc365c7)" style="fill: none; stroke: #000000"/>
    <path d="M 211.890624 140.095845 
L 175.809661 122.177999 
" clip-path="url(#p291cc365c7)" style="fill: none; stroke: #000000"/>
    <path d="M 211.890624 140.095845 
L 210.888679 126.958389 
" clip-path="url(#p291cc365c7)" style="fill: none; stroke: #000000"/>
    <path d="M 211.890624 140.095845 
L 244.033876 165.010167 
" clip-path="url(#p291cc365c7)" style="fill: none; stroke: #000000"/>
    <path d="M 211.890624 140.095845 
L 214.46328 152.425744 
" clip-path="url(#p291cc365c7)" style="fill: none; stroke: #000000"/>
    <path d="M 211.890624 140.095845 
L 238.491859 120.154002 
" clip-path="url(#p291cc365c7)" style="fill: none; stroke: #000000"/>
    <path d="M 211.890624 140.095845 
L 228.176125 127.761572 
" clip-path="url(#p291cc365c7)" style="fill: none; stroke: #000000"/>
    <path d="M 126.280151 92.748091 
L 165.059729 92.923289 
" clip-path="url(#p291cc365c7)" style="fill: none; stroke: #000000"/>
    <path d="M 126.280151 92.748091 
L 120.697041 113.629312 
" clip-path="url(#p291cc365c7)" style="fill: none; stroke: #000000"/>
    <path d="M 126.280151 92.748091 
L 129.825566 126.067475 
" clip-path="url(#p291cc365c7)" style="fill: none; stroke: #000000"/>
    <path d="M 126.280151 92.748091 
L 175.809661 122.177999 
" clip-path="url(#p291cc365c7)" style="fill: none; stroke: #000000"/>
    <path d="M 58.06072 98.924694 
L 120.697041 113.629312 
" clip-path="url(#p291cc365c7)" style="fill: none; stroke: #000000"/>
    <path d="M 187.584759 120.909755 
L 165.059729 92.923289 
" clip-path="url(#p291cc365c7)" style="fill: none; stroke: #000000"/>
    <path d="M 187.584759 120.909755 
L 120.697041 113.629312 
" clip-path="url(#p291cc365c7)" style="fill: none; stroke: #000000"/>
    <path d="M 187.584759 120.909755 
L 149.158249 136.52724 
" clip-path="url(#p291cc365c7)" style="fill: none; stroke: #000000"/>
    <path d="M 187.584759 120.909755 
L 192.178129 91.548541 
" clip-path="url(#p291cc365c7)" style="fill: none; stroke: #000000"/>
    <path d="M 187.584759 120.909755 
L 178.828307 137.438522 
" clip-path="url(#p291cc365c7)" style="fill: none; stroke: #000000"/>
    <path d="M 187.584759 120.909755 
L 129.825566 126.067475 
" clip-path="url(#p291cc365c7)" style="fill: none; stroke: #000000"/>
    <path d="M 187.584759 120.909755 
L 175.809661 122.177999 
" clip-path="url(#p291cc365c7)" style="fill: none; stroke: #000000"/>
    <path d="M 187.584759 120.909755 
L 210.888679 126.958389 
" clip-path="url(#p291cc365c7)" style="fill: none; stroke: #000000"/>
    <path d="M 187.584759 120.909755 
L 214.46328 152.425744 
" clip-path="url(#p291cc365c7)" style="fill: none; stroke: #000000"/>
    <path d="M 187.584759 120.909755 
L 238.491859 120.154002 
" clip-path="url(#p291cc365c7)" style="fill: none; stroke: #000000"/>
    <path d="M 187.584759 120.909755 
L 228.176125 127.761572 
" clip-path="url(#p291cc365c7)" style="fill: none; stroke: #000000"/>
    <path d="M 165.059729 92.923289 
L 192.178129 91.548541 
" clip-path="url(#p291cc365c7)" style="fill: none; stroke: #000000"/>
    <path d="M 165.059729 92.923289 
L 175.809661 122.177999 
" clip-path="url(#p291cc365c7)" style="fill: none; stroke: #000000"/>
    <path d="M 120.697041 113.629312 
L 127.157781 147.81725 
" clip-path="url(#p291cc365c7)" style="fill: none; stroke: #000000"/>
    <path d="M 120.697041 113.629312 
L 175.809661 122.177999 
" clip-path="url(#p291cc365c7)" style="fill: none; stroke: #000000"/>
    <path d="M 149.158249 136.52724 
L 127.157781 147.81725 
" clip-path="url(#p291cc365c7)" style="fill: none; stroke: #000000"/>
    <path d="M 149.158249 136.52724 
L 178.828307 137.438522 
" clip-path="url(#p291cc365c7)" style="fill: none; stroke: #000000"/>
    <path d="M 149.158249 136.52724 
L 129.825566 126.067475 
" clip-path="url(#p291cc365c7)" style="fill: none; stroke: #000000"/>
    <path d="M 149.158249 136.52724 
L 175.809661 122.177999 
" clip-path="url(#p291cc365c7)" style="fill: none; stroke: #000000"/>
    <path d="M 541.25949 280.968678 
L 564.729664 268.833416 
" clip-path="url(#p291cc365c7)" style="fill: none; stroke: #000000"/>
    <path d="M 134.500733 187.233453 
L 127.157781 147.81725 
" clip-path="url(#p291cc365c7)" style="fill: none; stroke: #000000"/>
    <path d="M 134.500733 187.233453 
L 188.75719 190.037556 
" clip-path="url(#p291cc365c7)" style="fill: none; stroke: #000000"/>
    <path d="M 62.986528 134.389101 
L 129.825566 126.067475 
" clip-path="url(#p291cc365c7)" style="fill: none; stroke: #000000"/>
    <path d="M 127.157781 147.81725 
L 129.825566 126.067475 
" clip-path="url(#p291cc365c7)" style="fill: none; stroke: #000000"/>
    <path d="M 127.157781 147.81725 
L 175.809661 122.177999 
" clip-path="url(#p291cc365c7)" style="fill: none; stroke: #000000"/>
    <path d="M 192.178129 91.548541 
L 175.809661 122.177999 
" clip-path="url(#p291cc365c7)" style="fill: none; stroke: #000000"/>
    <path d="M 178.828307 137.438522 
L 129.825566 126.067475 
" clip-path="url(#p291cc365c7)" style="fill: none; stroke: #000000"/>
    <path d="M 178.828307 137.438522 
L 175.809661 122.177999 
" clip-path="url(#p291cc365c7)" style="fill: none; stroke: #000000"/>
    <path d="M 178.828307 137.438522 
L 210.888679 126.958389 
" clip-path="url(#p291cc365c7)" style="fill: none; stroke: #000000"/>
    <path d="M 129.825566 126.067475 
L 175.809661 122.177999 
" clip-path="url(#p291cc365c7)" style="fill: none; stroke: #000000"/>
    <path d="M 175.809661 122.177999 
L 210.888679 126.958389 
" clip-path="url(#p291cc365c7)" style="fill: none; stroke: #000000"/>
    <path d="M 175.809661 122.177999 
L 214.46328 152.425744 
" clip-path="url(#p291cc365c7)" style="fill: none; stroke: #000000"/>
    <path d="M 175.809661 122.177999 
L 238.491859 120.154002 
" clip-path="url(#p291cc365c7)" style="fill: none; stroke: #000000"/>
    <path d="M 175.809661 122.177999 
L 228.176125 127.761572 
" clip-path="url(#p291cc365c7)" style="fill: none; stroke: #000000"/>
    <path d="M 210.888679 126.958389 
L 214.46328 152.425744 
" clip-path="url(#p291cc365c7)" style="fill: none; stroke: #000000"/>
    <path d="M 210.888679 126.958389 
L 238.491859 120.154002 
" clip-path="url(#p291cc365c7)" style="fill: none; stroke: #000000"/>
    <path d="M 210.888679 126.958389 
L 228.176125 127.761572 
" clip-path="url(#p291cc365c7)" style="fill: none; stroke: #000000"/>
    <path d="M 188.75719 190.037556 
L 214.46328 152.425744 
" clip-path="url(#p291cc365c7)" style="fill: none; stroke: #000000"/>
    <path d="M 188.75719 190.037556 
L 230.159265 187.135881 
" clip-path="url(#p291cc365c7)" style="fill: none; stroke: #000000"/>
    <path d="M 244.033876 165.010167 
L 214.46328 152.425744 
" clip-path="url(#p291cc365c7)" style="fill: none; stroke: #000000"/>
    <path d="M 244.033876 165.010167 
L 230.159265 187.135881 
" clip-path="url(#p291cc365c7)" style="fill: none; stroke: #000000"/>
    <path d="M 296.957738 100.157339 
L 238.491859 120.154002 
" clip-path="url(#p291cc365c7)" style="fill: none; stroke: #000000"/>
    <path d="M 214.46328 152.425744 
L 238.491859 120.154002 
" clip-path="url(#p291cc365c7)" style="fill: none; stroke: #000000"/>
    <path d="M 214.46328 152.425744 
L 228.176125 127.761572 
" clip-path="url(#p291cc365c7)" style="fill: none; stroke: #000000"/>
    <path d="M 214.46328 152.425744 
L 230.159265 187.135881 
" clip-path="url(#p291cc365c7)" style="fill: none; stroke: #000000"/>
    <path d="M 238.491859 120.154002 
L 228.176125 127.761572 
" clip-path="url(#p291cc365c7)" style="fill: none; stroke: #000000"/>
   </g>
   <g id="PathCollection_1">
    <defs>
     <path id="C0_0_508fdf43e0" d="M 0 2.828427 
C 0.750108 2.828427 1.469594 2.530406 2 2 
C 2.530406 1.469594 2.828427 0.750108 2.828427 -0 
C 2.828427 -0.750108 2.530406 -1.469594 2 -2 
C 1.469594 -2.530406 0.750108 -2.828427 0 -2.828427 
C -0.750108 -2.828427 -1.469594 -2.530406 -2 -2 
C -2.530406 -1.469594 -2.828427 -0.750108 -2.828427 0 
C -2.828427 0.750108 -2.530406 1.469594 -2 2 
C -1.469594 2.530406 -0.750108 2.828427 0 2.828427 
z
"/>
    </defs>
    <g clip-path="url(#p291cc365c7)">
     <use xlink:href="#C0_0_508fdf43e0" x="225.175361" y="138.894655" style="fill: #add8e6; stroke: #add8e6"/>
    </g>
    <g clip-path="url(#p291cc365c7)">
     <use xlink:href="#C0_0_508fdf43e0" x="91.818895" y="58.91512" style="fill: #add8e6; stroke: #add8e6"/>
    </g>
    <g clip-path="url(#p291cc365c7)">
     <use xlink:href="#C0_0_508fdf43e0" x="211.890624" y="140.095845" style="fill: #add8e6; stroke: #add8e6"/>
    </g>
    <g clip-path="url(#p291cc365c7)">
     <use xlink:href="#C0_0_508fdf43e0" x="126.280151" y="92.748091" style="fill: #add8e6; stroke: #add8e6"/>
    </g>
    <g clip-path="url(#p291cc365c7)">
     <use xlink:href="#C0_0_508fdf43e0" x="58.06072" y="98.924694" style="fill: #add8e6; stroke: #add8e6"/>
    </g>
    <g clip-path="url(#p291cc365c7)">
     <use xlink:href="#C0_0_508fdf43e0" x="187.584759" y="120.909755" style="fill: #add8e6; stroke: #add8e6"/>
    </g>
    <g clip-path="url(#p291cc365c7)">
     <use xlink:href="#C0_0_508fdf43e0" x="165.059729" y="92.923289" style="fill: #add8e6; stroke: #add8e6"/>
    </g>
    <g clip-path="url(#p291cc365c7)">
     <use xlink:href="#C0_0_508fdf43e0" x="120.697041" y="113.629312" style="fill: #add8e6; stroke: #add8e6"/>
    </g>
    <g clip-path="url(#p291cc365c7)">
     <use xlink:href="#C0_0_508fdf43e0" x="619.685952" y="19.636364" style="fill: #add8e6; stroke: #add8e6"/>
    </g>
    <g clip-path="url(#p291cc365c7)">
     <use xlink:href="#C0_0_508fdf43e0" x="149.158249" y="136.52724" style="fill: #add8e6; stroke: #add8e6"/>
    </g>
    <g clip-path="url(#p291cc365c7)">
     <use xlink:href="#C0_0_508fdf43e0" x="290.414048" y="412.363636" style="fill: #add8e6; stroke: #add8e6"/>
    </g>
    <g clip-path="url(#p291cc365c7)">
     <use xlink:href="#C0_0_508fdf43e0" x="541.25949" y="280.968678" style="fill: #ff69b4; stroke: #ff69b4"/>
    </g>
    <g clip-path="url(#p291cc365c7)">
     <use xlink:href="#C0_0_508fdf43e0" x="134.500733" y="187.233453" style="fill: #ff69b4; stroke: #ff69b4"/>
    </g>
    <g clip-path="url(#p291cc365c7)">
     <use xlink:href="#C0_0_508fdf43e0" x="62.986528" y="134.389101" style="fill: #ff69b4; stroke: #ff69b4"/>
    </g>
    <g clip-path="url(#p291cc365c7)">
     <use xlink:href="#C0_0_508fdf43e0" x="127.157781" y="147.81725" style="fill: #ff69b4; stroke: #ff69b4"/>
    </g>
    <g clip-path="url(#p291cc365c7)">
     <use xlink:href="#C0_0_508fdf43e0" x="192.178129" y="91.548541" style="fill: #ff69b4; stroke: #ff69b4"/>
    </g>
    <g clip-path="url(#p291cc365c7)">
     <use xlink:href="#C0_0_508fdf43e0" x="178.828307" y="137.438522" style="fill: #ff69b4; stroke: #ff69b4"/>
    </g>
    <g clip-path="url(#p291cc365c7)">
     <use xlink:href="#C0_0_508fdf43e0" x="129.825566" y="126.067475" style="fill: #ff69b4; stroke: #ff69b4"/>
    </g>
    <g clip-path="url(#p291cc365c7)">
     <use xlink:href="#C0_0_508fdf43e0" x="564.729664" y="268.833416" style="fill: #ff69b4; stroke: #ff69b4"/>
    </g>
    <g clip-path="url(#p291cc365c7)">
     <use xlink:href="#C0_0_508fdf43e0" x="175.809661" y="122.177999" style="fill: #ff69b4; stroke: #ff69b4"/>
    </g>
    <g clip-path="url(#p291cc365c7)">
     <use xlink:href="#C0_0_508fdf43e0" x="687.272727" y="118.695809" style="fill: #ff69b4; stroke: #ff69b4"/>
    </g>
    <g clip-path="url(#p291cc365c7)">
     <use xlink:href="#C0_0_508fdf43e0" x="210.888679" y="126.958389" style="fill: #ff69b4; stroke: #ff69b4"/>
    </g>
    <g clip-path="url(#p291cc365c7)">
     <use xlink:href="#C0_0_508fdf43e0" x="188.75719" y="190.037556" style="fill: #ff69b4; stroke: #ff69b4"/>
    </g>
    <g clip-path="url(#p291cc365c7)">
     <use xlink:href="#C0_0_508fdf43e0" x="244.033876" y="165.010167" style="fill: #ff69b4; stroke: #ff69b4"/>
    </g>
    <g clip-path="url(#p291cc365c7)">
     <use xlink:href="#C0_0_508fdf43e0" x="296.957738" y="100.157339" style="fill: #ff69b4; stroke: #ff69b4"/>
    </g>
    <g clip-path="url(#p291cc365c7)">
     <use xlink:href="#C0_0_508fdf43e0" x="214.46328" y="152.425744" style="fill: #ff69b4; stroke: #ff69b4"/>
    </g>
    <g clip-path="url(#p291cc365c7)">
     <use xlink:href="#C0_0_508fdf43e0" x="238.491859" y="120.154002" style="fill: #ff69b4; stroke: #ff69b4"/>
    </g>
    <g clip-path="url(#p291cc365c7)">
     <use xlink:href="#C0_0_508fdf43e0" x="228.176125" y="127.761572" style="fill: #ff69b4; stroke: #ff69b4"/>
    </g>
    <g clip-path="url(#p291cc365c7)">
     <use xlink:href="#C0_0_508fdf43e0" x="230.159265" y="187.135881" style="fill: #ff69b4; stroke: #ff69b4"/>
    </g>
   </g>
   <g id="text_1">
    <g clip-path="url(#p291cc365c7)">
     <!-- 180100_1 -->
     <g transform="translate(205.360361 140.92028) scale(0.08 -0.08)">
      <defs>
       <path id="DejaVuSans-31" d="M 794 531 
L 1825 531 
L 1825 4091 
L 703 3866 
L 703 4441 
L 1819 4666 
L 2450 4666 
L 2450 531 
L 3481 531 
L 3481 0 
L 794 0 
L 794 531 
z
" transform="scale(0.015625)"/>
       <path id="DejaVuSans-38" d="M 2034 2216 
Q 1584 2216 1326 1975 
Q 1069 1734 1069 1313 
Q 1069 891 1326 650 
Q 1584 409 2034 409 
Q 2484 409 2743 651 
Q 3003 894 3003 1313 
Q 3003 1734 2745 1975 
Q 2488 2216 2034 2216 
z
M 1403 2484 
Q 997 2584 770 2862 
Q 544 3141 544 3541 
Q 544 4100 942 4425 
Q 1341 4750 2034 4750 
Q 2731 4750 3128 4425 
Q 3525 4100 3525 3541 
Q 3525 3141 3298 2862 
Q 3072 2584 2669 2484 
Q 3125 2378 3379 2068 
Q 3634 1759 3634 1313 
Q 3634 634 3220 271 
Q 2806 -91 2034 -91 
Q 1263 -91 848 271 
Q 434 634 434 1313 
Q 434 1759 690 2068 
Q 947 2378 1403 2484 
z
M 1172 3481 
Q 1172 3119 1398 2916 
Q 1625 2713 2034 2713 
Q 2441 2713 2670 2916 
Q 2900 3119 2900 3481 
Q 2900 3844 2670 4047 
Q 2441 4250 2034 4250 
Q 1625 4250 1398 4047 
Q 1172 3844 1172 3481 
z
" transform="scale(0.015625)"/>
       <path id="DejaVuSans-30" d="M 2034 4250 
Q 1547 4250 1301 3770 
Q 1056 3291 1056 2328 
Q 1056 1369 1301 889 
Q 1547 409 2034 409 
Q 2525 409 2770 889 
Q 3016 1369 3016 2328 
Q 3016 3291 2770 3770 
Q 2525 4250 2034 4250 
z
M 2034 4750 
Q 2819 4750 3233 4129 
Q 3647 3509 3647 2328 
Q 3647 1150 3233 529 
Q 2819 -91 2034 -91 
Q 1250 -91 836 529 
Q 422 1150 422 2328 
Q 422 3509 836 4129 
Q 1250 4750 2034 4750 
z
" transform="scale(0.015625)"/>
       <path id="DejaVuSans-5f" d="M 3263 -1063 
L 3263 -1509 
L -63 -1509 
L -63 -1063 
L 3263 -1063 
z
" transform="scale(0.015625)"/>
      </defs>
      <use xlink:href="#DejaVuSans-31"/>
      <use xlink:href="#DejaVuSans-38" transform="translate(63.623047 0)"/>
      <use xlink:href="#DejaVuSans-30" transform="translate(127.246094 0)"/>
      <use xlink:href="#DejaVuSans-31" transform="translate(190.869141 0)"/>
      <use xlink:href="#DejaVuSans-30" transform="translate(254.492188 0)"/>
      <use xlink:href="#DejaVuSans-30" transform="translate(318.115234 0)"/>
      <use xlink:href="#DejaVuSans-5f" transform="translate(381.738281 0)"/>
      <use xlink:href="#DejaVuSans-31" transform="translate(431.738281 0)"/>
     </g>
    </g>
   </g>
   <g id="text_2">
    <g clip-path="url(#p291cc365c7)">
     <!-- 180100_2 -->
     <g transform="translate(72.003895 60.940745) scale(0.08 -0.08)">
      <defs>
       <path id="DejaVuSans-32" d="M 1228 531 
L 3431 531 
L 3431 0 
L 469 0 
L 469 531 
Q 828 903 1448 1529 
Q 2069 2156 2228 2338 
Q 2531 2678 2651 2914 
Q 2772 3150 2772 3378 
Q 2772 3750 2511 3984 
Q 2250 4219 1831 4219 
Q 1534 4219 1204 4116 
Q 875 4013 500 3803 
L 500 4441 
Q 881 4594 1212 4672 
Q 1544 4750 1819 4750 
Q 2544 4750 2975 4387 
Q 3406 4025 3406 3419 
Q 3406 3131 3298 2873 
Q 3191 2616 2906 2266 
Q 2828 2175 2409 1742 
Q 1991 1309 1228 531 
z
" transform="scale(0.015625)"/>
      </defs>
      <use xlink:href="#DejaVuSans-31"/>
      <use xlink:href="#DejaVuSans-38" transform="translate(63.623047 0)"/>
      <use xlink:href="#DejaVuSans-30" transform="translate(127.246094 0)"/>
      <use xlink:href="#DejaVuSans-31" transform="translate(190.869141 0)"/>
      <use xlink:href="#DejaVuSans-30" transform="translate(254.492188 0)"/>
      <use xlink:href="#DejaVuSans-30" transform="translate(318.115234 0)"/>
      <use xlink:href="#DejaVuSans-5f" transform="translate(381.738281 0)"/>
      <use xlink:href="#DejaVuSans-32" transform="translate(431.738281 0)"/>
     </g>
    </g>
   </g>
   <g id="text_3">
    <g clip-path="url(#p291cc365c7)">
     <!-- 180100_3 -->
     <g transform="translate(192.075624 142.12147) scale(0.08 -0.08)">
      <defs>
       <path id="DejaVuSans-33" d="M 2597 2516 
Q 3050 2419 3304 2112 
Q 3559 1806 3559 1356 
Q 3559 666 3084 287 
Q 2609 -91 1734 -91 
Q 1441 -91 1130 -33 
Q 819 25 488 141 
L 488 750 
Q 750 597 1062 519 
Q 1375 441 1716 441 
Q 2309 441 2620 675 
Q 2931 909 2931 1356 
Q 2931 1769 2642 2001 
Q 2353 2234 1838 2234 
L 1294 2234 
L 1294 2753 
L 1863 2753 
Q 2328 2753 2575 2939 
Q 2822 3125 2822 3475 
Q 2822 3834 2567 4026 
Q 2313 4219 1838 4219 
Q 1578 4219 1281 4162 
Q 984 4106 628 3988 
L 628 4550 
Q 988 4650 1302 4700 
Q 1616 4750 1894 4750 
Q 2613 4750 3031 4423 
Q 3450 4097 3450 3541 
Q 3450 3153 3228 2886 
Q 3006 2619 2597 2516 
z
" transform="scale(0.015625)"/>
      </defs>
      <use xlink:href="#DejaVuSans-31"/>
      <use xlink:href="#DejaVuSans-38" transform="translate(63.623047 0)"/>
      <use xlink:href="#DejaVuSans-30" transform="translate(127.246094 0)"/>
      <use xlink:href="#DejaVuSans-31" transform="translate(190.869141 0)"/>
      <use xlink:href="#DejaVuSans-30" transform="translate(254.492188 0)"/>
      <use xlink:href="#DejaVuSans-30" transform="translate(318.115234 0)"/>
      <use xlink:href="#DejaVuSans-5f" transform="translate(381.738281 0)"/>
      <use xlink:href="#DejaVuSans-33" transform="translate(431.738281 0)"/>
     </g>
    </g>
   </g>
   <g id="text_4">
    <g clip-path="url(#p291cc365c7)">
     <!-- 180100_4 -->
     <g transform="translate(106.465151 94.773716) scale(0.08 -0.08)">
      <defs>
       <path id="DejaVuSans-34" d="M 2419 4116 
L 825 1625 
L 2419 1625 
L 2419 4116 
z
M 2253 4666 
L 3047 4666 
L 3047 1625 
L 3713 1625 
L 3713 1100 
L 3047 1100 
L 3047 0 
L 2419 0 
L 2419 1100 
L 313 1100 
L 313 1709 
L 2253 4666 
z
" transform="scale(0.015625)"/>
      </defs>
      <use xlink:href="#DejaVuSans-31"/>
      <use xlink:href="#DejaVuSans-38" transform="translate(63.623047 0)"/>
      <use xlink:href="#DejaVuSans-30" transform="translate(127.246094 0)"/>
      <use xlink:href="#DejaVuSans-31" transform="translate(190.869141 0)"/>
      <use xlink:href="#DejaVuSans-30" transform="translate(254.492188 0)"/>
      <use xlink:href="#DejaVuSans-30" transform="translate(318.115234 0)"/>
      <use xlink:href="#DejaVuSans-5f" transform="translate(381.738281 0)"/>
      <use xlink:href="#DejaVuSans-34" transform="translate(431.738281 0)"/>
     </g>
    </g>
   </g>
   <g id="text_5">
    <g clip-path="url(#p291cc365c7)">
     <!-- 180100_5 -->
     <g transform="translate(38.24572 100.950319) scale(0.08 -0.08)">
      <defs>
       <path id="DejaVuSans-35" d="M 691 4666 
L 3169 4666 
L 3169 4134 
L 1269 4134 
L 1269 2991 
Q 1406 3038 1543 3061 
Q 1681 3084 1819 3084 
Q 2600 3084 3056 2656 
Q 3513 2228 3513 1497 
Q 3513 744 3044 326 
Q 2575 -91 1722 -91 
Q 1428 -91 1123 -41 
Q 819 9 494 109 
L 494 744 
Q 775 591 1075 516 
Q 1375 441 1709 441 
Q 2250 441 2565 725 
Q 2881 1009 2881 1497 
Q 2881 1984 2565 2268 
Q 2250 2553 1709 2553 
Q 1456 2553 1204 2497 
Q 953 2441 691 2322 
L 691 4666 
z
" transform="scale(0.015625)"/>
      </defs>
      <use xlink:href="#DejaVuSans-31"/>
      <use xlink:href="#DejaVuSans-38" transform="translate(63.623047 0)"/>
      <use xlink:href="#DejaVuSans-30" transform="translate(127.246094 0)"/>
      <use xlink:href="#DejaVuSans-31" transform="translate(190.869141 0)"/>
      <use xlink:href="#DejaVuSans-30" transform="translate(254.492188 0)"/>
      <use xlink:href="#DejaVuSans-30" transform="translate(318.115234 0)"/>
      <use xlink:href="#DejaVuSans-5f" transform="translate(381.738281 0)"/>
      <use xlink:href="#DejaVuSans-35" transform="translate(431.738281 0)"/>
     </g>
    </g>
   </g>
   <g id="text_6">
    <g clip-path="url(#p291cc365c7)">
     <!-- 831600_1 -->
     <g transform="translate(167.769759 122.93538) scale(0.08 -0.08)">
      <defs>
       <path id="DejaVuSans-36" d="M 2113 2584 
Q 1688 2584 1439 2293 
Q 1191 2003 1191 1497 
Q 1191 994 1439 701 
Q 1688 409 2113 409 
Q 2538 409 2786 701 
Q 3034 994 3034 1497 
Q 3034 2003 2786 2293 
Q 2538 2584 2113 2584 
z
M 3366 4563 
L 3366 3988 
Q 3128 4100 2886 4159 
Q 2644 4219 2406 4219 
Q 1781 4219 1451 3797 
Q 1122 3375 1075 2522 
Q 1259 2794 1537 2939 
Q 1816 3084 2150 3084 
Q 2853 3084 3261 2657 
Q 3669 2231 3669 1497 
Q 3669 778 3244 343 
Q 2819 -91 2113 -91 
Q 1303 -91 875 529 
Q 447 1150 447 2328 
Q 447 3434 972 4092 
Q 1497 4750 2381 4750 
Q 2619 4750 2861 4703 
Q 3103 4656 3366 4563 
z
" transform="scale(0.015625)"/>
      </defs>
      <use xlink:href="#DejaVuSans-38"/>
      <use xlink:href="#DejaVuSans-33" transform="translate(63.623047 0)"/>
      <use xlink:href="#DejaVuSans-31" transform="translate(127.246094 0)"/>
      <use xlink:href="#DejaVuSans-36" transform="translate(190.869141 0)"/>
      <use xlink:href="#DejaVuSans-30" transform="translate(254.492188 0)"/>
      <use xlink:href="#DejaVuSans-30" transform="translate(318.115234 0)"/>
      <use xlink:href="#DejaVuSans-5f" transform="translate(381.738281 0)"/>
      <use xlink:href="#DejaVuSans-31" transform="translate(431.738281 0)"/>
     </g>
    </g>
   </g>
   <g id="text_7">
    <g clip-path="url(#p291cc365c7)">
     <!-- 831600_2 -->
     <g transform="translate(145.244729 94.948914) scale(0.08 -0.08)">
      <use xlink:href="#DejaVuSans-38"/>
      <use xlink:href="#DejaVuSans-33" transform="translate(63.623047 0)"/>
      <use xlink:href="#DejaVuSans-31" transform="translate(127.246094 0)"/>
      <use xlink:href="#DejaVuSans-36" transform="translate(190.869141 0)"/>
      <use xlink:href="#DejaVuSans-30" transform="translate(254.492188 0)"/>
      <use xlink:href="#DejaVuSans-30" transform="translate(318.115234 0)"/>
      <use xlink:href="#DejaVuSans-5f" transform="translate(381.738281 0)"/>
      <use xlink:href="#DejaVuSans-32" transform="translate(431.738281 0)"/>
     </g>
    </g>
   </g>
   <g id="text_8">
    <g clip-path="url(#p291cc365c7)">
     <!-- 831600_3 -->
     <g transform="translate(100.882041 115.654937) scale(0.08 -0.08)">
      <use xlink:href="#DejaVuSans-38"/>
      <use xlink:href="#DejaVuSans-33" transform="translate(63.623047 0)"/>
      <use xlink:href="#DejaVuSans-31" transform="translate(127.246094 0)"/>
      <use xlink:href="#DejaVuSans-36" transform="translate(190.869141 0)"/>
      <use xlink:href="#DejaVuSans-30" transform="translate(254.492188 0)"/>
      <use xlink:href="#DejaVuSans-30" transform="translate(318.115234 0)"/>
      <use xlink:href="#DejaVuSans-5f" transform="translate(381.738281 0)"/>
      <use xlink:href="#DejaVuSans-33" transform="translate(431.738281 0)"/>
     </g>
    </g>
   </g>
   <g id="text_9">
    <g clip-path="url(#p291cc365c7)">
     <!-- 831600_4 -->
     <g transform="translate(599.870952 21.661989) scale(0.08 -0.08)">
      <use xlink:href="#DejaVuSans-38"/>
      <use xlink:href="#DejaVuSans-33" transform="translate(63.623047 0)"/>
      <use xlink:href="#DejaVuSans-31" transform="translate(127.246094 0)"/>
      <use xlink:href="#DejaVuSans-36" transform="translate(190.869141 0)"/>
      <use xlink:href="#DejaVuSans-30" transform="translate(254.492188 0)"/>
      <use xlink:href="#DejaVuSans-30" transform="translate(318.115234 0)"/>
      <use xlink:href="#DejaVuSans-5f" transform="translate(381.738281 0)"/>
      <use xlink:href="#DejaVuSans-34" transform="translate(431.738281 0)"/>
     </g>
    </g>
   </g>
   <g id="text_10">
    <g clip-path="url(#p291cc365c7)">
     <!-- 831600_5 -->
     <g transform="translate(129.343249 138.552865) scale(0.08 -0.08)">
      <use xlink:href="#DejaVuSans-38"/>
      <use xlink:href="#DejaVuSans-33" transform="translate(63.623047 0)"/>
      <use xlink:href="#DejaVuSans-31" transform="translate(127.246094 0)"/>
      <use xlink:href="#DejaVuSans-36" transform="translate(190.869141 0)"/>
      <use xlink:href="#DejaVuSans-30" transform="translate(254.492188 0)"/>
      <use xlink:href="#DejaVuSans-30" transform="translate(318.115234 0)"/>
      <use xlink:href="#DejaVuSans-5f" transform="translate(381.738281 0)"/>
      <use xlink:href="#DejaVuSans-35" transform="translate(431.738281 0)"/>
     </g>
    </g>
   </g>
   <g id="text_11">
    <g clip-path="url(#p291cc365c7)">
     <!-- 831600_6 -->
     <g transform="translate(270.599048 414.389261) scale(0.08 -0.08)">
      <use xlink:href="#DejaVuSans-38"/>
      <use xlink:href="#DejaVuSans-33" transform="translate(63.623047 0)"/>
      <use xlink:href="#DejaVuSans-31" transform="translate(127.246094 0)"/>
      <use xlink:href="#DejaVuSans-36" transform="translate(190.869141 0)"/>
      <use xlink:href="#DejaVuSans-30" transform="translate(254.492188 0)"/>
      <use xlink:href="#DejaVuSans-30" transform="translate(318.115234 0)"/>
      <use xlink:href="#DejaVuSans-5f" transform="translate(381.738281 0)"/>
      <use xlink:href="#DejaVuSans-36" transform="translate(431.738281 0)"/>
     </g>
    </g>
   </g>
   <g id="text_12">
    <g clip-path="url(#p291cc365c7)">
     <!-- 190100_1 -->
     <g transform="translate(521.44449 282.994303) scale(0.08 -0.08)">
      <defs>
       <path id="DejaVuSans-39" d="M 703 97 
L 703 672 
Q 941 559 1184 500 
Q 1428 441 1663 441 
Q 2288 441 2617 861 
Q 2947 1281 2994 2138 
Q 2813 1869 2534 1725 
Q 2256 1581 1919 1581 
Q 1219 1581 811 2004 
Q 403 2428 403 3163 
Q 403 3881 828 4315 
Q 1253 4750 1959 4750 
Q 2769 4750 3195 4129 
Q 3622 3509 3622 2328 
Q 3622 1225 3098 567 
Q 2575 -91 1691 -91 
Q 1453 -91 1209 -44 
Q 966 3 703 97 
z
M 1959 2075 
Q 2384 2075 2632 2365 
Q 2881 2656 2881 3163 
Q 2881 3666 2632 3958 
Q 2384 4250 1959 4250 
Q 1534 4250 1286 3958 
Q 1038 3666 1038 3163 
Q 1038 2656 1286 2365 
Q 1534 2075 1959 2075 
z
" transform="scale(0.015625)"/>
      </defs>
      <use xlink:href="#DejaVuSans-31"/>
      <use xlink:href="#DejaVuSans-39" transform="translate(63.623047 0)"/>
      <use xlink:href="#DejaVuSans-30" transform="translate(127.246094 0)"/>
      <use xlink:href="#DejaVuSans-31" transform="translate(190.869141 0)"/>
      <use xlink:href="#DejaVuSans-30" transform="translate(254.492188 0)"/>
      <use xlink:href="#DejaVuSans-30" transform="translate(318.115234 0)"/>
      <use xlink:href="#DejaVuSans-5f" transform="translate(381.738281 0)"/>
      <use xlink:href="#DejaVuSans-31" transform="translate(431.738281 0)"/>
     </g>
    </g>
   </g>
   <g id="text_13">
    <g clip-path="url(#p291cc365c7)">
     <!-- 190200_1 -->
     <g transform="translate(114.685733 189.259078) scale(0.08 -0.08)">
      <use xlink:href="#DejaVuSans-31"/>
      <use xlink:href="#DejaVuSans-39" transform="translate(63.623047 0)"/>
      <use xlink:href="#DejaVuSans-30" transform="translate(127.246094 0)"/>
      <use xlink:href="#DejaVuSans-32" transform="translate(190.869141 0)"/>
      <use xlink:href="#DejaVuSans-30" transform="translate(254.492188 0)"/>
      <use xlink:href="#DejaVuSans-30" transform="translate(318.115234 0)"/>
      <use xlink:href="#DejaVuSans-5f" transform="translate(381.738281 0)"/>
      <use xlink:href="#DejaVuSans-31" transform="translate(431.738281 0)"/>
     </g>
    </g>
   </g>
   <g id="text_14">
    <g clip-path="url(#p291cc365c7)">
     <!-- 190200_2 -->
     <g transform="translate(43.171528 136.414726) scale(0.08 -0.08)">
      <use xlink:href="#DejaVuSans-31"/>
      <use xlink:href="#DejaVuSans-39" transform="translate(63.623047 0)"/>
      <use xlink:href="#DejaVuSans-30" transform="translate(127.246094 0)"/>
      <use xlink:href="#DejaVuSans-32" transform="translate(190.869141 0)"/>
      <use xlink:href="#DejaVuSans-30" transform="translate(254.492188 0)"/>
      <use xlink:href="#DejaVuSans-30" transform="translate(318.115234 0)"/>
      <use xlink:href="#DejaVuSans-5f" transform="translate(381.738281 0)"/>
      <use xlink:href="#DejaVuSans-32" transform="translate(431.738281 0)"/>
     </g>
    </g>
   </g>
   <g id="text_15">
    <g clip-path="url(#p291cc365c7)">
     <!-- 190200_3 -->
     <g transform="translate(107.342781 149.842875) scale(0.08 -0.08)">
      <use xlink:href="#DejaVuSans-31"/>
      <use xlink:href="#DejaVuSans-39" transform="translate(63.623047 0)"/>
      <use xlink:href="#DejaVuSans-30" transform="translate(127.246094 0)"/>
      <use xlink:href="#DejaVuSans-32" transform="translate(190.869141 0)"/>
      <use xlink:href="#DejaVuSans-30" transform="translate(254.492188 0)"/>
      <use xlink:href="#DejaVuSans-30" transform="translate(318.115234 0)"/>
      <use xlink:href="#DejaVuSans-5f" transform="translate(381.738281 0)"/>
      <use xlink:href="#DejaVuSans-33" transform="translate(431.738281 0)"/>
     </g>
    </g>
   </g>
   <g id="text_16">
    <g clip-path="url(#p291cc365c7)">
     <!-- 190200_4 -->
     <g transform="translate(172.363129 93.574166) scale(0.08 -0.08)">
      <use xlink:href="#DejaVuSans-31"/>
      <use xlink:href="#DejaVuSans-39" transform="translate(63.623047 0)"/>
      <use xlink:href="#DejaVuSans-30" transform="translate(127.246094 0)"/>
      <use xlink:href="#DejaVuSans-32" transform="translate(190.869141 0)"/>
      <use xlink:href="#DejaVuSans-30" transform="translate(254.492188 0)"/>
      <use xlink:href="#DejaVuSans-30" transform="translate(318.115234 0)"/>
      <use xlink:href="#DejaVuSans-5f" transform="translate(381.738281 0)"/>
      <use xlink:href="#DejaVuSans-34" transform="translate(431.738281 0)"/>
     </g>
    </g>
   </g>
   <g id="text_17">
    <g clip-path="url(#p291cc365c7)">
     <!-- 190300_1 -->
     <g transform="translate(159.013307 139.464147) scale(0.08 -0.08)">
      <use xlink:href="#DejaVuSans-31"/>
      <use xlink:href="#DejaVuSans-39" transform="translate(63.623047 0)"/>
      <use xlink:href="#DejaVuSans-30" transform="translate(127.246094 0)"/>
      <use xlink:href="#DejaVuSans-33" transform="translate(190.869141 0)"/>
      <use xlink:href="#DejaVuSans-30" transform="translate(254.492188 0)"/>
      <use xlink:href="#DejaVuSans-30" transform="translate(318.115234 0)"/>
      <use xlink:href="#DejaVuSans-5f" transform="translate(381.738281 0)"/>
      <use xlink:href="#DejaVuSans-31" transform="translate(431.738281 0)"/>
     </g>
    </g>
   </g>
   <g id="text_18">
    <g clip-path="url(#p291cc365c7)">
     <!-- 190300_2 -->
     <g transform="translate(110.010566 128.0931) scale(0.08 -0.08)">
      <use xlink:href="#DejaVuSans-31"/>
      <use xlink:href="#DejaVuSans-39" transform="translate(63.623047 0)"/>
      <use xlink:href="#DejaVuSans-30" transform="translate(127.246094 0)"/>
      <use xlink:href="#DejaVuSans-33" transform="translate(190.869141 0)"/>
      <use xlink:href="#DejaVuSans-30" transform="translate(254.492188 0)"/>
      <use xlink:href="#DejaVuSans-30" transform="translate(318.115234 0)"/>
      <use xlink:href="#DejaVuSans-5f" transform="translate(381.738281 0)"/>
      <use xlink:href="#DejaVuSans-32" transform="translate(431.738281 0)"/>
     </g>
    </g>
   </g>
   <g id="text_19">
    <g clip-path="url(#p291cc365c7)">
     <!-- 190300_3 -->
     <g transform="translate(544.914664 270.859041) scale(0.08 -0.08)">
      <use xlink:href="#DejaVuSans-31"/>
      <use xlink:href="#DejaVuSans-39" transform="translate(63.623047 0)"/>
      <use xlink:href="#DejaVuSans-30" transform="translate(127.246094 0)"/>
      <use xlink:href="#DejaVuSans-33" transform="translate(190.869141 0)"/>
      <use xlink:href="#DejaVuSans-30" transform="translate(254.492188 0)"/>
      <use xlink:href="#DejaVuSans-30" transform="translate(318.115234 0)"/>
      <use xlink:href="#DejaVuSans-5f" transform="translate(381.738281 0)"/>
      <use xlink:href="#DejaVuSans-33" transform="translate(431.738281 0)"/>
     </g>
    </g>
   </g>
   <g id="text_20">
    <g clip-path="url(#p291cc365c7)">
     <!-- 190300_4 -->
     <g transform="translate(155.994661 124.203624) scale(0.08 -0.08)">
      <use xlink:href="#DejaVuSans-31"/>
      <use xlink:href="#DejaVuSans-39" transform="translate(63.623047 0)"/>
      <use xlink:href="#DejaVuSans-30" transform="translate(127.246094 0)"/>
      <use xlink:href="#DejaVuSans-33" transform="translate(190.869141 0)"/>
      <use xlink:href="#DejaVuSans-30" transform="translate(254.492188 0)"/>
      <use xlink:href="#DejaVuSans-30" transform="translate(318.115234 0)"/>
      <use xlink:href="#DejaVuSans-5f" transform="translate(381.738281 0)"/>
      <use xlink:href="#DejaVuSans-34" transform="translate(431.738281 0)"/>
     </g>
    </g>
   </g>
   <g id="text_21">
    <g clip-path="url(#p291cc365c7)">
     <!-- 170100_1 -->
     <g transform="translate(667.457727 120.721434) scale(0.08 -0.08)">
      <defs>
       <path id="DejaVuSans-37" d="M 525 4666 
L 3525 4666 
L 3525 4397 
L 1831 0 
L 1172 0 
L 2766 4134 
L 525 4134 
L 525 4666 
z
" transform="scale(0.015625)"/>
      </defs>
      <use xlink:href="#DejaVuSans-31"/>
      <use xlink:href="#DejaVuSans-37" transform="translate(63.623047 0)"/>
      <use xlink:href="#DejaVuSans-30" transform="translate(127.246094 0)"/>
      <use xlink:href="#DejaVuSans-31" transform="translate(190.869141 0)"/>
      <use xlink:href="#DejaVuSans-30" transform="translate(254.492188 0)"/>
      <use xlink:href="#DejaVuSans-30" transform="translate(318.115234 0)"/>
      <use xlink:href="#DejaVuSans-5f" transform="translate(381.738281 0)"/>
      <use xlink:href="#DejaVuSans-31" transform="translate(431.738281 0)"/>
     </g>
    </g>
   </g>
   <g id="text_22">
    <g clip-path="url(#p291cc365c7)">
     <!-- 170200_1 -->
     <g transform="translate(191.073679 128.984014) scale(0.08 -0.08)">
      <use xlink:href="#DejaVuSans-31"/>
      <use xlink:href="#DejaVuSans-37" transform="translate(63.623047 0)"/>
      <use xlink:href="#DejaVuSans-30" transform="translate(127.246094 0)"/>
      <use xlink:href="#DejaVuSans-32" transform="translate(190.869141 0)"/>
      <use xlink:href="#DejaVuSans-30" transform="translate(254.492188 0)"/>
      <use xlink:href="#DejaVuSans-30" transform="translate(318.115234 0)"/>
      <use xlink:href="#DejaVuSans-5f" transform="translate(381.738281 0)"/>
      <use xlink:href="#DejaVuSans-31" transform="translate(431.738281 0)"/>
     </g>
    </g>
   </g>
   <g id="text_23">
    <g clip-path="url(#p291cc365c7)">
     <!-- 170200_2 -->
     <g transform="translate(168.94219 192.063181) scale(0.08 -0.08)">
      <use xlink:href="#DejaVuSans-31"/>
      <use xlink:href="#DejaVuSans-37" transform="translate(63.623047 0)"/>
      <use xlink:href="#DejaVuSans-30" transform="translate(127.246094 0)"/>
      <use xlink:href="#DejaVuSans-32" transform="translate(190.869141 0)"/>
      <use xlink:href="#DejaVuSans-30" transform="translate(254.492188 0)"/>
      <use xlink:href="#DejaVuSans-30" transform="translate(318.115234 0)"/>
      <use xlink:href="#DejaVuSans-5f" transform="translate(381.738281 0)"/>
      <use xlink:href="#DejaVuSans-32" transform="translate(431.738281 0)"/>
     </g>
    </g>
   </g>
   <g id="text_24">
    <g clip-path="url(#p291cc365c7)">
     <!-- 170200_3 -->
     <g transform="translate(224.218876 167.035792) scale(0.08 -0.08)">
      <use xlink:href="#DejaVuSans-31"/>
      <use xlink:href="#DejaVuSans-37" transform="translate(63.623047 0)"/>
      <use xlink:href="#DejaVuSans-30" transform="translate(127.246094 0)"/>
      <use xlink:href="#DejaVuSans-32" transform="translate(190.869141 0)"/>
      <use xlink:href="#DejaVuSans-30" transform="translate(254.492188 0)"/>
      <use xlink:href="#DejaVuSans-30" transform="translate(318.115234 0)"/>
      <use xlink:href="#DejaVuSans-5f" transform="translate(381.738281 0)"/>
      <use xlink:href="#DejaVuSans-33" transform="translate(431.738281 0)"/>
     </g>
    </g>
   </g>
   <g id="text_25">
    <g clip-path="url(#p291cc365c7)">
     <!-- 170300_1 -->
     <g transform="translate(277.142738 102.182964) scale(0.08 -0.08)">
      <use xlink:href="#DejaVuSans-31"/>
      <use xlink:href="#DejaVuSans-37" transform="translate(63.623047 0)"/>
      <use xlink:href="#DejaVuSans-30" transform="translate(127.246094 0)"/>
      <use xlink:href="#DejaVuSans-33" transform="translate(190.869141 0)"/>
      <use xlink:href="#DejaVuSans-30" transform="translate(254.492188 0)"/>
      <use xlink:href="#DejaVuSans-30" transform="translate(318.115234 0)"/>
      <use xlink:href="#DejaVuSans-5f" transform="translate(381.738281 0)"/>
      <use xlink:href="#DejaVuSans-31" transform="translate(431.738281 0)"/>
     </g>
    </g>
   </g>
   <g id="text_26">
    <g clip-path="url(#p291cc365c7)">
     <!-- 170300_2 -->
     <g transform="translate(194.64828 154.451369) scale(0.08 -0.08)">
      <use xlink:href="#DejaVuSans-31"/>
      <use xlink:href="#DejaVuSans-37" transform="translate(63.623047 0)"/>
      <use xlink:href="#DejaVuSans-30" transform="translate(127.246094 0)"/>
      <use xlink:href="#DejaVuSans-33" transform="translate(190.869141 0)"/>
      <use xlink:href="#DejaVuSans-30" transform="translate(254.492188 0)"/>
      <use xlink:href="#DejaVuSans-30" transform="translate(318.115234 0)"/>
      <use xlink:href="#DejaVuSans-5f" transform="translate(381.738281 0)"/>
      <use xlink:href="#DejaVuSans-32" transform="translate(431.738281 0)"/>
     </g>
    </g>
   </g>
   <g id="text_27">
    <g clip-path="url(#p291cc365c7)">
     <!-- 170300_3 -->
     <g transform="translate(218.676859 122.179627) scale(0.08 -0.08)">
      <use xlink:href="#DejaVuSans-31"/>
      <use xlink:href="#DejaVuSans-37" transform="translate(63.623047 0)"/>
      <use xlink:href="#DejaVuSans-30" transform="translate(127.246094 0)"/>
      <use xlink:href="#DejaVuSans-33" transform="translate(190.869141 0)"/>
      <use xlink:href="#DejaVuSans-30" transform="translate(254.492188 0)"/>
      <use xlink:href="#DejaVuSans-30" transform="translate(318.115234 0)"/>
      <use xlink:href="#DejaVuSans-5f" transform="translate(381.738281 0)"/>
      <use xlink:href="#DejaVuSans-33" transform="translate(431.738281 0)"/>
     </g>
    </g>
   </g>
   <g id="text_28">
    <g clip-path="url(#p291cc365c7)">
     <!-- 170300_4 -->
     <g transform="translate(208.361125 129.787197) scale(0.08 -0.08)">
      <use xlink:href="#DejaVuSans-31"/>
      <use xlink:href="#DejaVuSans-37" transform="translate(63.623047 0)"/>
      <use xlink:href="#DejaVuSans-30" transform="translate(127.246094 0)"/>
      <use xlink:href="#DejaVuSans-33" transform="translate(190.869141 0)"/>
      <use xlink:href="#DejaVuSans-30" transform="translate(254.492188 0)"/>
      <use xlink:href="#DejaVuSans-30" transform="translate(318.115234 0)"/>
      <use xlink:href="#DejaVuSans-5f" transform="translate(381.738281 0)"/>
      <use xlink:href="#DejaVuSans-34" transform="translate(431.738281 0)"/>
     </g>
    </g>
   </g>
   <g id="text_29">
    <g clip-path="url(#p291cc365c7)">
     <!-- 170300_5 -->
     <g transform="translate(210.344265 189.161506) scale(0.08 -0.08)">
      <use xlink:href="#DejaVuSans-31"/>
      <use xlink:href="#DejaVuSans-37" transform="translate(63.623047 0)"/>
      <use xlink:href="#DejaVuSans-30" transform="translate(127.246094 0)"/>
      <use xlink:href="#DejaVuSans-33" transform="translate(190.869141 0)"/>
      <use xlink:href="#DejaVuSans-30" transform="translate(254.492188 0)"/>
      <use xlink:href="#DejaVuSans-30" transform="translate(318.115234 0)"/>
      <use xlink:href="#DejaVuSans-5f" transform="translate(381.738281 0)"/>
      <use xlink:href="#DejaVuSans-35" transform="translate(431.738281 0)"/>
     </g>
    </g>
   </g>
  </g>
  <g id="text_30">
   <!-- Block groups: Network graph -->
   <g transform="translate(261.081563 17.758125) scale(0.12 -0.12)">
    <defs>
     <path id="DejaVuSans-Bold-42" d="M 2456 2859 
Q 2741 2859 2887 2984 
Q 3034 3109 3034 3353 
Q 3034 3594 2887 3720 
Q 2741 3847 2456 3847 
L 1791 3847 
L 1791 2859 
L 2456 2859 
z
M 2497 819 
Q 2859 819 3042 972 
Q 3225 1125 3225 1434 
Q 3225 1738 3044 1889 
Q 2863 2041 2497 2041 
L 1791 2041 
L 1791 819 
L 2497 819 
z
M 3616 2497 
Q 4003 2384 4215 2081 
Q 4428 1778 4428 1338 
Q 4428 663 3972 331 
Q 3516 0 2584 0 
L 588 0 
L 588 4666 
L 2394 4666 
Q 3366 4666 3802 4372 
Q 4238 4078 4238 3431 
Q 4238 3091 4078 2852 
Q 3919 2613 3616 2497 
z
" transform="scale(0.015625)"/>
     <path id="DejaVuSans-Bold-6c" d="M 538 4863 
L 1656 4863 
L 1656 0 
L 538 0 
L 538 4863 
z
" transform="scale(0.015625)"/>
     <path id="DejaVuSans-Bold-6f" d="M 2203 2784 
Q 1831 2784 1636 2517 
Q 1441 2250 1441 1747 
Q 1441 1244 1636 976 
Q 1831 709 2203 709 
Q 2569 709 2762 976 
Q 2956 1244 2956 1747 
Q 2956 2250 2762 2517 
Q 2569 2784 2203 2784 
z
M 2203 3584 
Q 3106 3584 3614 3096 
Q 4122 2609 4122 1747 
Q 4122 884 3614 396 
Q 3106 -91 2203 -91 
Q 1297 -91 786 396 
Q 275 884 275 1747 
Q 275 2609 786 3096 
Q 1297 3584 2203 3584 
z
" transform="scale(0.015625)"/>
     <path id="DejaVuSans-Bold-63" d="M 3366 3391 
L 3366 2478 
Q 3138 2634 2908 2709 
Q 2678 2784 2431 2784 
Q 1963 2784 1702 2511 
Q 1441 2238 1441 1747 
Q 1441 1256 1702 982 
Q 1963 709 2431 709 
Q 2694 709 2930 787 
Q 3166 866 3366 1019 
L 3366 103 
Q 3103 6 2833 -42 
Q 2563 -91 2291 -91 
Q 1344 -91 809 395 
Q 275 881 275 1747 
Q 275 2613 809 3098 
Q 1344 3584 2291 3584 
Q 2566 3584 2833 3536 
Q 3100 3488 3366 3391 
z
" transform="scale(0.015625)"/>
     <path id="DejaVuSans-Bold-6b" d="M 538 4863 
L 1656 4863 
L 1656 2216 
L 2944 3500 
L 4244 3500 
L 2534 1894 
L 4378 0 
L 3022 0 
L 1656 1459 
L 1656 0 
L 538 0 
L 538 4863 
z
" transform="scale(0.015625)"/>
     <path id="DejaVuSans-Bold-20" transform="scale(0.015625)"/>
     <path id="DejaVuSans-Bold-67" d="M 2919 594 
Q 2688 288 2409 144 
Q 2131 0 1766 0 
Q 1125 0 706 504 
Q 288 1009 288 1791 
Q 288 2575 706 3076 
Q 1125 3578 1766 3578 
Q 2131 3578 2409 3434 
Q 2688 3291 2919 2981 
L 2919 3500 
L 4044 3500 
L 4044 353 
Q 4044 -491 3511 -936 
Q 2978 -1381 1966 -1381 
Q 1638 -1381 1331 -1331 
Q 1025 -1281 716 -1178 
L 716 -306 
Q 1009 -475 1290 -558 
Q 1572 -641 1856 -641 
Q 2406 -641 2662 -400 
Q 2919 -159 2919 353 
L 2919 594 
z
M 2181 2772 
Q 1834 2772 1640 2515 
Q 1447 2259 1447 1791 
Q 1447 1309 1634 1061 
Q 1822 813 2181 813 
Q 2531 813 2725 1069 
Q 2919 1325 2919 1791 
Q 2919 2259 2725 2515 
Q 2531 2772 2181 2772 
z
" transform="scale(0.015625)"/>
     <path id="DejaVuSans-Bold-72" d="M 3138 2547 
Q 2991 2616 2845 2648 
Q 2700 2681 2553 2681 
Q 2122 2681 1889 2404 
Q 1656 2128 1656 1613 
L 1656 0 
L 538 0 
L 538 3500 
L 1656 3500 
L 1656 2925 
Q 1872 3269 2151 3426 
Q 2431 3584 2822 3584 
Q 2878 3584 2943 3579 
Q 3009 3575 3134 3559 
L 3138 2547 
z
" transform="scale(0.015625)"/>
     <path id="DejaVuSans-Bold-75" d="M 500 1363 
L 500 3500 
L 1625 3500 
L 1625 3150 
Q 1625 2866 1622 2436 
Q 1619 2006 1619 1863 
Q 1619 1441 1641 1255 
Q 1663 1069 1716 984 
Q 1784 875 1895 815 
Q 2006 756 2150 756 
Q 2500 756 2700 1025 
Q 2900 1294 2900 1772 
L 2900 3500 
L 4019 3500 
L 4019 0 
L 2900 0 
L 2900 506 
Q 2647 200 2364 54 
Q 2081 -91 1741 -91 
Q 1134 -91 817 281 
Q 500 653 500 1363 
z
" transform="scale(0.015625)"/>
     <path id="DejaVuSans-Bold-70" d="M 1656 506 
L 1656 -1331 
L 538 -1331 
L 538 3500 
L 1656 3500 
L 1656 2988 
Q 1888 3294 2169 3439 
Q 2450 3584 2816 3584 
Q 3463 3584 3878 3070 
Q 4294 2556 4294 1747 
Q 4294 938 3878 423 
Q 3463 -91 2816 -91 
Q 2450 -91 2169 54 
Q 1888 200 1656 506 
z
M 2400 2772 
Q 2041 2772 1848 2508 
Q 1656 2244 1656 1747 
Q 1656 1250 1848 986 
Q 2041 722 2400 722 
Q 2759 722 2948 984 
Q 3138 1247 3138 1747 
Q 3138 2247 2948 2509 
Q 2759 2772 2400 2772 
z
" transform="scale(0.015625)"/>
     <path id="DejaVuSans-Bold-73" d="M 3272 3391 
L 3272 2541 
Q 2913 2691 2578 2766 
Q 2244 2841 1947 2841 
Q 1628 2841 1473 2761 
Q 1319 2681 1319 2516 
Q 1319 2381 1436 2309 
Q 1553 2238 1856 2203 
L 2053 2175 
Q 2913 2066 3209 1816 
Q 3506 1566 3506 1031 
Q 3506 472 3093 190 
Q 2681 -91 1863 -91 
Q 1516 -91 1145 -36 
Q 775 19 384 128 
L 384 978 
Q 719 816 1070 734 
Q 1422 653 1784 653 
Q 2113 653 2278 743 
Q 2444 834 2444 1013 
Q 2444 1163 2330 1236 
Q 2216 1309 1875 1350 
L 1678 1375 
Q 931 1469 631 1722 
Q 331 1975 331 2491 
Q 331 3047 712 3315 
Q 1094 3584 1881 3584 
Q 2191 3584 2531 3537 
Q 2872 3491 3272 3391 
z
" transform="scale(0.015625)"/>
     <path id="DejaVuSans-Bold-3a" d="M 716 3500 
L 1844 3500 
L 1844 2291 
L 716 2291 
L 716 3500 
z
M 716 1209 
L 1844 1209 
L 1844 0 
L 716 0 
L 716 1209 
z
" transform="scale(0.015625)"/>
     <path id="DejaVuSans-Bold-4e" d="M 588 4666 
L 1931 4666 
L 3628 1466 
L 3628 4666 
L 4769 4666 
L 4769 0 
L 3425 0 
L 1728 3200 
L 1728 0 
L 588 0 
L 588 4666 
z
" transform="scale(0.015625)"/>
     <path id="DejaVuSans-Bold-65" d="M 4031 1759 
L 4031 1441 
L 1416 1441 
Q 1456 1047 1700 850 
Q 1944 653 2381 653 
Q 2734 653 3104 758 
Q 3475 863 3866 1075 
L 3866 213 
Q 3469 63 3072 -14 
Q 2675 -91 2278 -91 
Q 1328 -91 801 392 
Q 275 875 275 1747 
Q 275 2603 792 3093 
Q 1309 3584 2216 3584 
Q 3041 3584 3536 3087 
Q 4031 2591 4031 1759 
z
M 2881 2131 
Q 2881 2450 2695 2645 
Q 2509 2841 2209 2841 
Q 1884 2841 1681 2658 
Q 1478 2475 1428 2131 
L 2881 2131 
z
" transform="scale(0.015625)"/>
     <path id="DejaVuSans-Bold-74" d="M 1759 4494 
L 1759 3500 
L 2913 3500 
L 2913 2700 
L 1759 2700 
L 1759 1216 
Q 1759 972 1856 886 
Q 1953 800 2241 800 
L 2816 800 
L 2816 0 
L 1856 0 
Q 1194 0 917 276 
Q 641 553 641 1216 
L 641 2700 
L 84 2700 
L 84 3500 
L 641 3500 
L 641 4494 
L 1759 4494 
z
" transform="scale(0.015625)"/>
     <path id="DejaVuSans-Bold-77" d="M 225 3500 
L 1313 3500 
L 1900 1088 
L 2491 3500 
L 3425 3500 
L 4013 1113 
L 4603 3500 
L 5691 3500 
L 4769 0 
L 3547 0 
L 2956 2406 
L 2369 0 
L 1147 0 
L 225 3500 
z
" transform="scale(0.015625)"/>
     <path id="DejaVuSans-Bold-61" d="M 2106 1575 
Q 1756 1575 1579 1456 
Q 1403 1338 1403 1106 
Q 1403 894 1545 773 
Q 1688 653 1941 653 
Q 2256 653 2472 879 
Q 2688 1106 2688 1447 
L 2688 1575 
L 2106 1575 
z
M 3816 1997 
L 3816 0 
L 2688 0 
L 2688 519 
Q 2463 200 2181 54 
Q 1900 -91 1497 -91 
Q 953 -91 614 226 
Q 275 544 275 1050 
Q 275 1666 698 1953 
Q 1122 2241 2028 2241 
L 2688 2241 
L 2688 2328 
Q 2688 2594 2478 2717 
Q 2269 2841 1825 2841 
Q 1466 2841 1156 2769 
Q 847 2697 581 2553 
L 581 3406 
Q 941 3494 1303 3539 
Q 1666 3584 2028 3584 
Q 2975 3584 3395 3211 
Q 3816 2838 3816 1997 
z
" transform="scale(0.015625)"/>
     <path id="DejaVuSans-Bold-68" d="M 4056 2131 
L 4056 0 
L 2931 0 
L 2931 347 
L 2931 1625 
Q 2931 2084 2911 2256 
Q 2891 2428 2841 2509 
Q 2775 2619 2662 2680 
Q 2550 2741 2406 2741 
Q 2056 2741 1856 2470 
Q 1656 2200 1656 1722 
L 1656 0 
L 538 0 
L 538 4863 
L 1656 4863 
L 1656 2988 
Q 1909 3294 2193 3439 
Q 2478 3584 2822 3584 
Q 3428 3584 3742 3212 
Q 4056 2841 4056 2131 
z
" transform="scale(0.015625)"/>
    </defs>
    <use xlink:href="#DejaVuSans-Bold-42"/>
    <use xlink:href="#DejaVuSans-Bold-6c" transform="translate(76.220703 0)"/>
    <use xlink:href="#DejaVuSans-Bold-6f" transform="translate(110.498047 0)"/>
    <use xlink:href="#DejaVuSans-Bold-63" transform="translate(179.199219 0)"/>
    <use xlink:href="#DejaVuSans-Bold-6b" transform="translate(238.476562 0)"/>
    <use xlink:href="#DejaVuSans-Bold-20" transform="translate(304.980469 0)"/>
    <use xlink:href="#DejaVuSans-Bold-67" transform="translate(339.794922 0)"/>
    <use xlink:href="#DejaVuSans-Bold-72" transform="translate(411.376953 0)"/>
    <use xlink:href="#DejaVuSans-Bold-6f" transform="translate(460.693359 0)"/>
    <use xlink:href="#DejaVuSans-Bold-75" transform="translate(529.394531 0)"/>
    <use xlink:href="#DejaVuSans-Bold-70" transform="translate(600.585938 0)"/>
    <use xlink:href="#DejaVuSans-Bold-73" transform="translate(672.167969 0)"/>
    <use xlink:href="#DejaVuSans-Bold-3a" transform="translate(731.689453 0)"/>
    <use xlink:href="#DejaVuSans-Bold-20" transform="translate(771.679688 0)"/>
    <use xlink:href="#DejaVuSans-Bold-4e" transform="translate(806.494141 0)"/>
    <use xlink:href="#DejaVuSans-Bold-65" transform="translate(890.185547 0)"/>
    <use xlink:href="#DejaVuSans-Bold-74" transform="translate(958.007812 0)"/>
    <use xlink:href="#DejaVuSans-Bold-77" transform="translate(1005.810547 0)"/>
    <use xlink:href="#DejaVuSans-Bold-6f" transform="translate(1098.193359 0)"/>
    <use xlink:href="#DejaVuSans-Bold-72" transform="translate(1166.894531 0)"/>
    <use xlink:href="#DejaVuSans-Bold-6b" transform="translate(1216.210938 0)"/>
    <use xlink:href="#DejaVuSans-Bold-20" transform="translate(1282.714844 0)"/>
    <use xlink:href="#DejaVuSans-Bold-67" transform="translate(1317.529297 0)"/>
    <use xlink:href="#DejaVuSans-Bold-72" transform="translate(1389.111328 0)"/>
    <use xlink:href="#DejaVuSans-Bold-61" transform="translate(1438.427734 0)"/>
    <use xlink:href="#DejaVuSans-Bold-70" transform="translate(1505.908203 0)"/>
    <use xlink:href="#DejaVuSans-Bold-68" transform="translate(1577.490234 0)"/>
   </g>
  </g>
 </g>
 <defs>
  <clipPath id="p291cc365c7">
   <rect x="0" y="0" width="720" height="432"/>
  </clipPath>
 </defs>
</svg>
