<?xml version="1.0" encoding="utf-8" standalone="no"?>
<!DOCTYPE svg PUBLIC "-//W3C//DTD SVG 1.1//EN"
  "http://www.w3.org/Graphics/SVG/1.1/DTD/svg11.dtd">
<svg xmlns:xlink="http://www.w3.org/1999/xlink" width="720pt" height="432pt" viewBox="0 0 720 432" xmlns="http://www.w3.org/2000/svg" version="1.1">
 <metadata>
  <rdf:RDF xmlns:dc="http://purl.org/dc/elements/1.1/" xmlns:cc="http://creativecommons.org/ns#" xmlns:rdf="http://www.w3.org/1999/02/22-rdf-syntax-ns#">
   <cc:Work>
    <dc:type rdf:resource="http://purl.org/dc/dcmitype/StillImage"/>
    <dc:date>2025-11-03T09:18:34.690273</dc:date>
    <dc:format>image/svg+xml</dc:format>
    <dc:creator>
     <cc:Agent>
      <dc:title>Matplotlib v3.10.7, https://matplotlib.org/</dc:title>
     </cc:Agent>
    </dc:creator>
   </cc:Work>
  </rdf:RDF>
 </metadata>
 <defs>
  <style type="text/css">*{stroke-linejoin: round; stroke-linecap: butt}</style>
 </defs>
 <g id="figure_1">
  <g id="patch_1">
   <path d="M 0 432 
L 720 432 
L 720 0 
L 0 0 
z
" style="fill: #ffffff"/>
  </g>
  <g id="axes_1">
   <g id="patch_2">
    <path d="M 69.77 189.765277 
L 244.8 189.765277 
L 244.8 34.56 
L 69.77 34.56 
z
" style="fill: #ffffff"/>
   </g>
   <g id="matplotlib.axis_1">
    <g id="xtick_1">
     <g id="line2d_1">
      <defs>
       <path id="m02c25de72c" d="M 0 0 
L 0 3.5 
" style="stroke: #000000; stroke-width: 0.8"/>
      </defs>
      <g>
       <use xlink:href="#m02c25de72c" x="113.5275" y="189.765277" style="stroke: #000000; stroke-width: 0.8"/>
      </g>
     </g>
     <g id="text_1">
      <!-- Neighbors -->
      <g transform="translate(88.084531 204.363715) scale(0.1 -0.1)">
       <defs>
        <path id="DejaVuSans-4e" d="M 628 4666 
L 1478 4666 
L 3547 763 
L 3547 4666 
L 4159 4666 
L 4159 0 
L 3309 0 
L 1241 3903 
L 1241 0 
L 628 0 
L 628 4666 
z
" transform="scale(0.015625)"/>
        <path id="DejaVuSans-65" d="M 3597 1894 
L 3597 1613 
L 953 1613 
Q 991 1019 1311 708 
Q 1631 397 2203 397 
Q 2534 397 2845 478 
Q 3156 559 3463 722 
L 3463 178 
Q 3153 47 2828 -22 
Q 2503 -91 2169 -91 
Q 1331 -91 842 396 
Q 353 884 353 1716 
Q 353 2575 817 3079 
Q 1281 3584 2069 3584 
Q 2775 3584 3186 3129 
Q 3597 2675 3597 1894 
z
M 3022 2063 
Q 3016 2534 2758 2815 
Q 2500 3097 2075 3097 
Q 1594 3097 1305 2825 
Q 1016 2553 972 2059 
L 3022 2063 
z
" transform="scale(0.015625)"/>
        <path id="DejaVuSans-69" d="M 603 3500 
L 1178 3500 
L 1178 0 
L 603 0 
L 603 3500 
z
M 603 4863 
L 1178 4863 
L 1178 4134 
L 603 4134 
L 603 4863 
z
" transform="scale(0.015625)"/>
        <path id="DejaVuSans-67" d="M 2906 1791 
Q 2906 2416 2648 2759 
Q 2391 3103 1925 3103 
Q 1463 3103 1205 2759 
Q 947 2416 947 1791 
Q 947 1169 1205 825 
Q 1463 481 1925 481 
Q 2391 481 2648 825 
Q 2906 1169 2906 1791 
z
M 3481 434 
Q 3481 -459 3084 -895 
Q 2688 -1331 1869 -1331 
Q 1566 -1331 1297 -1286 
Q 1028 -1241 775 -1147 
L 775 -588 
Q 1028 -725 1275 -790 
Q 1522 -856 1778 -856 
Q 2344 -856 2625 -561 
Q 2906 -266 2906 331 
L 2906 616 
Q 2728 306 2450 153 
Q 2172 0 1784 0 
Q 1141 0 747 490 
Q 353 981 353 1791 
Q 353 2603 747 3093 
Q 1141 3584 1784 3584 
Q 2172 3584 2450 3431 
Q 2728 3278 2906 2969 
L 2906 3500 
L 3481 3500 
L 3481 434 
z
" transform="scale(0.015625)"/>
        <path id="DejaVuSans-68" d="M 3513 2113 
L 3513 0 
L 2938 0 
L 2938 2094 
Q 2938 2591 2744 2837 
Q 2550 3084 2163 3084 
Q 1697 3084 1428 2787 
Q 1159 2491 1159 1978 
L 1159 0 
L 581 0 
L 581 4863 
L 1159 4863 
L 1159 2956 
Q 1366 3272 1645 3428 
Q 1925 3584 2291 3584 
Q 2894 3584 3203 3211 
Q 3513 2838 3513 2113 
z
" transform="scale(0.015625)"/>
        <path id="DejaVuSans-62" d="M 3116 1747 
Q 3116 2381 2855 2742 
Q 2594 3103 2138 3103 
Q 1681 3103 1420 2742 
Q 1159 2381 1159 1747 
Q 1159 1113 1420 752 
Q 1681 391 2138 391 
Q 2594 391 2855 752 
Q 3116 1113 3116 1747 
z
M 1159 2969 
Q 1341 3281 1617 3432 
Q 1894 3584 2278 3584 
Q 2916 3584 3314 3078 
Q 3713 2572 3713 1747 
Q 3713 922 3314 415 
Q 2916 -91 2278 -91 
Q 1894 -91 1617 61 
Q 1341 213 1159 525 
L 1159 0 
L 581 0 
L 581 4863 
L 1159 4863 
L 1159 2969 
z
" transform="scale(0.015625)"/>
        <path id="DejaVuSans-6f" d="M 1959 3097 
Q 1497 3097 1228 2736 
Q 959 2375 959 1747 
Q 959 1119 1226 758 
Q 1494 397 1959 397 
Q 2419 397 2687 759 
Q 2956 1122 2956 1747 
Q 2956 2369 2687 2733 
Q 2419 3097 1959 3097 
z
M 1959 3584 
Q 2709 3584 3137 3096 
Q 3566 2609 3566 1747 
Q 3566 888 3137 398 
Q 2709 -91 1959 -91 
Q 1206 -91 779 398 
Q 353 888 353 1747 
Q 353 2609 779 3096 
Q 1206 3584 1959 3584 
z
" transform="scale(0.015625)"/>
        <path id="DejaVuSans-72" d="M 2631 2963 
Q 2534 3019 2420 3045 
Q 2306 3072 2169 3072 
Q 1681 3072 1420 2755 
Q 1159 2438 1159 1844 
L 1159 0 
L 581 0 
L 581 3500 
L 1159 3500 
L 1159 2956 
Q 1341 3275 1631 3429 
Q 1922 3584 2338 3584 
Q 2397 3584 2469 3576 
Q 2541 3569 2628 3553 
L 2631 2963 
z
" transform="scale(0.015625)"/>
        <path id="DejaVuSans-73" d="M 2834 3397 
L 2834 2853 
Q 2591 2978 2328 3040 
Q 2066 3103 1784 3103 
Q 1356 3103 1142 2972 
Q 928 2841 928 2578 
Q 928 2378 1081 2264 
Q 1234 2150 1697 2047 
L 1894 2003 
Q 2506 1872 2764 1633 
Q 3022 1394 3022 966 
Q 3022 478 2636 193 
Q 2250 -91 1575 -91 
Q 1294 -91 989 -36 
Q 684 19 347 128 
L 347 722 
Q 666 556 975 473 
Q 1284 391 1588 391 
Q 1994 391 2212 530 
Q 2431 669 2431 922 
Q 2431 1156 2273 1281 
Q 2116 1406 1581 1522 
L 1381 1569 
Q 847 1681 609 1914 
Q 372 2147 372 2553 
Q 372 3047 722 3315 
Q 1072 3584 1716 3584 
Q 2034 3584 2315 3537 
Q 2597 3491 2834 3397 
z
" transform="scale(0.015625)"/>
       </defs>
       <use xlink:href="#DejaVuSans-4e"/>
       <use xlink:href="#DejaVuSans-65" transform="translate(74.804688 0)"/>
       <use xlink:href="#DejaVuSans-69" transform="translate(136.328125 0)"/>
       <use xlink:href="#DejaVuSans-67" transform="translate(164.111328 0)"/>
       <use xlink:href="#DejaVuSans-68" transform="translate(227.587891 0)"/>
       <use xlink:href="#DejaVuSans-62" transform="translate(290.966797 0)"/>
       <use xlink:href="#DejaVuSans-6f" transform="translate(354.443359 0)"/>
       <use xlink:href="#DejaVuSans-72" transform="translate(415.625 0)"/>
       <use xlink:href="#DejaVuSans-73" transform="translate(456.738281 0)"/>
      </g>
     </g>
    </g>
    <g id="xtick_2">
     <g id="line2d_2">
      <g>
       <use xlink:href="#m02c25de72c" x="201.0425" y="189.765277" style="stroke: #000000; stroke-width: 0.8"/>
      </g>
     </g>
     <g id="text_2">
      <!-- Montclare -->
      <g transform="translate(176.318281 204.363715) scale(0.1 -0.1)">
       <defs>
        <path id="DejaVuSans-4d" d="M 628 4666 
L 1569 4666 
L 2759 1491 
L 3956 4666 
L 4897 4666 
L 4897 0 
L 4281 0 
L 4281 4097 
L 3078 897 
L 2444 897 
L 1241 4097 
L 1241 0 
L 628 0 
L 628 4666 
z
" transform="scale(0.015625)"/>
        <path id="DejaVuSans-6e" d="M 3513 2113 
L 3513 0 
L 2938 0 
L 2938 2094 
Q 2938 2591 2744 2837 
Q 2550 3084 2163 3084 
Q 1697 3084 1428 2787 
Q 1159 2491 1159 1978 
L 1159 0 
L 581 0 
L 581 3500 
L 1159 3500 
L 1159 2956 
Q 1366 3272 1645 3428 
Q 1925 3584 2291 3584 
Q 2894 3584 3203 3211 
Q 3513 2838 3513 2113 
z
" transform="scale(0.015625)"/>
        <path id="DejaVuSans-74" d="M 1172 4494 
L 1172 3500 
L 2356 3500 
L 2356 3053 
L 1172 3053 
L 1172 1153 
Q 1172 725 1289 603 
Q 1406 481 1766 481 
L 2356 481 
L 2356 0 
L 1766 0 
Q 1100 0 847 248 
Q 594 497 594 1153 
L 594 3053 
L 172 3053 
L 172 3500 
L 594 3500 
L 594 4494 
L 1172 4494 
z
" transform="scale(0.015625)"/>
        <path id="DejaVuSans-63" d="M 3122 3366 
L 3122 2828 
Q 2878 2963 2633 3030 
Q 2388 3097 2138 3097 
Q 1578 3097 1268 2742 
Q 959 2388 959 1747 
Q 959 1106 1268 751 
Q 1578 397 2138 397 
Q 2388 397 2633 464 
Q 2878 531 3122 666 
L 3122 134 
Q 2881 22 2623 -34 
Q 2366 -91 2075 -91 
Q 1284 -91 818 406 
Q 353 903 353 1747 
Q 353 2603 823 3093 
Q 1294 3584 2113 3584 
Q 2378 3584 2631 3529 
Q 2884 3475 3122 3366 
z
" transform="scale(0.015625)"/>
        <path id="DejaVuSans-6c" d="M 603 4863 
L 1178 4863 
L 1178 0 
L 603 0 
L 603 4863 
z
" transform="scale(0.015625)"/>
        <path id="DejaVuSans-61" d="M 2194 1759 
Q 1497 1759 1228 1600 
Q 959 1441 959 1056 
Q 959 750 1161 570 
Q 1363 391 1709 391 
Q 2188 391 2477 730 
Q 2766 1069 2766 1631 
L 2766 1759 
L 2194 1759 
z
M 3341 1997 
L 3341 0 
L 2766 0 
L 2766 531 
Q 2569 213 2275 61 
Q 1981 -91 1556 -91 
Q 1019 -91 701 211 
Q 384 513 384 1019 
Q 384 1609 779 1909 
Q 1175 2209 1959 2209 
L 2766 2209 
L 2766 2266 
Q 2766 2663 2505 2880 
Q 2244 3097 1772 3097 
Q 1472 3097 1187 3025 
Q 903 2953 641 2809 
L 641 3341 
Q 956 3463 1253 3523 
Q 1550 3584 1831 3584 
Q 2591 3584 2966 3190 
Q 3341 2797 3341 1997 
z
" transform="scale(0.015625)"/>
       </defs>
       <use xlink:href="#DejaVuSans-4d"/>
       <use xlink:href="#DejaVuSans-6f" transform="translate(86.279297 0)"/>
       <use xlink:href="#DejaVuSans-6e" transform="translate(147.460938 0)"/>
       <use xlink:href="#DejaVuSans-74" transform="translate(210.839844 0)"/>
       <use xlink:href="#DejaVuSans-63" transform="translate(250.048828 0)"/>
       <use xlink:href="#DejaVuSans-6c" transform="translate(305.029297 0)"/>
       <use xlink:href="#DejaVuSans-61" transform="translate(332.8125 0)"/>
       <use xlink:href="#DejaVuSans-72" transform="translate(394.091797 0)"/>
       <use xlink:href="#DejaVuSans-65" transform="translate(432.955078 0)"/>
      </g>
     </g>
    </g>
    <g id="text_3">
     <!-- Area -->
     <g transform="translate(145.781094 218.04184) scale(0.1 -0.1)">
      <defs>
       <path id="DejaVuSans-41" d="M 2188 4044 
L 1331 1722 
L 3047 1722 
L 2188 4044 
z
M 1831 4666 
L 2547 4666 
L 4325 0 
L 3669 0 
L 3244 1197 
L 1141 1197 
L 716 0 
L 50 0 
L 1831 4666 
z
" transform="scale(0.015625)"/>
      </defs>
      <use xlink:href="#DejaVuSans-41"/>
      <use xlink:href="#DejaVuSans-72" transform="translate(68.408203 0)"/>
      <use xlink:href="#DejaVuSans-65" transform="translate(107.271484 0)"/>
      <use xlink:href="#DejaVuSans-61" transform="translate(168.794922 0)"/>
     </g>
    </g>
   </g>
   <g id="matplotlib.axis_2">
    <g id="ytick_1">
     <g id="line2d_3">
      <defs>
       <path id="m96240be393" d="M 0 0 
L -3.5 0 
" style="stroke: #000000; stroke-width: 0.8"/>
      </defs>
      <g>
       <use xlink:href="#m96240be393" x="69.77" y="176.287608" style="stroke: #000000; stroke-width: 0.8"/>
      </g>
     </g>
     <g id="text_4">
      <!-- 40000 -->
      <g transform="translate(30.9575 180.086827) scale(0.1 -0.1)">
       <defs>
        <path id="DejaVuSans-34" d="M 2419 4116 
L 825 1625 
L 2419 1625 
L 2419 4116 
z
M 2253 4666 
L 3047 4666 
L 3047 1625 
L 3713 1625 
L 3713 1100 
L 3047 1100 
L 3047 0 
L 2419 0 
L 2419 1100 
L 313 1100 
L 313 1709 
L 2253 4666 
z
" transform="scale(0.015625)"/>
        <path id="DejaVuSans-30" d="M 2034 4250 
Q 1547 4250 1301 3770 
Q 1056 3291 1056 2328 
Q 1056 1369 1301 889 
Q 1547 409 2034 409 
Q 2525 409 2770 889 
Q 3016 1369 3016 2328 
Q 3016 3291 2770 3770 
Q 2525 4250 2034 4250 
z
M 2034 4750 
Q 2819 4750 3233 4129 
Q 3647 3509 3647 2328 
Q 3647 1150 3233 529 
Q 2819 -91 2034 -91 
Q 1250 -91 836 529 
Q 422 1150 422 2328 
Q 422 3509 836 4129 
Q 1250 4750 2034 4750 
z
" transform="scale(0.015625)"/>
       </defs>
       <use xlink:href="#DejaVuSans-34"/>
       <use xlink:href="#DejaVuSans-30" transform="translate(63.623047 0)"/>
       <use xlink:href="#DejaVuSans-30" transform="translate(127.246094 0)"/>
       <use xlink:href="#DejaVuSans-30" transform="translate(190.869141 0)"/>
       <use xlink:href="#DejaVuSans-30" transform="translate(254.492188 0)"/>
      </g>
     </g>
    </g>
    <g id="ytick_2">
     <g id="line2d_4">
      <g>
       <use xlink:href="#m96240be393" x="69.77" y="145.96238" style="stroke: #000000; stroke-width: 0.8"/>
      </g>
     </g>
     <g id="text_5">
      <!-- 60000 -->
      <g transform="translate(30.9575 149.761599) scale(0.1 -0.1)">
       <defs>
        <path id="DejaVuSans-36" d="M 2113 2584 
Q 1688 2584 1439 2293 
Q 1191 2003 1191 1497 
Q 1191 994 1439 701 
Q 1688 409 2113 409 
Q 2538 409 2786 701 
Q 3034 994 3034 1497 
Q 3034 2003 2786 2293 
Q 2538 2584 2113 2584 
z
M 3366 4563 
L 3366 3988 
Q 3128 4100 2886 4159 
Q 2644 4219 2406 4219 
Q 1781 4219 1451 3797 
Q 1122 3375 1075 2522 
Q 1259 2794 1537 2939 
Q 1816 3084 2150 3084 
Q 2853 3084 3261 2657 
Q 3669 2231 3669 1497 
Q 3669 778 3244 343 
Q 2819 -91 2113 -91 
Q 1303 -91 875 529 
Q 447 1150 447 2328 
Q 447 3434 972 4092 
Q 1497 4750 2381 4750 
Q 2619 4750 2861 4703 
Q 3103 4656 3366 4563 
z
" transform="scale(0.015625)"/>
       </defs>
       <use xlink:href="#DejaVuSans-36"/>
       <use xlink:href="#DejaVuSans-30" transform="translate(63.623047 0)"/>
       <use xlink:href="#DejaVuSans-30" transform="translate(127.246094 0)"/>
       <use xlink:href="#DejaVuSans-30" transform="translate(190.869141 0)"/>
       <use xlink:href="#DejaVuSans-30" transform="translate(254.492188 0)"/>
      </g>
     </g>
    </g>
    <g id="ytick_3">
     <g id="line2d_5">
      <g>
       <use xlink:href="#m96240be393" x="69.77" y="115.637152" style="stroke: #000000; stroke-width: 0.8"/>
      </g>
     </g>
     <g id="text_6">
      <!-- 80000 -->
      <g transform="translate(30.9575 119.43637) scale(0.1 -0.1)">
       <defs>
        <path id="DejaVuSans-38" d="M 2034 2216 
Q 1584 2216 1326 1975 
Q 1069 1734 1069 1313 
Q 1069 891 1326 650 
Q 1584 409 2034 409 
Q 2484 409 2743 651 
Q 3003 894 3003 1313 
Q 3003 1734 2745 1975 
Q 2488 2216 2034 2216 
z
M 1403 2484 
Q 997 2584 770 2862 
Q 544 3141 544 3541 
Q 544 4100 942 4425 
Q 1341 4750 2034 4750 
Q 2731 4750 3128 4425 
Q 3525 4100 3525 3541 
Q 3525 3141 3298 2862 
Q 3072 2584 2669 2484 
Q 3125 2378 3379 2068 
Q 3634 1759 3634 1313 
Q 3634 634 3220 271 
Q 2806 -91 2034 -91 
Q 1263 -91 848 271 
Q 434 634 434 1313 
Q 434 1759 690 2068 
Q 947 2378 1403 2484 
z
M 1172 3481 
Q 1172 3119 1398 2916 
Q 1625 2713 2034 2713 
Q 2441 2713 2670 2916 
Q 2900 3119 2900 3481 
Q 2900 3844 2670 4047 
Q 2441 4250 2034 4250 
Q 1625 4250 1398 4047 
Q 1172 3844 1172 3481 
z
" transform="scale(0.015625)"/>
       </defs>
       <use xlink:href="#DejaVuSans-38"/>
       <use xlink:href="#DejaVuSans-30" transform="translate(63.623047 0)"/>
       <use xlink:href="#DejaVuSans-30" transform="translate(127.246094 0)"/>
       <use xlink:href="#DejaVuSans-30" transform="translate(190.869141 0)"/>
       <use xlink:href="#DejaVuSans-30" transform="translate(254.492188 0)"/>
      </g>
     </g>
    </g>
    <g id="ytick_4">
     <g id="line2d_6">
      <g>
       <use xlink:href="#m96240be393" x="69.77" y="85.311923" style="stroke: #000000; stroke-width: 0.8"/>
      </g>
     </g>
     <g id="text_7">
      <!-- 100000 -->
      <g transform="translate(24.595 89.111142) scale(0.1 -0.1)">
       <defs>
        <path id="DejaVuSans-31" d="M 794 531 
L 1825 531 
L 1825 4091 
L 703 3866 
L 703 4441 
L 1819 4666 
L 2450 4666 
L 2450 531 
L 3481 531 
L 3481 0 
L 794 0 
L 794 531 
z
" transform="scale(0.015625)"/>
       </defs>
       <use xlink:href="#DejaVuSans-31"/>
       <use xlink:href="#DejaVuSans-30" transform="translate(63.623047 0)"/>
       <use xlink:href="#DejaVuSans-30" transform="translate(127.246094 0)"/>
       <use xlink:href="#DejaVuSans-30" transform="translate(190.869141 0)"/>
       <use xlink:href="#DejaVuSans-30" transform="translate(254.492188 0)"/>
       <use xlink:href="#DejaVuSans-30" transform="translate(318.115234 0)"/>
      </g>
     </g>
    </g>
    <g id="ytick_5">
     <g id="line2d_7">
      <g>
       <use xlink:href="#m96240be393" x="69.77" y="54.986695" style="stroke: #000000; stroke-width: 0.8"/>
      </g>
     </g>
     <g id="text_8">
      <!-- 120000 -->
      <g transform="translate(24.595 58.785914) scale(0.1 -0.1)">
       <defs>
        <path id="DejaVuSans-32" d="M 1228 531 
L 3431 531 
L 3431 0 
L 469 0 
L 469 531 
Q 828 903 1448 1529 
Q 2069 2156 2228 2338 
Q 2531 2678 2651 2914 
Q 2772 3150 2772 3378 
Q 2772 3750 2511 3984 
Q 2250 4219 1831 4219 
Q 1534 4219 1204 4116 
Q 875 4013 500 3803 
L 500 4441 
Q 881 4594 1212 4672 
Q 1544 4750 1819 4750 
Q 2544 4750 2975 4387 
Q 3406 4025 3406 3419 
Q 3406 3131 3298 2873 
Q 3191 2616 2906 2266 
Q 2828 2175 2409 1742 
Q 1991 1309 1228 531 
z
" transform="scale(0.015625)"/>
       </defs>
       <use xlink:href="#DejaVuSans-31"/>
       <use xlink:href="#DejaVuSans-32" transform="translate(63.623047 0)"/>
       <use xlink:href="#DejaVuSans-30" transform="translate(127.246094 0)"/>
       <use xlink:href="#DejaVuSans-30" transform="translate(190.869141 0)"/>
       <use xlink:href="#DejaVuSans-30" transform="translate(254.492188 0)"/>
       <use xlink:href="#DejaVuSans-30" transform="translate(318.115234 0)"/>
      </g>
     </g>
    </g>
    <g id="text_9">
     <!-- Median household income -->
     <g transform="translate(18.515313 177.710295) rotate(-90) scale(0.1 -0.1)">
      <defs>
       <path id="DejaVuSans-64" d="M 2906 2969 
L 2906 4863 
L 3481 4863 
L 3481 0 
L 2906 0 
L 2906 525 
Q 2725 213 2448 61 
Q 2172 -91 1784 -91 
Q 1150 -91 751 415 
Q 353 922 353 1747 
Q 353 2572 751 3078 
Q 1150 3584 1784 3584 
Q 2172 3584 2448 3432 
Q 2725 3281 2906 2969 
z
M 947 1747 
Q 947 1113 1208 752 
Q 1469 391 1925 391 
Q 2381 391 2643 752 
Q 2906 1113 2906 1747 
Q 2906 2381 2643 2742 
Q 2381 3103 1925 3103 
Q 1469 3103 1208 2742 
Q 947 2381 947 1747 
z
" transform="scale(0.015625)"/>
       <path id="DejaVuSans-20" transform="scale(0.015625)"/>
       <path id="DejaVuSans-75" d="M 544 1381 
L 544 3500 
L 1119 3500 
L 1119 1403 
Q 1119 906 1312 657 
Q 1506 409 1894 409 
Q 2359 409 2629 706 
Q 2900 1003 2900 1516 
L 2900 3500 
L 3475 3500 
L 3475 0 
L 2900 0 
L 2900 538 
Q 2691 219 2414 64 
Q 2138 -91 1772 -91 
Q 1169 -91 856 284 
Q 544 659 544 1381 
z
M 1991 3584 
L 1991 3584 
z
" transform="scale(0.015625)"/>
       <path id="DejaVuSans-6d" d="M 3328 2828 
Q 3544 3216 3844 3400 
Q 4144 3584 4550 3584 
Q 5097 3584 5394 3201 
Q 5691 2819 5691 2113 
L 5691 0 
L 5113 0 
L 5113 2094 
Q 5113 2597 4934 2840 
Q 4756 3084 4391 3084 
Q 3944 3084 3684 2787 
Q 3425 2491 3425 1978 
L 3425 0 
L 2847 0 
L 2847 2094 
Q 2847 2600 2669 2842 
Q 2491 3084 2119 3084 
Q 1678 3084 1418 2786 
Q 1159 2488 1159 1978 
L 1159 0 
L 581 0 
L 581 3500 
L 1159 3500 
L 1159 2956 
Q 1356 3278 1631 3431 
Q 1906 3584 2284 3584 
Q 2666 3584 2933 3390 
Q 3200 3197 3328 2828 
z
" transform="scale(0.015625)"/>
      </defs>
      <use xlink:href="#DejaVuSans-4d"/>
      <use xlink:href="#DejaVuSans-65" transform="translate(86.279297 0)"/>
      <use xlink:href="#DejaVuSans-64" transform="translate(147.802734 0)"/>
      <use xlink:href="#DejaVuSans-69" transform="translate(211.279297 0)"/>
      <use xlink:href="#DejaVuSans-61" transform="translate(239.0625 0)"/>
      <use xlink:href="#DejaVuSans-6e" transform="translate(300.341797 0)"/>
      <use xlink:href="#DejaVuSans-20" transform="translate(363.720703 0)"/>
      <use xlink:href="#DejaVuSans-68" transform="translate(395.507812 0)"/>
      <use xlink:href="#DejaVuSans-6f" transform="translate(458.886719 0)"/>
      <use xlink:href="#DejaVuSans-75" transform="translate(520.068359 0)"/>
      <use xlink:href="#DejaVuSans-73" transform="translate(583.447266 0)"/>
      <use xlink:href="#DejaVuSans-65" transform="translate(635.546875 0)"/>
      <use xlink:href="#DejaVuSans-68" transform="translate(697.070312 0)"/>
      <use xlink:href="#DejaVuSans-6f" transform="translate(760.449219 0)"/>
      <use xlink:href="#DejaVuSans-6c" transform="translate(821.630859 0)"/>
      <use xlink:href="#DejaVuSans-64" transform="translate(849.414062 0)"/>
      <use xlink:href="#DejaVuSans-20" transform="translate(912.890625 0)"/>
      <use xlink:href="#DejaVuSans-69" transform="translate(944.677734 0)"/>
      <use xlink:href="#DejaVuSans-6e" transform="translate(972.460938 0)"/>
      <use xlink:href="#DejaVuSans-63" transform="translate(1035.839844 0)"/>
      <use xlink:href="#DejaVuSans-6f" transform="translate(1090.820312 0)"/>
      <use xlink:href="#DejaVuSans-6d" transform="translate(1152.001953 0)"/>
      <use xlink:href="#DejaVuSans-65" transform="translate(1249.414062 0)"/>
     </g>
    </g>
   </g>
   <g id="patch_3">
    <path d="M 78.5215 139.382185 
L 148.5335 139.382185 
L 148.5335 69.591704 
L 78.5215 69.591704 
L 78.5215 139.382185 
z
" clip-path="url(#p941490305f)" style="fill: #cb3335; stroke: #484848; stroke-linejoin: miter"/>
   </g>
   <g id="line2d_8">
    <path d="M 113.5275 139.382185 
L 113.5275 173.71148 
" clip-path="url(#p941490305f)" style="fill: none; stroke: #484848"/>
   </g>
   <g id="line2d_9">
    <path d="M 113.5275 69.591704 
L 113.5275 41.614785 
" clip-path="url(#p941490305f)" style="fill: none; stroke: #484848"/>
   </g>
   <g id="line2d_10">
    <path d="M 96.0245 173.71148 
L 131.0305 173.71148 
" clip-path="url(#p941490305f)" style="fill: none; stroke: #484848; stroke-linecap: square"/>
   </g>
   <g id="line2d_11">
    <path d="M 96.0245 41.614785 
L 131.0305 41.614785 
" clip-path="url(#p941490305f)" style="fill: none; stroke: #484848; stroke-linecap: square"/>
   </g>
   <g id="line2d_12"/>
   <g id="patch_4">
    <path d="M 166.0365 110.473523 
L 236.0485 110.473523 
L 236.0485 89.975943 
L 166.0365 89.975943 
L 166.0365 110.473523 
z
" clip-path="url(#p941490305f)" style="fill: #477ca8; stroke: #484848; stroke-linejoin: miter"/>
   </g>
   <g id="line2d_13">
    <path d="M 201.0425 110.473523 
L 201.0425 139.374224 
" clip-path="url(#p941490305f)" style="fill: none; stroke: #484848"/>
   </g>
   <g id="line2d_14">
    <path d="M 201.0425 89.975943 
L 201.0425 73.57606 
" clip-path="url(#p941490305f)" style="fill: none; stroke: #484848"/>
   </g>
   <g id="line2d_15">
    <path d="M 183.5395 139.374224 
L 218.5455 139.374224 
" clip-path="url(#p941490305f)" style="fill: none; stroke: #484848; stroke-linecap: square"/>
   </g>
   <g id="line2d_16">
    <path d="M 183.5395 73.57606 
L 218.5455 73.57606 
" clip-path="url(#p941490305f)" style="fill: none; stroke: #484848; stroke-linecap: square"/>
   </g>
   <g id="line2d_17">
    <defs>
     <path id="m0862ac4a23" d="M 0 3 
C 0.795609 3 1.55874 2.683901 2.12132 2.12132 
C 2.683901 1.55874 3 0.795609 3 0 
C 3 -0.795609 2.683901 -1.55874 2.12132 -2.12132 
C 1.55874 -2.683901 0.795609 -3 0 -3 
C -0.795609 -3 -1.55874 -2.683901 -2.12132 -2.12132 
C -2.683901 -1.55874 -3 -0.795609 -3 0 
C -3 0.795609 -2.683901 1.55874 -2.12132 2.12132 
C -1.55874 2.683901 -0.795609 3 0 3 
z
" style="stroke: #484848"/>
    </defs>
    <g clip-path="url(#p941490305f)">
     <use xlink:href="#m0862ac4a23" x="201.0425" y="182.710492" style="fill-opacity: 0; stroke: #484848"/>
    </g>
   </g>
   <g id="line2d_18">
    <path d="M 78.5215 100.788783 
L 148.5335 100.788783 
" clip-path="url(#p941490305f)" style="fill: none; stroke: #484848"/>
   </g>
   <g id="line2d_19">
    <path d="M 166.0365 99.312323 
L 236.0485 99.312323 
" clip-path="url(#p941490305f)" style="fill: none; stroke: #484848"/>
   </g>
   <g id="patch_5">
    <path d="M 69.77 189.765277 
L 69.77 34.56 
" style="fill: none; stroke: #000000; stroke-width: 0.8; stroke-linejoin: miter; stroke-linecap: square"/>
   </g>
   <g id="patch_6">
    <path d="M 244.8 189.765277 
L 244.8 34.56 
" style="fill: none; stroke: #000000; stroke-width: 0.8; stroke-linejoin: miter; stroke-linecap: square"/>
   </g>
   <g id="patch_7">
    <path d="M 69.77 189.765277 
L 244.8 189.765277 
" style="fill: none; stroke: #000000; stroke-width: 0.8; stroke-linejoin: miter; stroke-linecap: square"/>
   </g>
   <g id="patch_8">
    <path d="M 69.77 34.56 
L 244.8 34.56 
" style="fill: none; stroke: #000000; stroke-width: 0.8; stroke-linejoin: miter; stroke-linecap: square"/>
   </g>
  </g>
  <g id="axes_2">
   <g id="patch_9">
    <path d="M 301.97 189.765277 
L 477 189.765277 
L 477 34.56 
L 301.97 34.56 
z
" style="fill: #ffffff"/>
   </g>
   <g id="matplotlib.axis_3">
    <g id="xtick_3">
     <g id="line2d_20">
      <g>
       <use xlink:href="#m02c25de72c" x="345.7275" y="189.765277" style="stroke: #000000; stroke-width: 0.8"/>
      </g>
     </g>
     <g id="text_10">
      <!-- Neighbors -->
      <g transform="translate(320.284531 204.363715) scale(0.1 -0.1)">
       <use xlink:href="#DejaVuSans-4e"/>
       <use xlink:href="#DejaVuSans-65" transform="translate(74.804688 0)"/>
       <use xlink:href="#DejaVuSans-69" transform="translate(136.328125 0)"/>
       <use xlink:href="#DejaVuSans-67" transform="translate(164.111328 0)"/>
       <use xlink:href="#DejaVuSans-68" transform="translate(227.587891 0)"/>
       <use xlink:href="#DejaVuSans-62" transform="translate(290.966797 0)"/>
       <use xlink:href="#DejaVuSans-6f" transform="translate(354.443359 0)"/>
       <use xlink:href="#DejaVuSans-72" transform="translate(415.625 0)"/>
       <use xlink:href="#DejaVuSans-73" transform="translate(456.738281 0)"/>
      </g>
     </g>
    </g>
    <g id="xtick_4">
     <g id="line2d_21">
      <g>
       <use xlink:href="#m02c25de72c" x="433.2425" y="189.765277" style="stroke: #000000; stroke-width: 0.8"/>
      </g>
     </g>
     <g id="text_11">
      <!-- Montclare -->
      <g transform="translate(408.518281 204.363715) scale(0.1 -0.1)">
       <use xlink:href="#DejaVuSans-4d"/>
       <use xlink:href="#DejaVuSans-6f" transform="translate(86.279297 0)"/>
       <use xlink:href="#DejaVuSans-6e" transform="translate(147.460938 0)"/>
       <use xlink:href="#DejaVuSans-74" transform="translate(210.839844 0)"/>
       <use xlink:href="#DejaVuSans-63" transform="translate(250.048828 0)"/>
       <use xlink:href="#DejaVuSans-6c" transform="translate(305.029297 0)"/>
       <use xlink:href="#DejaVuSans-61" transform="translate(332.8125 0)"/>
       <use xlink:href="#DejaVuSans-72" transform="translate(394.091797 0)"/>
       <use xlink:href="#DejaVuSans-65" transform="translate(432.955078 0)"/>
      </g>
     </g>
    </g>
    <g id="text_12">
     <!-- Area -->
     <g transform="translate(377.981094 218.04184) scale(0.1 -0.1)">
      <use xlink:href="#DejaVuSans-41"/>
      <use xlink:href="#DejaVuSans-72" transform="translate(68.408203 0)"/>
      <use xlink:href="#DejaVuSans-65" transform="translate(107.271484 0)"/>
      <use xlink:href="#DejaVuSans-61" transform="translate(168.794922 0)"/>
     </g>
    </g>
   </g>
   <g id="matplotlib.axis_4">
    <g id="ytick_6">
     <g id="line2d_22">
      <g>
       <use xlink:href="#m96240be393" x="301.97" y="184.016934" style="stroke: #000000; stroke-width: 0.8"/>
      </g>
     </g>
     <g id="text_13">
      <!-- 0 -->
      <g transform="translate(288.6075 187.816152) scale(0.1 -0.1)">
       <use xlink:href="#DejaVuSans-30"/>
      </g>
     </g>
    </g>
    <g id="ytick_7">
     <g id="line2d_23">
      <g>
       <use xlink:href="#m96240be393" x="301.97" y="149.636888" style="stroke: #000000; stroke-width: 0.8"/>
      </g>
     </g>
     <g id="text_14">
      <!-- 500 -->
      <g transform="translate(275.8825 153.436107) scale(0.1 -0.1)">
       <defs>
        <path id="DejaVuSans-35" d="M 691 4666 
L 3169 4666 
L 3169 4134 
L 1269 4134 
L 1269 2991 
Q 1406 3038 1543 3061 
Q 1681 3084 1819 3084 
Q 2600 3084 3056 2656 
Q 3513 2228 3513 1497 
Q 3513 744 3044 326 
Q 2575 -91 1722 -91 
Q 1428 -91 1123 -41 
Q 819 9 494 109 
L 494 744 
Q 775 591 1075 516 
Q 1375 441 1709 441 
Q 2250 441 2565 725 
Q 2881 1009 2881 1497 
Q 2881 1984 2565 2268 
Q 2250 2553 1709 2553 
Q 1456 2553 1204 2497 
Q 953 2441 691 2322 
L 691 4666 
z
" transform="scale(0.015625)"/>
       </defs>
       <use xlink:href="#DejaVuSans-35"/>
       <use xlink:href="#DejaVuSans-30" transform="translate(63.623047 0)"/>
       <use xlink:href="#DejaVuSans-30" transform="translate(127.246094 0)"/>
      </g>
     </g>
    </g>
    <g id="ytick_8">
     <g id="line2d_24">
      <g>
       <use xlink:href="#m96240be393" x="301.97" y="115.256843" style="stroke: #000000; stroke-width: 0.8"/>
      </g>
     </g>
     <g id="text_15">
      <!-- 1000 -->
      <g transform="translate(269.52 119.056061) scale(0.1 -0.1)">
       <use xlink:href="#DejaVuSans-31"/>
       <use xlink:href="#DejaVuSans-30" transform="translate(63.623047 0)"/>
       <use xlink:href="#DejaVuSans-30" transform="translate(127.246094 0)"/>
       <use xlink:href="#DejaVuSans-30" transform="translate(190.869141 0)"/>
      </g>
     </g>
    </g>
    <g id="ytick_9">
     <g id="line2d_25">
      <g>
       <use xlink:href="#m96240be393" x="301.97" y="80.876797" style="stroke: #000000; stroke-width: 0.8"/>
      </g>
     </g>
     <g id="text_16">
      <!-- 1500 -->
      <g transform="translate(269.52 84.676016) scale(0.1 -0.1)">
       <use xlink:href="#DejaVuSans-31"/>
       <use xlink:href="#DejaVuSans-35" transform="translate(63.623047 0)"/>
       <use xlink:href="#DejaVuSans-30" transform="translate(127.246094 0)"/>
       <use xlink:href="#DejaVuSans-30" transform="translate(190.869141 0)"/>
      </g>
     </g>
    </g>
    <g id="ytick_10">
     <g id="line2d_26">
      <g>
       <use xlink:href="#m96240be393" x="301.97" y="46.496752" style="stroke: #000000; stroke-width: 0.8"/>
      </g>
     </g>
     <g id="text_17">
      <!-- 2000 -->
      <g transform="translate(269.52 50.295971) scale(0.1 -0.1)">
       <use xlink:href="#DejaVuSans-32"/>
       <use xlink:href="#DejaVuSans-30" transform="translate(63.623047 0)"/>
       <use xlink:href="#DejaVuSans-30" transform="translate(127.246094 0)"/>
       <use xlink:href="#DejaVuSans-30" transform="translate(190.869141 0)"/>
      </g>
     </g>
    </g>
    <g id="text_18">
     <!-- Hispanic or Latino population -->
     <g transform="translate(263.440313 185.378264) rotate(-90) scale(0.1 -0.1)">
      <defs>
       <path id="DejaVuSans-48" d="M 628 4666 
L 1259 4666 
L 1259 2753 
L 3553 2753 
L 3553 4666 
L 4184 4666 
L 4184 0 
L 3553 0 
L 3553 2222 
L 1259 2222 
L 1259 0 
L 628 0 
L 628 4666 
z
" transform="scale(0.015625)"/>
       <path id="DejaVuSans-70" d="M 1159 525 
L 1159 -1331 
L 581 -1331 
L 581 3500 
L 1159 3500 
L 1159 2969 
Q 1341 3281 1617 3432 
Q 1894 3584 2278 3584 
Q 2916 3584 3314 3078 
Q 3713 2572 3713 1747 
Q 3713 922 3314 415 
Q 2916 -91 2278 -91 
Q 1894 -91 1617 61 
Q 1341 213 1159 525 
z
M 3116 1747 
Q 3116 2381 2855 2742 
Q 2594 3103 2138 3103 
Q 1681 3103 1420 2742 
Q 1159 2381 1159 1747 
Q 1159 1113 1420 752 
Q 1681 391 2138 391 
Q 2594 391 2855 752 
Q 3116 1113 3116 1747 
z
" transform="scale(0.015625)"/>
       <path id="DejaVuSans-4c" d="M 628 4666 
L 1259 4666 
L 1259 531 
L 3531 531 
L 3531 0 
L 628 0 
L 628 4666 
z
" transform="scale(0.015625)"/>
      </defs>
      <use xlink:href="#DejaVuSans-48"/>
      <use xlink:href="#DejaVuSans-69" transform="translate(75.195312 0)"/>
      <use xlink:href="#DejaVuSans-73" transform="translate(102.978516 0)"/>
      <use xlink:href="#DejaVuSans-70" transform="translate(155.078125 0)"/>
      <use xlink:href="#DejaVuSans-61" transform="translate(218.554688 0)"/>
      <use xlink:href="#DejaVuSans-6e" transform="translate(279.833984 0)"/>
      <use xlink:href="#DejaVuSans-69" transform="translate(343.212891 0)"/>
      <use xlink:href="#DejaVuSans-63" transform="translate(370.996094 0)"/>
      <use xlink:href="#DejaVuSans-20" transform="translate(425.976562 0)"/>
      <use xlink:href="#DejaVuSans-6f" transform="translate(457.763672 0)"/>
      <use xlink:href="#DejaVuSans-72" transform="translate(518.945312 0)"/>
      <use xlink:href="#DejaVuSans-20" transform="translate(560.058594 0)"/>
      <use xlink:href="#DejaVuSans-4c" transform="translate(591.845703 0)"/>
      <use xlink:href="#DejaVuSans-61" transform="translate(647.558594 0)"/>
      <use xlink:href="#DejaVuSans-74" transform="translate(708.837891 0)"/>
      <use xlink:href="#DejaVuSans-69" transform="translate(748.046875 0)"/>
      <use xlink:href="#DejaVuSans-6e" transform="translate(775.830078 0)"/>
      <use xlink:href="#DejaVuSans-6f" transform="translate(839.208984 0)"/>
      <use xlink:href="#DejaVuSans-20" transform="translate(900.390625 0)"/>
      <use xlink:href="#DejaVuSans-70" transform="translate(932.177734 0)"/>
      <use xlink:href="#DejaVuSans-6f" transform="translate(995.654297 0)"/>
      <use xlink:href="#DejaVuSans-70" transform="translate(1056.835938 0)"/>
      <use xlink:href="#DejaVuSans-75" transform="translate(1120.3125 0)"/>
      <use xlink:href="#DejaVuSans-6c" transform="translate(1183.691406 0)"/>
      <use xlink:href="#DejaVuSans-61" transform="translate(1211.474609 0)"/>
      <use xlink:href="#DejaVuSans-74" transform="translate(1272.753906 0)"/>
      <use xlink:href="#DejaVuSans-69" transform="translate(1311.962891 0)"/>
      <use xlink:href="#DejaVuSans-6f" transform="translate(1339.746094 0)"/>
      <use xlink:href="#DejaVuSans-6e" transform="translate(1400.927734 0)"/>
     </g>
    </g>
   </g>
   <g id="patch_10">
    <path d="M 310.7215 157.870909 
L 380.7335 157.870909 
L 380.7335 118.677657 
L 310.7215 118.677657 
L 310.7215 157.870909 
z
" clip-path="url(#p26c09c62e4)" style="fill: #cb3335; stroke: #484848; stroke-linejoin: miter"/>
   </g>
   <g id="line2d_27">
    <path d="M 345.7275 157.870909 
L 345.7275 174.734321 
" clip-path="url(#p26c09c62e4)" style="fill: none; stroke: #484848"/>
   </g>
   <g id="line2d_28">
    <path d="M 345.7275 118.677657 
L 345.7275 69.393862 
" clip-path="url(#p26c09c62e4)" style="fill: none; stroke: #484848"/>
   </g>
   <g id="line2d_29">
    <path d="M 328.2245 174.734321 
L 363.2305 174.734321 
" clip-path="url(#p26c09c62e4)" style="fill: none; stroke: #484848; stroke-linecap: square"/>
   </g>
   <g id="line2d_30">
    <path d="M 328.2245 69.393862 
L 363.2305 69.393862 
" clip-path="url(#p26c09c62e4)" style="fill: none; stroke: #484848; stroke-linecap: square"/>
   </g>
   <g id="line2d_31">
    <g clip-path="url(#p26c09c62e4)">
     <use xlink:href="#m0862ac4a23" x="345.7275" y="41.614785" style="fill-opacity: 0; stroke: #484848"/>
    </g>
   </g>
   <g id="patch_11">
    <path d="M 398.2365 149.396228 
L 468.2485 149.396228 
L 468.2485 120.035669 
L 398.2365 120.035669 
L 398.2365 149.396228 
z
" clip-path="url(#p26c09c62e4)" style="fill: #477ca8; stroke: #484848; stroke-linejoin: miter"/>
   </g>
   <g id="line2d_32">
    <path d="M 433.2425 149.396228 
L 433.2425 182.710492 
" clip-path="url(#p26c09c62e4)" style="fill: none; stroke: #484848"/>
   </g>
   <g id="line2d_33">
    <path d="M 433.2425 120.035669 
L 433.2425 92.359732 
" clip-path="url(#p26c09c62e4)" style="fill: none; stroke: #484848"/>
   </g>
   <g id="line2d_34">
    <path d="M 415.7395 182.710492 
L 450.7455 182.710492 
" clip-path="url(#p26c09c62e4)" style="fill: none; stroke: #484848; stroke-linecap: square"/>
   </g>
   <g id="line2d_35">
    <path d="M 415.7395 92.359732 
L 450.7455 92.359732 
" clip-path="url(#p26c09c62e4)" style="fill: none; stroke: #484848; stroke-linecap: square"/>
   </g>
   <g id="line2d_36"/>
   <g id="line2d_37">
    <path d="M 310.7215 140.491796 
L 380.7335 140.491796 
" clip-path="url(#p26c09c62e4)" style="fill: none; stroke: #484848"/>
   </g>
   <g id="line2d_38">
    <path d="M 398.2365 129.558942 
L 468.2485 129.558942 
" clip-path="url(#p26c09c62e4)" style="fill: none; stroke: #484848"/>
   </g>
   <g id="patch_12">
    <path d="M 301.97 189.765277 
L 301.97 34.56 
" style="fill: none; stroke: #000000; stroke-width: 0.8; stroke-linejoin: miter; stroke-linecap: square"/>
   </g>
   <g id="patch_13">
    <path d="M 477 189.765277 
L 477 34.56 
" style="fill: none; stroke: #000000; stroke-width: 0.8; stroke-linejoin: miter; stroke-linecap: square"/>
   </g>
   <g id="patch_14">
    <path d="M 301.97 189.765277 
L 477 189.765277 
" style="fill: none; stroke: #000000; stroke-width: 0.8; stroke-linejoin: miter; stroke-linecap: square"/>
   </g>
   <g id="patch_15">
    <path d="M 301.97 34.56 
L 477 34.56 
" style="fill: none; stroke: #000000; stroke-width: 0.8; stroke-linejoin: miter; stroke-linecap: square"/>
   </g>
  </g>
  <g id="axes_3">
   <g id="patch_16">
    <path d="M 534.17 189.765277 
L 709.2 189.765277 
L 709.2 34.56 
L 534.17 34.56 
z
" style="fill: #ffffff"/>
   </g>
   <g id="matplotlib.axis_5">
    <g id="xtick_5">
     <g id="line2d_39">
      <g>
       <use xlink:href="#m02c25de72c" x="577.9275" y="189.765277" style="stroke: #000000; stroke-width: 0.8"/>
      </g>
     </g>
     <g id="text_19">
      <!-- Neighbors -->
      <g transform="translate(552.484531 204.363715) scale(0.1 -0.1)">
       <use xlink:href="#DejaVuSans-4e"/>
       <use xlink:href="#DejaVuSans-65" transform="translate(74.804688 0)"/>
       <use xlink:href="#DejaVuSans-69" transform="translate(136.328125 0)"/>
       <use xlink:href="#DejaVuSans-67" transform="translate(164.111328 0)"/>
       <use xlink:href="#DejaVuSans-68" transform="translate(227.587891 0)"/>
       <use xlink:href="#DejaVuSans-62" transform="translate(290.966797 0)"/>
       <use xlink:href="#DejaVuSans-6f" transform="translate(354.443359 0)"/>
       <use xlink:href="#DejaVuSans-72" transform="translate(415.625 0)"/>
       <use xlink:href="#DejaVuSans-73" transform="translate(456.738281 0)"/>
      </g>
     </g>
    </g>
    <g id="xtick_6">
     <g id="line2d_40">
      <g>
       <use xlink:href="#m02c25de72c" x="665.4425" y="189.765277" style="stroke: #000000; stroke-width: 0.8"/>
      </g>
     </g>
     <g id="text_20">
      <!-- Montclare -->
      <g transform="translate(640.718281 204.363715) scale(0.1 -0.1)">
       <use xlink:href="#DejaVuSans-4d"/>
       <use xlink:href="#DejaVuSans-6f" transform="translate(86.279297 0)"/>
       <use xlink:href="#DejaVuSans-6e" transform="translate(147.460938 0)"/>
       <use xlink:href="#DejaVuSans-74" transform="translate(210.839844 0)"/>
       <use xlink:href="#DejaVuSans-63" transform="translate(250.048828 0)"/>
       <use xlink:href="#DejaVuSans-6c" transform="translate(305.029297 0)"/>
       <use xlink:href="#DejaVuSans-61" transform="translate(332.8125 0)"/>
       <use xlink:href="#DejaVuSans-72" transform="translate(394.091797 0)"/>
       <use xlink:href="#DejaVuSans-65" transform="translate(432.955078 0)"/>
      </g>
     </g>
    </g>
    <g id="text_21">
     <!-- Area -->
     <g transform="translate(610.181094 218.04184) scale(0.1 -0.1)">
      <use xlink:href="#DejaVuSans-41"/>
      <use xlink:href="#DejaVuSans-72" transform="translate(68.408203 0)"/>
      <use xlink:href="#DejaVuSans-65" transform="translate(107.271484 0)"/>
      <use xlink:href="#DejaVuSans-61" transform="translate(168.794922 0)"/>
     </g>
    </g>
   </g>
   <g id="matplotlib.axis_6">
    <g id="ytick_11">
     <g id="line2d_41">
      <g>
       <use xlink:href="#m96240be393" x="534.17" y="186.673854" style="stroke: #000000; stroke-width: 0.8"/>
      </g>
     </g>
     <g id="text_22">
      <!-- 0 -->
      <g transform="translate(520.8075 190.473073) scale(0.1 -0.1)">
       <use xlink:href="#DejaVuSans-30"/>
      </g>
     </g>
    </g>
    <g id="ytick_12">
     <g id="line2d_42">
      <g>
       <use xlink:href="#m96240be393" x="534.17" y="154.966954" style="stroke: #000000; stroke-width: 0.8"/>
      </g>
     </g>
     <g id="text_23">
      <!-- 200 -->
      <g transform="translate(508.0825 158.766173) scale(0.1 -0.1)">
       <use xlink:href="#DejaVuSans-32"/>
       <use xlink:href="#DejaVuSans-30" transform="translate(63.623047 0)"/>
       <use xlink:href="#DejaVuSans-30" transform="translate(127.246094 0)"/>
      </g>
     </g>
    </g>
    <g id="ytick_13">
     <g id="line2d_43">
      <g>
       <use xlink:href="#m96240be393" x="534.17" y="123.260054" style="stroke: #000000; stroke-width: 0.8"/>
      </g>
     </g>
     <g id="text_24">
      <!-- 400 -->
      <g transform="translate(508.0825 127.059272) scale(0.1 -0.1)">
       <use xlink:href="#DejaVuSans-34"/>
       <use xlink:href="#DejaVuSans-30" transform="translate(63.623047 0)"/>
       <use xlink:href="#DejaVuSans-30" transform="translate(127.246094 0)"/>
      </g>
     </g>
    </g>
    <g id="ytick_14">
     <g id="line2d_44">
      <g>
       <use xlink:href="#m96240be393" x="534.17" y="91.553153" style="stroke: #000000; stroke-width: 0.8"/>
      </g>
     </g>
     <g id="text_25">
      <!-- 600 -->
      <g transform="translate(508.0825 95.352372) scale(0.1 -0.1)">
       <use xlink:href="#DejaVuSans-36"/>
       <use xlink:href="#DejaVuSans-30" transform="translate(63.623047 0)"/>
       <use xlink:href="#DejaVuSans-30" transform="translate(127.246094 0)"/>
      </g>
     </g>
    </g>
    <g id="ytick_15">
     <g id="line2d_45">
      <g>
       <use xlink:href="#m96240be393" x="534.17" y="59.846253" style="stroke: #000000; stroke-width: 0.8"/>
      </g>
     </g>
     <g id="text_26">
      <!-- 800 -->
      <g transform="translate(508.0825 63.645472) scale(0.1 -0.1)">
       <use xlink:href="#DejaVuSans-38"/>
       <use xlink:href="#DejaVuSans-30" transform="translate(63.623047 0)"/>
       <use xlink:href="#DejaVuSans-30" transform="translate(127.246094 0)"/>
      </g>
     </g>
    </g>
    <g id="text_27">
     <!-- Owner-occupied housing units -->
     <g transform="translate(502.002813 187.811076) rotate(-90) scale(0.1 -0.1)">
      <defs>
       <path id="DejaVuSans-4f" d="M 2522 4238 
Q 1834 4238 1429 3725 
Q 1025 3213 1025 2328 
Q 1025 1447 1429 934 
Q 1834 422 2522 422 
Q 3209 422 3611 934 
Q 4013 1447 4013 2328 
Q 4013 3213 3611 3725 
Q 3209 4238 2522 4238 
z
M 2522 4750 
Q 3503 4750 4090 4092 
Q 4678 3434 4678 2328 
Q 4678 1225 4090 567 
Q 3503 -91 2522 -91 
Q 1538 -91 948 565 
Q 359 1222 359 2328 
Q 359 3434 948 4092 
Q 1538 4750 2522 4750 
z
" transform="scale(0.015625)"/>
       <path id="DejaVuSans-77" d="M 269 3500 
L 844 3500 
L 1563 769 
L 2278 3500 
L 2956 3500 
L 3675 769 
L 4391 3500 
L 4966 3500 
L 4050 0 
L 3372 0 
L 2619 2869 
L 1863 0 
L 1184 0 
L 269 3500 
z
" transform="scale(0.015625)"/>
       <path id="DejaVuSans-2d" d="M 313 2009 
L 1997 2009 
L 1997 1497 
L 313 1497 
L 313 2009 
z
" transform="scale(0.015625)"/>
      </defs>
      <use xlink:href="#DejaVuSans-4f"/>
      <use xlink:href="#DejaVuSans-77" transform="translate(78.710938 0)"/>
      <use xlink:href="#DejaVuSans-6e" transform="translate(160.498047 0)"/>
      <use xlink:href="#DejaVuSans-65" transform="translate(223.876953 0)"/>
      <use xlink:href="#DejaVuSans-72" transform="translate(285.400391 0)"/>
      <use xlink:href="#DejaVuSans-2d" transform="translate(320.138672 0)"/>
      <use xlink:href="#DejaVuSans-6f" transform="translate(358.097656 0)"/>
      <use xlink:href="#DejaVuSans-63" transform="translate(419.279297 0)"/>
      <use xlink:href="#DejaVuSans-63" transform="translate(474.259766 0)"/>
      <use xlink:href="#DejaVuSans-75" transform="translate(529.240234 0)"/>
      <use xlink:href="#DejaVuSans-70" transform="translate(592.619141 0)"/>
      <use xlink:href="#DejaVuSans-69" transform="translate(656.095703 0)"/>
      <use xlink:href="#DejaVuSans-65" transform="translate(683.878906 0)"/>
      <use xlink:href="#DejaVuSans-64" transform="translate(745.402344 0)"/>
      <use xlink:href="#DejaVuSans-20" transform="translate(808.878906 0)"/>
      <use xlink:href="#DejaVuSans-68" transform="translate(840.666016 0)"/>
      <use xlink:href="#DejaVuSans-6f" transform="translate(904.044922 0)"/>
      <use xlink:href="#DejaVuSans-75" transform="translate(965.226562 0)"/>
      <use xlink:href="#DejaVuSans-73" transform="translate(1028.605469 0)"/>
      <use xlink:href="#DejaVuSans-69" transform="translate(1080.705078 0)"/>
      <use xlink:href="#DejaVuSans-6e" transform="translate(1108.488281 0)"/>
      <use xlink:href="#DejaVuSans-67" transform="translate(1171.867188 0)"/>
      <use xlink:href="#DejaVuSans-20" transform="translate(1235.34375 0)"/>
      <use xlink:href="#DejaVuSans-75" transform="translate(1267.130859 0)"/>
      <use xlink:href="#DejaVuSans-6e" transform="translate(1330.509766 0)"/>
      <use xlink:href="#DejaVuSans-69" transform="translate(1393.888672 0)"/>
      <use xlink:href="#DejaVuSans-74" transform="translate(1421.671875 0)"/>
      <use xlink:href="#DejaVuSans-73" transform="translate(1460.880859 0)"/>
     </g>
    </g>
   </g>
   <g id="patch_17">
    <path d="M 542.9215 156.909002 
L 612.9335 156.909002 
L 612.9335 129.839236 
L 542.9215 129.839236 
L 542.9215 156.909002 
z
" clip-path="url(#paaf56ba124)" style="fill: #cb3335; stroke: #484848; stroke-linejoin: miter"/>
   </g>
   <g id="line2d_46">
    <path d="M 577.9275 156.909002 
L 577.9275 173.356956 
" clip-path="url(#paaf56ba124)" style="fill: none; stroke: #484848"/>
   </g>
   <g id="line2d_47">
    <path d="M 577.9275 129.839236 
L 577.9275 106.931 
" clip-path="url(#paaf56ba124)" style="fill: none; stroke: #484848"/>
   </g>
   <g id="line2d_48">
    <path d="M 560.4245 173.356956 
L 595.4305 173.356956 
" clip-path="url(#paaf56ba124)" style="fill: none; stroke: #484848; stroke-linecap: square"/>
   </g>
   <g id="line2d_49">
    <path d="M 560.4245 106.931 
L 595.4305 106.931 
" clip-path="url(#paaf56ba124)" style="fill: none; stroke: #484848; stroke-linecap: square"/>
   </g>
   <g id="line2d_50">
    <g clip-path="url(#paaf56ba124)">
     <use xlink:href="#m0862ac4a23" x="577.9275" y="41.614785" style="fill-opacity: 0; stroke: #484848"/>
    </g>
   </g>
   <g id="patch_18">
    <path d="M 630.4365 151.320661 
L 700.4485 151.320661 
L 700.4485 138.558633 
L 630.4365 138.558633 
L 630.4365 151.320661 
z
" clip-path="url(#paaf56ba124)" style="fill: #477ca8; stroke: #484848; stroke-linejoin: miter"/>
   </g>
   <g id="line2d_51">
    <path d="M 665.4425 151.320661 
L 665.4425 160.198593 
" clip-path="url(#paaf56ba124)" style="fill: none; stroke: #484848"/>
   </g>
   <g id="line2d_52">
    <path d="M 665.4425 138.558633 
L 665.4425 121.674709 
" clip-path="url(#paaf56ba124)" style="fill: none; stroke: #484848"/>
   </g>
   <g id="line2d_53">
    <path d="M 647.9395 160.198593 
L 682.9455 160.198593 
" clip-path="url(#paaf56ba124)" style="fill: none; stroke: #484848; stroke-linecap: square"/>
   </g>
   <g id="line2d_54">
    <path d="M 647.9395 121.674709 
L 682.9455 121.674709 
" clip-path="url(#paaf56ba124)" style="fill: none; stroke: #484848; stroke-linecap: square"/>
   </g>
   <g id="line2d_55">
    <g clip-path="url(#paaf56ba124)">
     <use xlink:href="#m0862ac4a23" x="665.4425" y="182.710492" style="fill-opacity: 0; stroke: #484848"/>
    </g>
   </g>
   <g id="line2d_56">
    <path d="M 542.9215 144.028073 
L 612.9335 144.028073 
" clip-path="url(#paaf56ba124)" style="fill: none; stroke: #484848"/>
   </g>
   <g id="line2d_57">
    <path d="M 630.4365 147.991436 
L 700.4485 147.991436 
" clip-path="url(#paaf56ba124)" style="fill: none; stroke: #484848"/>
   </g>
   <g id="patch_19">
    <path d="M 534.17 189.765277 
L 534.17 34.56 
" style="fill: none; stroke: #000000; stroke-width: 0.8; stroke-linejoin: miter; stroke-linecap: square"/>
   </g>
   <g id="patch_20">
    <path d="M 709.2 189.765277 
L 709.2 34.56 
" style="fill: none; stroke: #000000; stroke-width: 0.8; stroke-linejoin: miter; stroke-linecap: square"/>
   </g>
   <g id="patch_21">
    <path d="M 534.17 189.765277 
L 709.2 189.765277 
" style="fill: none; stroke: #000000; stroke-width: 0.8; stroke-linejoin: miter; stroke-linecap: square"/>
   </g>
   <g id="patch_22">
    <path d="M 534.17 34.56 
L 709.2 34.56 
" style="fill: none; stroke: #000000; stroke-width: 0.8; stroke-linejoin: miter; stroke-linecap: square"/>
   </g>
  </g>
  <g id="axes_4">
   <g id="patch_23">
    <path d="M 69.77 390.04 
L 244.8 390.04 
L 244.8 234.834723 
L 69.77 234.834723 
z
" style="fill: #ffffff"/>
   </g>
   <g id="matplotlib.axis_7">
    <g id="xtick_7">
     <g id="line2d_58">
      <g>
       <use xlink:href="#m02c25de72c" x="113.5275" y="390.04" style="stroke: #000000; stroke-width: 0.8"/>
      </g>
     </g>
     <g id="text_28">
      <!-- Neighbors -->
      <g transform="translate(88.084531 404.638438) scale(0.1 -0.1)">
       <use xlink:href="#DejaVuSans-4e"/>
       <use xlink:href="#DejaVuSans-65" transform="translate(74.804688 0)"/>
       <use xlink:href="#DejaVuSans-69" transform="translate(136.328125 0)"/>
       <use xlink:href="#DejaVuSans-67" transform="translate(164.111328 0)"/>
       <use xlink:href="#DejaVuSans-68" transform="translate(227.587891 0)"/>
       <use xlink:href="#DejaVuSans-62" transform="translate(290.966797 0)"/>
       <use xlink:href="#DejaVuSans-6f" transform="translate(354.443359 0)"/>
       <use xlink:href="#DejaVuSans-72" transform="translate(415.625 0)"/>
       <use xlink:href="#DejaVuSans-73" transform="translate(456.738281 0)"/>
      </g>
     </g>
    </g>
    <g id="xtick_8">
     <g id="line2d_59">
      <g>
       <use xlink:href="#m02c25de72c" x="201.0425" y="390.04" style="stroke: #000000; stroke-width: 0.8"/>
      </g>
     </g>
     <g id="text_29">
      <!-- Montclare -->
      <g transform="translate(176.318281 404.638438) scale(0.1 -0.1)">
       <use xlink:href="#DejaVuSans-4d"/>
       <use xlink:href="#DejaVuSans-6f" transform="translate(86.279297 0)"/>
       <use xlink:href="#DejaVuSans-6e" transform="translate(147.460938 0)"/>
       <use xlink:href="#DejaVuSans-74" transform="translate(210.839844 0)"/>
       <use xlink:href="#DejaVuSans-63" transform="translate(250.048828 0)"/>
       <use xlink:href="#DejaVuSans-6c" transform="translate(305.029297 0)"/>
       <use xlink:href="#DejaVuSans-61" transform="translate(332.8125 0)"/>
       <use xlink:href="#DejaVuSans-72" transform="translate(394.091797 0)"/>
       <use xlink:href="#DejaVuSans-65" transform="translate(432.955078 0)"/>
      </g>
     </g>
    </g>
    <g id="text_30">
     <!-- Area -->
     <g transform="translate(145.781094 418.316562) scale(0.1 -0.1)">
      <use xlink:href="#DejaVuSans-41"/>
      <use xlink:href="#DejaVuSans-72" transform="translate(68.408203 0)"/>
      <use xlink:href="#DejaVuSans-65" transform="translate(107.271484 0)"/>
      <use xlink:href="#DejaVuSans-61" transform="translate(168.794922 0)"/>
     </g>
    </g>
   </g>
   <g id="matplotlib.axis_8">
    <g id="ytick_16">
     <g id="line2d_60">
      <g>
       <use xlink:href="#m96240be393" x="69.77" y="347.711288" style="stroke: #000000; stroke-width: 0.8"/>
      </g>
     </g>
     <g id="text_31">
      <!-- 100 -->
      <g transform="translate(43.6825 351.510507) scale(0.1 -0.1)">
       <use xlink:href="#DejaVuSans-31"/>
       <use xlink:href="#DejaVuSans-30" transform="translate(63.623047 0)"/>
       <use xlink:href="#DejaVuSans-30" transform="translate(127.246094 0)"/>
      </g>
     </g>
    </g>
    <g id="ytick_17">
     <g id="line2d_61">
      <g>
       <use xlink:href="#m96240be393" x="69.77" y="304.694304" style="stroke: #000000; stroke-width: 0.8"/>
      </g>
     </g>
     <g id="text_32">
      <!-- 200 -->
      <g transform="translate(43.6825 308.493523) scale(0.1 -0.1)">
       <use xlink:href="#DejaVuSans-32"/>
       <use xlink:href="#DejaVuSans-30" transform="translate(63.623047 0)"/>
       <use xlink:href="#DejaVuSans-30" transform="translate(127.246094 0)"/>
      </g>
     </g>
    </g>
    <g id="ytick_18">
     <g id="line2d_62">
      <g>
       <use xlink:href="#m96240be393" x="69.77" y="261.677321" style="stroke: #000000; stroke-width: 0.8"/>
      </g>
     </g>
     <g id="text_33">
      <!-- 300 -->
      <g transform="translate(43.6825 265.476539) scale(0.1 -0.1)">
       <defs>
        <path id="DejaVuSans-33" d="M 2597 2516 
Q 3050 2419 3304 2112 
Q 3559 1806 3559 1356 
Q 3559 666 3084 287 
Q 2609 -91 1734 -91 
Q 1441 -91 1130 -33 
Q 819 25 488 141 
L 488 750 
Q 750 597 1062 519 
Q 1375 441 1716 441 
Q 2309 441 2620 675 
Q 2931 909 2931 1356 
Q 2931 1769 2642 2001 
Q 2353 2234 1838 2234 
L 1294 2234 
L 1294 2753 
L 1863 2753 
Q 2328 2753 2575 2939 
Q 2822 3125 2822 3475 
Q 2822 3834 2567 4026 
Q 2313 4219 1838 4219 
Q 1578 4219 1281 4162 
Q 984 4106 628 3988 
L 628 4550 
Q 988 4650 1302 4700 
Q 1616 4750 1894 4750 
Q 2613 4750 3031 4423 
Q 3450 4097 3450 3541 
Q 3450 3153 3228 2886 
Q 3006 2619 2597 2516 
z
" transform="scale(0.015625)"/>
       </defs>
       <use xlink:href="#DejaVuSans-33"/>
       <use xlink:href="#DejaVuSans-30" transform="translate(63.623047 0)"/>
       <use xlink:href="#DejaVuSans-30" transform="translate(127.246094 0)"/>
      </g>
     </g>
    </g>
    <g id="text_34">
     <!-- Population 25+ with Bachelor's degree -->
     <g transform="translate(37.602812 409.712361) rotate(-90) scale(0.1 -0.1)">
      <defs>
       <path id="DejaVuSans-50" d="M 1259 4147 
L 1259 2394 
L 2053 2394 
Q 2494 2394 2734 2622 
Q 2975 2850 2975 3272 
Q 2975 3691 2734 3919 
Q 2494 4147 2053 4147 
L 1259 4147 
z
M 628 4666 
L 2053 4666 
Q 2838 4666 3239 4311 
Q 3641 3956 3641 3272 
Q 3641 2581 3239 2228 
Q 2838 1875 2053 1875 
L 1259 1875 
L 1259 0 
L 628 0 
L 628 4666 
z
" transform="scale(0.015625)"/>
       <path id="DejaVuSans-2b" d="M 2944 4013 
L 2944 2272 
L 4684 2272 
L 4684 1741 
L 2944 1741 
L 2944 0 
L 2419 0 
L 2419 1741 
L 678 1741 
L 678 2272 
L 2419 2272 
L 2419 4013 
L 2944 4013 
z
" transform="scale(0.015625)"/>
       <path id="DejaVuSans-42" d="M 1259 2228 
L 1259 519 
L 2272 519 
Q 2781 519 3026 730 
Q 3272 941 3272 1375 
Q 3272 1813 3026 2020 
Q 2781 2228 2272 2228 
L 1259 2228 
z
M 1259 4147 
L 1259 2741 
L 2194 2741 
Q 2656 2741 2882 2914 
Q 3109 3088 3109 3444 
Q 3109 3797 2882 3972 
Q 2656 4147 2194 4147 
L 1259 4147 
z
M 628 4666 
L 2241 4666 
Q 2963 4666 3353 4366 
Q 3744 4066 3744 3513 
Q 3744 3084 3544 2831 
Q 3344 2578 2956 2516 
Q 3422 2416 3680 2098 
Q 3938 1781 3938 1306 
Q 3938 681 3513 340 
Q 3088 0 2303 0 
L 628 0 
L 628 4666 
z
" transform="scale(0.015625)"/>
       <path id="DejaVuSans-27" d="M 1147 4666 
L 1147 2931 
L 616 2931 
L 616 4666 
L 1147 4666 
z
" transform="scale(0.015625)"/>
      </defs>
      <use xlink:href="#DejaVuSans-50"/>
      <use xlink:href="#DejaVuSans-6f" transform="translate(56.677734 0)"/>
      <use xlink:href="#DejaVuSans-70" transform="translate(117.859375 0)"/>
      <use xlink:href="#DejaVuSans-75" transform="translate(181.335938 0)"/>
      <use xlink:href="#DejaVuSans-6c" transform="translate(244.714844 0)"/>
      <use xlink:href="#DejaVuSans-61" transform="translate(272.498047 0)"/>
      <use xlink:href="#DejaVuSans-74" transform="translate(333.777344 0)"/>
      <use xlink:href="#DejaVuSans-69" transform="translate(372.986328 0)"/>
      <use xlink:href="#DejaVuSans-6f" transform="translate(400.769531 0)"/>
      <use xlink:href="#DejaVuSans-6e" transform="translate(461.951172 0)"/>
      <use xlink:href="#DejaVuSans-20" transform="translate(525.330078 0)"/>
      <use xlink:href="#DejaVuSans-32" transform="translate(557.117188 0)"/>
      <use xlink:href="#DejaVuSans-35" transform="translate(620.740234 0)"/>
      <use xlink:href="#DejaVuSans-2b" transform="translate(684.363281 0)"/>
      <use xlink:href="#DejaVuSans-20" transform="translate(768.152344 0)"/>
      <use xlink:href="#DejaVuSans-77" transform="translate(799.939453 0)"/>
      <use xlink:href="#DejaVuSans-69" transform="translate(881.726562 0)"/>
      <use xlink:href="#DejaVuSans-74" transform="translate(909.509766 0)"/>
      <use xlink:href="#DejaVuSans-68" transform="translate(948.71875 0)"/>
      <use xlink:href="#DejaVuSans-20" transform="translate(1012.097656 0)"/>
      <use xlink:href="#DejaVuSans-42" transform="translate(1043.884766 0)"/>
      <use xlink:href="#DejaVuSans-61" transform="translate(1112.488281 0)"/>
      <use xlink:href="#DejaVuSans-63" transform="translate(1173.767578 0)"/>
      <use xlink:href="#DejaVuSans-68" transform="translate(1228.748047 0)"/>
      <use xlink:href="#DejaVuSans-65" transform="translate(1292.126953 0)"/>
      <use xlink:href="#DejaVuSans-6c" transform="translate(1353.650391 0)"/>
      <use xlink:href="#DejaVuSans-6f" transform="translate(1381.433594 0)"/>
      <use xlink:href="#DejaVuSans-72" transform="translate(1442.615234 0)"/>
      <use xlink:href="#DejaVuSans-27" transform="translate(1483.728516 0)"/>
      <use xlink:href="#DejaVuSans-73" transform="translate(1511.21875 0)"/>
      <use xlink:href="#DejaVuSans-20" transform="translate(1563.318359 0)"/>
      <use xlink:href="#DejaVuSans-64" transform="translate(1595.105469 0)"/>
      <use xlink:href="#DejaVuSans-65" transform="translate(1658.582031 0)"/>
      <use xlink:href="#DejaVuSans-67" transform="translate(1720.105469 0)"/>
      <use xlink:href="#DejaVuSans-72" transform="translate(1783.582031 0)"/>
      <use xlink:href="#DejaVuSans-65" transform="translate(1822.445312 0)"/>
      <use xlink:href="#DejaVuSans-65" transform="translate(1883.96875 0)"/>
     </g>
    </g>
   </g>
   <g id="patch_24">
    <path d="M 78.5215 350.507392 
L 148.5335 350.507392 
L 148.5335 294.585313 
L 78.5215 294.585313 
L 78.5215 350.507392 
z
" clip-path="url(#p93074b5373)" style="fill: #cb3335; stroke: #484848; stroke-linejoin: miter"/>
   </g>
   <g id="line2d_63">
    <path d="M 113.5275 350.507392 
L 113.5275 370.940459 
" clip-path="url(#p93074b5373)" style="fill: none; stroke: #484848"/>
   </g>
   <g id="line2d_64">
    <path d="M 113.5275 294.585313 
L 113.5275 241.889508 
" clip-path="url(#p93074b5373)" style="fill: none; stroke: #484848"/>
   </g>
   <g id="line2d_65">
    <path d="M 96.0245 370.940459 
L 131.0305 370.940459 
" clip-path="url(#p93074b5373)" style="fill: none; stroke: #484848; stroke-linecap: square"/>
   </g>
   <g id="line2d_66">
    <path d="M 96.0245 241.889508 
L 131.0305 241.889508 
" clip-path="url(#p93074b5373)" style="fill: none; stroke: #484848; stroke-linecap: square"/>
   </g>
   <g id="line2d_67"/>
   <g id="patch_25">
    <path d="M 166.0365 364.057742 
L 236.0485 364.057742 
L 236.0485 334.376023 
L 166.0365 334.376023 
L 166.0365 364.057742 
z
" clip-path="url(#p93074b5373)" style="fill: #477ca8; stroke: #484848; stroke-linejoin: miter"/>
   </g>
   <g id="line2d_68">
    <path d="M 201.0425 364.057742 
L 201.0425 382.985215 
" clip-path="url(#p93074b5373)" style="fill: none; stroke: #484848"/>
   </g>
   <g id="line2d_69">
    <path d="M 201.0425 334.376023 
L 201.0425 291.359039 
" clip-path="url(#p93074b5373)" style="fill: none; stroke: #484848"/>
   </g>
   <g id="line2d_70">
    <path d="M 183.5395 382.985215 
L 218.5455 382.985215 
" clip-path="url(#p93074b5373)" style="fill: none; stroke: #484848; stroke-linecap: square"/>
   </g>
   <g id="line2d_71">
    <path d="M 183.5395 291.359039 
L 218.5455 291.359039 
" clip-path="url(#p93074b5373)" style="fill: none; stroke: #484848; stroke-linecap: square"/>
   </g>
   <g id="line2d_72">
    <g clip-path="url(#p93074b5373)">
     <use xlink:href="#m0862ac4a23" x="201.0425" y="277.593605" style="fill-opacity: 0; stroke: #484848"/>
    </g>
   </g>
   <g id="line2d_73">
    <path d="M 78.5215 333.945853 
L 148.5335 333.945853 
" clip-path="url(#p93074b5373)" style="fill: none; stroke: #484848"/>
   </g>
   <g id="line2d_74">
    <path d="M 166.0365 346.420779 
L 236.0485 346.420779 
" clip-path="url(#p93074b5373)" style="fill: none; stroke: #484848"/>
   </g>
   <g id="patch_26">
    <path d="M 69.77 390.04 
L 69.77 234.834723 
" style="fill: none; stroke: #000000; stroke-width: 0.8; stroke-linejoin: miter; stroke-linecap: square"/>
   </g>
   <g id="patch_27">
    <path d="M 244.8 390.04 
L 244.8 234.834723 
" style="fill: none; stroke: #000000; stroke-width: 0.8; stroke-linejoin: miter; stroke-linecap: square"/>
   </g>
   <g id="patch_28">
    <path d="M 69.77 390.04 
L 244.8 390.04 
" style="fill: none; stroke: #000000; stroke-width: 0.8; stroke-linejoin: miter; stroke-linecap: square"/>
   </g>
   <g id="patch_29">
    <path d="M 69.77 234.834723 
L 244.8 234.834723 
" style="fill: none; stroke: #000000; stroke-width: 0.8; stroke-linejoin: miter; stroke-linecap: square"/>
   </g>
  </g>
  <g id="axes_5">
   <g id="patch_30">
    <path d="M 301.97 390.04 
L 477 390.04 
L 477 234.834723 
L 301.97 234.834723 
z
" style="fill: #ffffff"/>
   </g>
   <g id="matplotlib.axis_9">
    <g id="xtick_9">
     <g id="line2d_75">
      <g>
       <use xlink:href="#m02c25de72c" x="345.7275" y="390.04" style="stroke: #000000; stroke-width: 0.8"/>
      </g>
     </g>
     <g id="text_35">
      <!-- Neighbors -->
      <g transform="translate(320.284531 404.638438) scale(0.1 -0.1)">
       <use xlink:href="#DejaVuSans-4e"/>
       <use xlink:href="#DejaVuSans-65" transform="translate(74.804688 0)"/>
       <use xlink:href="#DejaVuSans-69" transform="translate(136.328125 0)"/>
       <use xlink:href="#DejaVuSans-67" transform="translate(164.111328 0)"/>
       <use xlink:href="#DejaVuSans-68" transform="translate(227.587891 0)"/>
       <use xlink:href="#DejaVuSans-62" transform="translate(290.966797 0)"/>
       <use xlink:href="#DejaVuSans-6f" transform="translate(354.443359 0)"/>
       <use xlink:href="#DejaVuSans-72" transform="translate(415.625 0)"/>
       <use xlink:href="#DejaVuSans-73" transform="translate(456.738281 0)"/>
      </g>
     </g>
    </g>
    <g id="xtick_10">
     <g id="line2d_76">
      <g>
       <use xlink:href="#m02c25de72c" x="433.2425" y="390.04" style="stroke: #000000; stroke-width: 0.8"/>
      </g>
     </g>
     <g id="text_36">
      <!-- Montclare -->
      <g transform="translate(408.518281 404.638438) scale(0.1 -0.1)">
       <use xlink:href="#DejaVuSans-4d"/>
       <use xlink:href="#DejaVuSans-6f" transform="translate(86.279297 0)"/>
       <use xlink:href="#DejaVuSans-6e" transform="translate(147.460938 0)"/>
       <use xlink:href="#DejaVuSans-74" transform="translate(210.839844 0)"/>
       <use xlink:href="#DejaVuSans-63" transform="translate(250.048828 0)"/>
       <use xlink:href="#DejaVuSans-6c" transform="translate(305.029297 0)"/>
       <use xlink:href="#DejaVuSans-61" transform="translate(332.8125 0)"/>
       <use xlink:href="#DejaVuSans-72" transform="translate(394.091797 0)"/>
       <use xlink:href="#DejaVuSans-65" transform="translate(432.955078 0)"/>
      </g>
     </g>
    </g>
    <g id="text_37">
     <!-- Area -->
     <g transform="translate(377.981094 418.316562) scale(0.1 -0.1)">
      <use xlink:href="#DejaVuSans-41"/>
      <use xlink:href="#DejaVuSans-72" transform="translate(68.408203 0)"/>
      <use xlink:href="#DejaVuSans-65" transform="translate(107.271484 0)"/>
      <use xlink:href="#DejaVuSans-61" transform="translate(168.794922 0)"/>
     </g>
    </g>
   </g>
   <g id="matplotlib.axis_10">
    <g id="ytick_19">
     <g id="line2d_77">
      <g>
       <use xlink:href="#m96240be393" x="301.97" y="366.408397" style="stroke: #000000; stroke-width: 0.8"/>
      </g>
     </g>
     <g id="text_38">
      <!-- 30 -->
      <g transform="translate(282.245 370.207615) scale(0.1 -0.1)">
       <use xlink:href="#DejaVuSans-33"/>
       <use xlink:href="#DejaVuSans-30" transform="translate(63.623047 0)"/>
      </g>
     </g>
    </g>
    <g id="ytick_20">
     <g id="line2d_78">
      <g>
       <use xlink:href="#m96240be393" x="301.97" y="327.857657" style="stroke: #000000; stroke-width: 0.8"/>
      </g>
     </g>
     <g id="text_39">
      <!-- 40 -->
      <g transform="translate(282.245 331.656876) scale(0.1 -0.1)">
       <use xlink:href="#DejaVuSans-34"/>
       <use xlink:href="#DejaVuSans-30" transform="translate(63.623047 0)"/>
      </g>
     </g>
    </g>
    <g id="ytick_21">
     <g id="line2d_79">
      <g>
       <use xlink:href="#m96240be393" x="301.97" y="289.306918" style="stroke: #000000; stroke-width: 0.8"/>
      </g>
     </g>
     <g id="text_40">
      <!-- 50 -->
      <g transform="translate(282.245 293.106136) scale(0.1 -0.1)">
       <use xlink:href="#DejaVuSans-35"/>
       <use xlink:href="#DejaVuSans-30" transform="translate(63.623047 0)"/>
      </g>
     </g>
    </g>
    <g id="ytick_22">
     <g id="line2d_80">
      <g>
       <use xlink:href="#m96240be393" x="301.97" y="250.756178" style="stroke: #000000; stroke-width: 0.8"/>
      </g>
     </g>
     <g id="text_41">
      <!-- 60 -->
      <g transform="translate(282.245 254.555397) scale(0.1 -0.1)">
       <use xlink:href="#DejaVuSans-36"/>
       <use xlink:href="#DejaVuSans-30" transform="translate(63.623047 0)"/>
      </g>
     </g>
    </g>
    <g id="text_42">
     <!-- Median age -->
     <g transform="translate(276.165313 341.527986) rotate(-90) scale(0.1 -0.1)">
      <use xlink:href="#DejaVuSans-4d"/>
      <use xlink:href="#DejaVuSans-65" transform="translate(86.279297 0)"/>
      <use xlink:href="#DejaVuSans-64" transform="translate(147.802734 0)"/>
      <use xlink:href="#DejaVuSans-69" transform="translate(211.279297 0)"/>
      <use xlink:href="#DejaVuSans-61" transform="translate(239.0625 0)"/>
      <use xlink:href="#DejaVuSans-6e" transform="translate(300.341797 0)"/>
      <use xlink:href="#DejaVuSans-20" transform="translate(363.720703 0)"/>
      <use xlink:href="#DejaVuSans-61" transform="translate(395.507812 0)"/>
      <use xlink:href="#DejaVuSans-67" transform="translate(456.787109 0)"/>
      <use xlink:href="#DejaVuSans-65" transform="translate(520.263672 0)"/>
     </g>
    </g>
   </g>
   <g id="patch_31">
    <path d="M 310.7215 340.964909 
L 380.7335 340.964909 
L 380.7335 288.825033 
L 310.7215 288.825033 
L 310.7215 340.964909 
z
" clip-path="url(#p029e59a1a3)" style="fill: #cb3335; stroke: #484848; stroke-linejoin: miter"/>
   </g>
   <g id="line2d_81">
    <path d="M 345.7275 340.964909 
L 345.7275 382.985215 
" clip-path="url(#p029e59a1a3)" style="fill: none; stroke: #484848"/>
   </g>
   <g id="line2d_82">
    <path d="M 345.7275 288.825033 
L 345.7275 247.286612 
" clip-path="url(#p029e59a1a3)" style="fill: none; stroke: #484848"/>
   </g>
   <g id="line2d_83">
    <path d="M 328.2245 382.985215 
L 363.2305 382.985215 
" clip-path="url(#p029e59a1a3)" style="fill: none; stroke: #484848; stroke-linecap: square"/>
   </g>
   <g id="line2d_84">
    <path d="M 328.2245 247.286612 
L 363.2305 247.286612 
" clip-path="url(#p029e59a1a3)" style="fill: none; stroke: #484848; stroke-linecap: square"/>
   </g>
   <g id="line2d_85"/>
   <g id="patch_32">
    <path d="M 398.2365 341.157662 
L 468.2485 341.157662 
L 468.2485 289.885179 
L 398.2365 289.885179 
L 398.2365 341.157662 
z
" clip-path="url(#p029e59a1a3)" style="fill: #477ca8; stroke: #484848; stroke-linejoin: miter"/>
   </g>
   <g id="line2d_86">
    <path d="M 433.2425 341.157662 
L 433.2425 367.950426 
" clip-path="url(#p029e59a1a3)" style="fill: none; stroke: #484848"/>
   </g>
   <g id="line2d_87">
    <path d="M 433.2425 289.885179 
L 433.2425 241.889508 
" clip-path="url(#p029e59a1a3)" style="fill: none; stroke: #484848"/>
   </g>
   <g id="line2d_88">
    <path d="M 415.7395 367.950426 
L 450.7455 367.950426 
" clip-path="url(#p029e59a1a3)" style="fill: none; stroke: #484848; stroke-linecap: square"/>
   </g>
   <g id="line2d_89">
    <path d="M 415.7395 241.889508 
L 450.7455 241.889508 
" clip-path="url(#p029e59a1a3)" style="fill: none; stroke: #484848; stroke-linecap: square"/>
   </g>
   <g id="line2d_90"/>
   <g id="line2d_91">
    <path d="M 310.7215 320.340263 
L 380.7335 320.340263 
" clip-path="url(#p029e59a1a3)" style="fill: none; stroke: #484848"/>
   </g>
   <g id="line2d_92">
    <path d="M 398.2365 327.857657 
L 468.2485 327.857657 
" clip-path="url(#p029e59a1a3)" style="fill: none; stroke: #484848"/>
   </g>
   <g id="patch_33">
    <path d="M 301.97 390.04 
L 301.97 234.834723 
" style="fill: none; stroke: #000000; stroke-width: 0.8; stroke-linejoin: miter; stroke-linecap: square"/>
   </g>
   <g id="patch_34">
    <path d="M 477 390.04 
L 477 234.834723 
" style="fill: none; stroke: #000000; stroke-width: 0.8; stroke-linejoin: miter; stroke-linecap: square"/>
   </g>
   <g id="patch_35">
    <path d="M 301.97 390.04 
L 477 390.04 
" style="fill: none; stroke: #000000; stroke-width: 0.8; stroke-linejoin: miter; stroke-linecap: square"/>
   </g>
   <g id="patch_36">
    <path d="M 301.97 234.834723 
L 477 234.834723 
" style="fill: none; stroke: #000000; stroke-width: 0.8; stroke-linejoin: miter; stroke-linecap: square"/>
   </g>
  </g>
  <g id="axes_6">
   <g id="patch_37">
    <path d="M 534.17 390.04 
L 709.2 390.04 
L 709.2 234.834723 
L 534.17 234.834723 
z
" style="fill: #ffffff"/>
   </g>
   <g id="matplotlib.axis_11">
    <g id="xtick_11">
     <g id="line2d_93">
      <g>
       <use xlink:href="#m02c25de72c" x="577.9275" y="390.04" style="stroke: #000000; stroke-width: 0.8"/>
      </g>
     </g>
     <g id="text_43">
      <!-- Neighbors -->
      <g transform="translate(552.484531 404.638438) scale(0.1 -0.1)">
       <use xlink:href="#DejaVuSans-4e"/>
       <use xlink:href="#DejaVuSans-65" transform="translate(74.804688 0)"/>
       <use xlink:href="#DejaVuSans-69" transform="translate(136.328125 0)"/>
       <use xlink:href="#DejaVuSans-67" transform="translate(164.111328 0)"/>
       <use xlink:href="#DejaVuSans-68" transform="translate(227.587891 0)"/>
       <use xlink:href="#DejaVuSans-62" transform="translate(290.966797 0)"/>
       <use xlink:href="#DejaVuSans-6f" transform="translate(354.443359 0)"/>
       <use xlink:href="#DejaVuSans-72" transform="translate(415.625 0)"/>
       <use xlink:href="#DejaVuSans-73" transform="translate(456.738281 0)"/>
      </g>
     </g>
    </g>
    <g id="xtick_12">
     <g id="line2d_94">
      <g>
       <use xlink:href="#m02c25de72c" x="665.4425" y="390.04" style="stroke: #000000; stroke-width: 0.8"/>
      </g>
     </g>
     <g id="text_44">
      <!-- Montclare -->
      <g transform="translate(640.718281 404.638438) scale(0.1 -0.1)">
       <use xlink:href="#DejaVuSans-4d"/>
       <use xlink:href="#DejaVuSans-6f" transform="translate(86.279297 0)"/>
       <use xlink:href="#DejaVuSans-6e" transform="translate(147.460938 0)"/>
       <use xlink:href="#DejaVuSans-74" transform="translate(210.839844 0)"/>
       <use xlink:href="#DejaVuSans-63" transform="translate(250.048828 0)"/>
       <use xlink:href="#DejaVuSans-6c" transform="translate(305.029297 0)"/>
       <use xlink:href="#DejaVuSans-61" transform="translate(332.8125 0)"/>
       <use xlink:href="#DejaVuSans-72" transform="translate(394.091797 0)"/>
       <use xlink:href="#DejaVuSans-65" transform="translate(432.955078 0)"/>
      </g>
     </g>
    </g>
    <g id="text_45">
     <!-- Area -->
     <g transform="translate(610.181094 418.316562) scale(0.1 -0.1)">
      <use xlink:href="#DejaVuSans-41"/>
      <use xlink:href="#DejaVuSans-72" transform="translate(68.408203 0)"/>
      <use xlink:href="#DejaVuSans-65" transform="translate(107.271484 0)"/>
      <use xlink:href="#DejaVuSans-61" transform="translate(168.794922 0)"/>
     </g>
    </g>
   </g>
   <g id="matplotlib.axis_12">
    <g id="ytick_23">
     <g id="line2d_95">
      <g>
       <use xlink:href="#m96240be393" x="534.17" y="363.165538" style="stroke: #000000; stroke-width: 0.8"/>
      </g>
     </g>
     <g id="text_46">
      <!-- 500 -->
      <g transform="translate(508.0825 366.964756) scale(0.1 -0.1)">
       <use xlink:href="#DejaVuSans-35"/>
       <use xlink:href="#DejaVuSans-30" transform="translate(63.623047 0)"/>
       <use xlink:href="#DejaVuSans-30" transform="translate(127.246094 0)"/>
      </g>
     </g>
    </g>
    <g id="ytick_24">
     <g id="line2d_96">
      <g>
       <use xlink:href="#m96240be393" x="534.17" y="331.301105" style="stroke: #000000; stroke-width: 0.8"/>
      </g>
     </g>
     <g id="text_47">
      <!-- 1000 -->
      <g transform="translate(501.72 335.100324) scale(0.1 -0.1)">
       <use xlink:href="#DejaVuSans-31"/>
       <use xlink:href="#DejaVuSans-30" transform="translate(63.623047 0)"/>
       <use xlink:href="#DejaVuSans-30" transform="translate(127.246094 0)"/>
       <use xlink:href="#DejaVuSans-30" transform="translate(190.869141 0)"/>
      </g>
     </g>
    </g>
    <g id="ytick_25">
     <g id="line2d_97">
      <g>
       <use xlink:href="#m96240be393" x="534.17" y="299.436673" style="stroke: #000000; stroke-width: 0.8"/>
      </g>
     </g>
     <g id="text_48">
      <!-- 1500 -->
      <g transform="translate(501.72 303.235892) scale(0.1 -0.1)">
       <use xlink:href="#DejaVuSans-31"/>
       <use xlink:href="#DejaVuSans-35" transform="translate(63.623047 0)"/>
       <use xlink:href="#DejaVuSans-30" transform="translate(127.246094 0)"/>
       <use xlink:href="#DejaVuSans-30" transform="translate(190.869141 0)"/>
      </g>
     </g>
    </g>
    <g id="ytick_26">
     <g id="line2d_98">
      <g>
       <use xlink:href="#m96240be393" x="534.17" y="267.572241" style="stroke: #000000; stroke-width: 0.8"/>
      </g>
     </g>
     <g id="text_49">
      <!-- 2000 -->
      <g transform="translate(501.72 271.371459) scale(0.1 -0.1)">
       <use xlink:href="#DejaVuSans-32"/>
       <use xlink:href="#DejaVuSans-30" transform="translate(63.623047 0)"/>
       <use xlink:href="#DejaVuSans-30" transform="translate(127.246094 0)"/>
       <use xlink:href="#DejaVuSans-30" transform="translate(190.869141 0)"/>
      </g>
     </g>
    </g>
    <g id="ytick_27">
     <g id="line2d_99">
      <g>
       <use xlink:href="#m96240be393" x="534.17" y="235.707808" style="stroke: #000000; stroke-width: 0.8"/>
      </g>
     </g>
     <g id="text_50">
      <!-- 2500 -->
      <g transform="translate(501.72 239.507027) scale(0.1 -0.1)">
       <use xlink:href="#DejaVuSans-32"/>
       <use xlink:href="#DejaVuSans-35" transform="translate(63.623047 0)"/>
       <use xlink:href="#DejaVuSans-30" transform="translate(127.246094 0)"/>
       <use xlink:href="#DejaVuSans-30" transform="translate(190.869141 0)"/>
      </g>
     </g>
    </g>
    <g id="text_51">
     <!-- Total population -->
     <g transform="translate(495.640313 352.310018) rotate(-90) scale(0.1 -0.1)">
      <defs>
       <path id="DejaVuSans-54" d="M -19 4666 
L 3928 4666 
L 3928 4134 
L 2272 4134 
L 2272 0 
L 1638 0 
L 1638 4134 
L -19 4134 
L -19 4666 
z
" transform="scale(0.015625)"/>
      </defs>
      <use xlink:href="#DejaVuSans-54"/>
      <use xlink:href="#DejaVuSans-6f" transform="translate(44.083984 0)"/>
      <use xlink:href="#DejaVuSans-74" transform="translate(105.265625 0)"/>
      <use xlink:href="#DejaVuSans-61" transform="translate(144.474609 0)"/>
      <use xlink:href="#DejaVuSans-6c" transform="translate(205.753906 0)"/>
      <use xlink:href="#DejaVuSans-20" transform="translate(233.537109 0)"/>
      <use xlink:href="#DejaVuSans-70" transform="translate(265.324219 0)"/>
      <use xlink:href="#DejaVuSans-6f" transform="translate(328.800781 0)"/>
      <use xlink:href="#DejaVuSans-70" transform="translate(389.982422 0)"/>
      <use xlink:href="#DejaVuSans-75" transform="translate(453.458984 0)"/>
      <use xlink:href="#DejaVuSans-6c" transform="translate(516.837891 0)"/>
      <use xlink:href="#DejaVuSans-61" transform="translate(544.621094 0)"/>
      <use xlink:href="#DejaVuSans-74" transform="translate(605.900391 0)"/>
      <use xlink:href="#DejaVuSans-69" transform="translate(645.109375 0)"/>
      <use xlink:href="#DejaVuSans-6f" transform="translate(672.892578 0)"/>
      <use xlink:href="#DejaVuSans-6e" transform="translate(734.074219 0)"/>
     </g>
    </g>
   </g>
   <g id="patch_38">
    <path d="M 542.9215 329.293646 
L 612.9335 329.293646 
L 612.9335 287.216663 
L 542.9215 287.216663 
L 542.9215 329.293646 
z
" clip-path="url(#p8ed22c8672)" style="fill: #cb3335; stroke: #484848; stroke-linejoin: miter"/>
   </g>
   <g id="line2d_100">
    <path d="M 577.9275 329.293646 
L 577.9275 368.837407 
" clip-path="url(#p8ed22c8672)" style="fill: none; stroke: #484848"/>
   </g>
   <g id="line2d_101">
    <path d="M 577.9275 287.216663 
L 577.9275 241.889508 
" clip-path="url(#p8ed22c8672)" style="fill: none; stroke: #484848"/>
   </g>
   <g id="line2d_102">
    <path d="M 560.4245 368.837407 
L 595.4305 368.837407 
" clip-path="url(#p8ed22c8672)" style="fill: none; stroke: #484848; stroke-linecap: square"/>
   </g>
   <g id="line2d_103">
    <path d="M 560.4245 241.889508 
L 595.4305 241.889508 
" clip-path="url(#p8ed22c8672)" style="fill: none; stroke: #484848; stroke-linecap: square"/>
   </g>
   <g id="line2d_104"/>
   <g id="patch_39">
    <path d="M 630.4365 336.590601 
L 700.4485 336.590601 
L 700.4485 292.235311 
L 630.4365 292.235311 
L 630.4365 336.590601 
z
" clip-path="url(#p8ed22c8672)" style="fill: #477ca8; stroke: #484848; stroke-linejoin: miter"/>
   </g>
   <g id="line2d_105">
    <path d="M 665.4425 336.590601 
L 665.4425 382.985215 
" clip-path="url(#p8ed22c8672)" style="fill: none; stroke: #484848"/>
   </g>
   <g id="line2d_106">
    <path d="M 665.4425 292.235311 
L 665.4425 274.136314 
" clip-path="url(#p8ed22c8672)" style="fill: none; stroke: #484848"/>
   </g>
   <g id="line2d_107">
    <path d="M 647.9395 382.985215 
L 682.9455 382.985215 
" clip-path="url(#p8ed22c8672)" style="fill: none; stroke: #484848; stroke-linecap: square"/>
   </g>
   <g id="line2d_108">
    <path d="M 647.9395 274.136314 
L 682.9455 274.136314 
" clip-path="url(#p8ed22c8672)" style="fill: none; stroke: #484848; stroke-linecap: square"/>
   </g>
   <g id="line2d_109"/>
   <g id="line2d_110">
    <path d="M 542.9215 316.069907 
L 612.9335 316.069907 
" clip-path="url(#p8ed22c8672)" style="fill: none; stroke: #484848"/>
   </g>
   <g id="line2d_111">
    <path d="M 630.4365 304.280067 
L 700.4485 304.280067 
" clip-path="url(#p8ed22c8672)" style="fill: none; stroke: #484848"/>
   </g>
   <g id="patch_40">
    <path d="M 534.17 390.04 
L 534.17 234.834723 
" style="fill: none; stroke: #000000; stroke-width: 0.8; stroke-linejoin: miter; stroke-linecap: square"/>
   </g>
   <g id="patch_41">
    <path d="M 709.2 390.04 
L 709.2 234.834723 
" style="fill: none; stroke: #000000; stroke-width: 0.8; stroke-linejoin: miter; stroke-linecap: square"/>
   </g>
   <g id="patch_42">
    <path d="M 534.17 390.04 
L 709.2 390.04 
" style="fill: none; stroke: #000000; stroke-width: 0.8; stroke-linejoin: miter; stroke-linecap: square"/>
   </g>
   <g id="patch_43">
    <path d="M 534.17 234.834723 
L 709.2 234.834723 
" style="fill: none; stroke: #000000; stroke-width: 0.8; stroke-linejoin: miter; stroke-linecap: square"/>
   </g>
  </g>
  <g id="text_52">
   <!-- Block groups: Montclare vs neighboring areas -->
   <g transform="translate(204.280313 17.758125) scale(0.12 -0.12)">
    <defs>
     <path id="DejaVuSans-Bold-42" d="M 2456 2859 
Q 2741 2859 2887 2984 
Q 3034 3109 3034 3353 
Q 3034 3594 2887 3720 
Q 2741 3847 2456 3847 
L 1791 3847 
L 1791 2859 
L 2456 2859 
z
M 2497 819 
Q 2859 819 3042 972 
Q 3225 1125 3225 1434 
Q 3225 1738 3044 1889 
Q 2863 2041 2497 2041 
L 1791 2041 
L 1791 819 
L 2497 819 
z
M 3616 2497 
Q 4003 2384 4215 2081 
Q 4428 1778 4428 1338 
Q 4428 663 3972 331 
Q 3516 0 2584 0 
L 588 0 
L 588 4666 
L 2394 4666 
Q 3366 4666 3802 4372 
Q 4238 4078 4238 3431 
Q 4238 3091 4078 2852 
Q 3919 2613 3616 2497 
z
" transform="scale(0.015625)"/>
     <path id="DejaVuSans-Bold-6c" d="M 538 4863 
L 1656 4863 
L 1656 0 
L 538 0 
L 538 4863 
z
" transform="scale(0.015625)"/>
     <path id="DejaVuSans-Bold-6f" d="M 2203 2784 
Q 1831 2784 1636 2517 
Q 1441 2250 1441 1747 
Q 1441 1244 1636 976 
Q 1831 709 2203 709 
Q 2569 709 2762 976 
Q 2956 1244 2956 1747 
Q 2956 2250 2762 2517 
Q 2569 2784 2203 2784 
z
M 2203 3584 
Q 3106 3584 3614 3096 
Q 4122 2609 4122 1747 
Q 4122 884 3614 396 
Q 3106 -91 2203 -91 
Q 1297 -91 786 396 
Q 275 884 275 1747 
Q 275 2609 786 3096 
Q 1297 3584 2203 3584 
z
" transform="scale(0.015625)"/>
     <path id="DejaVuSans-Bold-63" d="M 3366 3391 
L 3366 2478 
Q 3138 2634 2908 2709 
Q 2678 2784 2431 2784 
Q 1963 2784 1702 2511 
Q 1441 2238 1441 1747 
Q 1441 1256 1702 982 
Q 1963 709 2431 709 
Q 2694 709 2930 787 
Q 3166 866 3366 1019 
L 3366 103 
Q 3103 6 2833 -42 
Q 2563 -91 2291 -91 
Q 1344 -91 809 395 
Q 275 881 275 1747 
Q 275 2613 809 3098 
Q 1344 3584 2291 3584 
Q 2566 3584 2833 3536 
Q 3100 3488 3366 3391 
z
" transform="scale(0.015625)"/>
     <path id="DejaVuSans-Bold-6b" d="M 538 4863 
L 1656 4863 
L 1656 2216 
L 2944 3500 
L 4244 3500 
L 2534 1894 
L 4378 0 
L 3022 0 
L 1656 1459 
L 1656 0 
L 538 0 
L 538 4863 
z
" transform="scale(0.015625)"/>
     <path id="DejaVuSans-Bold-20" transform="scale(0.015625)"/>
     <path id="DejaVuSans-Bold-67" d="M 2919 594 
Q 2688 288 2409 144 
Q 2131 0 1766 0 
Q 1125 0 706 504 
Q 288 1009 288 1791 
Q 288 2575 706 3076 
Q 1125 3578 1766 3578 
Q 2131 3578 2409 3434 
Q 2688 3291 2919 2981 
L 2919 3500 
L 4044 3500 
L 4044 353 
Q 4044 -491 3511 -936 
Q 2978 -1381 1966 -1381 
Q 1638 -1381 1331 -1331 
Q 1025 -1281 716 -1178 
L 716 -306 
Q 1009 -475 1290 -558 
Q 1572 -641 1856 -641 
Q 2406 -641 2662 -400 
Q 2919 -159 2919 353 
L 2919 594 
z
M 2181 2772 
Q 1834 2772 1640 2515 
Q 1447 2259 1447 1791 
Q 1447 1309 1634 1061 
Q 1822 813 2181 813 
Q 2531 813 2725 1069 
Q 2919 1325 2919 1791 
Q 2919 2259 2725 2515 
Q 2531 2772 2181 2772 
z
" transform="scale(0.015625)"/>
     <path id="DejaVuSans-Bold-72" d="M 3138 2547 
Q 2991 2616 2845 2648 
Q 2700 2681 2553 2681 
Q 2122 2681 1889 2404 
Q 1656 2128 1656 1613 
L 1656 0 
L 538 0 
L 538 3500 
L 1656 3500 
L 1656 2925 
Q 1872 3269 2151 3426 
Q 2431 3584 2822 3584 
Q 2878 3584 2943 3579 
Q 3009 3575 3134 3559 
L 3138 2547 
z
" transform="scale(0.015625)"/>
     <path id="DejaVuSans-Bold-75" d="M 500 1363 
L 500 3500 
L 1625 3500 
L 1625 3150 
Q 1625 2866 1622 2436 
Q 1619 2006 1619 1863 
Q 1619 1441 1641 1255 
Q 1663 1069 1716 984 
Q 1784 875 1895 815 
Q 2006 756 2150 756 
Q 2500 756 2700 1025 
Q 2900 1294 2900 1772 
L 2900 3500 
L 4019 3500 
L 4019 0 
L 2900 0 
L 2900 506 
Q 2647 200 2364 54 
Q 2081 -91 1741 -91 
Q 1134 -91 817 281 
Q 500 653 500 1363 
z
" transform="scale(0.015625)"/>
     <path id="DejaVuSans-Bold-70" d="M 1656 506 
L 1656 -1331 
L 538 -1331 
L 538 3500 
L 1656 3500 
L 1656 2988 
Q 1888 3294 2169 3439 
Q 2450 3584 2816 3584 
Q 3463 3584 3878 3070 
Q 4294 2556 4294 1747 
Q 4294 938 3878 423 
Q 3463 -91 2816 -91 
Q 2450 -91 2169 54 
Q 1888 200 1656 506 
z
M 2400 2772 
Q 2041 2772 1848 2508 
Q 1656 2244 1656 1747 
Q 1656 1250 1848 986 
Q 2041 722 2400 722 
Q 2759 722 2948 984 
Q 3138 1247 3138 1747 
Q 3138 2247 2948 2509 
Q 2759 2772 2400 2772 
z
" transform="scale(0.015625)"/>
     <path id="DejaVuSans-Bold-73" d="M 3272 3391 
L 3272 2541 
Q 2913 2691 2578 2766 
Q 2244 2841 1947 2841 
Q 1628 2841 1473 2761 
Q 1319 2681 1319 2516 
Q 1319 2381 1436 2309 
Q 1553 2238 1856 2203 
L 2053 2175 
Q 2913 2066 3209 1816 
Q 3506 1566 3506 1031 
Q 3506 472 3093 190 
Q 2681 -91 1863 -91 
Q 1516 -91 1145 -36 
Q 775 19 384 128 
L 384 978 
Q 719 816 1070 734 
Q 1422 653 1784 653 
Q 2113 653 2278 743 
Q 2444 834 2444 1013 
Q 2444 1163 2330 1236 
Q 2216 1309 1875 1350 
L 1678 1375 
Q 931 1469 631 1722 
Q 331 1975 331 2491 
Q 331 3047 712 3315 
Q 1094 3584 1881 3584 
Q 2191 3584 2531 3537 
Q 2872 3491 3272 3391 
z
" transform="scale(0.015625)"/>
     <path id="DejaVuSans-Bold-3a" d="M 716 3500 
L 1844 3500 
L 1844 2291 
L 716 2291 
L 716 3500 
z
M 716 1209 
L 1844 1209 
L 1844 0 
L 716 0 
L 716 1209 
z
" transform="scale(0.015625)"/>
     <path id="DejaVuSans-Bold-4d" d="M 588 4666 
L 2119 4666 
L 3181 2169 
L 4250 4666 
L 5778 4666 
L 5778 0 
L 4641 0 
L 4641 3413 
L 3566 897 
L 2803 897 
L 1728 3413 
L 1728 0 
L 588 0 
L 588 4666 
z
" transform="scale(0.015625)"/>
     <path id="DejaVuSans-Bold-6e" d="M 4056 2131 
L 4056 0 
L 2931 0 
L 2931 347 
L 2931 1631 
Q 2931 2084 2911 2256 
Q 2891 2428 2841 2509 
Q 2775 2619 2662 2680 
Q 2550 2741 2406 2741 
Q 2056 2741 1856 2470 
Q 1656 2200 1656 1722 
L 1656 0 
L 538 0 
L 538 3500 
L 1656 3500 
L 1656 2988 
Q 1909 3294 2193 3439 
Q 2478 3584 2822 3584 
Q 3428 3584 3742 3212 
Q 4056 2841 4056 2131 
z
" transform="scale(0.015625)"/>
     <path id="DejaVuSans-Bold-74" d="M 1759 4494 
L 1759 3500 
L 2913 3500 
L 2913 2700 
L 1759 2700 
L 1759 1216 
Q 1759 972 1856 886 
Q 1953 800 2241 800 
L 2816 800 
L 2816 0 
L 1856 0 
Q 1194 0 917 276 
Q 641 553 641 1216 
L 641 2700 
L 84 2700 
L 84 3500 
L 641 3500 
L 641 4494 
L 1759 4494 
z
" transform="scale(0.015625)"/>
     <path id="DejaVuSans-Bold-61" d="M 2106 1575 
Q 1756 1575 1579 1456 
Q 1403 1338 1403 1106 
Q 1403 894 1545 773 
Q 1688 653 1941 653 
Q 2256 653 2472 879 
Q 2688 1106 2688 1447 
L 2688 1575 
L 2106 1575 
z
M 3816 1997 
L 3816 0 
L 2688 0 
L 2688 519 
Q 2463 200 2181 54 
Q 1900 -91 1497 -91 
Q 953 -91 614 226 
Q 275 544 275 1050 
Q 275 1666 698 1953 
Q 1122 2241 2028 2241 
L 2688 2241 
L 2688 2328 
Q 2688 2594 2478 2717 
Q 2269 2841 1825 2841 
Q 1466 2841 1156 2769 
Q 847 2697 581 2553 
L 581 3406 
Q 941 3494 1303 3539 
Q 1666 3584 2028 3584 
Q 2975 3584 3395 3211 
Q 3816 2838 3816 1997 
z
" transform="scale(0.015625)"/>
     <path id="DejaVuSans-Bold-65" d="M 4031 1759 
L 4031 1441 
L 1416 1441 
Q 1456 1047 1700 850 
Q 1944 653 2381 653 
Q 2734 653 3104 758 
Q 3475 863 3866 1075 
L 3866 213 
Q 3469 63 3072 -14 
Q 2675 -91 2278 -91 
Q 1328 -91 801 392 
Q 275 875 275 1747 
Q 275 2603 792 3093 
Q 1309 3584 2216 3584 
Q 3041 3584 3536 3087 
Q 4031 2591 4031 1759 
z
M 2881 2131 
Q 2881 2450 2695 2645 
Q 2509 2841 2209 2841 
Q 1884 2841 1681 2658 
Q 1478 2475 1428 2131 
L 2881 2131 
z
" transform="scale(0.015625)"/>
     <path id="DejaVuSans-Bold-76" d="M 97 3500 
L 1216 3500 
L 2088 1081 
L 2956 3500 
L 4078 3500 
L 2700 0 
L 1472 0 
L 97 3500 
z
" transform="scale(0.015625)"/>
     <path id="DejaVuSans-Bold-69" d="M 538 3500 
L 1656 3500 
L 1656 0 
L 538 0 
L 538 3500 
z
M 538 4863 
L 1656 4863 
L 1656 3950 
L 538 3950 
L 538 4863 
z
" transform="scale(0.015625)"/>
     <path id="DejaVuSans-Bold-68" d="M 4056 2131 
L 4056 0 
L 2931 0 
L 2931 347 
L 2931 1625 
Q 2931 2084 2911 2256 
Q 2891 2428 2841 2509 
Q 2775 2619 2662 2680 
Q 2550 2741 2406 2741 
Q 2056 2741 1856 2470 
Q 1656 2200 1656 1722 
L 1656 0 
L 538 0 
L 538 4863 
L 1656 4863 
L 1656 2988 
Q 1909 3294 2193 3439 
Q 2478 3584 2822 3584 
Q 3428 3584 3742 3212 
Q 4056 2841 4056 2131 
z
" transform="scale(0.015625)"/>
     <path id="DejaVuSans-Bold-62" d="M 2400 722 
Q 2759 722 2948 984 
Q 3138 1247 3138 1747 
Q 3138 2247 2948 2509 
Q 2759 2772 2400 2772 
Q 2041 2772 1848 2508 
Q 1656 2244 1656 1747 
Q 1656 1250 1848 986 
Q 2041 722 2400 722 
z
M 1656 2988 
Q 1888 3294 2169 3439 
Q 2450 3584 2816 3584 
Q 3463 3584 3878 3070 
Q 4294 2556 4294 1747 
Q 4294 938 3878 423 
Q 3463 -91 2816 -91 
Q 2450 -91 2169 54 
Q 1888 200 1656 506 
L 1656 0 
L 538 0 
L 538 4863 
L 1656 4863 
L 1656 2988 
z
" transform="scale(0.015625)"/>
    </defs>
    <use xlink:href="#DejaVuSans-Bold-42"/>
    <use xlink:href="#DejaVuSans-Bold-6c" transform="translate(76.220703 0)"/>
    <use xlink:href="#DejaVuSans-Bold-6f" transform="translate(110.498047 0)"/>
    <use xlink:href="#DejaVuSans-Bold-63" transform="translate(179.199219 0)"/>
    <use xlink:href="#DejaVuSans-Bold-6b" transform="translate(238.476562 0)"/>
    <use xlink:href="#DejaVuSans-Bold-20" transform="translate(304.980469 0)"/>
    <use xlink:href="#DejaVuSans-Bold-67" transform="translate(339.794922 0)"/>
    <use xlink:href="#DejaVuSans-Bold-72" transform="translate(411.376953 0)"/>
    <use xlink:href="#DejaVuSans-Bold-6f" transform="translate(460.693359 0)"/>
    <use xlink:href="#DejaVuSans-Bold-75" transform="translate(529.394531 0)"/>
    <use xlink:href="#DejaVuSans-Bold-70" transform="translate(600.585938 0)"/>
    <use xlink:href="#DejaVuSans-Bold-73" transform="translate(672.167969 0)"/>
    <use xlink:href="#DejaVuSans-Bold-3a" transform="translate(731.689453 0)"/>
    <use xlink:href="#DejaVuSans-Bold-20" transform="translate(771.679688 0)"/>
    <use xlink:href="#DejaVuSans-Bold-4d" transform="translate(806.494141 0)"/>
    <use xlink:href="#DejaVuSans-Bold-6f" transform="translate(906.005859 0)"/>
    <use xlink:href="#DejaVuSans-Bold-6e" transform="translate(974.707031 0)"/>
    <use xlink:href="#DejaVuSans-Bold-74" transform="translate(1045.898438 0)"/>
    <use xlink:href="#DejaVuSans-Bold-63" transform="translate(1093.701172 0)"/>
    <use xlink:href="#DejaVuSans-Bold-6c" transform="translate(1152.978516 0)"/>
    <use xlink:href="#DejaVuSans-Bold-61" transform="translate(1187.255859 0)"/>
    <use xlink:href="#DejaVuSans-Bold-72" transform="translate(1254.736328 0)"/>
    <use xlink:href="#DejaVuSans-Bold-65" transform="translate(1304.052734 0)"/>
    <use xlink:href="#DejaVuSans-Bold-20" transform="translate(1371.875 0)"/>
    <use xlink:href="#DejaVuSans-Bold-76" transform="translate(1406.689453 0)"/>
    <use xlink:href="#DejaVuSans-Bold-73" transform="translate(1471.875 0)"/>
    <use xlink:href="#DejaVuSans-Bold-20" transform="translate(1531.396484 0)"/>
    <use xlink:href="#DejaVuSans-Bold-6e" transform="translate(1566.210938 0)"/>
    <use xlink:href="#DejaVuSans-Bold-65" transform="translate(1637.402344 0)"/>
    <use xlink:href="#DejaVuSans-Bold-69" transform="translate(1705.224609 0)"/>
    <use xlink:href="#DejaVuSans-Bold-67" transform="translate(1739.501953 0)"/>
    <use xlink:href="#DejaVuSans-Bold-68" transform="translate(1811.083984 0)"/>
    <use xlink:href="#DejaVuSans-Bold-62" transform="translate(1882.275391 0)"/>
    <use xlink:href="#DejaVuSans-Bold-6f" transform="translate(1953.857422 0)"/>
    <use xlink:href="#DejaVuSans-Bold-72" transform="translate(2022.558594 0)"/>
    <use xlink:href="#DejaVuSans-Bold-69" transform="translate(2071.875 0)"/>
    <use xlink:href="#DejaVuSans-Bold-6e" transform="translate(2106.152344 0)"/>
    <use xlink:href="#DejaVuSans-Bold-67" transform="translate(2177.34375 0)"/>
    <use xlink:href="#DejaVuSans-Bold-20" transform="translate(2248.925781 0)"/>
    <use xlink:href="#DejaVuSans-Bold-61" transform="translate(2283.740234 0)"/>
    <use xlink:href="#DejaVuSans-Bold-72" transform="translate(2351.220703 0)"/>
    <use xlink:href="#DejaVuSans-Bold-65" transform="translate(2400.537109 0)"/>
    <use xlink:href="#DejaVuSans-Bold-61" transform="translate(2468.359375 0)"/>
    <use xlink:href="#DejaVuSans-Bold-73" transform="translate(2535.839844 0)"/>
   </g>
  </g>
 </g>
 <defs>
  <clipPath id="p941490305f">
   <rect x="69.77" y="34.56" width="175.03" height="155.205277"/>
  </clipPath>
  <clipPath id="p26c09c62e4">
   <rect x="301.97" y="34.56" width="175.03" height="155.205277"/>
  </clipPath>
  <clipPath id="paaf56ba124">
   <rect x="534.17" y="34.56" width="175.03" height="155.205277"/>
  </clipPath>
  <clipPath id="p93074b5373">
   <rect x="69.77" y="234.834723" width="175.03" height="155.205277"/>
  </clipPath>
  <clipPath id="p029e59a1a3">
   <rect x="301.97" y="234.834723" width="175.03" height="155.205277"/>
  </clipPath>
  <clipPath id="p8ed22c8672">
   <rect x="534.17" y="234.834723" width="175.03" height="155.205277"/>
  </clipPath>
 </defs>
</svg>
