<?xml version="1.0" encoding="utf-8" standalone="no"?>
<!DOCTYPE svg PUBLIC "-//W3C//DTD SVG 1.1//EN"
  "http://www.w3.org/Graphics/SVG/1.1/DTD/svg11.dtd">
<svg xmlns:xlink="http://www.w3.org/1999/xlink" width="720pt" height="576pt" viewBox="0 0 720 576" xmlns="http://www.w3.org/2000/svg" version="1.1">
 <metadata>
  <rdf:RDF xmlns:dc="http://purl.org/dc/elements/1.1/" xmlns:cc="http://creativecommons.org/ns#" xmlns:rdf="http://www.w3.org/1999/02/22-rdf-syntax-ns#">
   <cc:Work>
    <dc:type rdf:resource="http://purl.org/dc/dcmitype/StillImage"/>
    <dc:date>2025-12-09T02:16:01.168427</dc:date>
    <dc:format>image/svg+xml</dc:format>
    <dc:creator>
     <cc:Agent>
      <dc:title>Matplotlib v3.10.7, https://matplotlib.org/</dc:title>
     </cc:Agent>
    </dc:creator>
   </cc:Work>
  </rdf:RDF>
 </metadata>
 <defs>
  <style type="text/css">*{stroke-linejoin: round; stroke-linecap: butt}</style>
 </defs>
 <g id="figure_1">
  <g id="patch_1">
   <path d="M 0 576 
L 720 576 
L 720 0 
L 0 0 
z
" style="fill: #ffffff"/>
  </g>
  <g id="axes_1">
   <g id="LineCollection_1">
    <path d="M 396.912619 107.607273 
L 599.578512 298.955598 
" clip-path="url(#pca3b4e4bbb)" style="fill: none; stroke: #008000; stroke-opacity: 0.7; stroke-width: 2"/>
    <path d="M 396.912619 107.607273 
L 230.982437 464.154126 
" clip-path="url(#pca3b4e4bbb)" style="fill: none; stroke: #ff0000; stroke-opacity: 0.7; stroke-width: 2"/>
    <path d="M 396.912619 107.607273 
L 138.421488 236.845983 
" clip-path="url(#pca3b4e4bbb)" style="fill: none; stroke: #ff0000; stroke-opacity: 0.7; stroke-width: 2"/>
    <path d="M 396.912619 107.607273 
L 535.802915 178.454155 
" clip-path="url(#pca3b4e4bbb)" style="fill: none; stroke: #008000; stroke-opacity: 0.7; stroke-width: 2"/>
    <path d="M 396.912619 107.607273 
L 225.315411 126.775171 
" clip-path="url(#pca3b4e4bbb)" style="fill: none; stroke: #ff0000; stroke-opacity: 0.7; stroke-width: 2"/>
    <path d="M 396.912619 107.607273 
L 556.825326 433.396642 
" clip-path="url(#pca3b4e4bbb)" style="fill: none; stroke: #008000; stroke-opacity: 0.7; stroke-width: 2"/>
    <path d="M 396.912619 107.607273 
L 395.883999 474.152727 
" clip-path="url(#pca3b4e4bbb)" style="fill: none; stroke: #ff0000; stroke-opacity: 0.7; stroke-width: 2"/>
    <path d="M 396.912619 107.607273 
L 167.72345 354.564893 
" clip-path="url(#pca3b4e4bbb)" style="fill: none; stroke: #008000; stroke-opacity: 0.7; stroke-width: 2"/>
    <path d="M 599.578512 298.955598 
L 230.982437 464.154126 
" clip-path="url(#pca3b4e4bbb)" style="fill: none; stroke: #ff0000; stroke-opacity: 0.7; stroke-width: 2"/>
    <path d="M 599.578512 298.955598 
L 138.421488 236.845983 
" clip-path="url(#pca3b4e4bbb)" style="fill: none; stroke: #ff0000; stroke-opacity: 0.7; stroke-width: 2"/>
    <path d="M 599.578512 298.955598 
L 535.802915 178.454155 
" clip-path="url(#pca3b4e4bbb)" style="fill: none; stroke: #008000; stroke-opacity: 0.7; stroke-width: 2"/>
    <path d="M 599.578512 298.955598 
L 225.315411 126.775171 
" clip-path="url(#pca3b4e4bbb)" style="fill: none; stroke: #ff0000; stroke-opacity: 0.7; stroke-width: 2"/>
    <path d="M 599.578512 298.955598 
L 556.825326 433.396642 
" clip-path="url(#pca3b4e4bbb)" style="fill: none; stroke: #008000; stroke-opacity: 0.7; stroke-width: 2"/>
    <path d="M 599.578512 298.955598 
L 395.883999 474.152727 
" clip-path="url(#pca3b4e4bbb)" style="fill: none; stroke: #ff0000; stroke-opacity: 0.7; stroke-width: 2"/>
    <path d="M 599.578512 298.955598 
L 167.72345 354.564893 
" clip-path="url(#pca3b4e4bbb)" style="fill: none; stroke: #008000; stroke-opacity: 0.7; stroke-width: 2"/>
    <path d="M 230.982437 464.154126 
L 138.421488 236.845983 
" clip-path="url(#pca3b4e4bbb)" style="fill: none; stroke: #008000; stroke-opacity: 0.7; stroke-width: 2"/>
    <path d="M 230.982437 464.154126 
L 535.802915 178.454155 
" clip-path="url(#pca3b4e4bbb)" style="fill: none; stroke: #ff0000; stroke-opacity: 0.7; stroke-width: 2"/>
    <path d="M 230.982437 464.154126 
L 225.315411 126.775171 
" clip-path="url(#pca3b4e4bbb)" style="fill: none; stroke: #008000; stroke-opacity: 0.7; stroke-width: 2"/>
    <path d="M 230.982437 464.154126 
L 556.825326 433.396642 
" clip-path="url(#pca3b4e4bbb)" style="fill: none; stroke: #ff0000; stroke-opacity: 0.7; stroke-width: 2"/>
    <path d="M 230.982437 464.154126 
L 395.883999 474.152727 
" clip-path="url(#pca3b4e4bbb)" style="fill: none; stroke: #008000; stroke-opacity: 0.7; stroke-width: 2"/>
    <path d="M 230.982437 464.154126 
L 167.72345 354.564893 
" clip-path="url(#pca3b4e4bbb)" style="fill: none; stroke: #ff0000; stroke-opacity: 0.7; stroke-width: 2"/>
    <path d="M 138.421488 236.845983 
L 535.802915 178.454155 
" clip-path="url(#pca3b4e4bbb)" style="fill: none; stroke: #ff0000; stroke-opacity: 0.7; stroke-width: 2"/>
    <path d="M 138.421488 236.845983 
L 225.315411 126.775171 
" clip-path="url(#pca3b4e4bbb)" style="fill: none; stroke: #008000; stroke-opacity: 0.7; stroke-width: 2"/>
    <path d="M 138.421488 236.845983 
L 556.825326 433.396642 
" clip-path="url(#pca3b4e4bbb)" style="fill: none; stroke: #ff0000; stroke-opacity: 0.7; stroke-width: 2"/>
    <path d="M 138.421488 236.845983 
L 395.883999 474.152727 
" clip-path="url(#pca3b4e4bbb)" style="fill: none; stroke: #008000; stroke-opacity: 0.7; stroke-width: 2"/>
    <path d="M 138.421488 236.845983 
L 167.72345 354.564893 
" clip-path="url(#pca3b4e4bbb)" style="fill: none; stroke: #ff0000; stroke-opacity: 0.7; stroke-width: 2"/>
    <path d="M 535.802915 178.454155 
L 225.315411 126.775171 
" clip-path="url(#pca3b4e4bbb)" style="fill: none; stroke: #ff0000; stroke-opacity: 0.7; stroke-width: 2"/>
    <path d="M 535.802915 178.454155 
L 556.825326 433.396642 
" clip-path="url(#pca3b4e4bbb)" style="fill: none; stroke: #008000; stroke-opacity: 0.7; stroke-width: 2"/>
    <path d="M 535.802915 178.454155 
L 395.883999 474.152727 
" clip-path="url(#pca3b4e4bbb)" style="fill: none; stroke: #ff0000; stroke-opacity: 0.7; stroke-width: 2"/>
    <path d="M 535.802915 178.454155 
L 167.72345 354.564893 
" clip-path="url(#pca3b4e4bbb)" style="fill: none; stroke: #008000; stroke-opacity: 0.7; stroke-width: 2"/>
    <path d="M 225.315411 126.775171 
L 556.825326 433.396642 
" clip-path="url(#pca3b4e4bbb)" style="fill: none; stroke: #ff0000; stroke-opacity: 0.7; stroke-width: 2"/>
    <path d="M 225.315411 126.775171 
L 395.883999 474.152727 
" clip-path="url(#pca3b4e4bbb)" style="fill: none; stroke: #008000; stroke-opacity: 0.7; stroke-width: 2"/>
    <path d="M 225.315411 126.775171 
L 167.72345 354.564893 
" clip-path="url(#pca3b4e4bbb)" style="fill: none; stroke: #ff0000; stroke-opacity: 0.7; stroke-width: 2"/>
    <path d="M 556.825326 433.396642 
L 395.883999 474.152727 
" clip-path="url(#pca3b4e4bbb)" style="fill: none; stroke: #ff0000; stroke-opacity: 0.7; stroke-width: 2"/>
    <path d="M 556.825326 433.396642 
L 167.72345 354.564893 
" clip-path="url(#pca3b4e4bbb)" style="fill: none; stroke: #008000; stroke-opacity: 0.7; stroke-width: 2"/>
    <path d="M 395.883999 474.152727 
L 167.72345 354.564893 
" clip-path="url(#pca3b4e4bbb)" style="fill: none; stroke: #ff0000; stroke-opacity: 0.7; stroke-width: 2"/>
   </g>
   <g id="text_1">
    <g id="patch_2">
     <path d="M 486.736609 200.880324 
L 501.307365 214.637398 
Q 502.616177 215.873121 503.8519 214.56431 
L 509.831642 208.230888 
Q 511.067365 206.922076 509.758553 205.686353 
L 495.187797 191.929278 
Q 493.878985 190.693555 492.643262 192.002367 
L 486.66352 198.335789 
Q 485.427797 199.644601 486.736609 200.880324 
z
" clip-path="url(#pca3b4e4bbb)" style="fill: #ffffff; opacity: 0.7"/>
    </g>
    <g clip-path="url(#pca3b4e4bbb)">
     <!-- 1.00 -->
     <g transform="translate(489.257291 198.210552) rotate(-316.645298) scale(0.09 -0.09)">
      <defs>
       <path id="DejaVuSans-31" d="M 794 531 
L 1825 531 
L 1825 4091 
L 703 3866 
L 703 4441 
L 1819 4666 
L 2450 4666 
L 2450 531 
L 3481 531 
L 3481 0 
L 794 0 
L 794 531 
z
" transform="scale(0.015625)"/>
       <path id="DejaVuSans-2e" d="M 684 794 
L 1344 794 
L 1344 0 
L 684 0 
L 684 794 
z
" transform="scale(0.015625)"/>
       <path id="DejaVuSans-30" d="M 2034 4250 
Q 1547 4250 1301 3770 
Q 1056 3291 1056 2328 
Q 1056 1369 1301 889 
Q 1547 409 2034 409 
Q 2525 409 2770 889 
Q 3016 1369 3016 2328 
Q 3016 3291 2770 3770 
Q 2525 4250 2034 4250 
z
M 2034 4750 
Q 2819 4750 3233 4129 
Q 3647 3509 3647 2328 
Q 3647 1150 3233 529 
Q 2819 -91 2034 -91 
Q 1250 -91 836 529 
Q 422 1150 422 2328 
Q 422 3509 836 4129 
Q 1250 4750 2034 4750 
z
" transform="scale(0.015625)"/>
      </defs>
      <use xlink:href="#DejaVuSans-31"/>
      <use xlink:href="#DejaVuSans-2e" transform="translate(63.623047 0)"/>
      <use xlink:href="#DejaVuSans-30" transform="translate(95.410156 0)"/>
      <use xlink:href="#DejaVuSans-30" transform="translate(159.033203 0)"/>
     </g>
    </g>
   </g>
   <g id="text_2">
    <g id="patch_3">
     <path d="M 314.614811 299.035019 
L 324.43987 277.923165 
Q 325.19934 276.291232 323.567408 275.531762 
L 315.670383 271.856635 
Q 314.038451 271.097165 313.27898 272.729097 
L 303.453921 293.840951 
Q 302.694451 295.472884 304.326383 296.232355 
L 312.223408 299.907481 
Q 313.85534 300.666952 314.614811 299.035019 
z
" clip-path="url(#pca3b4e4bbb)" style="fill: #ffffff; opacity: 0.7"/>
    </g>
    <g clip-path="url(#pca3b4e4bbb)">
     <!-- -1.00 -->
     <g transform="translate(311.285923 297.485817) rotate(-65.04362) scale(0.09 -0.09)">
      <defs>
       <path id="DejaVuSans-2d" d="M 313 2009 
L 1997 2009 
L 1997 1497 
L 313 1497 
L 313 2009 
z
" transform="scale(0.015625)"/>
      </defs>
      <use xlink:href="#DejaVuSans-2d"/>
      <use xlink:href="#DejaVuSans-31" transform="translate(36.083984 0)"/>
      <use xlink:href="#DejaVuSans-2e" transform="translate(99.707031 0)"/>
      <use xlink:href="#DejaVuSans-30" transform="translate(131.494141 0)"/>
      <use xlink:href="#DejaVuSans-30" transform="translate(195.117188 0)"/>
     </g>
    </g>
   </g>
   <g id="text_3">
    <g id="patch_4">
     <path d="M 260.00829 182.937407 
L 280.836227 172.523991 
Q 282.446213 171.719041 281.641263 170.109055 
L 277.746058 162.318232 
Q 276.941107 160.708246 275.331121 161.513196 
L 254.503185 171.926612 
Q 252.893199 172.731562 253.698149 174.341548 
L 257.593354 182.132371 
Q 258.398304 183.742357 260.00829 182.937407 
z
" clip-path="url(#pca3b4e4bbb)" style="fill: #ffffff; opacity: 0.7"/>
    </g>
    <g clip-path="url(#pca3b4e4bbb)">
     <!-- -1.00 -->
     <g transform="translate(258.366318 179.653287) rotate(-26.563836) scale(0.09 -0.09)">
      <use xlink:href="#DejaVuSans-2d"/>
      <use xlink:href="#DejaVuSans-31" transform="translate(36.083984 0)"/>
      <use xlink:href="#DejaVuSans-2e" transform="translate(99.707031 0)"/>
      <use xlink:href="#DejaVuSans-30" transform="translate(131.494141 0)"/>
      <use xlink:href="#DejaVuSans-30" transform="translate(195.117188 0)"/>
     </g>
    </g>
   </g>
   <g id="text_4">
    <g id="patch_5">
     <path d="M 454.637803 143.962128 
L 472.488643 153.067706 
Q 474.092087 153.88561 474.909991 152.282166 
L 478.867882 144.523001 
Q 479.685787 142.919557 478.082343 142.101653 
L 460.231503 132.996075 
Q 458.628059 132.178171 457.810155 133.781615 
L 453.852264 141.54078 
Q 453.034359 143.144224 454.637803 143.962128 
z
" clip-path="url(#pca3b4e4bbb)" style="fill: #ffffff; opacity: 0.7"/>
    </g>
    <g clip-path="url(#pca3b4e4bbb)">
     <!-- 1.00 -->
     <g transform="translate(456.3062 140.691353) rotate(-332.974218) scale(0.09 -0.09)">
      <use xlink:href="#DejaVuSans-31"/>
      <use xlink:href="#DejaVuSans-2e" transform="translate(63.623047 0)"/>
      <use xlink:href="#DejaVuSans-30" transform="translate(95.410156 0)"/>
      <use xlink:href="#DejaVuSans-30" transform="translate(159.033203 0)"/>
     </g>
    </g>
   </g>
   <g id="text_5">
    <g id="patch_6">
     <path d="M 300.22677 124.600796 
L 323.368933 122.01575 
Q 325.157807 121.815928 324.957985 120.027054 
L 323.991032 111.370579 
Q 323.79121 109.581705 322.002336 109.781527 
L 298.860173 112.366573 
Q 297.071299 112.566396 297.271121 114.35527 
L 298.238074 123.011744 
Q 298.437896 124.800618 300.22677 124.600796 
z
" clip-path="url(#pca3b4e4bbb)" style="fill: #ffffff; opacity: 0.7"/>
    </g>
    <g clip-path="url(#pca3b4e4bbb)">
     <!-- -1.00 -->
     <g transform="translate(299.819164 120.951772) rotate(-6.373681) scale(0.09 -0.09)">
      <use xlink:href="#DejaVuSans-2d"/>
      <use xlink:href="#DejaVuSans-31" transform="translate(36.083984 0)"/>
      <use xlink:href="#DejaVuSans-2e" transform="translate(99.707031 0)"/>
      <use xlink:href="#DejaVuSans-30" transform="translate(131.494141 0)"/>
      <use xlink:href="#DejaVuSans-30" transform="translate(195.117188 0)"/>
     </g>
    </g>
   </g>
   <g id="text_6">
    <g id="patch_7">
     <path d="M 466.927725 264.217752 
L 475.757502 282.206611 
Q 476.550633 283.822453 478.166474 283.029322 
L 485.985632 279.191313 
Q 487.601473 278.398182 486.808342 276.78234 
L 477.978566 258.793481 
Q 477.185435 257.177639 475.569594 257.97077 
L 467.750436 261.808779 
Q 466.134595 262.60191 466.927725 264.217752 
z
" clip-path="url(#pca3b4e4bbb)" style="fill: #ffffff; opacity: 0.7"/>
    </g>
    <g clip-path="url(#pca3b4e4bbb)">
     <!-- 1.00 -->
     <g transform="translate(470.22379 262.599889) rotate(-296.143971) scale(0.09 -0.09)">
      <use xlink:href="#DejaVuSans-31"/>
      <use xlink:href="#DejaVuSans-2e" transform="translate(63.623047 0)"/>
      <use xlink:href="#DejaVuSans-30" transform="translate(95.410156 0)"/>
      <use xlink:href="#DejaVuSans-30" transform="translate(159.033203 0)"/>
     </g>
    </g>
   </g>
   <g id="text_7">
    <g id="patch_8">
     <path d="M 402.520764 302.541567 
L 402.58611 279.255565 
Q 402.591161 277.455573 400.791168 277.450521 
L 392.08089 277.426078 
Q 390.280897 277.421027 390.275846 279.22102 
L 390.2105 302.507022 
Q 390.205448 304.307015 392.005441 304.312066 
L 400.71572 304.336509 
Q 402.515712 304.34156 402.520764 302.541567 
z
" clip-path="url(#pca3b4e4bbb)" style="fill: #ffffff; opacity: 0.7"/>
    </g>
    <g clip-path="url(#pca3b4e4bbb)">
     <!-- -1.00 -->
     <g transform="translate(398.849059 302.531264) rotate(-89.839214) scale(0.09 -0.09)">
      <use xlink:href="#DejaVuSans-2d"/>
      <use xlink:href="#DejaVuSans-31" transform="translate(36.083984 0)"/>
      <use xlink:href="#DejaVuSans-2e" transform="translate(99.707031 0)"/>
      <use xlink:href="#DejaVuSans-30" transform="translate(131.494141 0)"/>
      <use xlink:href="#DejaVuSans-30" transform="translate(195.117188 0)"/>
     </g>
    </g>
   </g>
   <g id="text_8">
    <g id="patch_9">
     <path d="M 280.013168 242.618065 
L 293.644662 227.929756 
Q 294.869105 226.610386 293.549734 225.385943 
L 287.165216 219.460787 
Q 285.845845 218.236344 284.621402 219.555715 
L 270.989908 234.244023 
Q 269.765466 235.563394 271.084836 236.787837 
L 277.469354 242.712993 
Q 278.788725 243.937436 280.013168 242.618065 
z
" clip-path="url(#pca3b4e4bbb)" style="fill: #ffffff; opacity: 0.7"/>
    </g>
    <g clip-path="url(#pca3b4e4bbb)">
     <!-- 1.00 -->
     <g transform="translate(277.321858 240.120393) rotate(-47.137125) scale(0.09 -0.09)">
      <use xlink:href="#DejaVuSans-31"/>
      <use xlink:href="#DejaVuSans-2e" transform="translate(63.623047 0)"/>
      <use xlink:href="#DejaVuSans-30" transform="translate(95.410156 0)"/>
      <use xlink:href="#DejaVuSans-30" transform="translate(159.033203 0)"/>
     </g>
    </g>
   </g>
   <g id="text_9">
    <g id="patch_10">
     <path d="M 407.170877 391.934521 
L 428.42039 382.410848 
Q 430.062964 381.674675 429.32679 380.032101 
L 425.764399 372.083584 
Q 425.028225 370.441011 423.385652 371.177184 
L 402.136138 380.700857 
Q 400.493565 381.437031 401.229738 383.079605 
L 404.792129 391.028121 
Q 405.528303 392.670695 407.170877 391.934521 
z
" clip-path="url(#pca3b4e4bbb)" style="fill: #ffffff; opacity: 0.7"/>
    </g>
    <g clip-path="url(#pca3b4e4bbb)">
     <!-- -1.00 -->
     <g transform="translate(405.669197 388.583927) rotate(-24.141116) scale(0.09 -0.09)">
      <use xlink:href="#DejaVuSans-2d"/>
      <use xlink:href="#DejaVuSans-31" transform="translate(36.083984 0)"/>
      <use xlink:href="#DejaVuSans-2e" transform="translate(99.707031 0)"/>
      <use xlink:href="#DejaVuSans-30" transform="translate(131.494141 0)"/>
      <use xlink:href="#DejaVuSans-30" transform="translate(195.117188 0)"/>
     </g>
    </g>
   </g>
   <g id="text_10">
    <g id="patch_11">
     <path d="M 356.63914 272.446734 
L 379.716868 275.554891 
Q 381.500761 275.79515 381.74102 274.011257 
L 382.903646 265.378885 
Q 383.143905 263.594991 381.360011 263.354733 
L 358.282284 260.246575 
Q 356.49839 260.006316 356.258132 261.79021 
L 355.095505 270.422582 
Q 354.855247 272.206475 356.63914 272.446734 
z
" clip-path="url(#pca3b4e4bbb)" style="fill: #ffffff; opacity: 0.7"/>
    </g>
    <g clip-path="url(#pca3b4e4bbb)">
     <!-- -1.00 -->
     <g transform="translate(357.12923 268.80787) rotate(-352.329439) scale(0.09 -0.09)">
      <use xlink:href="#DejaVuSans-2d"/>
      <use xlink:href="#DejaVuSans-31" transform="translate(36.083984 0)"/>
      <use xlink:href="#DejaVuSans-2e" transform="translate(99.707031 0)"/>
      <use xlink:href="#DejaVuSans-30" transform="translate(131.494141 0)"/>
      <use xlink:href="#DejaVuSans-30" transform="translate(195.117188 0)"/>
     </g>
    </g>
   </g>
   <g id="text_11">
    <g id="patch_12">
     <path d="M 557.564394 232.729907 
L 566.938211 250.44136 
Q 567.78021 252.032283 569.371134 251.190284 
L 577.069712 247.115798 
Q 578.660636 246.273799 577.818637 244.682876 
L 568.444819 226.971423 
Q 567.60282 225.380499 566.011897 226.222498 
L 558.313318 230.296984 
Q 556.722395 231.138983 557.564394 232.729907 
z
" clip-path="url(#pca3b4e4bbb)" style="fill: #ffffff; opacity: 0.7"/>
    </g>
    <g clip-path="url(#pca3b4e4bbb)">
     <!-- 1.00 -->
     <g transform="translate(560.809629 231.01236) rotate(-297.890109) scale(0.09 -0.09)">
      <use xlink:href="#DejaVuSans-31"/>
      <use xlink:href="#DejaVuSans-2e" transform="translate(63.623047 0)"/>
      <use xlink:href="#DejaVuSans-30" transform="translate(95.410156 0)"/>
      <use xlink:href="#DejaVuSans-30" transform="translate(159.033203 0)"/>
     </g>
    </g>
   </g>
   <g id="text_12">
    <g id="patch_13">
     <path d="M 399.298246 213.591574 
L 420.453024 223.323868 
Q 422.088275 224.076168 422.840575 222.440918 
L 426.481002 214.527838 
Q 427.233302 212.892587 425.598051 212.140287 
L 404.443273 202.407993 
Q 402.808023 201.655693 402.055723 203.290943 
L 398.415296 211.204023 
Q 397.662996 212.839274 399.298246 213.591574 
z
" clip-path="url(#pca3b4e4bbb)" style="fill: #ffffff; opacity: 0.7"/>
    </g>
    <g clip-path="url(#pca3b4e4bbb)">
     <!-- -1.00 -->
     <g transform="translate(400.832821 210.255918) rotate(-335.295119) scale(0.09 -0.09)">
      <use xlink:href="#DejaVuSans-2d"/>
      <use xlink:href="#DejaVuSans-31" transform="translate(36.083984 0)"/>
      <use xlink:href="#DejaVuSans-2e" transform="translate(99.707031 0)"/>
      <use xlink:href="#DejaVuSans-30" transform="translate(131.494141 0)"/>
      <use xlink:href="#DejaVuSans-30" transform="translate(195.117188 0)"/>
     </g>
    </g>
   </g>
   <g id="text_13">
    <g id="patch_14">
     <path d="M 581.031495 377.588817 
L 587.104379 358.492113 
Q 587.649874 356.77676 585.93452 356.231266 
L 577.63382 353.591585 
Q 575.918467 353.046091 575.372973 354.761444 
L 569.300088 373.858148 
Q 568.754594 375.573501 570.469947 376.118995 
L 578.770647 378.758676 
Q 580.486001 379.30417 581.031495 377.588817 
z
" clip-path="url(#pca3b4e4bbb)" style="fill: #ffffff; opacity: 0.7"/>
    </g>
    <g clip-path="url(#pca3b4e4bbb)">
     <!-- 1.00 -->
     <g transform="translate(577.532443 376.476094) rotate(-72.358974) scale(0.09 -0.09)">
      <use xlink:href="#DejaVuSans-31"/>
      <use xlink:href="#DejaVuSans-2e" transform="translate(63.623047 0)"/>
      <use xlink:href="#DejaVuSans-30" transform="translate(95.410156 0)"/>
      <use xlink:href="#DejaVuSans-30" transform="translate(159.033203 0)"/>
     </g>
    </g>
   </g>
   <g id="text_14">
    <g id="patch_15">
     <path d="M 492.917163 398.813417 
L 510.571484 383.628981 
Q 511.936152 382.455234 510.762405 381.090566 
L 505.082569 374.486854 
Q 503.908822 373.122187 502.544154 374.295934 
L 484.889833 389.48037 
Q 483.525166 390.654117 484.698913 392.018785 
L 490.378749 398.622497 
Q 491.552496 399.987164 492.917163 398.813417 
z
" clip-path="url(#pca3b4e4bbb)" style="fill: #ffffff; opacity: 0.7"/>
    </g>
    <g clip-path="url(#pca3b4e4bbb)">
     <!-- -1.00 -->
     <g transform="translate(490.522903 396.029709) rotate(-40.69874) scale(0.09 -0.09)">
      <use xlink:href="#DejaVuSans-2d"/>
      <use xlink:href="#DejaVuSans-31" transform="translate(36.083984 0)"/>
      <use xlink:href="#DejaVuSans-2e" transform="translate(99.707031 0)"/>
      <use xlink:href="#DejaVuSans-30" transform="translate(131.494141 0)"/>
      <use xlink:href="#DejaVuSans-30" transform="translate(195.117188 0)"/>
     </g>
    </g>
   </g>
   <g id="text_15">
    <g id="patch_16">
     <path d="M 374.498137 334.144819 
L 394.373101 331.585552 
Q 396.158361 331.355666 395.928476 329.570407 
L 394.816047 320.931422 
Q 394.586162 319.146163 392.800902 319.376048 
L 372.925939 321.935315 
Q 371.140679 322.1652 371.370564 323.95046 
L 372.482992 332.589444 
Q 372.712877 334.374704 374.498137 334.144819 
z
" clip-path="url(#pca3b4e4bbb)" style="fill: #ffffff; opacity: 0.7"/>
    </g>
    <g clip-path="url(#pca3b4e4bbb)">
     <!-- 1.00 -->
     <g transform="translate(374.029208 330.503168) rotate(-7.33751) scale(0.09 -0.09)">
      <use xlink:href="#DejaVuSans-31"/>
      <use xlink:href="#DejaVuSans-2e" transform="translate(63.623047 0)"/>
      <use xlink:href="#DejaVuSans-30" transform="translate(95.410156 0)"/>
      <use xlink:href="#DejaVuSans-30" transform="translate(159.033203 0)"/>
     </g>
    </g>
   </g>
   <g id="text_16">
    <g id="patch_17">
     <path d="M 175.222168 343.540678 
L 182.779618 362.100015 
Q 183.458462 363.767099 185.125546 363.088255 
L 193.192671 359.803283 
Q 194.859756 359.124439 194.180911 357.457354 
L 186.623462 338.898018 
Q 185.944617 337.230933 184.277533 337.909778 
L 176.210408 341.194749 
Q 174.543323 341.873594 175.222168 343.540678 
z
" clip-path="url(#pca3b4e4bbb)" style="fill: #ffffff; opacity: 0.7"/>
    </g>
    <g clip-path="url(#pca3b4e4bbb)">
     <!-- 1.00 -->
     <g transform="translate(178.622759 342.155941) rotate(-292.156385) scale(0.09 -0.09)">
      <use xlink:href="#DejaVuSans-31"/>
      <use xlink:href="#DejaVuSans-2e" transform="translate(63.623047 0)"/>
      <use xlink:href="#DejaVuSans-30" transform="translate(95.410156 0)"/>
      <use xlink:href="#DejaVuSans-30" transform="translate(159.033203 0)"/>
     </g>
    </g>
   </g>
   <g id="text_17">
    <g id="patch_18">
     <path d="M 379.106345 333.757717 
L 396.096341 317.833453 
Q 397.409657 316.602518 396.178722 315.289202 
L 390.222149 308.933985 
Q 388.991214 307.620669 387.677898 308.851604 
L 370.687901 324.775868 
Q 369.374586 326.006803 370.605521 327.320119 
L 376.562094 333.675336 
Q 377.793029 334.988652 379.106345 333.757717 
z
" clip-path="url(#pca3b4e4bbb)" style="fill: #ffffff; opacity: 0.7"/>
    </g>
    <g clip-path="url(#pca3b4e4bbb)">
     <!-- -1.00 -->
     <g transform="translate(376.595429 331.078758) rotate(-43.145464) scale(0.09 -0.09)">
      <use xlink:href="#DejaVuSans-2d"/>
      <use xlink:href="#DejaVuSans-31" transform="translate(36.083984 0)"/>
      <use xlink:href="#DejaVuSans-2e" transform="translate(99.707031 0)"/>
      <use xlink:href="#DejaVuSans-30" transform="translate(131.494141 0)"/>
      <use xlink:href="#DejaVuSans-30" transform="translate(195.117188 0)"/>
     </g>
    </g>
   </g>
   <g id="text_18">
    <g id="patch_19">
     <path d="M 221.826345 285.549071 
L 222.162898 305.585307 
Q 222.193129 307.385053 223.992875 307.354822 
L 232.701959 307.208534 
Q 234.501705 307.178303 234.471474 305.378557 
L 234.134921 285.342321 
Q 234.104691 283.542575 232.304945 283.572806 
L 223.595861 283.719094 
Q 221.796114 283.749325 221.826345 285.549071 
z
" clip-path="url(#pca3b4e4bbb)" style="fill: #ffffff; opacity: 0.7"/>
    </g>
    <g clip-path="url(#pca3b4e4bbb)">
     <!-- 1.00 -->
     <g transform="translate(225.497546 285.487405) rotate(-270.962319) scale(0.09 -0.09)">
      <use xlink:href="#DejaVuSans-31"/>
      <use xlink:href="#DejaVuSans-2e" transform="translate(63.623047 0)"/>
      <use xlink:href="#DejaVuSans-30" transform="translate(95.410156 0)"/>
      <use xlink:href="#DejaVuSans-30" transform="translate(159.033203 0)"/>
     </g>
    </g>
   </g>
   <g id="text_19">
    <g id="patch_20">
     <path d="M 382.893657 455.997196 
L 406.076697 453.808865 
Q 407.868731 453.639709 407.699575 451.847675 
L 406.881016 443.17591 
Q 406.711859 441.383876 404.919825 441.553032 
L 381.736784 443.741363 
Q 379.94475 443.91052 380.113907 445.702554 
L 380.932466 454.374319 
Q 381.101623 456.166353 382.893657 455.997196 
z
" clip-path="url(#pca3b4e4bbb)" style="fill: #ffffff; opacity: 0.7"/>
    </g>
    <g clip-path="url(#pca3b4e4bbb)">
     <!-- -1.00 -->
     <g transform="translate(382.548604 452.341727) rotate(-5.392377) scale(0.09 -0.09)">
      <use xlink:href="#DejaVuSans-2d"/>
      <use xlink:href="#DejaVuSans-31" transform="translate(36.083984 0)"/>
      <use xlink:href="#DejaVuSans-2e" transform="translate(99.707031 0)"/>
      <use xlink:href="#DejaVuSans-30" transform="translate(131.494141 0)"/>
      <use xlink:href="#DejaVuSans-30" transform="translate(195.117188 0)"/>
     </g>
    </g>
   </g>
   <g id="text_20">
    <g id="patch_21">
     <path d="M 303.058337 474.690819 
L 323.060664 475.903635 
Q 324.857364 476.012576 324.966305 474.215876 
L 325.493476 465.521531 
Q 325.602416 463.724831 323.805716 463.61589 
L 303.803389 462.403074 
Q 302.006688 462.294133 301.897748 464.090833 
L 301.370577 472.785178 
Q 301.261636 474.581879 303.058337 474.690819 
z
" clip-path="url(#pca3b4e4bbb)" style="fill: #ffffff; opacity: 0.7"/>
    </g>
    <g clip-path="url(#pca3b4e4bbb)">
     <!-- 1.00 -->
     <g transform="translate(303.280559 471.025831) rotate(-356.53019) scale(0.09 -0.09)">
      <use xlink:href="#DejaVuSans-31"/>
      <use xlink:href="#DejaVuSans-2e" transform="translate(63.623047 0)"/>
      <use xlink:href="#DejaVuSans-30" transform="translate(95.410156 0)"/>
      <use xlink:href="#DejaVuSans-30" transform="translate(159.033203 0)"/>
     </g>
    </g>
   </g>
   <g id="text_21">
    <g id="patch_22">
     <path d="M 188.200757 402.351695 
L 199.842095 422.51903 
Q 200.741963 424.077952 202.300885 423.178085 
L 209.844606 418.823568 
Q 211.403528 417.9237 210.50366 416.364778 
L 198.862323 396.197442 
Q 197.962455 394.63852 196.403533 395.538388 
L 188.859812 399.892905 
Q 187.30089 400.792773 188.200757 402.351695 
z
" clip-path="url(#pca3b4e4bbb)" style="fill: #ffffff; opacity: 0.7"/>
    </g>
    <g clip-path="url(#pca3b4e4bbb)">
     <!-- -1.00 -->
     <g transform="translate(191.380715 400.516105) rotate(-299.995143) scale(0.09 -0.09)">
      <use xlink:href="#DejaVuSans-2d"/>
      <use xlink:href="#DejaVuSans-31" transform="translate(36.083984 0)"/>
      <use xlink:href="#DejaVuSans-2e" transform="translate(99.707031 0)"/>
      <use xlink:href="#DejaVuSans-30" transform="translate(131.494141 0)"/>
      <use xlink:href="#DejaVuSans-30" transform="translate(195.117188 0)"/>
     </g>
    </g>
   </g>
   <g id="text_22">
    <g id="patch_23">
     <path d="M 326.488162 215.432433 
L 349.52686 212.047092 
Q 351.307737 211.785407 351.046052 210.004531 
L 349.779744 201.386758 
Q 349.518059 199.605882 347.737183 199.867566 
L 324.698484 203.252908 
Q 322.917608 203.514592 323.179292 205.295469 
L 324.445601 213.913241 
Q 324.707286 215.694118 326.488162 215.432433 
z
" clip-path="url(#pca3b4e4bbb)" style="fill: #ffffff; opacity: 0.7"/>
    </g>
    <g clip-path="url(#pca3b4e4bbb)">
     <!-- -1.00 -->
     <g transform="translate(325.954366 211.799723) rotate(-8.359307) scale(0.09 -0.09)">
      <use xlink:href="#DejaVuSans-2d"/>
      <use xlink:href="#DejaVuSans-31" transform="translate(36.083984 0)"/>
      <use xlink:href="#DejaVuSans-2e" transform="translate(99.707031 0)"/>
      <use xlink:href="#DejaVuSans-30" transform="translate(131.494141 0)"/>
      <use xlink:href="#DejaVuSans-30" transform="translate(195.117188 0)"/>
     </g>
    </g>
   </g>
   <g id="text_23">
    <g id="patch_24">
     <path d="M 180.490142 193.490173 
L 192.906873 177.761574 
Q 194.022201 176.348759 192.609386 175.233432 
L 185.772688 169.836293 
Q 184.359874 168.720965 183.244547 170.13378 
L 170.827816 185.862379 
Q 169.712488 187.275193 171.125303 188.390521 
L 177.962 193.78766 
Q 179.374815 194.902987 180.490142 193.490173 
z
" clip-path="url(#pca3b4e4bbb)" style="fill: #ffffff; opacity: 0.7"/>
    </g>
    <g clip-path="url(#pca3b4e4bbb)">
     <!-- 1.00 -->
     <g transform="translate(177.608221 191.215079) rotate(-51.711147) scale(0.09 -0.09)">
      <use xlink:href="#DejaVuSans-31"/>
      <use xlink:href="#DejaVuSans-2e" transform="translate(63.623047 0)"/>
      <use xlink:href="#DejaVuSans-30" transform="translate(95.410156 0)"/>
      <use xlink:href="#DejaVuSans-30" transform="translate(159.033203 0)"/>
     </g>
    </g>
   </g>
   <g id="text_24">
    <g id="patch_25">
     <path d="M 334.466344 335.74109 
L 355.542733 345.641998 
Q 357.171924 346.407332 357.937258 344.778141 
L 361.640756 336.894383 
Q 362.40609 335.265192 360.776899 334.499858 
L 339.70051 324.598949 
Q 338.071319 323.833615 337.305985 325.462807 
L 333.602487 333.346565 
Q 332.837153 334.975756 334.466344 335.74109 
z
" clip-path="url(#pca3b4e4bbb)" style="fill: #ffffff; opacity: 0.7"/>
    </g>
    <g clip-path="url(#pca3b4e4bbb)">
     <!-- -1.00 -->
     <g transform="translate(336.027506 332.417794) rotate(-334.837597) scale(0.09 -0.09)">
      <use xlink:href="#DejaVuSans-2d"/>
      <use xlink:href="#DejaVuSans-31" transform="translate(36.083984 0)"/>
      <use xlink:href="#DejaVuSans-2e" transform="translate(99.707031 0)"/>
      <use xlink:href="#DejaVuSans-30" transform="translate(131.494141 0)"/>
      <use xlink:href="#DejaVuSans-30" transform="translate(195.117188 0)"/>
     </g>
    </g>
   </g>
   <g id="text_25">
    <g id="patch_26">
     <path d="M 255.612015 353.23302 
L 270.346793 366.814269 
Q 271.670338 368.034199 272.890268 366.710654 
L 278.793584 360.305936 
Q 280.013514 358.982391 278.689969 357.762462 
L 263.95519 344.181213 
Q 262.631645 342.961283 261.411715 344.284828 
L 255.508399 350.689545 
Q 254.28847 352.01309 255.612015 353.23302 
z
" clip-path="url(#pca3b4e4bbb)" style="fill: #ffffff; opacity: 0.7"/>
    </g>
    <g clip-path="url(#pca3b4e4bbb)">
     <!-- 1.00 -->
     <g transform="translate(258.100481 350.533195) rotate(-317.332809) scale(0.09 -0.09)">
      <use xlink:href="#DejaVuSans-31"/>
      <use xlink:href="#DejaVuSans-2e" transform="translate(63.623047 0)"/>
      <use xlink:href="#DejaVuSans-30" transform="translate(95.410156 0)"/>
      <use xlink:href="#DejaVuSans-30" transform="translate(159.033203 0)"/>
     </g>
    </g>
   </g>
   <g id="text_26">
    <g id="patch_27">
     <path d="M 144.287171 285.893541 
L 149.911793 308.490129 
Q 150.346573 310.236831 152.093274 309.802051 
L 160.545673 307.698125 
Q 162.292374 307.263346 161.857595 305.516644 
L 156.232973 282.920056 
Q 155.798193 281.173354 154.051491 281.608134 
L 145.599093 283.71206 
Q 143.852391 284.146839 144.287171 285.893541 
z
" clip-path="url(#pca3b4e4bbb)" style="fill: #ffffff; opacity: 0.7"/>
    </g>
    <g clip-path="url(#pca3b4e4bbb)">
     <!-- -1.00 -->
     <g transform="translate(147.850169 285.006659) rotate(-283.977701) scale(0.09 -0.09)">
      <use xlink:href="#DejaVuSans-2d"/>
      <use xlink:href="#DejaVuSans-31" transform="translate(36.083984 0)"/>
      <use xlink:href="#DejaVuSans-2e" transform="translate(99.707031 0)"/>
      <use xlink:href="#DejaVuSans-30" transform="translate(131.494141 0)"/>
      <use xlink:href="#DejaVuSans-30" transform="translate(195.117188 0)"/>
     </g>
    </g>
   </g>
   <g id="text_27">
    <g id="patch_28">
     <path d="M 368.065817 156.775047 
L 391.035905 160.598295 
Q 392.811478 160.89383 393.107012 159.118257 
L 394.537123 150.526149 
Q 394.832658 148.750576 393.057085 148.455041 
L 370.086997 144.631793 
Q 368.311424 144.336258 368.015889 146.111831 
L 366.585779 154.703939 
Q 366.290244 156.479512 368.065817 156.775047 
z
" clip-path="url(#pca3b4e4bbb)" style="fill: #ffffff; opacity: 0.7"/>
    </g>
    <g clip-path="url(#pca3b4e4bbb)">
     <!-- -1.00 -->
     <g transform="translate(368.668662 153.153156) rotate(-350.550055) scale(0.09 -0.09)">
      <use xlink:href="#DejaVuSans-2d"/>
      <use xlink:href="#DejaVuSans-31" transform="translate(36.083984 0)"/>
      <use xlink:href="#DejaVuSans-2e" transform="translate(99.707031 0)"/>
      <use xlink:href="#DejaVuSans-30" transform="translate(131.494141 0)"/>
      <use xlink:href="#DejaVuSans-30" transform="translate(195.117188 0)"/>
     </g>
    </g>
   </g>
   <g id="text_28">
    <g id="patch_29">
     <path d="M 539.356338 296.445154 
L 541.003158 316.416434 
Q 541.151083 318.210345 542.944994 318.062421 
L 551.625844 317.346603 
Q 553.419755 317.198678 553.27183 315.404766 
L 551.62501 295.433487 
Q 551.477085 293.639575 549.683174 293.7875 
L 541.002324 294.503318 
Q 539.208413 294.651243 539.356338 296.445154 
z
" clip-path="url(#pca3b4e4bbb)" style="fill: #ffffff; opacity: 0.7"/>
    </g>
    <g clip-path="url(#pca3b4e4bbb)">
     <!-- 1.00 -->
     <g transform="translate(543.015637 296.143411) rotate(-274.713912) scale(0.09 -0.09)">
      <use xlink:href="#DejaVuSans-31"/>
      <use xlink:href="#DejaVuSans-2e" transform="translate(63.623047 0)"/>
      <use xlink:href="#DejaVuSans-30" transform="translate(95.410156 0)"/>
      <use xlink:href="#DejaVuSans-30" transform="translate(159.033203 0)"/>
     </g>
    </g>
   </g>
   <g id="text_29">
    <g id="patch_30">
     <path d="M 466.428135 339.458605 
L 476.38794 318.409984 
Q 477.157827 316.782939 475.530782 316.013053 
L 467.657411 312.287524 
Q 466.030366 311.517637 465.260479 313.144682 
L 455.300674 334.193303 
Q 454.530788 335.820348 456.157832 336.590234 
L 464.031204 340.315763 
Q 465.658249 341.08565 466.428135 339.458605 
z
" clip-path="url(#pca3b4e4bbb)" style="fill: #ffffff; opacity: 0.7"/>
    </g>
    <g clip-path="url(#pca3b4e4bbb)">
     <!-- -1.00 -->
     <g transform="translate(463.109218 337.888157) rotate(-64.677382) scale(0.09 -0.09)">
      <use xlink:href="#DejaVuSans-2d"/>
      <use xlink:href="#DejaVuSans-31" transform="translate(36.083984 0)"/>
      <use xlink:href="#DejaVuSans-2e" transform="translate(99.707031 0)"/>
      <use xlink:href="#DejaVuSans-30" transform="translate(131.494141 0)"/>
      <use xlink:href="#DejaVuSans-30" transform="translate(195.117188 0)"/>
     </g>
    </g>
   </g>
   <g id="text_30">
    <g id="patch_31">
     <path d="M 345.383842 276.385181 
L 363.460376 267.736311 
Q 365.084092 266.95943 364.307211 265.335713 
L 360.547835 257.478446 
Q 359.770954 255.85473 358.147238 256.631611 
L 340.070704 265.280481 
Q 338.446988 266.057362 339.223869 267.681079 
L 342.983244 275.538346 
Q 343.760125 277.162062 345.383842 276.385181 
z
" clip-path="url(#pca3b4e4bbb)" style="fill: #ffffff; opacity: 0.7"/>
    </g>
    <g clip-path="url(#pca3b4e4bbb)">
     <!-- 1.00 -->
     <g transform="translate(343.799126 273.073053) rotate(-25.569179) scale(0.09 -0.09)">
      <use xlink:href="#DejaVuSans-31"/>
      <use xlink:href="#DejaVuSans-2e" transform="translate(63.623047 0)"/>
      <use xlink:href="#DejaVuSans-30" transform="translate(95.410156 0)"/>
      <use xlink:href="#DejaVuSans-30" transform="translate(159.033203 0)"/>
     </g>
    </g>
   </g>
   <g id="text_31">
    <g id="patch_32">
     <path d="M 378.342378 276.6978 
L 395.437334 292.509335 
Q 396.758763 293.731557 397.980984 292.410128 
L 403.89539 286.01565 
Q 405.117612 284.694221 403.796182 283.471999 
L 386.701226 267.660465 
Q 385.379797 266.438243 384.157576 267.759672 
L 378.24317 274.15415 
Q 377.020948 275.475579 378.342378 276.6978 
z
" clip-path="url(#pca3b4e4bbb)" style="fill: #ffffff; opacity: 0.7"/>
    </g>
    <g clip-path="url(#pca3b4e4bbb)">
     <!-- -1.00 -->
     <g transform="translate(380.835518 274.002292) rotate(-317.233522) scale(0.09 -0.09)">
      <use xlink:href="#DejaVuSans-2d"/>
      <use xlink:href="#DejaVuSans-31" transform="translate(36.083984 0)"/>
      <use xlink:href="#DejaVuSans-2e" transform="translate(99.707031 0)"/>
      <use xlink:href="#DejaVuSans-30" transform="translate(131.494141 0)"/>
      <use xlink:href="#DejaVuSans-30" transform="translate(195.117188 0)"/>
     </g>
    </g>
   </g>
   <g id="text_32">
    <g id="patch_33">
     <path d="M 300.65798 294.181902 
L 309.490234 312.169546 
Q 310.283588 313.785278 311.89932 312.991924 
L 319.717949 309.152838 
Q 321.333681 308.359484 320.540327 306.743752 
L 311.708073 288.756109 
Q 310.91472 287.140377 309.298988 287.93373 
L 301.480359 291.772817 
Q 299.864627 292.56617 300.65798 294.181902 
z
" clip-path="url(#pca3b4e4bbb)" style="fill: #ffffff; opacity: 0.7"/>
    </g>
    <g clip-path="url(#pca3b4e4bbb)">
     <!-- 1.00 -->
     <g transform="translate(303.953821 292.563585) rotate(-296.151863) scale(0.09 -0.09)">
      <use xlink:href="#DejaVuSans-31"/>
      <use xlink:href="#DejaVuSans-2e" transform="translate(63.623047 0)"/>
      <use xlink:href="#DejaVuSans-30" transform="translate(95.410156 0)"/>
      <use xlink:href="#DejaVuSans-30" transform="translate(159.033203 0)"/>
     </g>
    </g>
   </g>
   <g id="text_33">
    <g id="patch_34">
     <path d="M 199.632743 253.467288 
L 205.34055 230.891569 
Q 205.78176 229.14648 204.036672 228.70527 
L 195.59208 226.570228 
Q 193.846991 226.129018 193.405781 227.874107 
L 187.697973 250.449826 
Q 187.256764 252.194914 189.001852 252.636124 
L 197.446444 254.771166 
Q 199.191533 255.212376 199.632743 253.467288 
z
" clip-path="url(#pca3b4e4bbb)" style="fill: #ffffff; opacity: 0.7"/>
    </g>
    <g clip-path="url(#pca3b4e4bbb)">
     <!-- -1.00 -->
     <g transform="translate(196.073035 252.567289) rotate(-75.811277) scale(0.09 -0.09)">
      <use xlink:href="#DejaVuSans-2d"/>
      <use xlink:href="#DejaVuSans-31" transform="translate(36.083984 0)"/>
      <use xlink:href="#DejaVuSans-2e" transform="translate(99.707031 0)"/>
      <use xlink:href="#DejaVuSans-30" transform="translate(131.494141 0)"/>
      <use xlink:href="#DejaVuSans-30" transform="translate(195.117188 0)"/>
     </g>
    </g>
   </g>
   <g id="text_34">
    <g id="patch_35">
     <path d="M 466.577521 462.600055 
L 489.15106 456.88363 
Q 490.89598 456.441754 490.454104 454.696834 
L 488.315838 446.253057 
Q 487.873962 444.508137 486.129042 444.950013 
L 463.555504 450.666438 
Q 461.810584 451.108314 462.25246 452.853234 
L 464.390725 461.297011 
Q 464.832601 463.041931 466.577521 462.600055 
z
" clip-path="url(#pca3b4e4bbb)" style="fill: #ffffff; opacity: 0.7"/>
    </g>
    <g clip-path="url(#pca3b4e4bbb)">
     <!-- -1.00 -->
     <g transform="translate(465.676163 459.040691) rotate(-14.210595) scale(0.09 -0.09)">
      <use xlink:href="#DejaVuSans-2d"/>
      <use xlink:href="#DejaVuSans-31" transform="translate(36.083984 0)"/>
      <use xlink:href="#DejaVuSans-2e" transform="translate(99.707031 0)"/>
      <use xlink:href="#DejaVuSans-30" transform="translate(131.494141 0)"/>
      <use xlink:href="#DejaVuSans-30" transform="translate(195.117188 0)"/>
     </g>
    </g>
   </g>
   <g id="text_35">
    <g id="patch_36">
     <path d="M 351.232529 398.023905 
L 370.872568 402.002962 
Q 372.636726 402.360379 372.994143 400.596221 
L 374.723707 392.059351 
Q 375.081124 390.295193 373.316966 389.937776 
L 353.676927 385.958719 
Q 351.912769 385.601301 351.555352 387.365459 
L 349.825788 395.90233 
Q 349.468371 397.666488 351.232529 398.023905 
z
" clip-path="url(#pca3b4e4bbb)" style="fill: #ffffff; opacity: 0.7"/>
    </g>
    <g clip-path="url(#pca3b4e4bbb)">
     <!-- 1.00 -->
     <g transform="translate(351.961604 394.425298) rotate(-348.546941) scale(0.09 -0.09)">
      <use xlink:href="#DejaVuSans-31"/>
      <use xlink:href="#DejaVuSans-2e" transform="translate(63.623047 0)"/>
      <use xlink:href="#DejaVuSans-30" transform="translate(95.410156 0)"/>
      <use xlink:href="#DejaVuSans-30" transform="translate(159.033203 0)"/>
     </g>
    </g>
   </g>
   <g id="text_36">
    <g id="patch_37">
     <path d="M 268.632838 414.404827 
L 289.257601 425.215069 
Q 290.851882 426.050693 291.687506 424.456412 
L 295.731147 416.741588 
Q 296.566771 415.147307 294.972491 414.311682 
L 274.347728 403.501441 
Q 272.753447 402.665816 271.917822 404.260097 
L 267.874182 411.974921 
Q 267.038557 413.569202 268.632838 414.404827 
z
" clip-path="url(#pca3b4e4bbb)" style="fill: #ffffff; opacity: 0.7"/>
    </g>
    <g clip-path="url(#pca3b4e4bbb)">
     <!-- -1.00 -->
     <g transform="translate(270.337382 411.152743) rotate(-332.339215) scale(0.09 -0.09)">
      <use xlink:href="#DejaVuSans-2d"/>
      <use xlink:href="#DejaVuSans-31" transform="translate(36.083984 0)"/>
      <use xlink:href="#DejaVuSans-2e" transform="translate(99.707031 0)"/>
      <use xlink:href="#DejaVuSans-30" transform="translate(131.494141 0)"/>
      <use xlink:href="#DejaVuSans-30" transform="translate(195.117188 0)"/>
     </g>
    </g>
   </g>
   <g id="PathCollection_1">
    <defs>
     <path id="C0_0_507ebe955f" d="M 0 27.386128 
C 7.262886 27.386128 14.229281 24.500553 19.364917 19.364917 
C 24.500553 14.229281 27.386128 7.262886 27.386128 -0 
C 27.386128 -7.262886 24.500553 -14.229281 19.364917 -19.364917 
C 14.229281 -24.500553 7.262886 -27.386128 0 -27.386128 
C -7.262886 -27.386128 -14.229281 -24.500553 -19.364917 -19.364917 
C -24.500553 -14.229281 -27.386128 -7.262886 -27.386128 0 
C -27.386128 7.262886 -24.500553 14.229281 -19.364917 19.364917 
C -14.229281 24.500553 -7.262886 27.386128 0 27.386128 
z
"/>
    </defs>
    <g clip-path="url(#pca3b4e4bbb)">
     <use xlink:href="#C0_0_507ebe955f" x="396.912619" y="107.607273" style="fill: #fca7f2; fill-opacity: 0.9; stroke: #fca7f2; stroke-opacity: 0.9"/>
    </g>
    <g clip-path="url(#pca3b4e4bbb)">
     <use xlink:href="#C0_0_507ebe955f" x="599.578512" y="298.955598" style="fill: #73b932; fill-opacity: 0.9; stroke: #73b932; stroke-opacity: 0.9"/>
    </g>
    <g clip-path="url(#pca3b4e4bbb)">
     <use xlink:href="#C0_0_507ebe955f" x="230.982437" y="464.154126" style="fill: #5da665; fill-opacity: 0.9; stroke: #5da665; stroke-opacity: 0.9"/>
    </g>
    <g clip-path="url(#pca3b4e4bbb)">
     <use xlink:href="#C0_0_507ebe955f" x="138.421488" y="236.845983" style="fill: #b7dccb; fill-opacity: 0.9; stroke: #b7dccb; stroke-opacity: 0.9"/>
    </g>
    <g clip-path="url(#pca3b4e4bbb)">
     <use xlink:href="#C0_0_507ebe955f" x="535.802915" y="178.454155" style="fill: #eff547; fill-opacity: 0.9; stroke: #eff547; stroke-opacity: 0.9"/>
    </g>
    <g clip-path="url(#pca3b4e4bbb)">
     <use xlink:href="#C0_0_507ebe955f" x="225.315411" y="126.775171" style="fill: #fd8e16; fill-opacity: 0.9; stroke: #fd8e16; stroke-opacity: 0.9"/>
    </g>
    <g clip-path="url(#pca3b4e4bbb)">
     <use xlink:href="#C0_0_507ebe955f" x="556.825326" y="433.396642" style="fill: #7174da; fill-opacity: 0.9; stroke: #7174da; stroke-opacity: 0.9"/>
    </g>
    <g clip-path="url(#pca3b4e4bbb)">
     <use xlink:href="#C0_0_507ebe955f" x="395.883999" y="474.152727" style="fill: #68efe5; fill-opacity: 0.9; stroke: #68efe5; stroke-opacity: 0.9"/>
    </g>
    <g clip-path="url(#pca3b4e4bbb)">
     <use xlink:href="#C0_0_507ebe955f" x="167.72345" y="354.564893" style="fill: #ff5e70; fill-opacity: 0.9; stroke: #ff5e70; stroke-opacity: 0.9"/>
    </g>
   </g>
   <g id="text_37">
    <g clip-path="url(#pca3b4e4bbb)">
     <!-- Central -->
     <g transform="translate(378.404962 110.09071) scale(0.09 -0.09)">
      <defs>
       <path id="DejaVuSans-Bold-43" d="M 4288 256 
Q 3956 84 3597 -3 
Q 3238 -91 2847 -91 
Q 1681 -91 1000 561 
Q 319 1213 319 2328 
Q 319 3447 1000 4098 
Q 1681 4750 2847 4750 
Q 3238 4750 3597 4662 
Q 3956 4575 4288 4403 
L 4288 3438 
Q 3953 3666 3628 3772 
Q 3303 3878 2944 3878 
Q 2300 3878 1931 3465 
Q 1563 3053 1563 2328 
Q 1563 1606 1931 1193 
Q 2300 781 2944 781 
Q 3303 781 3628 887 
Q 3953 994 4288 1222 
L 4288 256 
z
" transform="scale(0.015625)"/>
       <path id="DejaVuSans-Bold-65" d="M 4031 1759 
L 4031 1441 
L 1416 1441 
Q 1456 1047 1700 850 
Q 1944 653 2381 653 
Q 2734 653 3104 758 
Q 3475 863 3866 1075 
L 3866 213 
Q 3469 63 3072 -14 
Q 2675 -91 2278 -91 
Q 1328 -91 801 392 
Q 275 875 275 1747 
Q 275 2603 792 3093 
Q 1309 3584 2216 3584 
Q 3041 3584 3536 3087 
Q 4031 2591 4031 1759 
z
M 2881 2131 
Q 2881 2450 2695 2645 
Q 2509 2841 2209 2841 
Q 1884 2841 1681 2658 
Q 1478 2475 1428 2131 
L 2881 2131 
z
" transform="scale(0.015625)"/>
       <path id="DejaVuSans-Bold-6e" d="M 4056 2131 
L 4056 0 
L 2931 0 
L 2931 347 
L 2931 1631 
Q 2931 2084 2911 2256 
Q 2891 2428 2841 2509 
Q 2775 2619 2662 2680 
Q 2550 2741 2406 2741 
Q 2056 2741 1856 2470 
Q 1656 2200 1656 1722 
L 1656 0 
L 538 0 
L 538 3500 
L 1656 3500 
L 1656 2988 
Q 1909 3294 2193 3439 
Q 2478 3584 2822 3584 
Q 3428 3584 3742 3212 
Q 4056 2841 4056 2131 
z
" transform="scale(0.015625)"/>
       <path id="DejaVuSans-Bold-74" d="M 1759 4494 
L 1759 3500 
L 2913 3500 
L 2913 2700 
L 1759 2700 
L 1759 1216 
Q 1759 972 1856 886 
Q 1953 800 2241 800 
L 2816 800 
L 2816 0 
L 1856 0 
Q 1194 0 917 276 
Q 641 553 641 1216 
L 641 2700 
L 84 2700 
L 84 3500 
L 641 3500 
L 641 4494 
L 1759 4494 
z
" transform="scale(0.015625)"/>
       <path id="DejaVuSans-Bold-72" d="M 3138 2547 
Q 2991 2616 2845 2648 
Q 2700 2681 2553 2681 
Q 2122 2681 1889 2404 
Q 1656 2128 1656 1613 
L 1656 0 
L 538 0 
L 538 3500 
L 1656 3500 
L 1656 2925 
Q 1872 3269 2151 3426 
Q 2431 3584 2822 3584 
Q 2878 3584 2943 3579 
Q 3009 3575 3134 3559 
L 3138 2547 
z
" transform="scale(0.015625)"/>
       <path id="DejaVuSans-Bold-61" d="M 2106 1575 
Q 1756 1575 1579 1456 
Q 1403 1338 1403 1106 
Q 1403 894 1545 773 
Q 1688 653 1941 653 
Q 2256 653 2472 879 
Q 2688 1106 2688 1447 
L 2688 1575 
L 2106 1575 
z
M 3816 1997 
L 3816 0 
L 2688 0 
L 2688 519 
Q 2463 200 2181 54 
Q 1900 -91 1497 -91 
Q 953 -91 614 226 
Q 275 544 275 1050 
Q 275 1666 698 1953 
Q 1122 2241 2028 2241 
L 2688 2241 
L 2688 2328 
Q 2688 2594 2478 2717 
Q 2269 2841 1825 2841 
Q 1466 2841 1156 2769 
Q 847 2697 581 2553 
L 581 3406 
Q 941 3494 1303 3539 
Q 1666 3584 2028 3584 
Q 2975 3584 3395 3211 
Q 3816 2838 3816 1997 
z
" transform="scale(0.015625)"/>
       <path id="DejaVuSans-Bold-6c" d="M 538 4863 
L 1656 4863 
L 1656 0 
L 538 0 
L 538 4863 
z
" transform="scale(0.015625)"/>
      </defs>
      <use xlink:href="#DejaVuSans-Bold-43"/>
      <use xlink:href="#DejaVuSans-Bold-65" transform="translate(73.388672 0)"/>
      <use xlink:href="#DejaVuSans-Bold-6e" transform="translate(141.210938 0)"/>
      <use xlink:href="#DejaVuSans-Bold-74" transform="translate(212.402344 0)"/>
      <use xlink:href="#DejaVuSans-Bold-72" transform="translate(260.205078 0)"/>
      <use xlink:href="#DejaVuSans-Bold-61" transform="translate(309.521484 0)"/>
      <use xlink:href="#DejaVuSans-Bold-6c" transform="translate(377.001953 0)"/>
     </g>
    </g>
   </g>
   <g id="text_38">
    <g clip-path="url(#pca3b4e4bbb)">
     <!-- Far North Side -->
     <g transform="translate(562.892262 301.439035) scale(0.09 -0.09)">
      <defs>
       <path id="DejaVuSans-Bold-46" d="M 588 4666 
L 3834 4666 
L 3834 3756 
L 1791 3756 
L 1791 2888 
L 3713 2888 
L 3713 1978 
L 1791 1978 
L 1791 0 
L 588 0 
L 588 4666 
z
" transform="scale(0.015625)"/>
       <path id="DejaVuSans-Bold-20" transform="scale(0.015625)"/>
       <path id="DejaVuSans-Bold-4e" d="M 588 4666 
L 1931 4666 
L 3628 1466 
L 3628 4666 
L 4769 4666 
L 4769 0 
L 3425 0 
L 1728 3200 
L 1728 0 
L 588 0 
L 588 4666 
z
" transform="scale(0.015625)"/>
       <path id="DejaVuSans-Bold-6f" d="M 2203 2784 
Q 1831 2784 1636 2517 
Q 1441 2250 1441 1747 
Q 1441 1244 1636 976 
Q 1831 709 2203 709 
Q 2569 709 2762 976 
Q 2956 1244 2956 1747 
Q 2956 2250 2762 2517 
Q 2569 2784 2203 2784 
z
M 2203 3584 
Q 3106 3584 3614 3096 
Q 4122 2609 4122 1747 
Q 4122 884 3614 396 
Q 3106 -91 2203 -91 
Q 1297 -91 786 396 
Q 275 884 275 1747 
Q 275 2609 786 3096 
Q 1297 3584 2203 3584 
z
" transform="scale(0.015625)"/>
       <path id="DejaVuSans-Bold-68" d="M 4056 2131 
L 4056 0 
L 2931 0 
L 2931 347 
L 2931 1625 
Q 2931 2084 2911 2256 
Q 2891 2428 2841 2509 
Q 2775 2619 2662 2680 
Q 2550 2741 2406 2741 
Q 2056 2741 1856 2470 
Q 1656 2200 1656 1722 
L 1656 0 
L 538 0 
L 538 4863 
L 1656 4863 
L 1656 2988 
Q 1909 3294 2193 3439 
Q 2478 3584 2822 3584 
Q 3428 3584 3742 3212 
Q 4056 2841 4056 2131 
z
" transform="scale(0.015625)"/>
       <path id="DejaVuSans-Bold-53" d="M 3834 4519 
L 3834 3531 
Q 3450 3703 3084 3790 
Q 2719 3878 2394 3878 
Q 1963 3878 1756 3759 
Q 1550 3641 1550 3391 
Q 1550 3203 1689 3098 
Q 1828 2994 2194 2919 
L 2706 2816 
Q 3484 2659 3812 2340 
Q 4141 2022 4141 1434 
Q 4141 663 3683 286 
Q 3225 -91 2284 -91 
Q 1841 -91 1394 -6 
Q 947 78 500 244 
L 500 1259 
Q 947 1022 1364 901 
Q 1781 781 2169 781 
Q 2563 781 2772 912 
Q 2981 1044 2981 1288 
Q 2981 1506 2839 1625 
Q 2697 1744 2272 1838 
L 1806 1941 
Q 1106 2091 782 2419 
Q 459 2747 459 3303 
Q 459 4000 909 4375 
Q 1359 4750 2203 4750 
Q 2588 4750 2994 4692 
Q 3400 4634 3834 4519 
z
" transform="scale(0.015625)"/>
       <path id="DejaVuSans-Bold-69" d="M 538 3500 
L 1656 3500 
L 1656 0 
L 538 0 
L 538 3500 
z
M 538 4863 
L 1656 4863 
L 1656 3950 
L 538 3950 
L 538 4863 
z
" transform="scale(0.015625)"/>
       <path id="DejaVuSans-Bold-64" d="M 2919 2988 
L 2919 4863 
L 4044 4863 
L 4044 0 
L 2919 0 
L 2919 506 
Q 2688 197 2409 53 
Q 2131 -91 1766 -91 
Q 1119 -91 703 423 
Q 288 938 288 1747 
Q 288 2556 703 3070 
Q 1119 3584 1766 3584 
Q 2128 3584 2408 3439 
Q 2688 3294 2919 2988 
z
M 2181 722 
Q 2541 722 2730 984 
Q 2919 1247 2919 1747 
Q 2919 2247 2730 2509 
Q 2541 2772 2181 2772 
Q 1825 2772 1636 2509 
Q 1447 2247 1447 1747 
Q 1447 1247 1636 984 
Q 1825 722 2181 722 
z
" transform="scale(0.015625)"/>
      </defs>
      <use xlink:href="#DejaVuSans-Bold-46"/>
      <use xlink:href="#DejaVuSans-Bold-61" transform="translate(62.435547 0)"/>
      <use xlink:href="#DejaVuSans-Bold-72" transform="translate(129.916016 0)"/>
      <use xlink:href="#DejaVuSans-Bold-20" transform="translate(179.232422 0)"/>
      <use xlink:href="#DejaVuSans-Bold-4e" transform="translate(214.046875 0)"/>
      <use xlink:href="#DejaVuSans-Bold-6f" transform="translate(297.738281 0)"/>
      <use xlink:href="#DejaVuSans-Bold-72" transform="translate(366.439453 0)"/>
      <use xlink:href="#DejaVuSans-Bold-74" transform="translate(415.755859 0)"/>
      <use xlink:href="#DejaVuSans-Bold-68" transform="translate(463.558594 0)"/>
      <use xlink:href="#DejaVuSans-Bold-20" transform="translate(534.75 0)"/>
      <use xlink:href="#DejaVuSans-Bold-53" transform="translate(569.564453 0)"/>
      <use xlink:href="#DejaVuSans-Bold-69" transform="translate(641.585938 0)"/>
      <use xlink:href="#DejaVuSans-Bold-64" transform="translate(675.863281 0)"/>
      <use xlink:href="#DejaVuSans-Bold-65" transform="translate(747.445312 0)"/>
     </g>
    </g>
   </g>
   <g id="text_39">
    <g clip-path="url(#pca3b4e4bbb)">
     <!-- Far Southeast Side -->
     <g transform="translate(182.918921 466.637564) scale(0.09 -0.09)">
      <defs>
       <path id="DejaVuSans-Bold-75" d="M 500 1363 
L 500 3500 
L 1625 3500 
L 1625 3150 
Q 1625 2866 1622 2436 
Q 1619 2006 1619 1863 
Q 1619 1441 1641 1255 
Q 1663 1069 1716 984 
Q 1784 875 1895 815 
Q 2006 756 2150 756 
Q 2500 756 2700 1025 
Q 2900 1294 2900 1772 
L 2900 3500 
L 4019 3500 
L 4019 0 
L 2900 0 
L 2900 506 
Q 2647 200 2364 54 
Q 2081 -91 1741 -91 
Q 1134 -91 817 281 
Q 500 653 500 1363 
z
" transform="scale(0.015625)"/>
       <path id="DejaVuSans-Bold-73" d="M 3272 3391 
L 3272 2541 
Q 2913 2691 2578 2766 
Q 2244 2841 1947 2841 
Q 1628 2841 1473 2761 
Q 1319 2681 1319 2516 
Q 1319 2381 1436 2309 
Q 1553 2238 1856 2203 
L 2053 2175 
Q 2913 2066 3209 1816 
Q 3506 1566 3506 1031 
Q 3506 472 3093 190 
Q 2681 -91 1863 -91 
Q 1516 -91 1145 -36 
Q 775 19 384 128 
L 384 978 
Q 719 816 1070 734 
Q 1422 653 1784 653 
Q 2113 653 2278 743 
Q 2444 834 2444 1013 
Q 2444 1163 2330 1236 
Q 2216 1309 1875 1350 
L 1678 1375 
Q 931 1469 631 1722 
Q 331 1975 331 2491 
Q 331 3047 712 3315 
Q 1094 3584 1881 3584 
Q 2191 3584 2531 3537 
Q 2872 3491 3272 3391 
z
" transform="scale(0.015625)"/>
      </defs>
      <use xlink:href="#DejaVuSans-Bold-46"/>
      <use xlink:href="#DejaVuSans-Bold-61" transform="translate(62.435547 0)"/>
      <use xlink:href="#DejaVuSans-Bold-72" transform="translate(129.916016 0)"/>
      <use xlink:href="#DejaVuSans-Bold-20" transform="translate(179.232422 0)"/>
      <use xlink:href="#DejaVuSans-Bold-53" transform="translate(214.046875 0)"/>
      <use xlink:href="#DejaVuSans-Bold-6f" transform="translate(286.068359 0)"/>
      <use xlink:href="#DejaVuSans-Bold-75" transform="translate(354.769531 0)"/>
      <use xlink:href="#DejaVuSans-Bold-74" transform="translate(425.960938 0)"/>
      <use xlink:href="#DejaVuSans-Bold-68" transform="translate(473.763672 0)"/>
      <use xlink:href="#DejaVuSans-Bold-65" transform="translate(544.955078 0)"/>
      <use xlink:href="#DejaVuSans-Bold-61" transform="translate(612.777344 0)"/>
      <use xlink:href="#DejaVuSans-Bold-73" transform="translate(680.257812 0)"/>
      <use xlink:href="#DejaVuSans-Bold-74" transform="translate(739.779297 0)"/>
      <use xlink:href="#DejaVuSans-Bold-20" transform="translate(787.582031 0)"/>
      <use xlink:href="#DejaVuSans-Bold-53" transform="translate(822.396484 0)"/>
      <use xlink:href="#DejaVuSans-Bold-69" transform="translate(894.417969 0)"/>
      <use xlink:href="#DejaVuSans-Bold-64" transform="translate(928.695312 0)"/>
      <use xlink:href="#DejaVuSans-Bold-65" transform="translate(1000.277344 0)"/>
     </g>
    </g>
   </g>
   <g id="text_40">
    <g clip-path="url(#pca3b4e4bbb)">
     <!-- Far Southwest Side -->
     <g transform="translate(89.237191 239.32942) scale(0.09 -0.09)">
      <defs>
       <path id="DejaVuSans-Bold-77" d="M 225 3500 
L 1313 3500 
L 1900 1088 
L 2491 3500 
L 3425 3500 
L 4013 1113 
L 4603 3500 
L 5691 3500 
L 4769 0 
L 3547 0 
L 2956 2406 
L 2369 0 
L 1147 0 
L 225 3500 
z
" transform="scale(0.015625)"/>
      </defs>
      <use xlink:href="#DejaVuSans-Bold-46"/>
      <use xlink:href="#DejaVuSans-Bold-61" transform="translate(62.435547 0)"/>
      <use xlink:href="#DejaVuSans-Bold-72" transform="translate(129.916016 0)"/>
      <use xlink:href="#DejaVuSans-Bold-20" transform="translate(179.232422 0)"/>
      <use xlink:href="#DejaVuSans-Bold-53" transform="translate(214.046875 0)"/>
      <use xlink:href="#DejaVuSans-Bold-6f" transform="translate(286.068359 0)"/>
      <use xlink:href="#DejaVuSans-Bold-75" transform="translate(354.769531 0)"/>
      <use xlink:href="#DejaVuSans-Bold-74" transform="translate(425.960938 0)"/>
      <use xlink:href="#DejaVuSans-Bold-68" transform="translate(473.763672 0)"/>
      <use xlink:href="#DejaVuSans-Bold-77" transform="translate(544.955078 0)"/>
      <use xlink:href="#DejaVuSans-Bold-65" transform="translate(637.337891 0)"/>
      <use xlink:href="#DejaVuSans-Bold-73" transform="translate(705.160156 0)"/>
      <use xlink:href="#DejaVuSans-Bold-74" transform="translate(764.681641 0)"/>
      <use xlink:href="#DejaVuSans-Bold-20" transform="translate(812.484375 0)"/>
      <use xlink:href="#DejaVuSans-Bold-53" transform="translate(847.298828 0)"/>
      <use xlink:href="#DejaVuSans-Bold-69" transform="translate(919.320312 0)"/>
      <use xlink:href="#DejaVuSans-Bold-64" transform="translate(953.597656 0)"/>
      <use xlink:href="#DejaVuSans-Bold-65" transform="translate(1025.179688 0)"/>
     </g>
    </g>
   </g>
   <g id="text_41">
    <g clip-path="url(#pca3b4e4bbb)">
     <!-- North Side -->
     <g transform="translate(508.748774 180.937593) scale(0.09 -0.09)">
      <use xlink:href="#DejaVuSans-Bold-4e"/>
      <use xlink:href="#DejaVuSans-Bold-6f" transform="translate(83.691406 0)"/>
      <use xlink:href="#DejaVuSans-Bold-72" transform="translate(152.392578 0)"/>
      <use xlink:href="#DejaVuSans-Bold-74" transform="translate(201.708984 0)"/>
      <use xlink:href="#DejaVuSans-Bold-68" transform="translate(249.511719 0)"/>
      <use xlink:href="#DejaVuSans-Bold-20" transform="translate(320.703125 0)"/>
      <use xlink:href="#DejaVuSans-Bold-53" transform="translate(355.517578 0)"/>
      <use xlink:href="#DejaVuSans-Bold-69" transform="translate(427.539062 0)"/>
      <use xlink:href="#DejaVuSans-Bold-64" transform="translate(461.816406 0)"/>
      <use xlink:href="#DejaVuSans-Bold-65" transform="translate(533.398438 0)"/>
     </g>
    </g>
   </g>
   <g id="text_42">
    <g clip-path="url(#pca3b4e4bbb)">
     <!-- Northwest Side -->
     <g transform="translate(186.222364 129.258608) scale(0.09 -0.09)">
      <use xlink:href="#DejaVuSans-Bold-4e"/>
      <use xlink:href="#DejaVuSans-Bold-6f" transform="translate(83.691406 0)"/>
      <use xlink:href="#DejaVuSans-Bold-72" transform="translate(152.392578 0)"/>
      <use xlink:href="#DejaVuSans-Bold-74" transform="translate(201.708984 0)"/>
      <use xlink:href="#DejaVuSans-Bold-68" transform="translate(249.511719 0)"/>
      <use xlink:href="#DejaVuSans-Bold-77" transform="translate(320.703125 0)"/>
      <use xlink:href="#DejaVuSans-Bold-65" transform="translate(413.085938 0)"/>
      <use xlink:href="#DejaVuSans-Bold-73" transform="translate(480.908203 0)"/>
      <use xlink:href="#DejaVuSans-Bold-74" transform="translate(540.429688 0)"/>
      <use xlink:href="#DejaVuSans-Bold-20" transform="translate(588.232422 0)"/>
      <use xlink:href="#DejaVuSans-Bold-53" transform="translate(623.046875 0)"/>
      <use xlink:href="#DejaVuSans-Bold-69" transform="translate(695.068359 0)"/>
      <use xlink:href="#DejaVuSans-Bold-64" transform="translate(729.345703 0)"/>
      <use xlink:href="#DejaVuSans-Bold-65" transform="translate(800.927734 0)"/>
     </g>
    </g>
   </g>
   <g id="text_43">
    <g clip-path="url(#pca3b4e4bbb)">
     <!-- South Side -->
     <g transform="translate(529.312044 435.880079) scale(0.09 -0.09)">
      <use xlink:href="#DejaVuSans-Bold-53"/>
      <use xlink:href="#DejaVuSans-Bold-6f" transform="translate(72.021484 0)"/>
      <use xlink:href="#DejaVuSans-Bold-75" transform="translate(140.722656 0)"/>
      <use xlink:href="#DejaVuSans-Bold-74" transform="translate(211.914062 0)"/>
      <use xlink:href="#DejaVuSans-Bold-68" transform="translate(259.716797 0)"/>
      <use xlink:href="#DejaVuSans-Bold-20" transform="translate(330.908203 0)"/>
      <use xlink:href="#DejaVuSans-Bold-53" transform="translate(365.722656 0)"/>
      <use xlink:href="#DejaVuSans-Bold-69" transform="translate(437.744141 0)"/>
      <use xlink:href="#DejaVuSans-Bold-64" transform="translate(472.021484 0)"/>
      <use xlink:href="#DejaVuSans-Bold-65" transform="translate(543.603516 0)"/>
     </g>
    </g>
   </g>
   <g id="text_44">
    <g clip-path="url(#pca3b4e4bbb)">
     <!-- Southwest Side -->
     <g transform="translate(356.331811 476.636165) scale(0.09 -0.09)">
      <use xlink:href="#DejaVuSans-Bold-53"/>
      <use xlink:href="#DejaVuSans-Bold-6f" transform="translate(72.021484 0)"/>
      <use xlink:href="#DejaVuSans-Bold-75" transform="translate(140.722656 0)"/>
      <use xlink:href="#DejaVuSans-Bold-74" transform="translate(211.914062 0)"/>
      <use xlink:href="#DejaVuSans-Bold-68" transform="translate(259.716797 0)"/>
      <use xlink:href="#DejaVuSans-Bold-77" transform="translate(330.908203 0)"/>
      <use xlink:href="#DejaVuSans-Bold-65" transform="translate(423.291016 0)"/>
      <use xlink:href="#DejaVuSans-Bold-73" transform="translate(491.113281 0)"/>
      <use xlink:href="#DejaVuSans-Bold-74" transform="translate(550.634766 0)"/>
      <use xlink:href="#DejaVuSans-Bold-20" transform="translate(598.4375 0)"/>
      <use xlink:href="#DejaVuSans-Bold-53" transform="translate(633.251953 0)"/>
      <use xlink:href="#DejaVuSans-Bold-69" transform="translate(705.273438 0)"/>
      <use xlink:href="#DejaVuSans-Bold-64" transform="translate(739.550781 0)"/>
      <use xlink:href="#DejaVuSans-Bold-65" transform="translate(811.132812 0)"/>
     </g>
    </g>
   </g>
   <g id="text_45">
    <g clip-path="url(#pca3b4e4bbb)">
     <!-- West Side -->
     <g transform="translate(142.418684 357.04833) scale(0.09 -0.09)">
      <defs>
       <path id="DejaVuSans-Bold-57" d="M 191 4666 
L 1344 4666 
L 2150 1275 
L 2950 4666 
L 4109 4666 
L 4909 1275 
L 5716 4666 
L 6859 4666 
L 5759 0 
L 4372 0 
L 3525 3547 
L 2688 0 
L 1300 0 
L 191 4666 
z
" transform="scale(0.015625)"/>
      </defs>
      <use xlink:href="#DejaVuSans-Bold-57"/>
      <use xlink:href="#DejaVuSans-Bold-65" transform="translate(106.677734 0)"/>
      <use xlink:href="#DejaVuSans-Bold-73" transform="translate(174.5 0)"/>
      <use xlink:href="#DejaVuSans-Bold-74" transform="translate(234.021484 0)"/>
      <use xlink:href="#DejaVuSans-Bold-20" transform="translate(281.824219 0)"/>
      <use xlink:href="#DejaVuSans-Bold-53" transform="translate(316.638672 0)"/>
      <use xlink:href="#DejaVuSans-Bold-69" transform="translate(388.660156 0)"/>
      <use xlink:href="#DejaVuSans-Bold-64" transform="translate(422.9375 0)"/>
      <use xlink:href="#DejaVuSans-Bold-65" transform="translate(494.519531 0)"/>
     </g>
    </g>
   </g>
  </g>
  <g id="text_46">
   <!-- Regional correlation of total population (Decennial Data) -->
   <g transform="translate(166.92 20.638125) scale(0.12 -0.12)">
    <defs>
     <path id="DejaVuSans-Bold-52" d="M 2297 2597 
Q 2675 2597 2839 2737 
Q 3003 2878 3003 3200 
Q 3003 3519 2839 3656 
Q 2675 3794 2297 3794 
L 1791 3794 
L 1791 2597 
L 2297 2597 
z
M 1791 1766 
L 1791 0 
L 588 0 
L 588 4666 
L 2425 4666 
Q 3347 4666 3776 4356 
Q 4206 4047 4206 3378 
Q 4206 2916 3982 2619 
Q 3759 2322 3309 2181 
Q 3556 2125 3751 1926 
Q 3947 1728 4147 1325 
L 4800 0 
L 3519 0 
L 2950 1159 
Q 2778 1509 2601 1637 
Q 2425 1766 2131 1766 
L 1791 1766 
z
" transform="scale(0.015625)"/>
     <path id="DejaVuSans-Bold-67" d="M 2919 594 
Q 2688 288 2409 144 
Q 2131 0 1766 0 
Q 1125 0 706 504 
Q 288 1009 288 1791 
Q 288 2575 706 3076 
Q 1125 3578 1766 3578 
Q 2131 3578 2409 3434 
Q 2688 3291 2919 2981 
L 2919 3500 
L 4044 3500 
L 4044 353 
Q 4044 -491 3511 -936 
Q 2978 -1381 1966 -1381 
Q 1638 -1381 1331 -1331 
Q 1025 -1281 716 -1178 
L 716 -306 
Q 1009 -475 1290 -558 
Q 1572 -641 1856 -641 
Q 2406 -641 2662 -400 
Q 2919 -159 2919 353 
L 2919 594 
z
M 2181 2772 
Q 1834 2772 1640 2515 
Q 1447 2259 1447 1791 
Q 1447 1309 1634 1061 
Q 1822 813 2181 813 
Q 2531 813 2725 1069 
Q 2919 1325 2919 1791 
Q 2919 2259 2725 2515 
Q 2531 2772 2181 2772 
z
" transform="scale(0.015625)"/>
     <path id="DejaVuSans-Bold-63" d="M 3366 3391 
L 3366 2478 
Q 3138 2634 2908 2709 
Q 2678 2784 2431 2784 
Q 1963 2784 1702 2511 
Q 1441 2238 1441 1747 
Q 1441 1256 1702 982 
Q 1963 709 2431 709 
Q 2694 709 2930 787 
Q 3166 866 3366 1019 
L 3366 103 
Q 3103 6 2833 -42 
Q 2563 -91 2291 -91 
Q 1344 -91 809 395 
Q 275 881 275 1747 
Q 275 2613 809 3098 
Q 1344 3584 2291 3584 
Q 2566 3584 2833 3536 
Q 3100 3488 3366 3391 
z
" transform="scale(0.015625)"/>
     <path id="DejaVuSans-Bold-66" d="M 2841 4863 
L 2841 4128 
L 2222 4128 
Q 1984 4128 1890 4042 
Q 1797 3956 1797 3744 
L 1797 3500 
L 2753 3500 
L 2753 2700 
L 1797 2700 
L 1797 0 
L 678 0 
L 678 2700 
L 122 2700 
L 122 3500 
L 678 3500 
L 678 3744 
Q 678 4316 997 4589 
Q 1316 4863 1984 4863 
L 2841 4863 
z
" transform="scale(0.015625)"/>
     <path id="DejaVuSans-Bold-70" d="M 1656 506 
L 1656 -1331 
L 538 -1331 
L 538 3500 
L 1656 3500 
L 1656 2988 
Q 1888 3294 2169 3439 
Q 2450 3584 2816 3584 
Q 3463 3584 3878 3070 
Q 4294 2556 4294 1747 
Q 4294 938 3878 423 
Q 3463 -91 2816 -91 
Q 2450 -91 2169 54 
Q 1888 200 1656 506 
z
M 2400 2772 
Q 2041 2772 1848 2508 
Q 1656 2244 1656 1747 
Q 1656 1250 1848 986 
Q 2041 722 2400 722 
Q 2759 722 2948 984 
Q 3138 1247 3138 1747 
Q 3138 2247 2948 2509 
Q 2759 2772 2400 2772 
z
" transform="scale(0.015625)"/>
     <path id="DejaVuSans-Bold-28" d="M 2413 -844 
L 1484 -844 
Q 1006 -72 778 623 
Q 550 1319 550 2003 
Q 550 2688 779 3389 
Q 1009 4091 1484 4856 
L 2413 4856 
Q 2013 4116 1813 3408 
Q 1613 2700 1613 2009 
Q 1613 1319 1811 609 
Q 2009 -100 2413 -844 
z
" transform="scale(0.015625)"/>
     <path id="DejaVuSans-Bold-44" d="M 1791 3756 
L 1791 909 
L 2222 909 
Q 2959 909 3348 1275 
Q 3738 1641 3738 2338 
Q 3738 3031 3350 3393 
Q 2963 3756 2222 3756 
L 1791 3756 
z
M 588 4666 
L 1856 4666 
Q 2919 4666 3439 4514 
Q 3959 4363 4331 4000 
Q 4659 3684 4818 3271 
Q 4978 2859 4978 2338 
Q 4978 1809 4818 1395 
Q 4659 981 4331 666 
Q 3956 303 3431 151 
Q 2906 0 1856 0 
L 588 0 
L 588 4666 
z
" transform="scale(0.015625)"/>
     <path id="DejaVuSans-Bold-29" d="M 513 -844 
Q 913 -100 1113 609 
Q 1313 1319 1313 2009 
Q 1313 2700 1113 3408 
Q 913 4116 513 4856 
L 1441 4856 
Q 1916 4091 2145 3389 
Q 2375 2688 2375 2003 
Q 2375 1319 2147 623 
Q 1919 -72 1441 -844 
L 513 -844 
z
" transform="scale(0.015625)"/>
    </defs>
    <use xlink:href="#DejaVuSans-Bold-52"/>
    <use xlink:href="#DejaVuSans-Bold-65" transform="translate(77.001953 0)"/>
    <use xlink:href="#DejaVuSans-Bold-67" transform="translate(144.824219 0)"/>
    <use xlink:href="#DejaVuSans-Bold-69" transform="translate(216.40625 0)"/>
    <use xlink:href="#DejaVuSans-Bold-6f" transform="translate(250.683594 0)"/>
    <use xlink:href="#DejaVuSans-Bold-6e" transform="translate(319.384766 0)"/>
    <use xlink:href="#DejaVuSans-Bold-61" transform="translate(390.576172 0)"/>
    <use xlink:href="#DejaVuSans-Bold-6c" transform="translate(458.056641 0)"/>
    <use xlink:href="#DejaVuSans-Bold-20" transform="translate(492.333984 0)"/>
    <use xlink:href="#DejaVuSans-Bold-63" transform="translate(527.148438 0)"/>
    <use xlink:href="#DejaVuSans-Bold-6f" transform="translate(586.425781 0)"/>
    <use xlink:href="#DejaVuSans-Bold-72" transform="translate(655.126953 0)"/>
    <use xlink:href="#DejaVuSans-Bold-72" transform="translate(704.443359 0)"/>
    <use xlink:href="#DejaVuSans-Bold-65" transform="translate(753.759766 0)"/>
    <use xlink:href="#DejaVuSans-Bold-6c" transform="translate(821.582031 0)"/>
    <use xlink:href="#DejaVuSans-Bold-61" transform="translate(855.859375 0)"/>
    <use xlink:href="#DejaVuSans-Bold-74" transform="translate(923.339844 0)"/>
    <use xlink:href="#DejaVuSans-Bold-69" transform="translate(971.142578 0)"/>
    <use xlink:href="#DejaVuSans-Bold-6f" transform="translate(1005.419922 0)"/>
    <use xlink:href="#DejaVuSans-Bold-6e" transform="translate(1074.121094 0)"/>
    <use xlink:href="#DejaVuSans-Bold-20" transform="translate(1145.3125 0)"/>
    <use xlink:href="#DejaVuSans-Bold-6f" transform="translate(1180.126953 0)"/>
    <use xlink:href="#DejaVuSans-Bold-66" transform="translate(1248.828125 0)"/>
    <use xlink:href="#DejaVuSans-Bold-20" transform="translate(1292.333984 0)"/>
    <use xlink:href="#DejaVuSans-Bold-74" transform="translate(1327.148438 0)"/>
    <use xlink:href="#DejaVuSans-Bold-6f" transform="translate(1374.951172 0)"/>
    <use xlink:href="#DejaVuSans-Bold-74" transform="translate(1443.652344 0)"/>
    <use xlink:href="#DejaVuSans-Bold-61" transform="translate(1491.455078 0)"/>
    <use xlink:href="#DejaVuSans-Bold-6c" transform="translate(1558.935547 0)"/>
    <use xlink:href="#DejaVuSans-Bold-20" transform="translate(1593.212891 0)"/>
    <use xlink:href="#DejaVuSans-Bold-70" transform="translate(1628.027344 0)"/>
    <use xlink:href="#DejaVuSans-Bold-6f" transform="translate(1699.609375 0)"/>
    <use xlink:href="#DejaVuSans-Bold-70" transform="translate(1768.310547 0)"/>
    <use xlink:href="#DejaVuSans-Bold-75" transform="translate(1839.892578 0)"/>
    <use xlink:href="#DejaVuSans-Bold-6c" transform="translate(1911.083984 0)"/>
    <use xlink:href="#DejaVuSans-Bold-61" transform="translate(1945.361328 0)"/>
    <use xlink:href="#DejaVuSans-Bold-74" transform="translate(2012.841797 0)"/>
    <use xlink:href="#DejaVuSans-Bold-69" transform="translate(2060.644531 0)"/>
    <use xlink:href="#DejaVuSans-Bold-6f" transform="translate(2094.921875 0)"/>
    <use xlink:href="#DejaVuSans-Bold-6e" transform="translate(2163.623047 0)"/>
    <use xlink:href="#DejaVuSans-Bold-20" transform="translate(2234.814453 0)"/>
    <use xlink:href="#DejaVuSans-Bold-28" transform="translate(2269.628906 0)"/>
    <use xlink:href="#DejaVuSans-Bold-44" transform="translate(2315.332031 0)"/>
    <use xlink:href="#DejaVuSans-Bold-65" transform="translate(2398.339844 0)"/>
    <use xlink:href="#DejaVuSans-Bold-63" transform="translate(2466.162109 0)"/>
    <use xlink:href="#DejaVuSans-Bold-65" transform="translate(2525.439453 0)"/>
    <use xlink:href="#DejaVuSans-Bold-6e" transform="translate(2593.261719 0)"/>
    <use xlink:href="#DejaVuSans-Bold-6e" transform="translate(2664.453125 0)"/>
    <use xlink:href="#DejaVuSans-Bold-69" transform="translate(2735.644531 0)"/>
    <use xlink:href="#DejaVuSans-Bold-61" transform="translate(2769.921875 0)"/>
    <use xlink:href="#DejaVuSans-Bold-6c" transform="translate(2837.402344 0)"/>
    <use xlink:href="#DejaVuSans-Bold-20" transform="translate(2871.679688 0)"/>
    <use xlink:href="#DejaVuSans-Bold-44" transform="translate(2906.494141 0)"/>
    <use xlink:href="#DejaVuSans-Bold-61" transform="translate(2989.501953 0)"/>
    <use xlink:href="#DejaVuSans-Bold-74" transform="translate(3056.982422 0)"/>
    <use xlink:href="#DejaVuSans-Bold-61" transform="translate(3104.785156 0)"/>
    <use xlink:href="#DejaVuSans-Bold-29" transform="translate(3172.265625 0)"/>
   </g>
  </g>
  <g id="text_47">
   <!-- Edges represent strong correlation (||  0.8) of Total Population trend across 2010 and 2020. Note: Correlation is unreliable with only two time -->
   <g transform="translate(0.438281 560.28375) scale(0.1 -0.1)">
    <defs>
     <path id="DejaVuSans-45" d="M 628 4666 
L 3578 4666 
L 3578 4134 
L 1259 4134 
L 1259 2753 
L 3481 2753 
L 3481 2222 
L 1259 2222 
L 1259 531 
L 3634 531 
L 3634 0 
L 628 0 
L 628 4666 
z
" transform="scale(0.015625)"/>
     <path id="DejaVuSans-64" d="M 2906 2969 
L 2906 4863 
L 3481 4863 
L 3481 0 
L 2906 0 
L 2906 525 
Q 2725 213 2448 61 
Q 2172 -91 1784 -91 
Q 1150 -91 751 415 
Q 353 922 353 1747 
Q 353 2572 751 3078 
Q 1150 3584 1784 3584 
Q 2172 3584 2448 3432 
Q 2725 3281 2906 2969 
z
M 947 1747 
Q 947 1113 1208 752 
Q 1469 391 1925 391 
Q 2381 391 2643 752 
Q 2906 1113 2906 1747 
Q 2906 2381 2643 2742 
Q 2381 3103 1925 3103 
Q 1469 3103 1208 2742 
Q 947 2381 947 1747 
z
" transform="scale(0.015625)"/>
     <path id="DejaVuSans-67" d="M 2906 1791 
Q 2906 2416 2648 2759 
Q 2391 3103 1925 3103 
Q 1463 3103 1205 2759 
Q 947 2416 947 1791 
Q 947 1169 1205 825 
Q 1463 481 1925 481 
Q 2391 481 2648 825 
Q 2906 1169 2906 1791 
z
M 3481 434 
Q 3481 -459 3084 -895 
Q 2688 -1331 1869 -1331 
Q 1566 -1331 1297 -1286 
Q 1028 -1241 775 -1147 
L 775 -588 
Q 1028 -725 1275 -790 
Q 1522 -856 1778 -856 
Q 2344 -856 2625 -561 
Q 2906 -266 2906 331 
L 2906 616 
Q 2728 306 2450 153 
Q 2172 0 1784 0 
Q 1141 0 747 490 
Q 353 981 353 1791 
Q 353 2603 747 3093 
Q 1141 3584 1784 3584 
Q 2172 3584 2450 3431 
Q 2728 3278 2906 2969 
L 2906 3500 
L 3481 3500 
L 3481 434 
z
" transform="scale(0.015625)"/>
     <path id="DejaVuSans-65" d="M 3597 1894 
L 3597 1613 
L 953 1613 
Q 991 1019 1311 708 
Q 1631 397 2203 397 
Q 2534 397 2845 478 
Q 3156 559 3463 722 
L 3463 178 
Q 3153 47 2828 -22 
Q 2503 -91 2169 -91 
Q 1331 -91 842 396 
Q 353 884 353 1716 
Q 353 2575 817 3079 
Q 1281 3584 2069 3584 
Q 2775 3584 3186 3129 
Q 3597 2675 3597 1894 
z
M 3022 2063 
Q 3016 2534 2758 2815 
Q 2500 3097 2075 3097 
Q 1594 3097 1305 2825 
Q 1016 2553 972 2059 
L 3022 2063 
z
" transform="scale(0.015625)"/>
     <path id="DejaVuSans-73" d="M 2834 3397 
L 2834 2853 
Q 2591 2978 2328 3040 
Q 2066 3103 1784 3103 
Q 1356 3103 1142 2972 
Q 928 2841 928 2578 
Q 928 2378 1081 2264 
Q 1234 2150 1697 2047 
L 1894 2003 
Q 2506 1872 2764 1633 
Q 3022 1394 3022 966 
Q 3022 478 2636 193 
Q 2250 -91 1575 -91 
Q 1294 -91 989 -36 
Q 684 19 347 128 
L 347 722 
Q 666 556 975 473 
Q 1284 391 1588 391 
Q 1994 391 2212 530 
Q 2431 669 2431 922 
Q 2431 1156 2273 1281 
Q 2116 1406 1581 1522 
L 1381 1569 
Q 847 1681 609 1914 
Q 372 2147 372 2553 
Q 372 3047 722 3315 
Q 1072 3584 1716 3584 
Q 2034 3584 2315 3537 
Q 2597 3491 2834 3397 
z
" transform="scale(0.015625)"/>
     <path id="DejaVuSans-20" transform="scale(0.015625)"/>
     <path id="DejaVuSans-72" d="M 2631 2963 
Q 2534 3019 2420 3045 
Q 2306 3072 2169 3072 
Q 1681 3072 1420 2755 
Q 1159 2438 1159 1844 
L 1159 0 
L 581 0 
L 581 3500 
L 1159 3500 
L 1159 2956 
Q 1341 3275 1631 3429 
Q 1922 3584 2338 3584 
Q 2397 3584 2469 3576 
Q 2541 3569 2628 3553 
L 2631 2963 
z
" transform="scale(0.015625)"/>
     <path id="DejaVuSans-70" d="M 1159 525 
L 1159 -1331 
L 581 -1331 
L 581 3500 
L 1159 3500 
L 1159 2969 
Q 1341 3281 1617 3432 
Q 1894 3584 2278 3584 
Q 2916 3584 3314 3078 
Q 3713 2572 3713 1747 
Q 3713 922 3314 415 
Q 2916 -91 2278 -91 
Q 1894 -91 1617 61 
Q 1341 213 1159 525 
z
M 3116 1747 
Q 3116 2381 2855 2742 
Q 2594 3103 2138 3103 
Q 1681 3103 1420 2742 
Q 1159 2381 1159 1747 
Q 1159 1113 1420 752 
Q 1681 391 2138 391 
Q 2594 391 2855 752 
Q 3116 1113 3116 1747 
z
" transform="scale(0.015625)"/>
     <path id="DejaVuSans-6e" d="M 3513 2113 
L 3513 0 
L 2938 0 
L 2938 2094 
Q 2938 2591 2744 2837 
Q 2550 3084 2163 3084 
Q 1697 3084 1428 2787 
Q 1159 2491 1159 1978 
L 1159 0 
L 581 0 
L 581 3500 
L 1159 3500 
L 1159 2956 
Q 1366 3272 1645 3428 
Q 1925 3584 2291 3584 
Q 2894 3584 3203 3211 
Q 3513 2838 3513 2113 
z
" transform="scale(0.015625)"/>
     <path id="DejaVuSans-74" d="M 1172 4494 
L 1172 3500 
L 2356 3500 
L 2356 3053 
L 1172 3053 
L 1172 1153 
Q 1172 725 1289 603 
Q 1406 481 1766 481 
L 2356 481 
L 2356 0 
L 1766 0 
Q 1100 0 847 248 
Q 594 497 594 1153 
L 594 3053 
L 172 3053 
L 172 3500 
L 594 3500 
L 594 4494 
L 1172 4494 
z
" transform="scale(0.015625)"/>
     <path id="DejaVuSans-6f" d="M 1959 3097 
Q 1497 3097 1228 2736 
Q 959 2375 959 1747 
Q 959 1119 1226 758 
Q 1494 397 1959 397 
Q 2419 397 2687 759 
Q 2956 1122 2956 1747 
Q 2956 2369 2687 2733 
Q 2419 3097 1959 3097 
z
M 1959 3584 
Q 2709 3584 3137 3096 
Q 3566 2609 3566 1747 
Q 3566 888 3137 398 
Q 2709 -91 1959 -91 
Q 1206 -91 779 398 
Q 353 888 353 1747 
Q 353 2609 779 3096 
Q 1206 3584 1959 3584 
z
" transform="scale(0.015625)"/>
     <path id="DejaVuSans-63" d="M 3122 3366 
L 3122 2828 
Q 2878 2963 2633 3030 
Q 2388 3097 2138 3097 
Q 1578 3097 1268 2742 
Q 959 2388 959 1747 
Q 959 1106 1268 751 
Q 1578 397 2138 397 
Q 2388 397 2633 464 
Q 2878 531 3122 666 
L 3122 134 
Q 2881 22 2623 -34 
Q 2366 -91 2075 -91 
Q 1284 -91 818 406 
Q 353 903 353 1747 
Q 353 2603 823 3093 
Q 1294 3584 2113 3584 
Q 2378 3584 2631 3529 
Q 2884 3475 3122 3366 
z
" transform="scale(0.015625)"/>
     <path id="DejaVuSans-6c" d="M 603 4863 
L 1178 4863 
L 1178 0 
L 603 0 
L 603 4863 
z
" transform="scale(0.015625)"/>
     <path id="DejaVuSans-61" d="M 2194 1759 
Q 1497 1759 1228 1600 
Q 959 1441 959 1056 
Q 959 750 1161 570 
Q 1363 391 1709 391 
Q 2188 391 2477 730 
Q 2766 1069 2766 1631 
L 2766 1759 
L 2194 1759 
z
M 3341 1997 
L 3341 0 
L 2766 0 
L 2766 531 
Q 2569 213 2275 61 
Q 1981 -91 1556 -91 
Q 1019 -91 701 211 
Q 384 513 384 1019 
Q 384 1609 779 1909 
Q 1175 2209 1959 2209 
L 2766 2209 
L 2766 2266 
Q 2766 2663 2505 2880 
Q 2244 3097 1772 3097 
Q 1472 3097 1187 3025 
Q 903 2953 641 2809 
L 641 3341 
Q 956 3463 1253 3523 
Q 1550 3584 1831 3584 
Q 2591 3584 2966 3190 
Q 3341 2797 3341 1997 
z
" transform="scale(0.015625)"/>
     <path id="DejaVuSans-69" d="M 603 3500 
L 1178 3500 
L 1178 0 
L 603 0 
L 603 3500 
z
M 603 4863 
L 1178 4863 
L 1178 4134 
L 603 4134 
L 603 4863 
z
" transform="scale(0.015625)"/>
     <path id="DejaVuSans-28" d="M 1984 4856 
Q 1566 4138 1362 3434 
Q 1159 2731 1159 2009 
Q 1159 1288 1364 580 
Q 1569 -128 1984 -844 
L 1484 -844 
Q 1016 -109 783 600 
Q 550 1309 550 2009 
Q 550 2706 781 3412 
Q 1013 4119 1484 4856 
L 1984 4856 
z
" transform="scale(0.015625)"/>
     <path id="DejaVuSans-7c" d="M 1344 4891 
L 1344 -1509 
L 813 -1509 
L 813 4891 
L 1344 4891 
z
" transform="scale(0.015625)"/>
     <path id="DejaVuSans-3c1" d="M 863 2875 
Q 1053 3194 1525 3475 
Q 1709 3584 2278 3584 
Q 2916 3584 3314 3078 
Q 3713 2572 3713 1747 
Q 3713 922 3314 415 
Q 2916 -91 2278 -91 
Q 1894 -91 1617 61 
Q 1341 213 1159 525 
L 1159 -1331 
L 581 -1331 
L 581 1716 
Q 581 2438 863 2875 
z
M 3116 1747 
Q 3116 2381 2855 2742 
Q 2594 3103 2138 3103 
Q 1681 3103 1420 2742 
Q 1159 2381 1159 1747 
Q 1159 1113 1420 752 
Q 1681 391 2138 391 
Q 2594 391 2855 752 
Q 3116 1113 3116 1747 
z
" transform="scale(0.015625)"/>
     <path id="DejaVuSans-2265" d="M 678 3175 
L 678 3725 
L 4684 2578 
L 4684 2047 
L 678 897 
L 678 1453 
L 3681 2309 
L 678 3175 
z
M 4684 531 
L 4684 0 
L 678 0 
L 678 531 
L 4684 531 
z
" transform="scale(0.015625)"/>
     <path id="DejaVuSans-38" d="M 2034 2216 
Q 1584 2216 1326 1975 
Q 1069 1734 1069 1313 
Q 1069 891 1326 650 
Q 1584 409 2034 409 
Q 2484 409 2743 651 
Q 3003 894 3003 1313 
Q 3003 1734 2745 1975 
Q 2488 2216 2034 2216 
z
M 1403 2484 
Q 997 2584 770 2862 
Q 544 3141 544 3541 
Q 544 4100 942 4425 
Q 1341 4750 2034 4750 
Q 2731 4750 3128 4425 
Q 3525 4100 3525 3541 
Q 3525 3141 3298 2862 
Q 3072 2584 2669 2484 
Q 3125 2378 3379 2068 
Q 3634 1759 3634 1313 
Q 3634 634 3220 271 
Q 2806 -91 2034 -91 
Q 1263 -91 848 271 
Q 434 634 434 1313 
Q 434 1759 690 2068 
Q 947 2378 1403 2484 
z
M 1172 3481 
Q 1172 3119 1398 2916 
Q 1625 2713 2034 2713 
Q 2441 2713 2670 2916 
Q 2900 3119 2900 3481 
Q 2900 3844 2670 4047 
Q 2441 4250 2034 4250 
Q 1625 4250 1398 4047 
Q 1172 3844 1172 3481 
z
" transform="scale(0.015625)"/>
     <path id="DejaVuSans-29" d="M 513 4856 
L 1013 4856 
Q 1481 4119 1714 3412 
Q 1947 2706 1947 2009 
Q 1947 1309 1714 600 
Q 1481 -109 1013 -844 
L 513 -844 
Q 928 -128 1133 580 
Q 1338 1288 1338 2009 
Q 1338 2731 1133 3434 
Q 928 4138 513 4856 
z
" transform="scale(0.015625)"/>
     <path id="DejaVuSans-66" d="M 2375 4863 
L 2375 4384 
L 1825 4384 
Q 1516 4384 1395 4259 
Q 1275 4134 1275 3809 
L 1275 3500 
L 2222 3500 
L 2222 3053 
L 1275 3053 
L 1275 0 
L 697 0 
L 697 3053 
L 147 3053 
L 147 3500 
L 697 3500 
L 697 3744 
Q 697 4328 969 4595 
Q 1241 4863 1831 4863 
L 2375 4863 
z
" transform="scale(0.015625)"/>
     <path id="DejaVuSans-54" d="M -19 4666 
L 3928 4666 
L 3928 4134 
L 2272 4134 
L 2272 0 
L 1638 0 
L 1638 4134 
L -19 4134 
L -19 4666 
z
" transform="scale(0.015625)"/>
     <path id="DejaVuSans-50" d="M 1259 4147 
L 1259 2394 
L 2053 2394 
Q 2494 2394 2734 2622 
Q 2975 2850 2975 3272 
Q 2975 3691 2734 3919 
Q 2494 4147 2053 4147 
L 1259 4147 
z
M 628 4666 
L 2053 4666 
Q 2838 4666 3239 4311 
Q 3641 3956 3641 3272 
Q 3641 2581 3239 2228 
Q 2838 1875 2053 1875 
L 1259 1875 
L 1259 0 
L 628 0 
L 628 4666 
z
" transform="scale(0.015625)"/>
     <path id="DejaVuSans-75" d="M 544 1381 
L 544 3500 
L 1119 3500 
L 1119 1403 
Q 1119 906 1312 657 
Q 1506 409 1894 409 
Q 2359 409 2629 706 
Q 2900 1003 2900 1516 
L 2900 3500 
L 3475 3500 
L 3475 0 
L 2900 0 
L 2900 538 
Q 2691 219 2414 64 
Q 2138 -91 1772 -91 
Q 1169 -91 856 284 
Q 544 659 544 1381 
z
M 1991 3584 
L 1991 3584 
z
" transform="scale(0.015625)"/>
     <path id="DejaVuSans-32" d="M 1228 531 
L 3431 531 
L 3431 0 
L 469 0 
L 469 531 
Q 828 903 1448 1529 
Q 2069 2156 2228 2338 
Q 2531 2678 2651 2914 
Q 2772 3150 2772 3378 
Q 2772 3750 2511 3984 
Q 2250 4219 1831 4219 
Q 1534 4219 1204 4116 
Q 875 4013 500 3803 
L 500 4441 
Q 881 4594 1212 4672 
Q 1544 4750 1819 4750 
Q 2544 4750 2975 4387 
Q 3406 4025 3406 3419 
Q 3406 3131 3298 2873 
Q 3191 2616 2906 2266 
Q 2828 2175 2409 1742 
Q 1991 1309 1228 531 
z
" transform="scale(0.015625)"/>
     <path id="DejaVuSans-4e" d="M 628 4666 
L 1478 4666 
L 3547 763 
L 3547 4666 
L 4159 4666 
L 4159 0 
L 3309 0 
L 1241 3903 
L 1241 0 
L 628 0 
L 628 4666 
z
" transform="scale(0.015625)"/>
     <path id="DejaVuSans-3a" d="M 750 794 
L 1409 794 
L 1409 0 
L 750 0 
L 750 794 
z
M 750 3309 
L 1409 3309 
L 1409 2516 
L 750 2516 
L 750 3309 
z
" transform="scale(0.015625)"/>
     <path id="DejaVuSans-43" d="M 4122 4306 
L 4122 3641 
Q 3803 3938 3442 4084 
Q 3081 4231 2675 4231 
Q 1875 4231 1450 3742 
Q 1025 3253 1025 2328 
Q 1025 1406 1450 917 
Q 1875 428 2675 428 
Q 3081 428 3442 575 
Q 3803 722 4122 1019 
L 4122 359 
Q 3791 134 3420 21 
Q 3050 -91 2638 -91 
Q 1578 -91 968 557 
Q 359 1206 359 2328 
Q 359 3453 968 4101 
Q 1578 4750 2638 4750 
Q 3056 4750 3426 4639 
Q 3797 4528 4122 4306 
z
" transform="scale(0.015625)"/>
     <path id="DejaVuSans-62" d="M 3116 1747 
Q 3116 2381 2855 2742 
Q 2594 3103 2138 3103 
Q 1681 3103 1420 2742 
Q 1159 2381 1159 1747 
Q 1159 1113 1420 752 
Q 1681 391 2138 391 
Q 2594 391 2855 752 
Q 3116 1113 3116 1747 
z
M 1159 2969 
Q 1341 3281 1617 3432 
Q 1894 3584 2278 3584 
Q 2916 3584 3314 3078 
Q 3713 2572 3713 1747 
Q 3713 922 3314 415 
Q 2916 -91 2278 -91 
Q 1894 -91 1617 61 
Q 1341 213 1159 525 
L 1159 0 
L 581 0 
L 581 4863 
L 1159 4863 
L 1159 2969 
z
" transform="scale(0.015625)"/>
     <path id="DejaVuSans-77" d="M 269 3500 
L 844 3500 
L 1563 769 
L 2278 3500 
L 2956 3500 
L 3675 769 
L 4391 3500 
L 4966 3500 
L 4050 0 
L 3372 0 
L 2619 2869 
L 1863 0 
L 1184 0 
L 269 3500 
z
" transform="scale(0.015625)"/>
     <path id="DejaVuSans-68" d="M 3513 2113 
L 3513 0 
L 2938 0 
L 2938 2094 
Q 2938 2591 2744 2837 
Q 2550 3084 2163 3084 
Q 1697 3084 1428 2787 
Q 1159 2491 1159 1978 
L 1159 0 
L 581 0 
L 581 4863 
L 1159 4863 
L 1159 2956 
Q 1366 3272 1645 3428 
Q 1925 3584 2291 3584 
Q 2894 3584 3203 3211 
Q 3513 2838 3513 2113 
z
" transform="scale(0.015625)"/>
     <path id="DejaVuSans-79" d="M 2059 -325 
Q 1816 -950 1584 -1140 
Q 1353 -1331 966 -1331 
L 506 -1331 
L 506 -850 
L 844 -850 
Q 1081 -850 1212 -737 
Q 1344 -625 1503 -206 
L 1606 56 
L 191 3500 
L 800 3500 
L 1894 763 
L 2988 3500 
L 3597 3500 
L 2059 -325 
z
" transform="scale(0.015625)"/>
     <path id="DejaVuSans-6d" d="M 3328 2828 
Q 3544 3216 3844 3400 
Q 4144 3584 4550 3584 
Q 5097 3584 5394 3201 
Q 5691 2819 5691 2113 
L 5691 0 
L 5113 0 
L 5113 2094 
Q 5113 2597 4934 2840 
Q 4756 3084 4391 3084 
Q 3944 3084 3684 2787 
Q 3425 2491 3425 1978 
L 3425 0 
L 2847 0 
L 2847 2094 
Q 2847 2600 2669 2842 
Q 2491 3084 2119 3084 
Q 1678 3084 1418 2786 
Q 1159 2488 1159 1978 
L 1159 0 
L 581 0 
L 581 3500 
L 1159 3500 
L 1159 2956 
Q 1356 3278 1631 3431 
Q 1906 3584 2284 3584 
Q 2666 3584 2933 3390 
Q 3200 3197 3328 2828 
z
" transform="scale(0.015625)"/>
    </defs>
    <use xlink:href="#DejaVuSans-45"/>
    <use xlink:href="#DejaVuSans-64" transform="translate(63.183594 0)"/>
    <use xlink:href="#DejaVuSans-67" transform="translate(126.660156 0)"/>
    <use xlink:href="#DejaVuSans-65" transform="translate(190.136719 0)"/>
    <use xlink:href="#DejaVuSans-73" transform="translate(251.660156 0)"/>
    <use xlink:href="#DejaVuSans-20" transform="translate(303.759766 0)"/>
    <use xlink:href="#DejaVuSans-72" transform="translate(335.546875 0)"/>
    <use xlink:href="#DejaVuSans-65" transform="translate(374.410156 0)"/>
    <use xlink:href="#DejaVuSans-70" transform="translate(435.933594 0)"/>
    <use xlink:href="#DejaVuSans-72" transform="translate(499.410156 0)"/>
    <use xlink:href="#DejaVuSans-65" transform="translate(538.273438 0)"/>
    <use xlink:href="#DejaVuSans-73" transform="translate(599.796875 0)"/>
    <use xlink:href="#DejaVuSans-65" transform="translate(651.896484 0)"/>
    <use xlink:href="#DejaVuSans-6e" transform="translate(713.419922 0)"/>
    <use xlink:href="#DejaVuSans-74" transform="translate(776.798828 0)"/>
    <use xlink:href="#DejaVuSans-20" transform="translate(816.007812 0)"/>
    <use xlink:href="#DejaVuSans-73" transform="translate(847.794922 0)"/>
    <use xlink:href="#DejaVuSans-74" transform="translate(899.894531 0)"/>
    <use xlink:href="#DejaVuSans-72" transform="translate(939.103516 0)"/>
    <use xlink:href="#DejaVuSans-6f" transform="translate(977.966797 0)"/>
    <use xlink:href="#DejaVuSans-6e" transform="translate(1039.148438 0)"/>
    <use xlink:href="#DejaVuSans-67" transform="translate(1102.527344 0)"/>
    <use xlink:href="#DejaVuSans-20" transform="translate(1166.003906 0)"/>
    <use xlink:href="#DejaVuSans-63" transform="translate(1197.791016 0)"/>
    <use xlink:href="#DejaVuSans-6f" transform="translate(1252.771484 0)"/>
    <use xlink:href="#DejaVuSans-72" transform="translate(1313.953125 0)"/>
    <use xlink:href="#DejaVuSans-72" transform="translate(1353.316406 0)"/>
    <use xlink:href="#DejaVuSans-65" transform="translate(1392.179688 0)"/>
    <use xlink:href="#DejaVuSans-6c" transform="translate(1453.703125 0)"/>
    <use xlink:href="#DejaVuSans-61" transform="translate(1481.486328 0)"/>
    <use xlink:href="#DejaVuSans-74" transform="translate(1542.765625 0)"/>
    <use xlink:href="#DejaVuSans-69" transform="translate(1581.974609 0)"/>
    <use xlink:href="#DejaVuSans-6f" transform="translate(1609.757812 0)"/>
    <use xlink:href="#DejaVuSans-6e" transform="translate(1670.939453 0)"/>
    <use xlink:href="#DejaVuSans-20" transform="translate(1734.318359 0)"/>
    <use xlink:href="#DejaVuSans-28" transform="translate(1766.105469 0)"/>
    <use xlink:href="#DejaVuSans-7c" transform="translate(1805.119141 0)"/>
    <use xlink:href="#DejaVuSans-3c1" transform="translate(1838.810547 0)"/>
    <use xlink:href="#DejaVuSans-7c" transform="translate(1902.287109 0)"/>
    <use xlink:href="#DejaVuSans-20" transform="translate(1935.978516 0)"/>
    <use xlink:href="#DejaVuSans-2265" transform="translate(1967.765625 0)"/>
    <use xlink:href="#DejaVuSans-20" transform="translate(2051.554688 0)"/>
    <use xlink:href="#DejaVuSans-30" transform="translate(2083.341797 0)"/>
    <use xlink:href="#DejaVuSans-2e" transform="translate(2146.964844 0)"/>
    <use xlink:href="#DejaVuSans-38" transform="translate(2178.751953 0)"/>
    <use xlink:href="#DejaVuSans-29" transform="translate(2242.375 0)"/>
    <use xlink:href="#DejaVuSans-20" transform="translate(2281.388672 0)"/>
    <use xlink:href="#DejaVuSans-6f" transform="translate(2313.175781 0)"/>
    <use xlink:href="#DejaVuSans-66" transform="translate(2374.357422 0)"/>
    <use xlink:href="#DejaVuSans-20" transform="translate(2409.5625 0)"/>
    <use xlink:href="#DejaVuSans-54" transform="translate(2441.349609 0)"/>
    <use xlink:href="#DejaVuSans-6f" transform="translate(2485.433594 0)"/>
    <use xlink:href="#DejaVuSans-74" transform="translate(2546.615234 0)"/>
    <use xlink:href="#DejaVuSans-61" transform="translate(2585.824219 0)"/>
    <use xlink:href="#DejaVuSans-6c" transform="translate(2647.103516 0)"/>
    <use xlink:href="#DejaVuSans-20" transform="translate(2674.886719 0)"/>
    <use xlink:href="#DejaVuSans-50" transform="translate(2706.673828 0)"/>
    <use xlink:href="#DejaVuSans-6f" transform="translate(2763.351562 0)"/>
    <use xlink:href="#DejaVuSans-70" transform="translate(2824.533203 0)"/>
    <use xlink:href="#DejaVuSans-75" transform="translate(2888.009766 0)"/>
    <use xlink:href="#DejaVuSans-6c" transform="translate(2951.388672 0)"/>
    <use xlink:href="#DejaVuSans-61" transform="translate(2979.171875 0)"/>
    <use xlink:href="#DejaVuSans-74" transform="translate(3040.451172 0)"/>
    <use xlink:href="#DejaVuSans-69" transform="translate(3079.660156 0)"/>
    <use xlink:href="#DejaVuSans-6f" transform="translate(3107.443359 0)"/>
    <use xlink:href="#DejaVuSans-6e" transform="translate(3168.625 0)"/>
    <use xlink:href="#DejaVuSans-20" transform="translate(3232.003906 0)"/>
    <use xlink:href="#DejaVuSans-74" transform="translate(3263.791016 0)"/>
    <use xlink:href="#DejaVuSans-72" transform="translate(3303 0)"/>
    <use xlink:href="#DejaVuSans-65" transform="translate(3341.863281 0)"/>
    <use xlink:href="#DejaVuSans-6e" transform="translate(3403.386719 0)"/>
    <use xlink:href="#DejaVuSans-64" transform="translate(3466.765625 0)"/>
    <use xlink:href="#DejaVuSans-20" transform="translate(3530.242188 0)"/>
    <use xlink:href="#DejaVuSans-61" transform="translate(3562.029297 0)"/>
    <use xlink:href="#DejaVuSans-63" transform="translate(3623.308594 0)"/>
    <use xlink:href="#DejaVuSans-72" transform="translate(3678.289062 0)"/>
    <use xlink:href="#DejaVuSans-6f" transform="translate(3717.152344 0)"/>
    <use xlink:href="#DejaVuSans-73" transform="translate(3778.333984 0)"/>
    <use xlink:href="#DejaVuSans-73" transform="translate(3830.433594 0)"/>
    <use xlink:href="#DejaVuSans-20" transform="translate(3882.533203 0)"/>
    <use xlink:href="#DejaVuSans-32" transform="translate(3914.320312 0)"/>
    <use xlink:href="#DejaVuSans-30" transform="translate(3977.943359 0)"/>
    <use xlink:href="#DejaVuSans-31" transform="translate(4041.566406 0)"/>
    <use xlink:href="#DejaVuSans-30" transform="translate(4105.189453 0)"/>
    <use xlink:href="#DejaVuSans-20" transform="translate(4168.8125 0)"/>
    <use xlink:href="#DejaVuSans-61" transform="translate(4200.599609 0)"/>
    <use xlink:href="#DejaVuSans-6e" transform="translate(4261.878906 0)"/>
    <use xlink:href="#DejaVuSans-64" transform="translate(4325.257812 0)"/>
    <use xlink:href="#DejaVuSans-20" transform="translate(4388.734375 0)"/>
    <use xlink:href="#DejaVuSans-32" transform="translate(4420.521484 0)"/>
    <use xlink:href="#DejaVuSans-30" transform="translate(4484.144531 0)"/>
    <use xlink:href="#DejaVuSans-32" transform="translate(4547.767578 0)"/>
    <use xlink:href="#DejaVuSans-30" transform="translate(4611.390625 0)"/>
    <use xlink:href="#DejaVuSans-2e" transform="translate(4675.013672 0)"/>
    <use xlink:href="#DejaVuSans-20" transform="translate(4706.800781 0)"/>
    <use xlink:href="#DejaVuSans-4e" transform="translate(4738.587891 0)"/>
    <use xlink:href="#DejaVuSans-6f" transform="translate(4813.392578 0)"/>
    <use xlink:href="#DejaVuSans-74" transform="translate(4874.574219 0)"/>
    <use xlink:href="#DejaVuSans-65" transform="translate(4913.783203 0)"/>
    <use xlink:href="#DejaVuSans-3a" transform="translate(4975.306641 0)"/>
    <use xlink:href="#DejaVuSans-20" transform="translate(5008.998047 0)"/>
    <use xlink:href="#DejaVuSans-43" transform="translate(5040.785156 0)"/>
    <use xlink:href="#DejaVuSans-6f" transform="translate(5110.609375 0)"/>
    <use xlink:href="#DejaVuSans-72" transform="translate(5171.791016 0)"/>
    <use xlink:href="#DejaVuSans-72" transform="translate(5211.154297 0)"/>
    <use xlink:href="#DejaVuSans-65" transform="translate(5250.017578 0)"/>
    <use xlink:href="#DejaVuSans-6c" transform="translate(5311.541016 0)"/>
    <use xlink:href="#DejaVuSans-61" transform="translate(5339.324219 0)"/>
    <use xlink:href="#DejaVuSans-74" transform="translate(5400.603516 0)"/>
    <use xlink:href="#DejaVuSans-69" transform="translate(5439.8125 0)"/>
    <use xlink:href="#DejaVuSans-6f" transform="translate(5467.595703 0)"/>
    <use xlink:href="#DejaVuSans-6e" transform="translate(5528.777344 0)"/>
    <use xlink:href="#DejaVuSans-20" transform="translate(5592.15625 0)"/>
    <use xlink:href="#DejaVuSans-69" transform="translate(5623.943359 0)"/>
    <use xlink:href="#DejaVuSans-73" transform="translate(5651.726562 0)"/>
    <use xlink:href="#DejaVuSans-20" transform="translate(5703.826172 0)"/>
    <use xlink:href="#DejaVuSans-75" transform="translate(5735.613281 0)"/>
    <use xlink:href="#DejaVuSans-6e" transform="translate(5798.992188 0)"/>
    <use xlink:href="#DejaVuSans-72" transform="translate(5862.371094 0)"/>
    <use xlink:href="#DejaVuSans-65" transform="translate(5901.234375 0)"/>
    <use xlink:href="#DejaVuSans-6c" transform="translate(5962.757812 0)"/>
    <use xlink:href="#DejaVuSans-69" transform="translate(5990.541016 0)"/>
    <use xlink:href="#DejaVuSans-61" transform="translate(6018.324219 0)"/>
    <use xlink:href="#DejaVuSans-62" transform="translate(6079.603516 0)"/>
    <use xlink:href="#DejaVuSans-6c" transform="translate(6143.080078 0)"/>
    <use xlink:href="#DejaVuSans-65" transform="translate(6170.863281 0)"/>
    <use xlink:href="#DejaVuSans-20" transform="translate(6232.386719 0)"/>
    <use xlink:href="#DejaVuSans-77" transform="translate(6264.173828 0)"/>
    <use xlink:href="#DejaVuSans-69" transform="translate(6345.960938 0)"/>
    <use xlink:href="#DejaVuSans-74" transform="translate(6373.744141 0)"/>
    <use xlink:href="#DejaVuSans-68" transform="translate(6412.953125 0)"/>
    <use xlink:href="#DejaVuSans-20" transform="translate(6476.332031 0)"/>
    <use xlink:href="#DejaVuSans-6f" transform="translate(6508.119141 0)"/>
    <use xlink:href="#DejaVuSans-6e" transform="translate(6569.300781 0)"/>
    <use xlink:href="#DejaVuSans-6c" transform="translate(6632.679688 0)"/>
    <use xlink:href="#DejaVuSans-79" transform="translate(6660.462891 0)"/>
    <use xlink:href="#DejaVuSans-20" transform="translate(6719.642578 0)"/>
    <use xlink:href="#DejaVuSans-74" transform="translate(6751.429688 0)"/>
    <use xlink:href="#DejaVuSans-77" transform="translate(6790.638672 0)"/>
    <use xlink:href="#DejaVuSans-6f" transform="translate(6872.425781 0)"/>
    <use xlink:href="#DejaVuSans-20" transform="translate(6933.607422 0)"/>
    <use xlink:href="#DejaVuSans-74" transform="translate(6965.394531 0)"/>
    <use xlink:href="#DejaVuSans-69" transform="translate(7004.603516 0)"/>
    <use xlink:href="#DejaVuSans-6d" transform="translate(7032.386719 0)"/>
    <use xlink:href="#DejaVuSans-65" transform="translate(7129.798828 0)"/>
   </g>
   <!-- points. -->
   <g transform="translate(343.054688 571.759688) scale(0.1 -0.1)">
    <use xlink:href="#DejaVuSans-70"/>
    <use xlink:href="#DejaVuSans-6f" transform="translate(63.476562 0)"/>
    <use xlink:href="#DejaVuSans-69" transform="translate(124.658203 0)"/>
    <use xlink:href="#DejaVuSans-6e" transform="translate(152.441406 0)"/>
    <use xlink:href="#DejaVuSans-74" transform="translate(215.820312 0)"/>
    <use xlink:href="#DejaVuSans-73" transform="translate(255.029297 0)"/>
    <use xlink:href="#DejaVuSans-2e" transform="translate(307.128906 0)"/>
   </g>
  </g>
 </g>
 <defs>
  <clipPath id="pca3b4e4bbb">
   <rect x="90" y="69.12" width="558" height="443.52"/>
  </clipPath>
 </defs>
</svg>
